<?xml version="1.0" encoding="UTF-8"?>
<svg version="1.1" xmlns="http://www.w3.org/2000/svg" width="51" height="36">
<path d="M0 0 C5.94 0 11.88 0 18 0 C18 0.99 18 1.98 18 3 C18.99 3 19.98 3 21 3 C21 3.99 21 4.98 21 6 C21.99 6 22.98 6 24 6 C24 6.99 24 7.98 24 9 C24.99 9 25.98 9 27 9 C27 11.97 27 14.94 27 18 C27.99 18 28.98 18 30 18 C30 18.99 30 19.98 30 21 C30.99 21 31.98 21 33 21 C33 21.99 33 22.98 33 24 C32.01 24 31.02 24 30 24 C30 25.98 30 27.96 30 30 C29.01 30 28.02 30 27 30 C27 30.99 27 31.98 27 33 C22.05 33 17.1 33 12 33 C12 33.99 12 34.98 12 36 C7.05 36 2.1 36 -3 36 C-3 35.01 -3 34.02 -3 33 C-4.98 33 -6.96 33 -9 33 C-9 32.01 -9 31.02 -9 30 C-9.99 30 -10.98 30 -12 30 C-12 29.01 -12 28.02 -12 27 C-12.99 27 -13.98 27 -15 27 C-15 26.01 -15 25.02 -15 24 C-15.99 24 -16.98 24 -18 24 C-18 22.02 -18 20.04 -18 18 C-17.01 18 -16.02 18 -15 18 C-15 16.02 -15 14.04 -15 12 C-14.01 12 -13.02 12 -12 12 C-12 11.01 -12 10.02 -12 9 C-11.01 9 -10.02 9 -9 9 C-9 8.01 -9 7.02 -9 6 C-8.01 6 -7.02 6 -6 6 C-6 5.01 -6 4.02 -6 3 C-4.02 3 -2.04 3 0 3 C0 2.01 0 1.02 0 0 Z " fill="#E44123" transform="translate(18,0)"/>
<path d="M0 0 C0.99 0 1.98 0 3 0 C3 1.98 3 3.96 3 6 C4.98 6 6.96 6 9 6 C9 6.99 9 7.98 9 9 C9.99 9 10.98 9 12 9 C12 8.01 12 7.02 12 6 C17.94 6 23.88 6 30 6 C30 7.98 30 9.96 30 12 C29.01 12 28.02 12 27 12 C27 12.99 27 13.98 27 15 C22.05 15 17.1 15 12 15 C12 15.99 12 16.98 12 18 C7.05 18 2.1 18 -3 18 C-3 17.01 -3 16.02 -3 15 C-4.98 15 -6.96 15 -9 15 C-9 14.01 -9 13.02 -9 12 C-9.99 12 -10.98 12 -12 12 C-12 11.01 -12 10.02 -12 9 C-12.99 9 -13.98 9 -15 9 C-15 8.01 -15 7.02 -15 6 C-10.05 6 -5.1 6 0 6 C0 4.02 0 2.04 0 0 Z " fill="#BF311B" transform="translate(18,18)"/>
<path d="M0 0 C2.97 0 5.94 0 9 0 C9 0.99 9 1.98 9 3 C9.99 3 10.98 3 12 3 C12 6.96 12 10.92 12 15 C8.04 15 4.08 15 0 15 C0 14.01 0 13.02 0 12 C-0.99 12 -1.98 12 -3 12 C-3 9.03 -3 6.06 -3 3 C-2.01 3 -1.02 3 0 3 C0 2.01 0 1.02 0 0 Z " fill="#E5E3E3" transform="translate(30,3)"/>
<path d="M0 0 C5.94 0 11.88 0 18 0 C18 1.98 18 3.96 18 6 C12.06 6 6.12 6 0 6 C0 4.02 0 2.04 0 0 Z " fill="#F3F5F1" transform="translate(0,18)"/>
<path d="M0 0 C0.99 0 1.98 0 3 0 C3 2.97 3 5.94 3 9 C3.99 9 4.98 9 6 9 C6 9.99 6 10.98 6 12 C0.06 12 -5.88 12 -12 12 C-12 11.01 -12 10.02 -12 9 C-8.04 9 -4.08 9 0 9 C0 6.03 0 3.06 0 0 Z " fill="#523846" transform="translate(42,9)"/>
<path d="M0 0 C5.94 0 11.88 0 18 0 C18 1.98 18 3.96 18 6 C17.01 6 16.02 6 15 6 C15 5.01 15 4.02 15 3 C10.05 3 5.1 3 0 3 C0 2.01 0 1.02 0 0 Z " fill="#523846" transform="translate(30,24)"/>
<path d="M0 0 C6.93 0 13.86 0 21 0 C21 0.99 21 1.98 21 3 C14.07 3 7.14 3 0 3 C0 2.01 0 1.02 0 0 Z " fill="#DFA443" transform="translate(30,21)"/>
<path d="M0 0 C5.94 0 11.88 0 18 0 C18 0.99 18 1.98 18 3 C16.02 3 14.04 3 12 3 C12 3.99 12 4.98 12 6 C11.01 6 10.02 6 9 6 C9 5.01 9 4.02 9 3 C6.03 3 3.06 3 0 3 C0 2.01 0 1.02 0 0 Z " fill="#523846" transform="translate(18,0)"/>
<path d="M0 0 C4.95 0 9.9 0 15 0 C15 0.99 15 1.98 15 3 C12.03 3 9.06 3 6 3 C6 3.99 6 4.98 6 6 C5.01 6 4.02 6 3 6 C3 5.01 3 4.02 3 3 C2.01 3 1.02 3 0 3 C0 2.01 0 1.02 0 0 Z " fill="#523846" transform="translate(3,24)"/>
<path d="M0 0 C0.99 0 1.98 0 3 0 C3 0.99 3 1.98 3 3 C6.96 3 10.92 3 15 3 C15 3.99 15 4.98 15 6 C10.05 6 5.1 6 0 6 C0 4.02 0 2.04 0 0 Z " fill="#523846" transform="translate(3,12)"/>
<path d="M0 0 C4.95 0 9.9 0 15 0 C15 0.99 15 1.98 15 3 C10.05 3 5.1 3 0 3 C0 2.01 0 1.02 0 0 Z " fill="#523846" transform="translate(15,33)"/>
<path d="M0 0 C4.95 0 9.9 0 15 0 C15 0.99 15 1.98 15 3 C10.05 3 5.1 3 0 3 C0 2.01 0 1.02 0 0 Z " fill="#523846" transform="translate(30,30)"/>
<path d="M0 0 C4.95 0 9.9 0 15 0 C15 0.99 15 1.98 15 3 C10.05 3 5.1 3 0 3 C0 2.01 0 1.02 0 0 Z " fill="#F7B643" transform="translate(30,27)"/>
<path d="M0 0 C1.98 0 3.96 0 6 0 C6 1.98 6 3.96 6 6 C3.03 6 0.06 6 -3 6 C-3 5.01 -3 4.02 -3 3 C-2.01 3 -1.02 3 0 3 C0 2.01 0 1.02 0 0 Z " fill="#C15F31" transform="translate(12,3)"/>
<path d="M0 0 C0.99 0 1.98 0 3 0 C3 2.97 3 5.94 3 9 C2.01 9 1.02 9 0 9 C0 6.03 0 3.06 0 0 Z " fill="#523846" transform="translate(24,6)"/>
<path d="M0 0 C2.97 0 5.94 0 9 0 C9 0.99 9 1.98 9 3 C6.03 3 3.06 3 0 3 C0 2.01 0 1.02 0 0 Z " fill="#F97327" transform="translate(18,3)"/>
<path d="M0 0 C1.98 0 3.96 0 6 0 C6 0.99 6 1.98 6 3 C4.02 3 2.04 3 0 3 C0 2.01 0 1.02 0 0 Z " fill="#523846" transform="translate(9,30)"/>
<path d="M0 0 C0.99 0 1.98 0 3 0 C3 1.98 3 3.96 3 6 C2.01 6 1.02 6 0 6 C0 4.02 0 2.04 0 0 Z " fill="#523846" transform="translate(18,18)"/>
<path d="M0 0 C0.99 0 1.98 0 3 0 C3 1.98 3 3.96 3 6 C2.01 6 1.02 6 0 6 C0 4.02 0 2.04 0 0 Z " fill="#523846" transform="translate(0,18)"/>
<path d="M0 0 C0.99 0 1.98 0 3 0 C3 1.98 3 3.96 3 6 C2.01 6 1.02 6 0 6 C0 4.02 0 2.04 0 0 Z " fill="#523846" transform="translate(36,9)"/>
<path d="M0 0 C0.99 0 1.98 0 3 0 C3 1.98 3 3.96 3 6 C2.01 6 1.02 6 0 6 C0 4.02 0 2.04 0 0 Z " fill="#D7E5CD" transform="translate(27,9)"/>
<path d="M0 0 C1.98 0 3.96 0 6 0 C6 0.99 6 1.98 6 3 C4.02 3 2.04 3 0 3 C0 2.01 0 1.02 0 0 Z " fill="#523846" transform="translate(12,3)"/>
</svg>
