<?xml version="1.0" encoding="UTF-8"?>
<svg version="1.1" xmlns="http://www.w3.org/2000/svg" width="34" height="24">
<path d="M0 0 C3.96 0 7.92 0 12 0 C12 0.66 12 1.32 12 2 C12.66 2 13.32 2 14 2 C14 2.66 14 3.32 14 4 C14.66 4 15.32 4 16 4 C16 4.66 16 5.32 16 6 C16.66 6 17.32 6 18 6 C18 7.98 18 9.96 18 12 C18.66 12 19.32 12 20 12 C20 12.66 20 13.32 20 14 C20.66 14 21.32 14 22 14 C22 14.66 22 15.32 22 16 C21.34 16 20.68 16 20 16 C20 17.32 20 18.64 20 20 C19.34 20 18.68 20 18 20 C18 20.66 18 21.32 18 22 C14.7 22 11.4 22 8 22 C8 22.66 8 23.32 8 24 C4.7 24 1.4 24 -2 24 C-2 23.34 -2 22.68 -2 22 C-4.64 22 -7.28 22 -10 22 C-10 21.34 -10 20.68 -10 20 C-10.66 20 -11.32 20 -12 20 C-12 18.02 -12 16.04 -12 14 C-11.34 14 -10.68 14 -10 14 C-10 12.02 -10 10.04 -10 8 C-9.34 8 -8.68 8 -8 8 C-8 7.34 -8 6.68 -8 6 C-7.34 6 -6.68 6 -6 6 C-6 5.34 -6 4.68 -6 4 C-5.34 4 -4.68 4 -4 4 C-4 3.34 -4 2.68 -4 2 C-2.68 2 -1.36 2 0 2 C0 1.34 0 0.68 0 0 Z " fill="#4DAEDE" transform="translate(12,0)"/>
<path d="M0 0 C0.66 0 1.32 0 2 0 C2 1.98 2 3.96 2 6 C2.66 6 3.32 6 4 6 C4 6.66 4 7.32 4 8 C4.66 8 5.32 8 6 8 C6 8.66 6 9.32 6 10 C5.34 10 4.68 10 4 10 C4 11.32 4 12.64 4 14 C3.34 14 2.68 14 2 14 C2 14.66 2 15.32 2 16 C-1.3 16 -4.6 16 -8 16 C-8 16.66 -8 17.32 -8 18 C-11.3 18 -14.6 18 -18 18 C-18 17.34 -18 16.68 -18 16 C-20.64 16 -23.28 16 -26 16 C-26 15.34 -26 14.68 -26 14 C-24.02 14 -22.04 14 -20 14 C-20 13.34 -20 12.68 -20 12 C-19.34 12 -18.68 12 -18 12 C-18 11.34 -18 10.68 -18 10 C-17.34 10 -16.68 10 -16 10 C-16 9.34 -16 8.68 -16 8 C-15.34 8 -14.68 8 -14 8 C-14 8.66 -14 9.32 -14 10 C-12.68 10 -11.36 10 -10 10 C-10 9.34 -10 8.68 -10 8 C-9.34 8 -8.68 8 -8 8 C-8 7.34 -8 6.68 -8 6 C-5.36 6 -2.72 6 0 6 C0 4.02 0 2.04 0 0 Z " fill="#C75821" transform="translate(28,6)"/>
<path d="M0 0 C0.66 0 1.32 0 2 0 C2 0.66 2 1.32 2 2 C3.32 2 4.64 2 6 2 C6 3.32 6 4.64 6 6 C9.96 6 13.92 6 18 6 C18 6.66 18 7.32 18 8 C14.7 8 11.4 8 8 8 C8 8.66 8 9.32 8 10 C4.7 10 1.4 10 -2 10 C-2 9.34 -2 8.68 -2 8 C-4.64 8 -7.28 8 -10 8 C-10 7.34 -10 6.68 -10 6 C-8.02 6 -6.04 6 -4 6 C-4 5.34 -4 4.68 -4 4 C-3.34 4 -2.68 4 -2 4 C-2 3.34 -2 2.68 -2 2 C-1.34 2 -0.68 2 0 2 C0 1.34 0 0.68 0 0 Z " fill="#4A6986" transform="translate(12,14)"/>
<path d="M0 0 C1.98 0 3.96 0 6 0 C6 0.66 6 1.32 6 2 C6.66 2 7.32 2 8 2 C8 4.64 8 7.28 8 10 C5.36 10 2.72 10 0 10 C0 9.34 0 8.68 0 8 C-0.66 8 -1.32 8 -2 8 C-2 6.02 -2 4.04 -2 2 C-1.34 2 -0.68 2 0 2 C0 1.34 0 0.68 0 0 Z " fill="#D6D4D3" transform="translate(20,2)"/>
<path d="M0 0 C3.96 0 7.92 0 12 0 C12 0.66 12 1.32 12 2 C11.34 2 10.68 2 10 2 C10 2.66 10 3.32 10 4 C9.34 4 8.68 4 8 4 C8 4.66 8 5.32 8 6 C5.36 6 2.72 6 0 6 C0 4.02 0 2.04 0 0 Z " fill="#D9CCBE" transform="translate(0,14)"/>
<path d="M0 0 C0.66 0 1.32 0 2 0 C2 1.98 2 3.96 2 6 C2.66 6 3.32 6 4 6 C4 6.66 4 7.32 4 8 C0.04 8 -3.92 8 -8 8 C-8 7.34 -8 6.68 -8 6 C-5.36 6 -2.72 6 0 6 C0 4.02 0 2.04 0 0 Z " fill="#533846" transform="translate(28,6)"/>
<path d="M0 0 C3.96 0 7.92 0 12 0 C12 1.32 12 2.64 12 4 C11.34 4 10.68 4 10 4 C10 3.34 10 2.68 10 2 C6.7 2 3.4 2 0 2 C0 1.34 0 0.68 0 0 Z " fill="#533846" transform="translate(20,16)"/>
<path d="M0 0 C0.66 0 1.32 0 2 0 C2 1.32 2 2.64 2 4 C4.64 4 7.28 4 10 4 C10 4.66 10 5.32 10 6 C6.7 6 3.4 6 0 6 C0 4.02 0 2.04 0 0 Z " fill="#533846" transform="translate(2,8)"/>
<path d="M0 0 C3.96 0 7.92 0 12 0 C12 0.66 12 1.32 12 2 C10.68 2 9.36 2 8 2 C8 2.66 8 3.32 8 4 C7.34 4 6.68 4 6 4 C6 3.34 6 2.68 6 2 C4.02 2 2.04 2 0 2 C0 1.34 0 0.68 0 0 Z " fill="#533846" transform="translate(12,0)"/>
<path d="M0 0 C0.66 0 1.32 0 2 0 C2 1.32 2 2.64 2 4 C-0.64 4 -3.28 4 -6 4 C-6 3.34 -6 2.68 -6 2 C-4.02 2 -2.04 2 0 2 C0 1.34 0 0.68 0 0 Z " fill="#533846" transform="translate(8,18)"/>
<path d="M0 0 C1.32 0 2.64 0 4 0 C4 1.32 4 2.64 4 4 C2.02 4 0.04 4 -2 4 C-2 3.34 -2 2.68 -2 2 C-1.34 2 -0.68 2 0 2 C0 1.34 0 0.68 0 0 Z " fill="#537590" transform="translate(8,2)"/>
</svg>
