<?xml version="1.0" encoding="UTF-8"?>
<svg version="1.1" xmlns="http://www.w3.org/2000/svg" width="1920" height="1080">
<path d="M0 0 C53.46 0 106.92 0 162 0 C162 3.63 162 7.26 162 11 C134.61 11 107.22 11 79 11 C79 12.65 79 14.3 79 16 C79.99 16 80.98 16 82 16 C82 17.32 82 18.64 82 20 C81.01 20 80.02 20 79 20 C79 21.32 79 22.64 79 24 C79.99 24 80.98 24 82 24 C82 25.32 82 26.64 82 28 C80.00045254 28.04254356 77.99958364 28.04080783 76 28 C75 27 75 27 74.9375 23.4375 C74.958125 22.303125 74.97875 21.16875 75 20 C74.34 20 73.68 20 73 20 C73 18.68 73 17.36 73 16 C73.66 16 74.32 16 75 16 C75.33 14.35 75.66 12.7 76 11 C65.44 11 54.88 11 44 11 C44 12.65 44 14.3 44 16 C44.99 16 45.98 16 47 16 C47 17.32 47 18.64 47 20 C46.01 20 45.02 20 44 20 C44 21.32 44 22.64 44 24 C44.99 24 45.98 24 47 24 C47 25.32 47 26.64 47 28 C45.00045254 28.04254356 42.99958364 28.04080783 41 28 C40 27 40 27 39.9375 23.4375 C39.958125 22.303125 39.97875 21.16875 40 20 C39.34 20 38.68 20 38 20 C38 18.68 38 17.36 38 16 C38.66 16 39.32 16 40 16 C40.33 14.35 40.66 12.7 41 11 C28.13 11 15.26 11 2 11 C2 12.65 2 14.3 2 16 C3.32 16 4.64 16 6 16 C6 17.32 6 18.64 6 20 C4.68 20 3.36 20 2 20 C2 21.32 2 22.64 2 24 C3.32 24 4.64 24 6 24 C6 25.32 6 26.64 6 28 C0.25 28.125 0.25 28.125 -2 27 C-2.44921875 24.6015625 -2.44921875 24.6015625 -2.6875 21.625 C-2.77386719 20.64789062 -2.86023438 19.67078125 -2.94921875 18.6640625 C-3 16 -3 16 -2 13 C-1.34 13 -0.68 13 0 13 C0 8.71 0 4.42 0 0 Z " fill="#FFFFFF" transform="translate(1000,567)"/>
<path d="M0 0 C11.22 0 22.44 0 34 0 C34 1.98 34 3.96 34 6 C35.98 6 37.96 6 40 6 C40 11.61 40 17.22 40 23 C38.02 23 36.04 23 34 23 C34 24.65 34 26.3 34 28 C35.98 28 37.96 28 40 28 C40 35.59 40 43.18 40 51 C38.02 51 36.04 51 34 51 C34 52.65 34 54.3 34 56 C22.78 56 11.56 56 0 56 C0 37.52 0 19.04 0 0 Z M12 12 C12 15.3 12 18.6 12 22 C17.28 22 22.56 22 28 22 C28 18.7 28 15.4 28 12 C22.72 12 17.44 12 12 12 Z M12 34 C12 37.3 12 40.6 12 44 C17.28 44 22.56 44 28 44 C28 40.7 28 37.4 28 34 C22.72 34 17.44 34 12 34 Z " fill="#FFFFFF" transform="translate(1017,506)"/>
<path d="M0 0 C9.57 0 19.14 0 29 0 C29 1.98 29 3.96 29 6 C30.98 6 32.96 6 35 6 C35 9.96 35 13.92 35 18 C30.71 18 26.42 18 22 18 C22 16.02 22 14.04 22 12 C17.05 12 12.1 12 7 12 C7 15.3 7 18.6 7 22 C14.26 22 21.52 22 29 22 C29 23.98 29 25.96 29 28 C30.98 28 32.96 28 35 28 C35 35.59 35 43.18 35 51 C33.02 51 31.04 51 29 51 C29 52.65 29 54.3 29 56 C19.43 56 9.86 56 0 56 C0 54.35 0 52.7 0 51 C-1.65 51 -3.3 51 -5 51 C-5 47.04 -5 43.08 -5 39 C-1.04 39 2.92 39 7 39 C7 40.65 7 42.3 7 44 C11.95 44 16.9 44 22 44 C22 40.7 22 37.4 22 34 C14.74 34 7.48 34 0 34 C0 32.35 0 30.7 0 29 C-1.65 29 -3.3 29 -5 29 C-5 21.41 -5 13.82 -5 6 C-3.35 6 -1.7 6 0 6 C0 4.02 0 2.04 0 0 Z " fill="#FFFFFF" transform="translate(762,506)"/>
<path d="M0 0 C3.96 0 7.92 0 12 0 C12 1.98 12 3.96 12 6 C13.32 6 14.64 6 16 6 C16 4.02 16 2.04 16 0 C21.94 0 27.88 0 34 0 C34 1.98 34 3.96 34 6 C35.98 6 37.96 6 40 6 C40 17.22 40 28.44 40 40 C38.02 40 36.04 40 34 40 C34 41.65 34 43.3 34 45 C26.74 45 19.48 45 12 45 C12 48.96 12 52.92 12 57 C8.04 57 4.08 57 0 57 C0 38.19 0 19.38 0 0 Z M12 12 C12 18.93 12 25.86 12 33 C16.95 33 21.9 33 27 33 C27 26.07 27 19.14 27 12 C22.05 12 17.1 12 12 12 Z " fill="#FFFFFF" transform="translate(890,517)"/>
<path d="M0 0 C40.59 0 81.18 0 123 0 C123 3.63 123 7.26 123 11 C111.78 11 100.56 11 89 11 C89 11.66 89 12.32 89 13 C89.66 13 90.32 13 91 13 C91 15.97 91 18.94 91 22 C90.34 22 89.68 22 89 22 C89 22.66 89 23.32 89 24 C87.02 24 85.04 24 83 24 C83 25.32 83 26.64 83 28 C81.35 28 79.7 28 78 28 C78 22.39 78 16.78 78 11 C52.26 11 26.52 11 0 11 C0 7.37 0 3.74 0 0 Z M83 15 C83 16.32 83 17.64 83 19 C84.32 19 85.64 19 87 19 C87 17.68 87 16.36 87 15 C85.68 15 84.36 15 83 15 Z " fill="#FFFFFF" transform="translate(757,567)"/>
<path d="M0 0 C3.96 0 7.92 0 12 0 C12 1.98 12 3.96 12 6 C13.65 6 15.3 6 17 6 C17 4.02 17 2.04 17 0 C22.61 0 28.22 0 34 0 C34 1.98 34 3.96 34 6 C35.98 6 37.96 6 40 6 C40 17.22 40 28.44 40 40 C38.02 40 36.04 40 34 40 C34 41.65 34 43.3 34 45 C26.74 45 19.48 45 12 45 C12 48.96 12 52.92 12 57 C8.04 57 4.08 57 0 57 C0 38.19 0 19.38 0 0 Z M12 12 C12 18.93 12 25.86 12 33 C17.28 33 22.56 33 28 33 C28 26.07 28 19.14 28 12 C22.72 12 17.44 12 12 12 Z " fill="#FFFFFF" transform="translate(934,517)"/>
<path d="M0 0 C3.96 0 7.92 0 12 0 C12 18.48 12 36.96 12 56 C8.04 56 4.08 56 0 56 C0 54.35 0 52.7 0 51 C-1.65 51 -3.3 51 -5 51 C-5 52.65 -5 54.3 -5 56 C-10.61 56 -16.22 56 -22 56 C-22 54.35 -22 52.7 -22 51 C-23.98 51 -25.96 51 -28 51 C-28 39.78 -28 28.56 -28 17 C-26.02 17 -24.04 17 -22 17 C-22 15.02 -22 13.04 -22 11 C-14.74 11 -7.48 11 0 11 C0 7.37 0 3.74 0 0 Z M-16 23 C-16 29.93 -16 36.86 -16 44 C-10.72 44 -5.44 44 0 44 C0 37.07 0 30.14 0 23 C-5.28 23 -10.56 23 -16 23 Z " fill="#FFFFFF" transform="translate(1145,506)"/>
<path d="M0 0 C9.57 0 19.14 0 29 0 C29 1.98 29 3.96 29 6 C30.65 6 32.3 6 34 6 C34 18.87 34 31.74 34 45 C30.04 45 26.08 45 22 45 C22 43.35 22 41.7 22 40 C20.68 40 19.36 40 18 40 C18 41.65 18 43.3 18 45 C12.06 45 6.12 45 0 45 C0 43.35 0 41.7 0 40 C-1.65 40 -3.3 40 -5 40 C-5 34.06 -5 28.12 -5 22 C-3.35 22 -1.7 22 0 22 C0 20.35 0 18.7 0 17 C7.26 17 14.52 17 22 17 C22 15.35 22 13.7 22 12 C13.09 12 4.18 12 -5 12 C-5 10.02 -5 8.04 -5 6 C-3.35 6 -1.7 6 0 6 C0 4.02 0 2.04 0 0 Z M7 29 C7 30.32 7 31.64 7 33 C11.95 33 16.9 33 22 33 C22 31.68 22 30.36 22 29 C17.05 29 12.1 29 7 29 Z " fill="#FFFFFF" transform="translate(851,517)"/>
<path d="M0 0 C3.96 0 7.92 0 12 0 C12 7.26 12 14.52 12 22 C13.65 22 15.3 22 17 22 C17 23.98 17 25.96 17 28 C18.65 28 20.3 28 22 28 C22 18.76 22 9.52 22 0 C25.96 0 29.92 0 34 0 C34 11.22 34 22.44 34 34 C32.02 34 30.04 34 28 34 C28 35.98 28 37.96 28 40 C26.35 40 24.7 40 23 40 C23 41.65 23 43.3 23 45 C21.02 45 19.04 45 17 45 C17 46.98 17 48.96 17 51 C15.35 51 13.7 51 12 51 C12 52.98 12 54.96 12 57 C8.04 57 4.08 57 0 57 C0 53.04 0 49.08 0 45 C1.65 45 3.3 45 5 45 C5 43.02 5 41.04 5 39 C6.98 39 8.96 39 11 39 C11 37.35 11 35.7 11 34 C9.02 34 7.04 34 5 34 C5 32.35 5 30.7 5 29 C3.35 29 1.7 29 0 29 C0 19.43 0 9.86 0 0 Z " fill="#FFFFFF" transform="translate(979,517)"/>
<path d="M0 0 C3.96 0 7.92 0 12 0 C12 1.98 12 3.96 12 6 C13.65 6 15.3 6 17 6 C17 4.02 17 2.04 17 0 C22.61 0 28.22 0 34 0 C34 1.98 34 3.96 34 6 C35.98 6 37.96 6 40 6 C40 18.87 40 31.74 40 45 C36.04 45 32.08 45 28 45 C28 34.11 28 23.22 28 12 C22.72 12 17.44 12 12 12 C12 22.89 12 33.78 12 45 C8.04 45 4.08 45 0 45 C0 30.15 0 15.3 0 0 Z " fill="#FFFFFF" transform="translate(801,517)"/>
<path d="M0 0 C3.96 0 7.92 0 12 0 C12 1.98 12 3.96 12 6 C13.65 6 15.3 6 17 6 C17 4.02 17 2.04 17 0 C20.96 0 24.92 0 29 0 C29 1.98 29 3.96 29 6 C30.65 6 32.3 6 34 6 C34 7.98 34 9.96 34 12 C32.35 12 30.7 12 29 12 C29 13.98 29 15.96 29 18 C26.69 18 24.38 18 22 18 C22 16.02 22 14.04 22 12 C20.68 12 19.36 12 18 12 C18 13.98 18 15.96 18 18 C16.02 18 14.04 18 12 18 C12 26.91 12 35.82 12 45 C8.04 45 4.08 45 0 45 C0 30.15 0 15.3 0 0 Z " fill="#FFFFFF" transform="translate(1078,517)"/>
<path d="M0 0 C3.96 0 7.92 0 12 0 C12 12.87 12 25.74 12 39 C8.04 39 4.08 39 0 39 C0 26.13 0 13.26 0 0 Z " fill="#FFFFFF" transform="translate(1062,523)"/>
<path d="M0 0 C4.29 0 8.58 0 13 0 C13.125 10.75 13.125 10.75 12 13 C12.66 13 13.32 13 14 13 C14 14.32 14 15.64 14 17 C12.68 17 11.36 17 10 17 C10 16.34 10 15.68 10 15 C8.68 15 7.36 15 6 15 C6 15.99 6 16.98 6 18 C6.94875 17.979375 7.8975 17.95875 8.875 17.9375 C12 18 12 18 14 19 C14 21.64 14 24.28 14 27 C11.59454362 28.20272819 10.05003047 28.10071472 7.375 28.0625 C6.14910156 28.04896484 6.14910156 28.04896484 4.8984375 28.03515625 C4.27195312 28.02355469 3.64546875 28.01195312 3 28 C2.67 26.35 2.34 24.7 2 23 C4.64 23.33 7.28 23.66 10 24 C10 23.34 10 22.68 10 22 C7.69 22 5.38 22 3 22 C1.50702788 19.01405576 1.88244772 16.29146376 2 13 C2.33 12.34 2.66 11.68 3 11 C2.34 11 1.68 11 1 11 C1 13.64 1 16.28 1 19 C-1.97 19 -4.94 19 -8 19 C-8.125 13.25 -8.125 13.25 -7 11 C-6.01 11 -5.02 11 -4 11 C-4 11.66 -4 12.32 -4 13 C-3.34 13 -2.68 13 -2 13 C-2 12.34 -2 11.68 -2 11 C-1.34 11 -0.68 11 0 11 C0 7.37 0 3.74 0 0 Z " fill="#FFFFFF" transform="translate(912,567)"/>
<path d="M0 0 C2.97 0 5.94 0 9 0 C9 0.66 9 1.32 9 2 C10.32 2 11.64 2 13 2 C13 1.34 13 0.68 13 0 C15.97 0 18.94 0 22 0 C22 0.66 22 1.32 22 2 C22.66 2 23.32 2 24 2 C24 3.32 24 4.64 24 6 C21.36 5.67 18.72 5.34 16 5 C16 6.65 16 8.3 16 10 C18.64 9.67 21.28 9.34 24 9 C24 10.32 24 11.64 24 13 C21.51831386 14.24084307 19.83573801 14.12933103 17.0625 14.1328125 C16.08539062 14.13410156 15.10828125 14.13539063 14.1015625 14.13671875 C13.07804688 14.13285156 12.05453125 14.12898437 11 14.125 C9.97648438 14.12886719 8.95296875 14.13273438 7.8984375 14.13671875 C6.92132812 14.13542969 5.94421875 14.13414062 4.9375 14.1328125 C4.03902344 14.13168457 3.14054688 14.13055664 2.21484375 14.12939453 C0 14 0 14 -2 13 C-2 11.02 -2 9.04 -2 7 C-1.34 7 -0.68 7 0 7 C0 6.34 0 5.68 0 5 C-0.66 5 -1.32 5 -2 5 C-2 4.01 -2 3.02 -2 2 C-1.34 2 -0.68 2 0 2 C0 1.34 0 0.68 0 0 Z " fill="#FF904B" transform="translate(942,581)"/>
<path d="M0 0 C2.97 0 5.94 0 9 0 C9 0.66 9 1.32 9 2 C9.66 2 10.32 2 11 2 C11 5.63 11 9.26 11 13 C8.63386544 14.18306728 7.13219264 14.13354608 4.5 14.125 C3.7059375 14.12757813 2.911875 14.13015625 2.09375 14.1328125 C0 14 0 14 -2 13 C-2 9.37 -2 5.74 -2 2 C-1.34 2 -0.68 2 0 2 C0 1.34 0 0.68 0 0 Z " fill="#FF914B" transform="translate(862,581)"/>
<path d="M0 0 C2.97 0 5.94 0 9 0 C9 0.66 9 1.32 9 2 C9.66 2 10.32 2 11 2 C11 5.96 11 9.92 11 14 C0.25 14.125 0.25 14.125 -2 13 C-2 11.02 -2 9.04 -2 7 C-1.34 7 -0.68 7 0 7 C0 6.34 0 5.68 0 5 C-0.66 5 -1.32 5 -2 5 C-2 4.01 -2 3.02 -2 2 C-1.34 2 -0.68 2 0 2 C0 1.34 0 0.68 0 0 Z " fill="#FF904B" transform="translate(1050,581)"/>
<path d="M0 0 C3.63 0 7.26 0 11 0 C11 0.66 11 1.32 11 2 C11.66 2 12.32 2 13 2 C13 4.97 13 7.94 13 11 C12.34 11 11.68 11 11 11 C11 11.66 11 12.32 11 13 C9.02 13 7.04 13 5 13 C5 14.32 5 15.64 5 17 C3.35 17 1.7 17 0 17 C0 11.39 0 5.78 0 0 Z M5 4 C5 5.32 5 6.64 5 8 C6.32 8 7.64 8 9 8 C9 6.68 9 5.36 9 4 C7.68 4 6.36 4 5 4 Z " fill="#FF8F4B" transform="translate(835,578)"/>
<path d="M0 0 C2.97 0 5.94 0 9 0 C9 0.66 9 1.32 9 2 C9.66 2 10.32 2 11 2 C11 3.32 11 4.64 11 6 C9.68 6 8.36 6 7 6 C7 5.34 7 4.68 7 4 C5.68 4 4.36 4 3 4 C3 4.99 3 5.98 3 7 C4.423125 6.9690625 4.423125 6.9690625 5.875 6.9375 C9 7 9 7 11 8 C11 10.64 11 13.28 11 16 C8.59454362 17.20272819 7.05003047 17.10071472 4.375 17.0625 C3.14910156 17.04896484 3.14910156 17.04896484 1.8984375 17.03515625 C1.27195312 17.02355469 0.64546875 17.01195312 0 17 C-0.33 15.35 -0.66 13.7 -1 12 C1.64 12.33 4.28 12.66 7 13 C7 12.34 7 11.68 7 11 C4.69 11 2.38 11 0 11 C-1.49297212 8.01405576 -1.11755228 5.29146376 -1 2 C-0.67 1.34 -0.34 0.68 0 0 Z " fill="#FF904C" transform="translate(915,578)"/>
<path d="M0 0 C2.97 0 5.94 0 9 0 C9 0.66 9 1.32 9 2 C9.66 2 10.32 2 11 2 C11 5.63 11 9.26 11 13 C8.6203388 14.1898306 7.08514265 14.13349966 4.4375 14.125 C3.22900391 14.12886719 3.22900391 14.12886719 1.99609375 14.1328125 C0 14 0 14 -1 13 C-1.09879565 11.189715 -1.12971514 9.37547273 -1.125 7.5625 C-1.12757813 6.57378906 -1.13015625 5.58507812 -1.1328125 4.56640625 C-1 2 -1 2 0 0 Z " fill="#FF904B" transform="translate(968,581)"/>
<path d="M0 0 C3.63 0 7.26 0 11 0 C12.31164842 2.62329684 12.13262846 4.63698625 12.125 7.5625 C12.12757813 8.55378906 12.13015625 9.54507813 12.1328125 10.56640625 C12 13 12 13 11 14 C8.66702567 14.04092937 6.33294775 14.04241723 4 14 C4 15.32 4 16.64 4 18 C2.68 18 1.36 18 0 18 C0 12.06 0 6.12 0 0 Z M4 5 C4 6.65 4 8.3 4 10 C5.32 10 6.64 10 8 10 C8 8.35 8 6.7 8 5 C6.68 5 5.36 5 4 5 Z " fill="#FF914C" transform="translate(927,581)"/>
<path d="M0 0 C3.96 0 7.92 0 12 0 C12 3.96 12 7.92 12 12 C8.04 12 4.08 12 0 12 C0 8.04 0 4.08 0 0 Z " fill="#FFFFFF" transform="translate(1062,506)"/>
<path d="M0 0 C4.29 0 8.58 0 13 0 C13 3.63 13 7.26 13 11 C8.71 11 4.42 11 0 11 C0 7.37 0 3.74 0 0 Z " fill="#FFFFFF" transform="translate(956,567)"/>
<path d="M0 0 C2.97 0 5.94 0 9 0 C9 0.66 9 1.32 9 2 C9.66 2 10.32 2 11 2 C11 5.63 11 9.26 11 13 C8.6203388 14.1898306 7.08514265 14.13349966 4.4375 14.125 C3.22900391 14.12886719 3.22900391 14.12886719 1.99609375 14.1328125 C0 14 0 14 -1 13 C-1.09879565 11.189715 -1.12971514 9.37547273 -1.125 7.5625 C-1.12757813 6.57378906 -1.13015625 5.58507812 -1.1328125 4.56640625 C-1 2 -1 2 0 0 Z M3 5 C3 6.65 3 8.3 3 10 C4.32 10 5.64 10 7 10 C7 8.35 7 6.7 7 5 C5.68 5 4.36 5 3 5 Z " fill="#FF914C" transform="translate(1008,581)"/>
<path d="M0 0 C2.64 0 5.28 0 8 0 C8.70024812 4.37655074 9.21122745 8.56422358 9 13 C7.10114904 14.89885096 4.42752097 14.12367506 1.91015625 14.1328125 C0 14 0 14 -2 13 C-2 12.01 -2 11.02 -2 10 C-1.34 10 -0.68 10 0 10 C0 9.34 0 8.68 0 8 C-0.66 8 -1.32 8 -2 8 C-2 6.02 -2 4.04 -2 2 C-1.34 2 -0.68 2 0 2 C0 1.34 0 0.68 0 0 Z " fill="#FF904A" transform="translate(887,581)"/>
<path d="M0 0 C2.64 0 5.28 0 8 0 C8.70024812 4.37655074 9.21122745 8.56422358 9 13 C8 14 8 14 6.15234375 14.09765625 C4.1015625 14.06510417 2.05078125 14.03255208 0 14 C-1.33224462 10.00326615 -1.13442113 6.16705497 -1 2 C-0.67 1.34 -0.34 0.68 0 0 Z " fill="#FF914B" transform="translate(1028,581)"/>
<path d="M0 0 C2.64 0 5.28 0 8 0 C8.70024812 4.37655074 9.21122745 8.56422358 9 13 C8 14 8 14 6.15234375 14.09765625 C4.1015625 14.06510417 2.05078125 14.03255208 0 14 C-1.33224462 10.00326615 -1.13442113 6.16705497 -1 2 C-0.67 1.34 -0.34 0.68 0 0 Z " fill="#FF914B" transform="translate(875,581)"/>
<path d="M0 0 C0.66 0 1.32 0 2 0 C2 1.65 2 3.3 2 5 C3.32 5 4.64 5 6 5 C6 6.32 6 7.64 6 9 C4.68 9 3.36 9 2 9 C2 10.32 2 11.64 2 13 C3.32 13 4.64 13 6 13 C6 14.32 6 15.64 6 17 C0.25 17.125 0.25 17.125 -2 16 C-2.44921875 13.6015625 -2.44921875 13.6015625 -2.6875 10.625 C-2.77386719 9.64789062 -2.86023438 8.67078125 -2.94921875 7.6640625 C-3 5 -3 5 -2 2 C-1.34 2 -0.68 2 0 2 C0 1.34 0 0.68 0 0 Z " fill="#FF904C" transform="translate(1000,578)"/>
<path d="M0 0 C0.99 0 1.98 0 3 0 C3 1.65 3 3.3 3 5 C3.99 5 4.98 5 6 5 C6 6.32 6 7.64 6 9 C5.01 9 4.02 9 3 9 C3 10.32 3 11.64 3 13 C3.99 13 4.98 13 6 13 C6 14.32 6 15.64 6 17 C4.00045254 17.04254356 1.99958364 17.04080783 0 17 C-1 16 -1 16 -1.0625 12.4375 C-1.041875 11.303125 -1.02125 10.16875 -1 9 C-1.66 9 -2.32 9 -3 9 C-3 7.68 -3 6.36 -3 5 C-2.34 5 -1.68 5 -1 5 C-0.67 3.35 -0.34 1.7 0 0 Z " fill="#FF904C" transform="translate(1076,578)"/>
<path d="M0 0 C0.99 0 1.98 0 3 0 C3 1.65 3 3.3 3 5 C3.99 5 4.98 5 6 5 C6 6.32 6 7.64 6 9 C5.01 9 4.02 9 3 9 C3 10.32 3 11.64 3 13 C3.99 13 4.98 13 6 13 C6 14.32 6 15.64 6 17 C4.00045254 17.04254356 1.99958364 17.04080783 0 17 C-1 16 -1 16 -1.0625 12.4375 C-1.041875 11.303125 -1.02125 10.16875 -1 9 C-1.66 9 -2.32 9 -3 9 C-3 7.68 -3 6.36 -3 5 C-2.34 5 -1.68 5 -1 5 C-0.67 3.35 -0.34 1.7 0 0 Z " fill="#FF904C" transform="translate(1041,578)"/>
<path d="M0 0 C2.97 0 5.94 0 9 0 C9.33 1.65 9.66 3.3 10 5 C8.35 5.33 6.7 5.66 5 6 C4.67 8.64 4.34 11.28 4 14 C2.68 14 1.36 14 0 14 C0 9.38 0 4.76 0 0 Z " fill="#FF924B" transform="translate(1062,581)"/>
<path d="M0 0 C2.97 0 5.94 0 9 0 C9.33 1.65 9.66 3.3 10 5 C8.35 5.33 6.7 5.66 5 6 C4.67 8.64 4.34 11.28 4 14 C2.68 14 1.36 14 0 14 C0 9.38 0 4.76 0 0 Z " fill="#FF924B" transform="translate(849,581)"/>
<path d="M0 0 C0.99 0 1.98 0 3 0 C3 0.66 3 1.32 3 2 C3.66 2 4.32 2 5 2 C5 1.34 5 0.68 5 0 C5.99 0 6.98 0 8 0 C8 2.64 8 5.28 8 8 C5.03 8 2.06 8 -1 8 C-1.125 2.25 -1.125 2.25 0 0 Z " fill="#FF9148" transform="translate(905,578)"/>
<path d="M0 0 C1.32 0 2.64 0 4 0 C4.125 5.75 4.125 5.75 3 8 C2.01 8 1.02 8 0 8 C0 5.36 0 2.72 0 0 Z " fill="#FF9448" transform="translate(985,578)"/>
<path d="M0 0 C1.32 0 2.64 0 4 0 C4.125 5.75 4.125 5.75 3 8 C2.01 8 1.02 8 0 8 C0 5.36 0 2.72 0 0 Z " fill="#FF9449" transform="translate(980,578)"/>
</svg>
