<?xml version="1.0" encoding="UTF-8"?>
<svg version="1.1" xmlns="http://www.w3.org/2000/svg" width="1920" height="1080">
<path d="M0 0 C4.95 0 9.9 0 15 0 C15 2.31 15 4.62 15 7 C16.98 7 18.96 7 21 7 C21 4.69 21 2.38 21 0 C25.95 0 30.9 0 36 0 C36 2.31 36 4.62 36 7 C40.62 7 45.24 7 50 7 C50 4.69 50 2.38 50 0 C54.95 0 59.9 0 65 0 C65 2.31 65 4.62 65 7 C67.31 7 69.62 7 72 7 C72 23.83 72 40.66 72 58 C67.05 58 62.1 58 57 58 C57 44.14 57 30.28 57 16 C52.71 16 48.42 16 44 16 C44 29.86 44 43.72 44 58 C38.72 58 33.44 58 28 58 C28 44.14 28 30.28 28 16 C23.71 16 19.42 16 15 16 C15 29.86 15 43.72 15 58 C10.05 58 5.1 58 0 58 C0 38.86 0 19.72 0 0 Z " fill="#FF904C" transform="translate(823,517)"/>
<path d="M0 0 C12.21 0 24.42 0 37 0 C37 2.31 37 4.62 37 7 C39.31 7 41.62 7 44 7 C44 26.14 44 45.28 44 65 C41.69 65 39.38 65 37 65 C37 67.31 37 69.62 37 72 C24.79 72 12.58 72 0 72 C0 69.69 0 67.38 0 65 C-2.31 65 -4.62 65 -7 65 C-7 45.86 -7 26.72 -7 7 C-4.69 7 -2.38 7 0 7 C0 4.69 0 2.38 0 0 Z M16 15 C16 17.31 16 19.62 16 22 C13.69 22 11.38 22 9 22 C9 31.24 9 40.48 9 50 C11.31 50 13.62 50 16 50 C16 52.31 16 54.62 16 57 C17.98 57 19.96 57 22 57 C22 54.69 22 52.38 22 50 C24.31 50 26.62 50 29 50 C29 40.76 29 31.52 29 22 C26.69 22 24.38 22 22 22 C22 19.69 22 17.38 22 15 C20.02 15 18.04 15 16 15 Z " fill="#FF914C" transform="translate(994,503)"/>
<path d="M0 0 C11.88 0 23.76 0 36 0 C36 2.31 36 4.62 36 7 C38.64 7 41.28 7 44 7 C44 11.95 44 16.9 44 22 C38.72 22 33.44 22 28 22 C28 19.69 28 17.38 28 15 C23.71 15 19.42 15 15 15 C15 17.31 15 19.62 15 22 C12.69 22 10.38 22 8 22 C8 31.24 8 40.48 8 50 C10.31 50 12.62 50 15 50 C15 52.31 15 54.62 15 57 C19.29 57 23.58 57 28 57 C28 52.71 28 48.42 28 44 C23.38 44 18.76 44 14 44 C14 39.05 14 34.1 14 29 C23.9 29 33.8 29 44 29 C44 40.88 44 52.76 44 65 C41.36 65 38.72 65 36 65 C36 67.31 36 69.62 36 72 C24.12 72 12.24 72 0 72 C0 69.69 0 67.38 0 65 C-2.31 65 -4.62 65 -7 65 C-7 45.86 -7 26.72 -7 7 C-4.69 7 -2.38 7 0 7 C0 4.69 0 2.38 0 0 Z " fill="#FF904C" transform="translate(716,503)"/>
<path d="M0 0 C11.88 0 23.76 0 36 0 C36 2.31 36 4.62 36 7 C37.7015625 6.9690625 37.7015625 6.9690625 39.4375 6.9375 C43 7 43 7 44 8 C44.08775605 10.14558827 44.10695219 12.29404421 44.09765625 14.44140625 C44.09515869 15.61646729 44.09266113 16.79152832 44.09008789 18.00219727 C44.08098389 19.50709717 44.07187988 21.01199707 44.0625 22.5625 C44.041875 27.326875 44.02125 32.09125 44 37 C32.12 37 20.24 37 8 37 C8 38.98 8 40.96 8 43 C19.88 43 31.76 43 44 43 C44 45.64 44 48.28 44 51 C41.36 51 38.72 51 36 51 C36 53.31 36 55.62 36 58 C24.12 58 12.24 58 0 58 C0 55.69 0 53.38 0 51 C-2.31 51 -4.62 51 -7 51 C-7 36.48 -7 21.96 -7 7 C-4.69 7 -2.38 7 0 7 C0 4.69 0 2.38 0 0 Z M8 16 C8 17.98 8 19.96 8 22 C14.6 22 21.2 22 28 22 C28 20.02 28 18.04 28 16 C21.4 16 14.8 16 8 16 Z " fill="#FF914C" transform="translate(1109,517)"/>
<path d="M0 0 C11.88 0 23.76 0 36 0 C36 2.31 36 4.62 36 7 C37.7015625 6.9690625 37.7015625 6.9690625 39.4375 6.9375 C43 7 43 7 44 8 C44.08775605 10.14558827 44.10695219 12.29404421 44.09765625 14.44140625 C44.09515869 15.61646729 44.09266113 16.79152832 44.09008789 18.00219727 C44.08098389 19.50709717 44.07187988 21.01199707 44.0625 22.5625 C44.041875 27.326875 44.02125 32.09125 44 37 C32.12 37 20.24 37 8 37 C8 38.98 8 40.96 8 43 C19.88 43 31.76 43 44 43 C44 45.64 44 48.28 44 51 C41.36 51 38.72 51 36 51 C36 53.31 36 55.62 36 58 C24.12 58 12.24 58 0 58 C0 55.69 0 53.38 0 51 C-2.31 51 -4.62 51 -7 51 C-7 36.48 -7 21.96 -7 7 C-4.69 7 -2.38 7 0 7 C0 4.69 0 2.38 0 0 Z M8 16 C8 17.98 8 19.96 8 22 C14.6 22 21.2 22 28 22 C28 20.02 28 18.04 28 16 C21.4 16 14.8 16 8 16 Z " fill="#FF914C" transform="translate(909,517)"/>
<path d="M0 0 C12.21 0 24.42 0 37 0 C37 2.31 37 4.62 37 7 C39.31 7 41.62 7 44 7 C44 23.83 44 40.66 44 58 C39.05 58 34.1 58 29 58 C29 55.69 29 53.38 29 51 C26.69 51 24.38 51 22 51 C22 53.31 22 55.62 22 58 C14.74 58 7.48 58 0 58 C0 55.69 0 53.38 0 51 C-2.31 51 -4.62 51 -7 51 C-7 43.74 -7 36.48 -7 29 C-4.69 29 -2.38 29 0 29 C0 26.69 0 24.38 0 22 C9.57 22 19.14 22 29 22 C29 20.02 29 18.04 29 16 C17.12 16 5.24 16 -7 16 C-7 13.03 -7 10.06 -7 7 C-4.69 7 -2.38 7 0 7 C0 4.69 0 2.38 0 0 Z M8 37 C8 38.98 8 40.96 8 43 C14.93 43 21.86 43 29 43 C29 41.02 29 39.04 29 37 C22.07 37 15.14 37 8 37 Z " fill="#FF904C" transform="translate(773,517)"/>
<path d="M0 0 C5.28 0 10.56 0 16 0 C16 9.57 16 19.14 16 29 C18.31 29 20.62 29 23 29 C23 31.31 23 33.62 23 36 C24.98 36 26.96 36 29 36 C29 33.69 29 31.38 29 29 C31.31 29 33.62 29 36 29 C36 19.43 36 9.86 36 0 C40.95 0 45.9 0 51 0 C51 12.21 51 24.42 51 37 C48.69 37 46.38 37 44 37 C44 39.31 44 41.62 44 44 C41.69 44 39.38 44 37 44 C37 46.31 37 48.62 37 51 C34.69 51 32.38 51 30 51 C30 53.31 30 55.62 30 58 C27.36 58 24.72 58 22 58 C22 55.69 22 53.38 22 51 C19.69 51 17.38 51 15 51 C15 48.69 15 46.38 15 44 C12.36 44 9.72 44 7 44 C7 41.69 7 39.38 7 37 C4.69 37 2.38 37 0 37 C0 24.79 0 12.58 0 0 Z " fill="#FF904C" transform="translate(1044,517)"/>
<path d="M0 0 C4.95 0 9.9 0 15 0 C15 2.31 15 4.62 15 7 C16.98 7 18.96 7 21 7 C21 4.69 21 2.38 21 0 C25.95 0 30.9 0 36 0 C36 2.31 36 4.62 36 7 C38.64 7 41.28 7 44 7 C44 9.97 44 12.94 44 16 C41.36 16 38.72 16 36 16 C36 18.31 36 20.62 36 23 C33.36 23 30.72 23 28 23 C28 20.69 28 18.38 28 16 C26.02 16 24.04 16 22 16 C22 18.31 22 20.62 22 23 C19.69 23 17.38 23 15 23 C15 34.55 15 46.1 15 58 C10.05 58 5.1 58 0 58 C0 38.86 0 19.72 0 0 Z " fill="#FF914C" transform="translate(1159,517)"/>
<path d="M0 0 C3.96 0 7.92 0 12 0 C13.59412284 3.18824568 13.10174735 6.62896662 13.0625 10.125 C13.05798828 10.87910156 13.05347656 11.63320313 13.04882812 12.41015625 C13.03703499 14.27347127 13.01909942 16.13674555 13 18 C11.68 18 10.36 18 9 18 C9 16.35 9 14.7 9 13 C7.68 13 6.36 13 5 13 C5 14.65 5 16.3 5 18 C3.35 18 1.7 18 0 18 C0 12.06 0 6.12 0 0 Z M5 5 C5 6.32 5 7.64 5 9 C6.32 9 7.64 9 9 9 C9 7.68 9 6.36 9 5 C7.68 5 6.36 5 5 5 Z " fill="#FF904C" transform="translate(987,591)"/>
<path d="M0 0 C3.63 0 7.26 0 11 0 C11 0.66 11 1.32 11 2 C11.66 2 12.32 2 13 2 C13 7.28 13 12.56 13 18 C11.35 18 9.7 18 8 18 C8 16.35 8 14.7 8 13 C6.68 13 5.36 13 4 13 C4 14.65 4 16.3 4 18 C2.68 18 1.36 18 0 18 C0 12.06 0 6.12 0 0 Z M4 5 C4 6.32 4 7.64 4 9 C5.32 9 6.64 9 8 9 C8 7.68 8 6.36 8 5 C6.68 5 5.36 5 4 5 Z " fill="#FF914C" transform="translate(925,591)"/>
<path d="M0 0 C3.63 0 7.26 0 11 0 C11 0.66 11 1.32 11 2 C11.66 2 12.32 2 13 2 C13 5.3 13 8.6 13 12 C10.04335481 13.4783226 7.25770263 13.06032783 4 13 C4 14.65 4 16.3 4 18 C2.68 18 1.36 18 0 18 C0 12.06 0 6.12 0 0 Z M4 5 C4 6.32 4 7.64 4 9 C5.32 9 6.64 9 8 9 C8 7.68 8 6.36 8 5 C6.68 5 5.36 5 4 5 Z " fill="#FF914C" transform="translate(843,591)"/>
<path d="M0 0 C1.34771484 -0.00386719 1.34771484 -0.00386719 2.72265625 -0.0078125 C4.9375 0.125 4.9375 0.125 5.9375 1.125 C6.03623816 3.12299572 6.06721799 5.12457158 6.0625 7.125 C6.06507813 8.218125 6.06765625 9.31125 6.0703125 10.4375 C5.9375 13.125 5.9375 13.125 4.9375 14.125 C3.29409133 14.22354655 1.6463539 14.25472411 0 14.25 C-0.89589844 14.25257813 -1.79179688 14.25515625 -2.71484375 14.2578125 C-5.0625 14.125 -5.0625 14.125 -7.0625 13.125 C-7.0625 9.165 -7.0625 5.205 -7.0625 1.125 C-4.56110398 -0.12569801 -2.78857309 -0.00802467 0 0 Z M-2.0625 4.125 C1.9375 5.125 1.9375 5.125 1.9375 5.125 Z " fill="#FF904C" transform="translate(1008.0625,594.875)"/>
<path d="M0 0 C1.19109375 -0.00386719 1.19109375 -0.00386719 2.40625 -0.0078125 C4.5 0.125 4.5 0.125 6.5 1.125 C6.5 5.085 6.5 9.045 6.5 13.125 C4.13386544 14.30806728 2.63219264 14.25854608 0 14.25 C-0.7940625 14.25257813 -1.588125 14.25515625 -2.40625 14.2578125 C-4.5 14.125 -4.5 14.125 -6.5 13.125 C-6.5 9.165 -6.5 5.205 -6.5 1.125 C-4.13386544 -0.05806728 -2.63219264 -0.00854608 0 0 Z M-2.5 4.125 C1.5 5.125 1.5 5.125 1.5 5.125 Z " fill="#FF904C" transform="translate(875.5,594.875)"/>
<path d="M0 0 C1.19109375 -0.00386719 1.19109375 -0.00386719 2.40625 -0.0078125 C4.5 0.125 4.5 0.125 6.5 1.125 C6.5 5.415 6.5 9.705 6.5 14.125 C-4.25 14.25 -4.25 14.25 -6.5 13.125 C-6.5 11.145 -6.5 9.165 -6.5 7.125 C-5.84 7.125 -5.18 7.125 -4.5 7.125 C-4.5 6.465 -4.5 5.805 -4.5 5.125 C-5.16 4.795 -5.82 4.465 -6.5 4.125 C-6.5 3.135 -6.5 2.145 -6.5 1.125 C-4.13386544 -0.05806728 -2.63219264 -0.00854608 0 0 Z M-2.5 9.125 C-2.5 9.455 -2.5 9.785 -2.5 10.125 C-0.85 10.125 0.8 10.125 2.5 10.125 C2.5 9.795 2.5 9.465 2.5 9.125 C0.85 9.125 -0.8 9.125 -2.5 9.125 Z " fill="#FF904C" transform="translate(1044.5,594.875)"/>
<path d="M0 0 C0.89847656 0.00257813 1.79695312 0.00515625 2.72265625 0.0078125 C3.61855469 0.00523437 4.51445313 0.00265625 5.4375 0 C7.78515625 0.1328125 7.78515625 0.1328125 9.78515625 1.1328125 C9.78515625 5.0928125 9.78515625 9.0528125 9.78515625 13.1328125 C7.28376023 14.38351051 5.51122934 14.26583717 2.72265625 14.2578125 C1.37494141 14.26167969 1.37494141 14.26167969 0 14.265625 C-2.21484375 14.1328125 -2.21484375 14.1328125 -3.21484375 13.1328125 C-3.31358191 11.13481678 -3.34456174 9.13324092 -3.33984375 7.1328125 C-3.34242188 6.0396875 -3.345 4.9465625 -3.34765625 3.8203125 C-3.16825045 0.18998327 -3.16825045 0.18998327 0 0 Z M0.78515625 4.1328125 C0.78515625 6.1128125 0.78515625 8.0928125 0.78515625 10.1328125 C2.10515625 10.1328125 3.42515625 10.1328125 4.78515625 10.1328125 C4.78515625 8.1528125 4.78515625 6.1728125 4.78515625 4.1328125 C3.46515625 4.1328125 2.14515625 4.1328125 0.78515625 4.1328125 Z " fill="#FF904C" transform="translate(970.21484375,594.8671875)"/>
<path d="M0 0 C1.051875 -0.00386719 1.051875 -0.00386719 2.125 -0.0078125 C4 0.125 4 0.125 6 1.125 C6 2.115 6 3.105 6 4.125 C5.01 4.62 5.01 4.62 4 5.125 C4 5.785 4 6.445 4 7.125 C4.66 7.125 5.32 7.125 6 7.125 C6 9.105 6 11.085 6 13.125 C3.75487738 14.24756131 2.48543351 14.25913762 0 14.25 C-1.051875 14.25386719 -1.051875 14.25386719 -2.125 14.2578125 C-4 14.125 -4 14.125 -6 13.125 C-6 12.135 -6 11.145 -6 10.125 C-5.34 9.795 -4.68 9.465 -4 9.125 C-4.66 8.795 -5.32 8.465 -6 8.125 C-6 5.815 -6 3.505 -6 1.125 C-3.75487738 0.00243869 -2.48543351 -0.00913762 0 0 Z " fill="#FF904B" transform="translate(1021,594.875)"/>
<path d="M0 0 C0.68707555 2.49064888 1 4.37886292 1 7 C1.020625 8.03125 1.04125 9.0625 1.0625 10.125 C1 13 1 13 0 14 C-7.52238806 14.23880597 -7.52238806 14.23880597 -10 13 C-10 12.01 -10 11.02 -10 10 C-9.34 9.67 -8.68 9.34 -8 9 C-8.66 8.67 -9.32 8.34 -10 8 C-10 5.69 -10 3.38 -10 1 C-6.78548731 -0.60725635 -3.56387464 -0.05748185 0 0 Z " fill="#FF904C" transform="translate(905,595)"/>
<path d="M0 0 C0.66 0.33 1.32 0.66 2 1 C2 1.99 2 2.98 2 4 C1.01 4.495 1.01 4.495 0 5 C0 5.66 0 6.32 0 7 C0.66 7 1.32 7 2 7 C2 8.98 2 10.96 2 13 C-0.98594424 14.49297212 -3.70853624 14.11755228 -7 14 C-7.66 13.67 -8.32 13.34 -9 13 C-9 12.01 -9 11.02 -9 10 C-8.34 9.67 -7.68 9.34 -7 9 C-7.66 8.67 -8.32 8.34 -9 8 C-9 5.69 -9 3.38 -9 1 C-6.01405576 -0.49297212 -3.29146376 -0.11755228 0 0 Z " fill="#FF904C" transform="translate(892,595)"/>
<path d="M0 0 C0.99 0 1.98 0 3 0 C3 1.65 3 3.3 3 5 C3.99 5 4.98 5 6 5 C6 6.65 6 8.3 6 10 C5.01 10 4.02 10 3 10 C3 11.32 3 12.64 3 14 C3.99 14 4.98 14 6 14 C6 15.32 6 16.64 6 18 C0.25 18.125 0.25 18.125 -2 17 C-2.44921875 14.3828125 -2.44921875 14.3828125 -2.6875 11.125 C-2.77386719 10.05507813 -2.86023437 8.98515625 -2.94921875 7.8828125 C-3 5 -3 5 -2 2 C-1.34 2 -0.68 2 0 2 C0 1.34 0 0.68 0 0 Z " fill="#FF904C" transform="translate(1031,591)"/>
<path d="M0 0 C0.99 0 1.98 0 3 0 C3 1.65 3 3.3 3 5 C4.32 5 5.64 5 7 5 C7 6.65 7 8.3 7 10 C5.68 10 4.36 10 3 10 C3 11.32 3 12.64 3 14 C4.32 14 5.64 14 7 14 C7 15.32 7 16.64 7 18 C4.66705225 18.04241723 2.33297433 18.04092937 0 18 C-1 17 -1 17 -1.0625 13.4375 C-1.041875 12.303125 -1.02125 11.16875 -1 10 C-1.66 10 -2.32 10 -3 10 C-3 8.35 -3 6.7 -3 5 C-2.34 5 -1.68 5 -1 5 C-0.67 3.35 -0.34 1.7 0 0 Z " fill="#FF914B" transform="translate(1067,591)"/>
<path d="M0 0 C0.99 0 1.98 0 3 0 C3 1.65 3 3.3 3 5 C4.32 5 5.64 5 7 5 C7 6.65 7 8.3 7 10 C5.68 10 4.36 10 3 10 C3 11.32 3 12.64 3 14 C4.32 14 5.64 14 7 14 C7 15.32 7 16.64 7 18 C4.66705225 18.04241723 2.33297433 18.04092937 0 18 C-1 17 -1 17 -1.0625 13.4375 C-1.041875 12.303125 -1.02125 11.16875 -1 10 C-1.66 10 -2.32 10 -3 10 C-3 8.35 -3 6.7 -3 5 C-2.34 5 -1.68 5 -1 5 C-0.67 3.35 -0.34 1.7 0 0 Z " fill="#FF914B" transform="translate(959,591)"/>
<path d="M0 0 C8.75 -0.125 8.75 -0.125 11 1 C11 1.99 11 2.98 11 4 C10.34 4 9.68 4 9 4 C9 4.66 9 5.32 9 6 C7.35 6 5.7 6 4 6 C4 8.64 4 11.28 4 14 C2.68 14 1.36 14 0 14 C0 9.38 0 4.76 0 0 Z " fill="#FF904C" transform="translate(1052,595)"/>
<path d="M0 0 C8.75 -0.125 8.75 -0.125 11 1 C11 1.99 11 2.98 11 4 C10.34 4 9.68 4 9 4 C9 4.66 9 5.32 9 6 C7.35 6 5.7 6 4 6 C4 8.64 4 11.28 4 14 C2.68 14 1.36 14 0 14 C0 9.38 0 4.76 0 0 Z " fill="#FF904C" transform="translate(857,595)"/>
<path d="M0 0 C0.99 0 1.98 0 3 0 C3 0.66 3 1.32 3 2 C3.66 2 4.32 2 5 2 C5 1.34 5 0.68 5 0 C5.99 0 6.98 0 8 0 C8 2.64 8 5.28 8 8 C4.7 8 1.4 8 -2 8 C-2 6.02 -2 4.04 -2 2 C-1.34 2 -0.68 2 0 2 C0 1.34 0 0.68 0 0 Z " fill="#FF8F49" transform="translate(916,591)"/>
<path d="M0 0 C1.32 0 2.64 0 4 0 C4 1.98 4 3.96 4 6 C3.34 6 2.68 6 2 6 C2 6.66 2 7.32 2 8 C1.34 8 0.68 8 0 8 C0 5.36 0 2.72 0 0 Z " fill="#FF904C" transform="translate(944,591)"/>
<path d="M0 0 C1.32 0 2.64 0 4 0 C4 1.98 4 3.96 4 6 C3.34 6 2.68 6 2 6 C2 6.66 2 7.32 2 8 C1.34 8 0.68 8 0 8 C0 5.36 0 2.72 0 0 Z " fill="#FF914B" transform="translate(939,591)"/>
</svg>
