<?xml version="1.0" encoding="UTF-8"?>
<svg version="1.1" xmlns="http://www.w3.org/2000/svg" width="900" height="168">
<path d="M0 0 C297 0 594 0 900 0 C900 55.44 900 110.88 900 168 C603 168 306 168 0 168 C0 112.56 0 57.12 0 0 Z " fill="#DED798" transform="translate(0,0)"/>
<path d="M0 0 C297 0 594 0 900 0 C900 9.9 900 19.8 900 30 C603 30 306 30 0 30 C0 20.1 0 10.2 0 0 Z " fill="#75BD3A" transform="translate(0,0)"/>
<path d="M0 0 C297 0 594 0 900 0 C900 1.98 900 3.96 900 6 C603 6 306 6 0 6 C0 4.02 0 2.04 0 0 Z " fill="#E4FA91" transform="translate(0,0)"/>
<path d="M0 0 C297 0 594 0 900 0 C900 0.99 900 1.98 900 3 C603 3 306 3 0 3 C0 2.01 0 1.02 0 0 Z " fill="#D6A754" transform="translate(0,30)"/>
<path d="M0 0 C297 0 594 0 900 0 C900 0.99 900 1.98 900 3 C603 3 306 3 0 3 C0 2.01 0 1.02 0 0 Z " fill="#567E29" transform="translate(0,27)"/>
<path d="M0 0 C297 0 594 0 900 0 C900 0.99 900 1.98 900 3 C603 3 306 3 0 3 C0 2.01 0 1.02 0 0 Z " fill="#543847" transform="translate(0,0)"/>
<path d="M0 0 C5.94 0 11.88 0 18 0 C18 6.93 18 13.86 18 21 C6.12 21 -5.76 21 -18 21 C-18 20.01 -18 19.02 -18 18 C-17.01 18 -16.02 18 -15 18 C-15 17.01 -15 16.02 -15 15 C-14.01 15 -13.02 15 -12 15 C-12 14.01 -12 13.02 -12 12 C-11.01 12 -10.02 12 -9 12 C-9 11.01 -9 10.02 -9 9 C-8.01 9 -7.02 9 -6 9 C-6 8.01 -6 7.02 -6 6 C-5.01 6 -4.02 6 -3 6 C-3 5.01 -3 4.02 -3 3 C-2.01 3 -1.02 3 0 3 C0 2.01 0 1.02 0 0 Z " fill="#75BD3A" transform="translate(882,6)"/>
<path d="M0 0 C5.94 0 11.88 0 18 0 C18 0.99 18 1.98 18 3 C17.01 3 16.02 3 15 3 C15 3.99 15 4.98 15 6 C14.01 6 13.02 6 12 6 C12 6.99 12 7.98 12 9 C11.01 9 10.02 9 9 9 C9 9.99 9 10.98 9 12 C8.01 12 7.02 12 6 12 C6 12.99 6 13.98 6 15 C5.01 15 4.02 15 3 15 C3 15.99 3 16.98 3 18 C2.01 18 1.02 18 0 18 C0 18.99 0 19.98 0 21 C-5.94 21 -11.88 21 -18 21 C-18 20.01 -18 19.02 -18 18 C-17.01 18 -16.02 18 -15 18 C-15 17.01 -15 16.02 -15 15 C-14.01 15 -13.02 15 -12 15 C-12 14.01 -12 13.02 -12 12 C-11.01 12 -10.02 12 -9 12 C-9 11.01 -9 10.02 -9 9 C-8.01 9 -7.02 9 -6 9 C-6 8.01 -6 7.02 -6 6 C-5.01 6 -4.02 6 -3 6 C-3 5.01 -3 4.02 -3 3 C-2.01 3 -1.02 3 0 3 C0 2.01 0 1.02 0 0 Z " fill="#9EE461" transform="translate(864,6)"/>
<path d="M0 0 C5.94 0 11.88 0 18 0 C18 0.99 18 1.98 18 3 C17.01 3 16.02 3 15 3 C15 3.99 15 4.98 15 6 C14.01 6 13.02 6 12 6 C12 6.99 12 7.98 12 9 C11.01 9 10.02 9 9 9 C9 9.99 9 10.98 9 12 C8.01 12 7.02 12 6 12 C6 12.99 6 13.98 6 15 C5.01 15 4.02 15 3 15 C3 15.99 3 16.98 3 18 C2.01 18 1.02 18 0 18 C0 18.99 0 19.98 0 21 C-5.94 21 -11.88 21 -18 21 C-18 20.01 -18 19.02 -18 18 C-17.01 18 -16.02 18 -15 18 C-15 17.01 -15 16.02 -15 15 C-14.01 15 -13.02 15 -12 15 C-12 14.01 -12 13.02 -12 12 C-11.01 12 -10.02 12 -9 12 C-9 11.01 -9 10.02 -9 9 C-8.01 9 -7.02 9 -6 9 C-6 8.01 -6 7.02 -6 6 C-5.01 6 -4.02 6 -3 6 C-3 5.01 -3 4.02 -3 3 C-2.01 3 -1.02 3 0 3 C0 2.01 0 1.02 0 0 Z " fill="#75BD3A" transform="translate(846,6)"/>
<path d="M0 0 C5.94 0 11.88 0 18 0 C18 0.99 18 1.98 18 3 C17.01 3 16.02 3 15 3 C15 3.99 15 4.98 15 6 C14.01 6 13.02 6 12 6 C12 6.99 12 7.98 12 9 C11.01 9 10.02 9 9 9 C9 9.99 9 10.98 9 12 C8.01 12 7.02 12 6 12 C6 12.99 6 13.98 6 15 C5.01 15 4.02 15 3 15 C3 15.99 3 16.98 3 18 C2.01 18 1.02 18 0 18 C0 18.99 0 19.98 0 21 C-5.94 21 -11.88 21 -18 21 C-18 20.01 -18 19.02 -18 18 C-17.01 18 -16.02 18 -15 18 C-15 17.01 -15 16.02 -15 15 C-14.01 15 -13.02 15 -12 15 C-12 14.01 -12 13.02 -12 12 C-11.01 12 -10.02 12 -9 12 C-9 11.01 -9 10.02 -9 9 C-8.01 9 -7.02 9 -6 9 C-6 8.01 -6 7.02 -6 6 C-5.01 6 -4.02 6 -3 6 C-3 5.01 -3 4.02 -3 3 C-2.01 3 -1.02 3 0 3 C0 2.01 0 1.02 0 0 Z " fill="#9EE461" transform="translate(828,6)"/>
<path d="M0 0 C5.94 0 11.88 0 18 0 C18 0.99 18 1.98 18 3 C17.01 3 16.02 3 15 3 C15 3.99 15 4.98 15 6 C14.01 6 13.02 6 12 6 C12 6.99 12 7.98 12 9 C11.01 9 10.02 9 9 9 C9 9.99 9 10.98 9 12 C8.01 12 7.02 12 6 12 C6 12.99 6 13.98 6 15 C5.01 15 4.02 15 3 15 C3 15.99 3 16.98 3 18 C2.01 18 1.02 18 0 18 C0 18.99 0 19.98 0 21 C-5.94 21 -11.88 21 -18 21 C-18 20.01 -18 19.02 -18 18 C-17.01 18 -16.02 18 -15 18 C-15 17.01 -15 16.02 -15 15 C-14.01 15 -13.02 15 -12 15 C-12 14.01 -12 13.02 -12 12 C-11.01 12 -10.02 12 -9 12 C-9 11.01 -9 10.02 -9 9 C-8.01 9 -7.02 9 -6 9 C-6 8.01 -6 7.02 -6 6 C-5.01 6 -4.02 6 -3 6 C-3 5.01 -3 4.02 -3 3 C-2.01 3 -1.02 3 0 3 C0 2.01 0 1.02 0 0 Z " fill="#75BD3A" transform="translate(810,6)"/>
<path d="M0 0 C5.94 0 11.88 0 18 0 C18 0.99 18 1.98 18 3 C17.01 3 16.02 3 15 3 C15 3.99 15 4.98 15 6 C14.01 6 13.02 6 12 6 C12 6.99 12 7.98 12 9 C11.01 9 10.02 9 9 9 C9 9.99 9 10.98 9 12 C8.01 12 7.02 12 6 12 C6 12.99 6 13.98 6 15 C5.01 15 4.02 15 3 15 C3 15.99 3 16.98 3 18 C2.01 18 1.02 18 0 18 C0 18.99 0 19.98 0 21 C-5.94 21 -11.88 21 -18 21 C-18 20.01 -18 19.02 -18 18 C-17.01 18 -16.02 18 -15 18 C-15 17.01 -15 16.02 -15 15 C-14.01 15 -13.02 15 -12 15 C-12 14.01 -12 13.02 -12 12 C-11.01 12 -10.02 12 -9 12 C-9 11.01 -9 10.02 -9 9 C-8.01 9 -7.02 9 -6 9 C-6 8.01 -6 7.02 -6 6 C-5.01 6 -4.02 6 -3 6 C-3 5.01 -3 4.02 -3 3 C-2.01 3 -1.02 3 0 3 C0 2.01 0 1.02 0 0 Z " fill="#9EE461" transform="translate(792,6)"/>
<path d="M0 0 C5.94 0 11.88 0 18 0 C18 0.99 18 1.98 18 3 C17.01 3 16.02 3 15 3 C15 3.99 15 4.98 15 6 C14.01 6 13.02 6 12 6 C12 6.99 12 7.98 12 9 C11.01 9 10.02 9 9 9 C9 9.99 9 10.98 9 12 C8.01 12 7.02 12 6 12 C6 12.99 6 13.98 6 15 C5.01 15 4.02 15 3 15 C3 15.99 3 16.98 3 18 C2.01 18 1.02 18 0 18 C0 18.99 0 19.98 0 21 C-5.94 21 -11.88 21 -18 21 C-18 20.01 -18 19.02 -18 18 C-17.01 18 -16.02 18 -15 18 C-15 17.01 -15 16.02 -15 15 C-14.01 15 -13.02 15 -12 15 C-12 14.01 -12 13.02 -12 12 C-11.01 12 -10.02 12 -9 12 C-9 11.01 -9 10.02 -9 9 C-8.01 9 -7.02 9 -6 9 C-6 8.01 -6 7.02 -6 6 C-5.01 6 -4.02 6 -3 6 C-3 5.01 -3 4.02 -3 3 C-2.01 3 -1.02 3 0 3 C0 2.01 0 1.02 0 0 Z " fill="#75BD3A" transform="translate(774,6)"/>
<path d="M0 0 C5.94 0 11.88 0 18 0 C18 0.99 18 1.98 18 3 C17.01 3 16.02 3 15 3 C15 3.99 15 4.98 15 6 C14.01 6 13.02 6 12 6 C12 6.99 12 7.98 12 9 C11.01 9 10.02 9 9 9 C9 9.99 9 10.98 9 12 C8.01 12 7.02 12 6 12 C6 12.99 6 13.98 6 15 C5.01 15 4.02 15 3 15 C3 15.99 3 16.98 3 18 C2.01 18 1.02 18 0 18 C0 18.99 0 19.98 0 21 C-5.94 21 -11.88 21 -18 21 C-18 20.01 -18 19.02 -18 18 C-17.01 18 -16.02 18 -15 18 C-15 17.01 -15 16.02 -15 15 C-14.01 15 -13.02 15 -12 15 C-12 14.01 -12 13.02 -12 12 C-11.01 12 -10.02 12 -9 12 C-9 11.01 -9 10.02 -9 9 C-8.01 9 -7.02 9 -6 9 C-6 8.01 -6 7.02 -6 6 C-5.01 6 -4.02 6 -3 6 C-3 5.01 -3 4.02 -3 3 C-2.01 3 -1.02 3 0 3 C0 2.01 0 1.02 0 0 Z " fill="#9EE461" transform="translate(756,6)"/>
<path d="M0 0 C5.94 0 11.88 0 18 0 C18 0.99 18 1.98 18 3 C17.01 3 16.02 3 15 3 C15 3.99 15 4.98 15 6 C14.01 6 13.02 6 12 6 C12 6.99 12 7.98 12 9 C11.01 9 10.02 9 9 9 C9 9.99 9 10.98 9 12 C8.01 12 7.02 12 6 12 C6 12.99 6 13.98 6 15 C5.01 15 4.02 15 3 15 C3 15.99 3 16.98 3 18 C2.01 18 1.02 18 0 18 C0 18.99 0 19.98 0 21 C-5.94 21 -11.88 21 -18 21 C-18 20.01 -18 19.02 -18 18 C-17.01 18 -16.02 18 -15 18 C-15 17.01 -15 16.02 -15 15 C-14.01 15 -13.02 15 -12 15 C-12 14.01 -12 13.02 -12 12 C-11.01 12 -10.02 12 -9 12 C-9 11.01 -9 10.02 -9 9 C-8.01 9 -7.02 9 -6 9 C-6 8.01 -6 7.02 -6 6 C-5.01 6 -4.02 6 -3 6 C-3 5.01 -3 4.02 -3 3 C-2.01 3 -1.02 3 0 3 C0 2.01 0 1.02 0 0 Z " fill="#75BD3A" transform="translate(738,6)"/>
<path d="M0 0 C5.94 0 11.88 0 18 0 C18 0.99 18 1.98 18 3 C17.01 3 16.02 3 15 3 C15 3.99 15 4.98 15 6 C14.01 6 13.02 6 12 6 C12 6.99 12 7.98 12 9 C11.01 9 10.02 9 9 9 C9 9.99 9 10.98 9 12 C8.01 12 7.02 12 6 12 C6 12.99 6 13.98 6 15 C5.01 15 4.02 15 3 15 C3 15.99 3 16.98 3 18 C2.01 18 1.02 18 0 18 C0 18.99 0 19.98 0 21 C-5.94 21 -11.88 21 -18 21 C-18 20.01 -18 19.02 -18 18 C-17.01 18 -16.02 18 -15 18 C-15 17.01 -15 16.02 -15 15 C-14.01 15 -13.02 15 -12 15 C-12 14.01 -12 13.02 -12 12 C-11.01 12 -10.02 12 -9 12 C-9 11.01 -9 10.02 -9 9 C-8.01 9 -7.02 9 -6 9 C-6 8.01 -6 7.02 -6 6 C-5.01 6 -4.02 6 -3 6 C-3 5.01 -3 4.02 -3 3 C-2.01 3 -1.02 3 0 3 C0 2.01 0 1.02 0 0 Z " fill="#9EE461" transform="translate(720,6)"/>
<path d="M0 0 C5.94 0 11.88 0 18 0 C18 0.99 18 1.98 18 3 C17.01 3 16.02 3 15 3 C15 3.99 15 4.98 15 6 C14.01 6 13.02 6 12 6 C12 6.99 12 7.98 12 9 C11.01 9 10.02 9 9 9 C9 9.99 9 10.98 9 12 C8.01 12 7.02 12 6 12 C6 12.99 6 13.98 6 15 C5.01 15 4.02 15 3 15 C3 15.99 3 16.98 3 18 C2.01 18 1.02 18 0 18 C0 18.99 0 19.98 0 21 C-5.94 21 -11.88 21 -18 21 C-18 20.01 -18 19.02 -18 18 C-17.01 18 -16.02 18 -15 18 C-15 17.01 -15 16.02 -15 15 C-14.01 15 -13.02 15 -12 15 C-12 14.01 -12 13.02 -12 12 C-11.01 12 -10.02 12 -9 12 C-9 11.01 -9 10.02 -9 9 C-8.01 9 -7.02 9 -6 9 C-6 8.01 -6 7.02 -6 6 C-5.01 6 -4.02 6 -3 6 C-3 5.01 -3 4.02 -3 3 C-2.01 3 -1.02 3 0 3 C0 2.01 0 1.02 0 0 Z " fill="#75BD3A" transform="translate(702,6)"/>
<path d="M0 0 C5.94 0 11.88 0 18 0 C18 0.99 18 1.98 18 3 C17.01 3 16.02 3 15 3 C15 3.99 15 4.98 15 6 C14.01 6 13.02 6 12 6 C12 6.99 12 7.98 12 9 C11.01 9 10.02 9 9 9 C9 9.99 9 10.98 9 12 C8.01 12 7.02 12 6 12 C6 12.99 6 13.98 6 15 C5.01 15 4.02 15 3 15 C3 15.99 3 16.98 3 18 C2.01 18 1.02 18 0 18 C0 18.99 0 19.98 0 21 C-5.94 21 -11.88 21 -18 21 C-18 20.01 -18 19.02 -18 18 C-17.01 18 -16.02 18 -15 18 C-15 17.01 -15 16.02 -15 15 C-14.01 15 -13.02 15 -12 15 C-12 14.01 -12 13.02 -12 12 C-11.01 12 -10.02 12 -9 12 C-9 11.01 -9 10.02 -9 9 C-8.01 9 -7.02 9 -6 9 C-6 8.01 -6 7.02 -6 6 C-5.01 6 -4.02 6 -3 6 C-3 5.01 -3 4.02 -3 3 C-2.01 3 -1.02 3 0 3 C0 2.01 0 1.02 0 0 Z " fill="#9EE461" transform="translate(684,6)"/>
<path d="M0 0 C5.94 0 11.88 0 18 0 C18 0.99 18 1.98 18 3 C17.01 3 16.02 3 15 3 C15 3.99 15 4.98 15 6 C14.01 6 13.02 6 12 6 C12 6.99 12 7.98 12 9 C11.01 9 10.02 9 9 9 C9 9.99 9 10.98 9 12 C8.01 12 7.02 12 6 12 C6 12.99 6 13.98 6 15 C5.01 15 4.02 15 3 15 C3 15.99 3 16.98 3 18 C2.01 18 1.02 18 0 18 C0 18.99 0 19.98 0 21 C-5.94 21 -11.88 21 -18 21 C-18 20.01 -18 19.02 -18 18 C-17.01 18 -16.02 18 -15 18 C-15 17.01 -15 16.02 -15 15 C-14.01 15 -13.02 15 -12 15 C-12 14.01 -12 13.02 -12 12 C-11.01 12 -10.02 12 -9 12 C-9 11.01 -9 10.02 -9 9 C-8.01 9 -7.02 9 -6 9 C-6 8.01 -6 7.02 -6 6 C-5.01 6 -4.02 6 -3 6 C-3 5.01 -3 4.02 -3 3 C-2.01 3 -1.02 3 0 3 C0 2.01 0 1.02 0 0 Z " fill="#75BD3A" transform="translate(666,6)"/>
<path d="M0 0 C5.94 0 11.88 0 18 0 C18 0.99 18 1.98 18 3 C17.01 3 16.02 3 15 3 C15 3.99 15 4.98 15 6 C14.01 6 13.02 6 12 6 C12 6.99 12 7.98 12 9 C11.01 9 10.02 9 9 9 C9 9.99 9 10.98 9 12 C8.01 12 7.02 12 6 12 C6 12.99 6 13.98 6 15 C5.01 15 4.02 15 3 15 C3 15.99 3 16.98 3 18 C2.01 18 1.02 18 0 18 C0 18.99 0 19.98 0 21 C-5.94 21 -11.88 21 -18 21 C-18 20.01 -18 19.02 -18 18 C-17.01 18 -16.02 18 -15 18 C-15 17.01 -15 16.02 -15 15 C-14.01 15 -13.02 15 -12 15 C-12 14.01 -12 13.02 -12 12 C-11.01 12 -10.02 12 -9 12 C-9 11.01 -9 10.02 -9 9 C-8.01 9 -7.02 9 -6 9 C-6 8.01 -6 7.02 -6 6 C-5.01 6 -4.02 6 -3 6 C-3 5.01 -3 4.02 -3 3 C-2.01 3 -1.02 3 0 3 C0 2.01 0 1.02 0 0 Z " fill="#9EE461" transform="translate(648,6)"/>
<path d="M0 0 C5.94 0 11.88 0 18 0 C18 0.99 18 1.98 18 3 C17.01 3 16.02 3 15 3 C15 3.99 15 4.98 15 6 C14.01 6 13.02 6 12 6 C12 6.99 12 7.98 12 9 C11.01 9 10.02 9 9 9 C9 9.99 9 10.98 9 12 C8.01 12 7.02 12 6 12 C6 12.99 6 13.98 6 15 C5.01 15 4.02 15 3 15 C3 15.99 3 16.98 3 18 C2.01 18 1.02 18 0 18 C0 18.99 0 19.98 0 21 C-5.94 21 -11.88 21 -18 21 C-18 20.01 -18 19.02 -18 18 C-17.01 18 -16.02 18 -15 18 C-15 17.01 -15 16.02 -15 15 C-14.01 15 -13.02 15 -12 15 C-12 14.01 -12 13.02 -12 12 C-11.01 12 -10.02 12 -9 12 C-9 11.01 -9 10.02 -9 9 C-8.01 9 -7.02 9 -6 9 C-6 8.01 -6 7.02 -6 6 C-5.01 6 -4.02 6 -3 6 C-3 5.01 -3 4.02 -3 3 C-2.01 3 -1.02 3 0 3 C0 2.01 0 1.02 0 0 Z " fill="#75BD3A" transform="translate(630,6)"/>
<path d="M0 0 C5.94 0 11.88 0 18 0 C18 0.99 18 1.98 18 3 C17.01 3 16.02 3 15 3 C15 3.99 15 4.98 15 6 C14.01 6 13.02 6 12 6 C12 6.99 12 7.98 12 9 C11.01 9 10.02 9 9 9 C9 9.99 9 10.98 9 12 C8.01 12 7.02 12 6 12 C6 12.99 6 13.98 6 15 C5.01 15 4.02 15 3 15 C3 15.99 3 16.98 3 18 C2.01 18 1.02 18 0 18 C0 18.99 0 19.98 0 21 C-5.94 21 -11.88 21 -18 21 C-18 20.01 -18 19.02 -18 18 C-17.01 18 -16.02 18 -15 18 C-15 17.01 -15 16.02 -15 15 C-14.01 15 -13.02 15 -12 15 C-12 14.01 -12 13.02 -12 12 C-11.01 12 -10.02 12 -9 12 C-9 11.01 -9 10.02 -9 9 C-8.01 9 -7.02 9 -6 9 C-6 8.01 -6 7.02 -6 6 C-5.01 6 -4.02 6 -3 6 C-3 5.01 -3 4.02 -3 3 C-2.01 3 -1.02 3 0 3 C0 2.01 0 1.02 0 0 Z " fill="#9EE461" transform="translate(612,6)"/>
<path d="M0 0 C5.94 0 11.88 0 18 0 C18 0.99 18 1.98 18 3 C17.01 3 16.02 3 15 3 C15 3.99 15 4.98 15 6 C14.01 6 13.02 6 12 6 C12 6.99 12 7.98 12 9 C11.01 9 10.02 9 9 9 C9 9.99 9 10.98 9 12 C8.01 12 7.02 12 6 12 C6 12.99 6 13.98 6 15 C5.01 15 4.02 15 3 15 C3 15.99 3 16.98 3 18 C2.01 18 1.02 18 0 18 C0 18.99 0 19.98 0 21 C-5.94 21 -11.88 21 -18 21 C-18 20.01 -18 19.02 -18 18 C-17.01 18 -16.02 18 -15 18 C-15 17.01 -15 16.02 -15 15 C-14.01 15 -13.02 15 -12 15 C-12 14.01 -12 13.02 -12 12 C-11.01 12 -10.02 12 -9 12 C-9 11.01 -9 10.02 -9 9 C-8.01 9 -7.02 9 -6 9 C-6 8.01 -6 7.02 -6 6 C-5.01 6 -4.02 6 -3 6 C-3 5.01 -3 4.02 -3 3 C-2.01 3 -1.02 3 0 3 C0 2.01 0 1.02 0 0 Z " fill="#75BD3A" transform="translate(594,6)"/>
<path d="M0 0 C5.94 0 11.88 0 18 0 C18 0.99 18 1.98 18 3 C17.01 3 16.02 3 15 3 C15 3.99 15 4.98 15 6 C14.01 6 13.02 6 12 6 C12 6.99 12 7.98 12 9 C11.01 9 10.02 9 9 9 C9 9.99 9 10.98 9 12 C8.01 12 7.02 12 6 12 C6 12.99 6 13.98 6 15 C5.01 15 4.02 15 3 15 C3 15.99 3 16.98 3 18 C2.01 18 1.02 18 0 18 C0 18.99 0 19.98 0 21 C-5.94 21 -11.88 21 -18 21 C-18 20.01 -18 19.02 -18 18 C-17.01 18 -16.02 18 -15 18 C-15 17.01 -15 16.02 -15 15 C-14.01 15 -13.02 15 -12 15 C-12 14.01 -12 13.02 -12 12 C-11.01 12 -10.02 12 -9 12 C-9 11.01 -9 10.02 -9 9 C-8.01 9 -7.02 9 -6 9 C-6 8.01 -6 7.02 -6 6 C-5.01 6 -4.02 6 -3 6 C-3 5.01 -3 4.02 -3 3 C-2.01 3 -1.02 3 0 3 C0 2.01 0 1.02 0 0 Z " fill="#9EE461" transform="translate(576,6)"/>
<path d="M0 0 C5.94 0 11.88 0 18 0 C18 0.99 18 1.98 18 3 C17.01 3 16.02 3 15 3 C15 3.99 15 4.98 15 6 C14.01 6 13.02 6 12 6 C12 6.99 12 7.98 12 9 C11.01 9 10.02 9 9 9 C9 9.99 9 10.98 9 12 C8.01 12 7.02 12 6 12 C6 12.99 6 13.98 6 15 C5.01 15 4.02 15 3 15 C3 15.99 3 16.98 3 18 C2.01 18 1.02 18 0 18 C0 18.99 0 19.98 0 21 C-5.94 21 -11.88 21 -18 21 C-18 20.01 -18 19.02 -18 18 C-17.01 18 -16.02 18 -15 18 C-15 17.01 -15 16.02 -15 15 C-14.01 15 -13.02 15 -12 15 C-12 14.01 -12 13.02 -12 12 C-11.01 12 -10.02 12 -9 12 C-9 11.01 -9 10.02 -9 9 C-8.01 9 -7.02 9 -6 9 C-6 8.01 -6 7.02 -6 6 C-5.01 6 -4.02 6 -3 6 C-3 5.01 -3 4.02 -3 3 C-2.01 3 -1.02 3 0 3 C0 2.01 0 1.02 0 0 Z " fill="#75BD3A" transform="translate(558,6)"/>
<path d="M0 0 C5.94 0 11.88 0 18 0 C18 0.99 18 1.98 18 3 C17.01 3 16.02 3 15 3 C15 3.99 15 4.98 15 6 C14.01 6 13.02 6 12 6 C12 6.99 12 7.98 12 9 C11.01 9 10.02 9 9 9 C9 9.99 9 10.98 9 12 C8.01 12 7.02 12 6 12 C6 12.99 6 13.98 6 15 C5.01 15 4.02 15 3 15 C3 15.99 3 16.98 3 18 C2.01 18 1.02 18 0 18 C0 18.99 0 19.98 0 21 C-5.94 21 -11.88 21 -18 21 C-18 20.01 -18 19.02 -18 18 C-17.01 18 -16.02 18 -15 18 C-15 17.01 -15 16.02 -15 15 C-14.01 15 -13.02 15 -12 15 C-12 14.01 -12 13.02 -12 12 C-11.01 12 -10.02 12 -9 12 C-9 11.01 -9 10.02 -9 9 C-8.01 9 -7.02 9 -6 9 C-6 8.01 -6 7.02 -6 6 C-5.01 6 -4.02 6 -3 6 C-3 5.01 -3 4.02 -3 3 C-2.01 3 -1.02 3 0 3 C0 2.01 0 1.02 0 0 Z " fill="#9EE461" transform="translate(540,6)"/>
<path d="M0 0 C5.94 0 11.88 0 18 0 C18 0.99 18 1.98 18 3 C17.01 3 16.02 3 15 3 C15 3.99 15 4.98 15 6 C14.01 6 13.02 6 12 6 C12 6.99 12 7.98 12 9 C11.01 9 10.02 9 9 9 C9 9.99 9 10.98 9 12 C8.01 12 7.02 12 6 12 C6 12.99 6 13.98 6 15 C5.01 15 4.02 15 3 15 C3 15.99 3 16.98 3 18 C2.01 18 1.02 18 0 18 C0 18.99 0 19.98 0 21 C-5.94 21 -11.88 21 -18 21 C-18 20.01 -18 19.02 -18 18 C-17.01 18 -16.02 18 -15 18 C-15 17.01 -15 16.02 -15 15 C-14.01 15 -13.02 15 -12 15 C-12 14.01 -12 13.02 -12 12 C-11.01 12 -10.02 12 -9 12 C-9 11.01 -9 10.02 -9 9 C-8.01 9 -7.02 9 -6 9 C-6 8.01 -6 7.02 -6 6 C-5.01 6 -4.02 6 -3 6 C-3 5.01 -3 4.02 -3 3 C-2.01 3 -1.02 3 0 3 C0 2.01 0 1.02 0 0 Z " fill="#75BD3A" transform="translate(522,6)"/>
<path d="M0 0 C5.94 0 11.88 0 18 0 C18 0.99 18 1.98 18 3 C17.01 3 16.02 3 15 3 C15 3.99 15 4.98 15 6 C14.01 6 13.02 6 12 6 C12 6.99 12 7.98 12 9 C11.01 9 10.02 9 9 9 C9 9.99 9 10.98 9 12 C8.01 12 7.02 12 6 12 C6 12.99 6 13.98 6 15 C5.01 15 4.02 15 3 15 C3 15.99 3 16.98 3 18 C2.01 18 1.02 18 0 18 C0 18.99 0 19.98 0 21 C-5.94 21 -11.88 21 -18 21 C-18 20.01 -18 19.02 -18 18 C-17.01 18 -16.02 18 -15 18 C-15 17.01 -15 16.02 -15 15 C-14.01 15 -13.02 15 -12 15 C-12 14.01 -12 13.02 -12 12 C-11.01 12 -10.02 12 -9 12 C-9 11.01 -9 10.02 -9 9 C-8.01 9 -7.02 9 -6 9 C-6 8.01 -6 7.02 -6 6 C-5.01 6 -4.02 6 -3 6 C-3 5.01 -3 4.02 -3 3 C-2.01 3 -1.02 3 0 3 C0 2.01 0 1.02 0 0 Z " fill="#9EE461" transform="translate(504,6)"/>
<path d="M0 0 C5.94 0 11.88 0 18 0 C18 0.99 18 1.98 18 3 C17.01 3 16.02 3 15 3 C15 3.99 15 4.98 15 6 C14.01 6 13.02 6 12 6 C12 6.99 12 7.98 12 9 C11.01 9 10.02 9 9 9 C9 9.99 9 10.98 9 12 C8.01 12 7.02 12 6 12 C6 12.99 6 13.98 6 15 C5.01 15 4.02 15 3 15 C3 15.99 3 16.98 3 18 C2.01 18 1.02 18 0 18 C0 18.99 0 19.98 0 21 C-5.94 21 -11.88 21 -18 21 C-18 20.01 -18 19.02 -18 18 C-17.01 18 -16.02 18 -15 18 C-15 17.01 -15 16.02 -15 15 C-14.01 15 -13.02 15 -12 15 C-12 14.01 -12 13.02 -12 12 C-11.01 12 -10.02 12 -9 12 C-9 11.01 -9 10.02 -9 9 C-8.01 9 -7.02 9 -6 9 C-6 8.01 -6 7.02 -6 6 C-5.01 6 -4.02 6 -3 6 C-3 5.01 -3 4.02 -3 3 C-2.01 3 -1.02 3 0 3 C0 2.01 0 1.02 0 0 Z " fill="#75BD3A" transform="translate(486,6)"/>
<path d="M0 0 C5.94 0 11.88 0 18 0 C18 0.99 18 1.98 18 3 C17.01 3 16.02 3 15 3 C15 3.99 15 4.98 15 6 C14.01 6 13.02 6 12 6 C12 6.99 12 7.98 12 9 C11.01 9 10.02 9 9 9 C9 9.99 9 10.98 9 12 C8.01 12 7.02 12 6 12 C6 12.99 6 13.98 6 15 C5.01 15 4.02 15 3 15 C3 15.99 3 16.98 3 18 C2.01 18 1.02 18 0 18 C0 18.99 0 19.98 0 21 C-5.94 21 -11.88 21 -18 21 C-18 20.01 -18 19.02 -18 18 C-17.01 18 -16.02 18 -15 18 C-15 17.01 -15 16.02 -15 15 C-14.01 15 -13.02 15 -12 15 C-12 14.01 -12 13.02 -12 12 C-11.01 12 -10.02 12 -9 12 C-9 11.01 -9 10.02 -9 9 C-8.01 9 -7.02 9 -6 9 C-6 8.01 -6 7.02 -6 6 C-5.01 6 -4.02 6 -3 6 C-3 5.01 -3 4.02 -3 3 C-2.01 3 -1.02 3 0 3 C0 2.01 0 1.02 0 0 Z " fill="#9EE461" transform="translate(468,6)"/>
<path d="M0 0 C5.94 0 11.88 0 18 0 C18 0.99 18 1.98 18 3 C17.01 3 16.02 3 15 3 C15 3.99 15 4.98 15 6 C14.01 6 13.02 6 12 6 C12 6.99 12 7.98 12 9 C11.01 9 10.02 9 9 9 C9 9.99 9 10.98 9 12 C8.01 12 7.02 12 6 12 C6 12.99 6 13.98 6 15 C5.01 15 4.02 15 3 15 C3 15.99 3 16.98 3 18 C2.01 18 1.02 18 0 18 C0 18.99 0 19.98 0 21 C-5.94 21 -11.88 21 -18 21 C-18 20.01 -18 19.02 -18 18 C-17.01 18 -16.02 18 -15 18 C-15 17.01 -15 16.02 -15 15 C-14.01 15 -13.02 15 -12 15 C-12 14.01 -12 13.02 -12 12 C-11.01 12 -10.02 12 -9 12 C-9 11.01 -9 10.02 -9 9 C-8.01 9 -7.02 9 -6 9 C-6 8.01 -6 7.02 -6 6 C-5.01 6 -4.02 6 -3 6 C-3 5.01 -3 4.02 -3 3 C-2.01 3 -1.02 3 0 3 C0 2.01 0 1.02 0 0 Z " fill="#75BD3A" transform="translate(450,6)"/>
<path d="M0 0 C5.94 0 11.88 0 18 0 C18 0.99 18 1.98 18 3 C17.01 3 16.02 3 15 3 C15 3.99 15 4.98 15 6 C14.01 6 13.02 6 12 6 C12 6.99 12 7.98 12 9 C11.01 9 10.02 9 9 9 C9 9.99 9 10.98 9 12 C8.01 12 7.02 12 6 12 C6 12.99 6 13.98 6 15 C5.01 15 4.02 15 3 15 C3 15.99 3 16.98 3 18 C2.01 18 1.02 18 0 18 C0 18.99 0 19.98 0 21 C-5.94 21 -11.88 21 -18 21 C-18 20.01 -18 19.02 -18 18 C-17.01 18 -16.02 18 -15 18 C-15 17.01 -15 16.02 -15 15 C-14.01 15 -13.02 15 -12 15 C-12 14.01 -12 13.02 -12 12 C-11.01 12 -10.02 12 -9 12 C-9 11.01 -9 10.02 -9 9 C-8.01 9 -7.02 9 -6 9 C-6 8.01 -6 7.02 -6 6 C-5.01 6 -4.02 6 -3 6 C-3 5.01 -3 4.02 -3 3 C-2.01 3 -1.02 3 0 3 C0 2.01 0 1.02 0 0 Z " fill="#9EE461" transform="translate(432,6)"/>
<path d="M0 0 C5.94 0 11.88 0 18 0 C18 0.99 18 1.98 18 3 C17.01 3 16.02 3 15 3 C15 3.99 15 4.98 15 6 C14.01 6 13.02 6 12 6 C12 6.99 12 7.98 12 9 C11.01 9 10.02 9 9 9 C9 9.99 9 10.98 9 12 C8.01 12 7.02 12 6 12 C6 12.99 6 13.98 6 15 C5.01 15 4.02 15 3 15 C3 15.99 3 16.98 3 18 C2.01 18 1.02 18 0 18 C0 18.99 0 19.98 0 21 C-5.94 21 -11.88 21 -18 21 C-18 20.01 -18 19.02 -18 18 C-17.01 18 -16.02 18 -15 18 C-15 17.01 -15 16.02 -15 15 C-14.01 15 -13.02 15 -12 15 C-12 14.01 -12 13.02 -12 12 C-11.01 12 -10.02 12 -9 12 C-9 11.01 -9 10.02 -9 9 C-8.01 9 -7.02 9 -6 9 C-6 8.01 -6 7.02 -6 6 C-5.01 6 -4.02 6 -3 6 C-3 5.01 -3 4.02 -3 3 C-2.01 3 -1.02 3 0 3 C0 2.01 0 1.02 0 0 Z " fill="#75BD3A" transform="translate(414,6)"/>
<path d="M0 0 C5.94 0 11.88 0 18 0 C18 0.99 18 1.98 18 3 C17.01 3 16.02 3 15 3 C15 3.99 15 4.98 15 6 C14.01 6 13.02 6 12 6 C12 6.99 12 7.98 12 9 C11.01 9 10.02 9 9 9 C9 9.99 9 10.98 9 12 C8.01 12 7.02 12 6 12 C6 12.99 6 13.98 6 15 C5.01 15 4.02 15 3 15 C3 15.99 3 16.98 3 18 C2.01 18 1.02 18 0 18 C0 18.99 0 19.98 0 21 C-5.94 21 -11.88 21 -18 21 C-18 20.01 -18 19.02 -18 18 C-17.01 18 -16.02 18 -15 18 C-15 17.01 -15 16.02 -15 15 C-14.01 15 -13.02 15 -12 15 C-12 14.01 -12 13.02 -12 12 C-11.01 12 -10.02 12 -9 12 C-9 11.01 -9 10.02 -9 9 C-8.01 9 -7.02 9 -6 9 C-6 8.01 -6 7.02 -6 6 C-5.01 6 -4.02 6 -3 6 C-3 5.01 -3 4.02 -3 3 C-2.01 3 -1.02 3 0 3 C0 2.01 0 1.02 0 0 Z " fill="#9EE461" transform="translate(396,6)"/>
<path d="M0 0 C5.94 0 11.88 0 18 0 C18 0.99 18 1.98 18 3 C17.01 3 16.02 3 15 3 C15 3.99 15 4.98 15 6 C14.01 6 13.02 6 12 6 C12 6.99 12 7.98 12 9 C11.01 9 10.02 9 9 9 C9 9.99 9 10.98 9 12 C8.01 12 7.02 12 6 12 C6 12.99 6 13.98 6 15 C5.01 15 4.02 15 3 15 C3 15.99 3 16.98 3 18 C2.01 18 1.02 18 0 18 C0 18.99 0 19.98 0 21 C-5.94 21 -11.88 21 -18 21 C-18 20.01 -18 19.02 -18 18 C-17.01 18 -16.02 18 -15 18 C-15 17.01 -15 16.02 -15 15 C-14.01 15 -13.02 15 -12 15 C-12 14.01 -12 13.02 -12 12 C-11.01 12 -10.02 12 -9 12 C-9 11.01 -9 10.02 -9 9 C-8.01 9 -7.02 9 -6 9 C-6 8.01 -6 7.02 -6 6 C-5.01 6 -4.02 6 -3 6 C-3 5.01 -3 4.02 -3 3 C-2.01 3 -1.02 3 0 3 C0 2.01 0 1.02 0 0 Z " fill="#75BD3A" transform="translate(378,6)"/>
<path d="M0 0 C5.94 0 11.88 0 18 0 C18 0.99 18 1.98 18 3 C17.01 3 16.02 3 15 3 C15 3.99 15 4.98 15 6 C14.01 6 13.02 6 12 6 C12 6.99 12 7.98 12 9 C11.01 9 10.02 9 9 9 C9 9.99 9 10.98 9 12 C8.01 12 7.02 12 6 12 C6 12.99 6 13.98 6 15 C5.01 15 4.02 15 3 15 C3 15.99 3 16.98 3 18 C2.01 18 1.02 18 0 18 C0 18.99 0 19.98 0 21 C-5.94 21 -11.88 21 -18 21 C-18 20.01 -18 19.02 -18 18 C-17.01 18 -16.02 18 -15 18 C-15 17.01 -15 16.02 -15 15 C-14.01 15 -13.02 15 -12 15 C-12 14.01 -12 13.02 -12 12 C-11.01 12 -10.02 12 -9 12 C-9 11.01 -9 10.02 -9 9 C-8.01 9 -7.02 9 -6 9 C-6 8.01 -6 7.02 -6 6 C-5.01 6 -4.02 6 -3 6 C-3 5.01 -3 4.02 -3 3 C-2.01 3 -1.02 3 0 3 C0 2.01 0 1.02 0 0 Z " fill="#9EE461" transform="translate(360,6)"/>
<path d="M0 0 C5.94 0 11.88 0 18 0 C18 0.99 18 1.98 18 3 C17.01 3 16.02 3 15 3 C15 3.99 15 4.98 15 6 C14.01 6 13.02 6 12 6 C12 6.99 12 7.98 12 9 C11.01 9 10.02 9 9 9 C9 9.99 9 10.98 9 12 C8.01 12 7.02 12 6 12 C6 12.99 6 13.98 6 15 C5.01 15 4.02 15 3 15 C3 15.99 3 16.98 3 18 C2.01 18 1.02 18 0 18 C0 18.99 0 19.98 0 21 C-5.94 21 -11.88 21 -18 21 C-18 20.01 -18 19.02 -18 18 C-17.01 18 -16.02 18 -15 18 C-15 17.01 -15 16.02 -15 15 C-14.01 15 -13.02 15 -12 15 C-12 14.01 -12 13.02 -12 12 C-11.01 12 -10.02 12 -9 12 C-9 11.01 -9 10.02 -9 9 C-8.01 9 -7.02 9 -6 9 C-6 8.01 -6 7.02 -6 6 C-5.01 6 -4.02 6 -3 6 C-3 5.01 -3 4.02 -3 3 C-2.01 3 -1.02 3 0 3 C0 2.01 0 1.02 0 0 Z " fill="#75BD3A" transform="translate(342,6)"/>
<path d="M0 0 C5.94 0 11.88 0 18 0 C18 0.99 18 1.98 18 3 C17.01 3 16.02 3 15 3 C15 3.99 15 4.98 15 6 C14.01 6 13.02 6 12 6 C12 6.99 12 7.98 12 9 C11.01 9 10.02 9 9 9 C9 9.99 9 10.98 9 12 C8.01 12 7.02 12 6 12 C6 12.99 6 13.98 6 15 C5.01 15 4.02 15 3 15 C3 15.99 3 16.98 3 18 C2.01 18 1.02 18 0 18 C0 18.99 0 19.98 0 21 C-5.94 21 -11.88 21 -18 21 C-18 20.01 -18 19.02 -18 18 C-17.01 18 -16.02 18 -15 18 C-15 17.01 -15 16.02 -15 15 C-14.01 15 -13.02 15 -12 15 C-12 14.01 -12 13.02 -12 12 C-11.01 12 -10.02 12 -9 12 C-9 11.01 -9 10.02 -9 9 C-8.01 9 -7.02 9 -6 9 C-6 8.01 -6 7.02 -6 6 C-5.01 6 -4.02 6 -3 6 C-3 5.01 -3 4.02 -3 3 C-2.01 3 -1.02 3 0 3 C0 2.01 0 1.02 0 0 Z " fill="#9EE461" transform="translate(324,6)"/>
<path d="M0 0 C5.94 0 11.88 0 18 0 C18 0.99 18 1.98 18 3 C17.01 3 16.02 3 15 3 C15 3.99 15 4.98 15 6 C14.01 6 13.02 6 12 6 C12 6.99 12 7.98 12 9 C11.01 9 10.02 9 9 9 C9 9.99 9 10.98 9 12 C8.01 12 7.02 12 6 12 C6 12.99 6 13.98 6 15 C5.01 15 4.02 15 3 15 C3 15.99 3 16.98 3 18 C2.01 18 1.02 18 0 18 C0 18.99 0 19.98 0 21 C-5.94 21 -11.88 21 -18 21 C-18 20.01 -18 19.02 -18 18 C-17.01 18 -16.02 18 -15 18 C-15 17.01 -15 16.02 -15 15 C-14.01 15 -13.02 15 -12 15 C-12 14.01 -12 13.02 -12 12 C-11.01 12 -10.02 12 -9 12 C-9 11.01 -9 10.02 -9 9 C-8.01 9 -7.02 9 -6 9 C-6 8.01 -6 7.02 -6 6 C-5.01 6 -4.02 6 -3 6 C-3 5.01 -3 4.02 -3 3 C-2.01 3 -1.02 3 0 3 C0 2.01 0 1.02 0 0 Z " fill="#75BD3A" transform="translate(306,6)"/>
<path d="M0 0 C5.94 0 11.88 0 18 0 C18 0.99 18 1.98 18 3 C17.01 3 16.02 3 15 3 C15 3.99 15 4.98 15 6 C14.01 6 13.02 6 12 6 C12 6.99 12 7.98 12 9 C11.01 9 10.02 9 9 9 C9 9.99 9 10.98 9 12 C8.01 12 7.02 12 6 12 C6 12.99 6 13.98 6 15 C5.01 15 4.02 15 3 15 C3 15.99 3 16.98 3 18 C2.01 18 1.02 18 0 18 C0 18.99 0 19.98 0 21 C-5.94 21 -11.88 21 -18 21 C-18 20.01 -18 19.02 -18 18 C-17.01 18 -16.02 18 -15 18 C-15 17.01 -15 16.02 -15 15 C-14.01 15 -13.02 15 -12 15 C-12 14.01 -12 13.02 -12 12 C-11.01 12 -10.02 12 -9 12 C-9 11.01 -9 10.02 -9 9 C-8.01 9 -7.02 9 -6 9 C-6 8.01 -6 7.02 -6 6 C-5.01 6 -4.02 6 -3 6 C-3 5.01 -3 4.02 -3 3 C-2.01 3 -1.02 3 0 3 C0 2.01 0 1.02 0 0 Z " fill="#9EE461" transform="translate(288,6)"/>
<path d="M0 0 C5.94 0 11.88 0 18 0 C18 0.99 18 1.98 18 3 C17.01 3 16.02 3 15 3 C15 3.99 15 4.98 15 6 C14.01 6 13.02 6 12 6 C12 6.99 12 7.98 12 9 C11.01 9 10.02 9 9 9 C9 9.99 9 10.98 9 12 C8.01 12 7.02 12 6 12 C6 12.99 6 13.98 6 15 C5.01 15 4.02 15 3 15 C3 15.99 3 16.98 3 18 C2.01 18 1.02 18 0 18 C0 18.99 0 19.98 0 21 C-5.94 21 -11.88 21 -18 21 C-18 20.01 -18 19.02 -18 18 C-17.01 18 -16.02 18 -15 18 C-15 17.01 -15 16.02 -15 15 C-14.01 15 -13.02 15 -12 15 C-12 14.01 -12 13.02 -12 12 C-11.01 12 -10.02 12 -9 12 C-9 11.01 -9 10.02 -9 9 C-8.01 9 -7.02 9 -6 9 C-6 8.01 -6 7.02 -6 6 C-5.01 6 -4.02 6 -3 6 C-3 5.01 -3 4.02 -3 3 C-2.01 3 -1.02 3 0 3 C0 2.01 0 1.02 0 0 Z " fill="#75BD3A" transform="translate(270,6)"/>
<path d="M0 0 C5.94 0 11.88 0 18 0 C18 0.99 18 1.98 18 3 C17.01 3 16.02 3 15 3 C15 3.99 15 4.98 15 6 C14.01 6 13.02 6 12 6 C12 6.99 12 7.98 12 9 C11.01 9 10.02 9 9 9 C9 9.99 9 10.98 9 12 C8.01 12 7.02 12 6 12 C6 12.99 6 13.98 6 15 C5.01 15 4.02 15 3 15 C3 15.99 3 16.98 3 18 C2.01 18 1.02 18 0 18 C0 18.99 0 19.98 0 21 C-5.94 21 -11.88 21 -18 21 C-18 20.01 -18 19.02 -18 18 C-17.01 18 -16.02 18 -15 18 C-15 17.01 -15 16.02 -15 15 C-14.01 15 -13.02 15 -12 15 C-12 14.01 -12 13.02 -12 12 C-11.01 12 -10.02 12 -9 12 C-9 11.01 -9 10.02 -9 9 C-8.01 9 -7.02 9 -6 9 C-6 8.01 -6 7.02 -6 6 C-5.01 6 -4.02 6 -3 6 C-3 5.01 -3 4.02 -3 3 C-2.01 3 -1.02 3 0 3 C0 2.01 0 1.02 0 0 Z " fill="#9EE461" transform="translate(252,6)"/>
<path d="M0 0 C5.94 0 11.88 0 18 0 C18 0.99 18 1.98 18 3 C17.01 3 16.02 3 15 3 C15 3.99 15 4.98 15 6 C14.01 6 13.02 6 12 6 C12 6.99 12 7.98 12 9 C11.01 9 10.02 9 9 9 C9 9.99 9 10.98 9 12 C8.01 12 7.02 12 6 12 C6 12.99 6 13.98 6 15 C5.01 15 4.02 15 3 15 C3 15.99 3 16.98 3 18 C2.01 18 1.02 18 0 18 C0 18.99 0 19.98 0 21 C-5.94 21 -11.88 21 -18 21 C-18 20.01 -18 19.02 -18 18 C-17.01 18 -16.02 18 -15 18 C-15 17.01 -15 16.02 -15 15 C-14.01 15 -13.02 15 -12 15 C-12 14.01 -12 13.02 -12 12 C-11.01 12 -10.02 12 -9 12 C-9 11.01 -9 10.02 -9 9 C-8.01 9 -7.02 9 -6 9 C-6 8.01 -6 7.02 -6 6 C-5.01 6 -4.02 6 -3 6 C-3 5.01 -3 4.02 -3 3 C-2.01 3 -1.02 3 0 3 C0 2.01 0 1.02 0 0 Z " fill="#75BD3A" transform="translate(234,6)"/>
<path d="M0 0 C5.94 0 11.88 0 18 0 C18 0.99 18 1.98 18 3 C17.01 3 16.02 3 15 3 C15 3.99 15 4.98 15 6 C14.01 6 13.02 6 12 6 C12 6.99 12 7.98 12 9 C11.01 9 10.02 9 9 9 C9 9.99 9 10.98 9 12 C8.01 12 7.02 12 6 12 C6 12.99 6 13.98 6 15 C5.01 15 4.02 15 3 15 C3 15.99 3 16.98 3 18 C2.01 18 1.02 18 0 18 C0 18.99 0 19.98 0 21 C-5.94 21 -11.88 21 -18 21 C-18 20.01 -18 19.02 -18 18 C-17.01 18 -16.02 18 -15 18 C-15 17.01 -15 16.02 -15 15 C-14.01 15 -13.02 15 -12 15 C-12 14.01 -12 13.02 -12 12 C-11.01 12 -10.02 12 -9 12 C-9 11.01 -9 10.02 -9 9 C-8.01 9 -7.02 9 -6 9 C-6 8.01 -6 7.02 -6 6 C-5.01 6 -4.02 6 -3 6 C-3 5.01 -3 4.02 -3 3 C-2.01 3 -1.02 3 0 3 C0 2.01 0 1.02 0 0 Z " fill="#9EE461" transform="translate(216,6)"/>
<path d="M0 0 C5.94 0 11.88 0 18 0 C18 0.99 18 1.98 18 3 C17.01 3 16.02 3 15 3 C15 3.99 15 4.98 15 6 C14.01 6 13.02 6 12 6 C12 6.99 12 7.98 12 9 C11.01 9 10.02 9 9 9 C9 9.99 9 10.98 9 12 C8.01 12 7.02 12 6 12 C6 12.99 6 13.98 6 15 C5.01 15 4.02 15 3 15 C3 15.99 3 16.98 3 18 C2.01 18 1.02 18 0 18 C0 18.99 0 19.98 0 21 C-5.94 21 -11.88 21 -18 21 C-18 20.01 -18 19.02 -18 18 C-17.01 18 -16.02 18 -15 18 C-15 17.01 -15 16.02 -15 15 C-14.01 15 -13.02 15 -12 15 C-12 14.01 -12 13.02 -12 12 C-11.01 12 -10.02 12 -9 12 C-9 11.01 -9 10.02 -9 9 C-8.01 9 -7.02 9 -6 9 C-6 8.01 -6 7.02 -6 6 C-5.01 6 -4.02 6 -3 6 C-3 5.01 -3 4.02 -3 3 C-2.01 3 -1.02 3 0 3 C0 2.01 0 1.02 0 0 Z " fill="#75BD3A" transform="translate(198,6)"/>
<path d="M0 0 C5.94 0 11.88 0 18 0 C18 0.99 18 1.98 18 3 C17.01 3 16.02 3 15 3 C15 3.99 15 4.98 15 6 C14.01 6 13.02 6 12 6 C12 6.99 12 7.98 12 9 C11.01 9 10.02 9 9 9 C9 9.99 9 10.98 9 12 C8.01 12 7.02 12 6 12 C6 12.99 6 13.98 6 15 C5.01 15 4.02 15 3 15 C3 15.99 3 16.98 3 18 C2.01 18 1.02 18 0 18 C0 18.99 0 19.98 0 21 C-5.94 21 -11.88 21 -18 21 C-18 20.01 -18 19.02 -18 18 C-17.01 18 -16.02 18 -15 18 C-15 17.01 -15 16.02 -15 15 C-14.01 15 -13.02 15 -12 15 C-12 14.01 -12 13.02 -12 12 C-11.01 12 -10.02 12 -9 12 C-9 11.01 -9 10.02 -9 9 C-8.01 9 -7.02 9 -6 9 C-6 8.01 -6 7.02 -6 6 C-5.01 6 -4.02 6 -3 6 C-3 5.01 -3 4.02 -3 3 C-2.01 3 -1.02 3 0 3 C0 2.01 0 1.02 0 0 Z " fill="#9EE461" transform="translate(180,6)"/>
<path d="M0 0 C5.94 0 11.88 0 18 0 C18 0.99 18 1.98 18 3 C17.01 3 16.02 3 15 3 C15 3.99 15 4.98 15 6 C14.01 6 13.02 6 12 6 C12 6.99 12 7.98 12 9 C11.01 9 10.02 9 9 9 C9 9.99 9 10.98 9 12 C8.01 12 7.02 12 6 12 C6 12.99 6 13.98 6 15 C5.01 15 4.02 15 3 15 C3 15.99 3 16.98 3 18 C2.01 18 1.02 18 0 18 C0 18.99 0 19.98 0 21 C-5.94 21 -11.88 21 -18 21 C-18 20.01 -18 19.02 -18 18 C-17.01 18 -16.02 18 -15 18 C-15 17.01 -15 16.02 -15 15 C-14.01 15 -13.02 15 -12 15 C-12 14.01 -12 13.02 -12 12 C-11.01 12 -10.02 12 -9 12 C-9 11.01 -9 10.02 -9 9 C-8.01 9 -7.02 9 -6 9 C-6 8.01 -6 7.02 -6 6 C-5.01 6 -4.02 6 -3 6 C-3 5.01 -3 4.02 -3 3 C-2.01 3 -1.02 3 0 3 C0 2.01 0 1.02 0 0 Z " fill="#75BD3A" transform="translate(162,6)"/>
<path d="M0 0 C5.94 0 11.88 0 18 0 C18 0.99 18 1.98 18 3 C17.01 3 16.02 3 15 3 C15 3.99 15 4.98 15 6 C14.01 6 13.02 6 12 6 C12 6.99 12 7.98 12 9 C11.01 9 10.02 9 9 9 C9 9.99 9 10.98 9 12 C8.01 12 7.02 12 6 12 C6 12.99 6 13.98 6 15 C5.01 15 4.02 15 3 15 C3 15.99 3 16.98 3 18 C2.01 18 1.02 18 0 18 C0 18.99 0 19.98 0 21 C-5.94 21 -11.88 21 -18 21 C-18 20.01 -18 19.02 -18 18 C-17.01 18 -16.02 18 -15 18 C-15 17.01 -15 16.02 -15 15 C-14.01 15 -13.02 15 -12 15 C-12 14.01 -12 13.02 -12 12 C-11.01 12 -10.02 12 -9 12 C-9 11.01 -9 10.02 -9 9 C-8.01 9 -7.02 9 -6 9 C-6 8.01 -6 7.02 -6 6 C-5.01 6 -4.02 6 -3 6 C-3 5.01 -3 4.02 -3 3 C-2.01 3 -1.02 3 0 3 C0 2.01 0 1.02 0 0 Z " fill="#9EE461" transform="translate(144,6)"/>
<path d="M0 0 C5.94 0 11.88 0 18 0 C18 0.99 18 1.98 18 3 C17.01 3 16.02 3 15 3 C15 3.99 15 4.98 15 6 C14.01 6 13.02 6 12 6 C12 6.99 12 7.98 12 9 C11.01 9 10.02 9 9 9 C9 9.99 9 10.98 9 12 C8.01 12 7.02 12 6 12 C6 12.99 6 13.98 6 15 C5.01 15 4.02 15 3 15 C3 15.99 3 16.98 3 18 C2.01 18 1.02 18 0 18 C0 18.99 0 19.98 0 21 C-5.94 21 -11.88 21 -18 21 C-18 20.01 -18 19.02 -18 18 C-17.01 18 -16.02 18 -15 18 C-15 17.01 -15 16.02 -15 15 C-14.01 15 -13.02 15 -12 15 C-12 14.01 -12 13.02 -12 12 C-11.01 12 -10.02 12 -9 12 C-9 11.01 -9 10.02 -9 9 C-8.01 9 -7.02 9 -6 9 C-6 8.01 -6 7.02 -6 6 C-5.01 6 -4.02 6 -3 6 C-3 5.01 -3 4.02 -3 3 C-2.01 3 -1.02 3 0 3 C0 2.01 0 1.02 0 0 Z " fill="#75BD3A" transform="translate(126,6)"/>
<path d="M0 0 C5.94 0 11.88 0 18 0 C18 0.99 18 1.98 18 3 C17.01 3 16.02 3 15 3 C15 3.99 15 4.98 15 6 C14.01 6 13.02 6 12 6 C12 6.99 12 7.98 12 9 C11.01 9 10.02 9 9 9 C9 9.99 9 10.98 9 12 C8.01 12 7.02 12 6 12 C6 12.99 6 13.98 6 15 C5.01 15 4.02 15 3 15 C3 15.99 3 16.98 3 18 C2.01 18 1.02 18 0 18 C0 18.99 0 19.98 0 21 C-5.94 21 -11.88 21 -18 21 C-18 20.01 -18 19.02 -18 18 C-17.01 18 -16.02 18 -15 18 C-15 17.01 -15 16.02 -15 15 C-14.01 15 -13.02 15 -12 15 C-12 14.01 -12 13.02 -12 12 C-11.01 12 -10.02 12 -9 12 C-9 11.01 -9 10.02 -9 9 C-8.01 9 -7.02 9 -6 9 C-6 8.01 -6 7.02 -6 6 C-5.01 6 -4.02 6 -3 6 C-3 5.01 -3 4.02 -3 3 C-2.01 3 -1.02 3 0 3 C0 2.01 0 1.02 0 0 Z " fill="#9EE461" transform="translate(108,6)"/>
<path d="M0 0 C5.94 0 11.88 0 18 0 C18 0.99 18 1.98 18 3 C17.01 3 16.02 3 15 3 C15 3.99 15 4.98 15 6 C14.01 6 13.02 6 12 6 C12 6.99 12 7.98 12 9 C11.01 9 10.02 9 9 9 C9 9.99 9 10.98 9 12 C8.01 12 7.02 12 6 12 C6 12.99 6 13.98 6 15 C5.01 15 4.02 15 3 15 C3 15.99 3 16.98 3 18 C2.01 18 1.02 18 0 18 C0 18.99 0 19.98 0 21 C-5.94 21 -11.88 21 -18 21 C-18 20.01 -18 19.02 -18 18 C-17.01 18 -16.02 18 -15 18 C-15 17.01 -15 16.02 -15 15 C-14.01 15 -13.02 15 -12 15 C-12 14.01 -12 13.02 -12 12 C-11.01 12 -10.02 12 -9 12 C-9 11.01 -9 10.02 -9 9 C-8.01 9 -7.02 9 -6 9 C-6 8.01 -6 7.02 -6 6 C-5.01 6 -4.02 6 -3 6 C-3 5.01 -3 4.02 -3 3 C-2.01 3 -1.02 3 0 3 C0 2.01 0 1.02 0 0 Z " fill="#75BD3A" transform="translate(90,6)"/>
<path d="M0 0 C5.94 0 11.88 0 18 0 C18 0.99 18 1.98 18 3 C17.01 3 16.02 3 15 3 C15 3.99 15 4.98 15 6 C14.01 6 13.02 6 12 6 C12 6.99 12 7.98 12 9 C11.01 9 10.02 9 9 9 C9 9.99 9 10.98 9 12 C8.01 12 7.02 12 6 12 C6 12.99 6 13.98 6 15 C5.01 15 4.02 15 3 15 C3 15.99 3 16.98 3 18 C2.01 18 1.02 18 0 18 C0 18.99 0 19.98 0 21 C-5.94 21 -11.88 21 -18 21 C-18 20.01 -18 19.02 -18 18 C-17.01 18 -16.02 18 -15 18 C-15 17.01 -15 16.02 -15 15 C-14.01 15 -13.02 15 -12 15 C-12 14.01 -12 13.02 -12 12 C-11.01 12 -10.02 12 -9 12 C-9 11.01 -9 10.02 -9 9 C-8.01 9 -7.02 9 -6 9 C-6 8.01 -6 7.02 -6 6 C-5.01 6 -4.02 6 -3 6 C-3 5.01 -3 4.02 -3 3 C-2.01 3 -1.02 3 0 3 C0 2.01 0 1.02 0 0 Z " fill="#9EE461" transform="translate(72,6)"/>
<path d="M0 0 C5.94 0 11.88 0 18 0 C18 0.99 18 1.98 18 3 C17.01 3 16.02 3 15 3 C15 3.99 15 4.98 15 6 C14.01 6 13.02 6 12 6 C12 6.99 12 7.98 12 9 C11.01 9 10.02 9 9 9 C9 9.99 9 10.98 9 12 C8.01 12 7.02 12 6 12 C6 12.99 6 13.98 6 15 C5.01 15 4.02 15 3 15 C3 15.99 3 16.98 3 18 C2.01 18 1.02 18 0 18 C0 18.99 0 19.98 0 21 C-5.94 21 -11.88 21 -18 21 C-18 20.01 -18 19.02 -18 18 C-17.01 18 -16.02 18 -15 18 C-15 17.01 -15 16.02 -15 15 C-14.01 15 -13.02 15 -12 15 C-12 14.01 -12 13.02 -12 12 C-11.01 12 -10.02 12 -9 12 C-9 11.01 -9 10.02 -9 9 C-8.01 9 -7.02 9 -6 9 C-6 8.01 -6 7.02 -6 6 C-5.01 6 -4.02 6 -3 6 C-3 5.01 -3 4.02 -3 3 C-2.01 3 -1.02 3 0 3 C0 2.01 0 1.02 0 0 Z " fill="#75BD3A" transform="translate(54,6)"/>
<path d="M0 0 C5.94 0 11.88 0 18 0 C18 0.99 18 1.98 18 3 C17.01 3 16.02 3 15 3 C15 3.99 15 4.98 15 6 C14.01 6 13.02 6 12 6 C12 6.99 12 7.98 12 9 C11.01 9 10.02 9 9 9 C9 9.99 9 10.98 9 12 C8.01 12 7.02 12 6 12 C6 12.99 6 13.98 6 15 C5.01 15 4.02 15 3 15 C3 15.99 3 16.98 3 18 C2.01 18 1.02 18 0 18 C0 18.99 0 19.98 0 21 C-5.94 21 -11.88 21 -18 21 C-18 20.01 -18 19.02 -18 18 C-17.01 18 -16.02 18 -15 18 C-15 17.01 -15 16.02 -15 15 C-14.01 15 -13.02 15 -12 15 C-12 14.01 -12 13.02 -12 12 C-11.01 12 -10.02 12 -9 12 C-9 11.01 -9 10.02 -9 9 C-8.01 9 -7.02 9 -6 9 C-6 8.01 -6 7.02 -6 6 C-5.01 6 -4.02 6 -3 6 C-3 5.01 -3 4.02 -3 3 C-2.01 3 -1.02 3 0 3 C0 2.01 0 1.02 0 0 Z " fill="#9EE461" transform="translate(36,6)"/>
<path d="M0 0 C0.99 0 1.98 0 3 0 C3 5.94 3 11.88 3 18 C-2.94 18 -8.88 18 -15 18 C-15 17.01 -15 16.02 -15 15 C-14.01 15 -13.02 15 -12 15 C-12 14.01 -12 13.02 -12 12 C-11.01 12 -10.02 12 -9 12 C-9 11.01 -9 10.02 -9 9 C-8.01 9 -7.02 9 -6 9 C-6 8.01 -6 7.02 -6 6 C-5.01 6 -4.02 6 -3 6 C-3 5.01 -3 4.02 -3 3 C-2.01 3 -1.02 3 0 3 C0 2.01 0 1.02 0 0 Z " fill="#9EE461" transform="translate(897,9)"/>
<path d="M0 0 C5.94 0 11.88 0 18 0 C18 0.99 18 1.98 18 3 C17.01 3 16.02 3 15 3 C15 3.99 15 4.98 15 6 C14.01 6 13.02 6 12 6 C12 6.99 12 7.98 12 9 C11.01 9 10.02 9 9 9 C9 9.99 9 10.98 9 12 C8.01 12 7.02 12 6 12 C6 12.99 6 13.98 6 15 C5.01 15 4.02 15 3 15 C3 15.99 3 16.98 3 18 C2.01 18 1.02 18 0 18 C0 12.06 0 6.12 0 0 Z " fill="#9EE461" transform="translate(0,6)"/>
</svg>
