<?xml version="1.0" encoding="UTF-8"?>
<svg version="1.1" xmlns="http://www.w3.org/2000/svg" width="1920" height="1080">
<path d="M0 0 C72.93 0 145.86 0 221 0 C221 20.46 221 40.92 221 62 C148.07 62 75.14 62 0 62 C0 41.54 0 21.08 0 0 Z " fill="#E6621F" transform="translate(848,509)"/>
<path d="M0 0 C72.93 0 145.86 0 221 0 C221 20.46 221 40.92 221 62 C148.07 62 75.14 62 0 62 C0 41.54 0 21.08 0 0 Z M22 9 C22 23.85 22 38.7 22 54 C81.07 54 140.14 54 201 54 C201 39.15 201 24.3 201 9 C141.93 9 82.86 9 22 9 Z " fill="#FEFDFD" transform="translate(848,509)"/>
<path d="M0 0 C1.65 0 3.3 0 5 0 C5 0.66 5 1.32 5 2 C5.66 2 6.32 2 7 2 C7 2.99 7 3.98 7 5 C7.66 5 8.32 5 9 5 C9 5.66 9 6.32 9 7 C9.99 7 10.98 7 12 7 C12 6.34 12 5.68 12 5 C12.66 5 13.32 5 14 5 C14 4.34 14 3.68 14 3 C14.66 3 15.32 3 16 3 C16 2.01 16 1.02 16 0 C17.65 0 19.3 0 21 0 C21 7.59 21 15.18 21 23 C19.35 23 17.7 23 16 23 C16 18.38 16 13.76 16 9 C15.34 9 14.68 9 14 9 C14 9.99 14 10.98 14 12 C13.34 12 12.68 12 12 12 C12 12.66 12 13.32 12 14 C11.01 14 10.02 14 9 14 C9 13.34 9 12.68 9 12 C8.01 12 7.02 12 6 12 C5.67 15.63 5.34 19.26 5 23 C3.35 23 1.7 23 0 23 C0 15.41 0 7.82 0 0 Z " fill="#FCF1EB" transform="translate(882,528)"/>
<path d="M0 0 C2.31 0 4.62 0 7 0 C7 1.65 7 3.3 7 5 C7.66 5 8.32 5 9 5 C9 6.32 9 7.64 9 9 C9.66 9 10.32 9 11 9 C11 10.65 11 12.3 11 14 C11.66 14 12.32 14 13 14 C13 9.38 13 4.76 13 0 C14.65 0 16.3 0 18 0 C18 7.59 18 15.18 18 23 C15.69 23 13.38 23 11 23 C11 22.34 11 21.68 11 21 C10.34 21 9.68 21 9 21 C9 19.35 9 17.7 9 16 C8.34 16 7.68 16 7 16 C7 14.35 7 12.7 7 11 C6.01 11 5.02 11 4 11 C4 14.96 4 18.92 4 23 C2.68 23 1.36 23 0 23 C0 15.41 0 7.82 0 0 Z " fill="#FEF8F6" transform="translate(930,528)"/>
<path d="M0 0 C1.98 0 3.96 0 6 0 C6 1.65 6 3.3 6 5 C6.66 5 7.32 5 8 5 C8 6.32 8 7.64 8 9 C8.99 9 9.98 9 11 9 C11 10.65 11 12.3 11 14 C11.66 14 12.32 14 13 14 C13 9.38 13 4.76 13 0 C14.65 0 16.3 0 18 0 C18 7.59 18 15.18 18 23 C15.69 23 13.38 23 11 23 C11 22.34 11 21.68 11 21 C10.34 21 9.68 21 9 21 C9 19.35 9 17.7 9 16 C8.01 16 7.02 16 6 16 C6 14.68 6 13.36 6 12 C5.34 12 4.68 12 4 12 C4 15.63 4 19.26 4 23 C2.68 23 1.36 23 0 23 C0 15.41 0 7.82 0 0 Z " fill="#FDF7F4" transform="translate(999,528)"/>
<path d="M0 0 C1.65 0 3.3 0 5 0 C5 0.99 5 1.98 5 3 C5.66 3 6.32 3 7 3 C7 3.66 7 4.32 7 5 C7.66 5 8.32 5 9 5 C9 5.66 9 6.32 9 7 C9.99 7 10.98 7 12 7 C12 6.34 12 5.68 12 5 C12.66 5 13.32 5 14 5 C14 4.01 14 3.02 14 2 C14.66 2 15.32 2 16 2 C16 1.34 16 0.68 16 0 C17.65 0 19.3 0 21 0 C21 7.59 21 15.18 21 23 C19.68 23 18.36 23 17 23 C17 18.38 17 13.76 17 9 C16.01 9 15.02 9 14 9 C14 9.99 14 10.98 14 12 C13.34 12 12.68 12 12 12 C12 12.66 12 13.32 12 14 C11.34 14 10.68 14 10 14 C10 13.01 10 12.02 10 11 C9.34 11 8.68 11 8 11 C8 10.34 8 9.68 8 9 C7.01 9 6.02 9 5 9 C5 13.62 5 18.24 5 23 C3.35 23 1.7 23 0 23 C0 15.41 0 7.82 0 0 Z " fill="#FDF5F1" transform="translate(959,528)"/>
<path d="M0 0 C0.99 0 1.98 0 3 0 C3 0.66 3 1.32 3 2 C3.66 2 4.32 2 5 2 C5 2.99 5 3.98 5 5 C5.66 5 6.32 5 7 5 C7 5.66 7 6.32 7 7 C7.99 7 8.98 7 10 7 C10 12.28 10 17.56 10 23 C8.35 23 6.7 23 5 23 C5 21.35 5 19.7 5 18 C2.69 18 0.38 18 -2 18 C-2 19.65 -2 21.3 -2 23 C-3.32 23 -4.64 23 -6 23 C-6 17.72 -6 12.44 -6 7 C-5.34 7 -4.68 7 -4 7 C-4 6.34 -4 5.68 -4 5 C-3.34 5 -2.68 5 -2 5 C-2 4.01 -2 3.02 -2 2 C-1.34 2 -0.68 2 0 2 C0 1.34 0 0.68 0 0 Z " fill="#FDF7F4" transform="translate(911,528)"/>
<path d="M0 0 C1.65 0 3.3 0 5 0 C5 5.28 5 10.56 5 16 C5.66 16 6.32 16 7 16 C7 16.66 7 17.32 7 18 C7.66 18 8.32 18 9 18 C9 17.34 9 16.68 9 16 C9.66 16 10.32 16 11 16 C11 10.72 11 5.44 11 0 C12.65 0 14.3 0 16 0 C16 6.93 16 13.86 16 21 C15.34 21 14.68 21 14 21 C14 21.66 14 22.32 14 23 C10.04 23 6.08 23 2 23 C2 22.34 2 21.68 2 21 C1.34 21 0.68 21 0 21 C0 14.07 0 7.14 0 0 Z " fill="#FDF2ED" transform="translate(1019,528)"/>
<path d="M0 0 C4.62 0 9.24 0 14 0 C14 1.65 14 3.3 14 5 C11.03 5 8.06 5 5 5 C5 6.32 5 7.64 5 9 C7.31 9 9.62 9 12 9 C12 10.65 12 12.3 12 14 C9.69 14 7.38 14 5 14 C5 15.32 5 16.64 5 18 C7.97 18 10.94 18 14 18 C14 19.65 14 21.3 14 23 C9.38 23 4.76 23 0 23 C0 15.41 0 7.82 0 0 Z " fill="#FCEFE8" transform="translate(982,528)"/>
<path d="M0 0 C0.99 0 1.98 0 3 0 C3 7.59 3 15.18 3 23 C2.01 23 1.02 23 0 23 C0 21.35 0 19.7 0 18 C-2.97 18 -5.94 18 -9 18 C-9 16.68 -9 15.36 -9 14 C-6.69 14 -4.38 14 -2 14 C-2 12.35 -2 10.7 -2 9 C-4.31 9 -6.62 9 -9 9 C-9 7.68 -9 6.36 -9 5 C-6.03 5 -3.06 5 0 5 C0 3.35 0 1.7 0 0 Z " fill="#E86F32" transform="translate(996,528)"/>
<path d="M0 0 C1.65 0 3.3 0 5 0 C5 7.59 5 15.18 5 23 C3.35 23 1.7 23 0 23 C0 15.41 0 7.82 0 0 Z " fill="#FCF0E9" transform="translate(923,528)"/>
<path d="M0 0 C0.66 0 1.32 0 2 0 C2 0.66 2 1.32 2 2 C2.66 2 3.32 2 4 2 C4 3.65 4 5.3 4 7 C1.69 7 -0.62 7 -3 7 C-3 5.35 -3 3.7 -3 2 C-2.01 2 -1.02 2 0 2 C0 1.34 0 0.68 0 0 Z " fill="#E87134" transform="translate(912,535)"/>
</svg>
