<?xml version="1.0" encoding="UTF-8"?>
<svg version="1.1" xmlns="http://www.w3.org/2000/svg" width="152" height="190">
<path d="M0 0 C50.16 0 100.32 0 152 0 C152 62.7 152 125.4 152 190 C101.84 190 51.68 190 0 190 C0 127.3 0 64.6 0 0 Z " fill="#352C78" transform="translate(0,0)"/>
<path d="M0 0 C0.33 0 0.66 0 1 0 C1 1.65 1 3.3 1 5 C1.99 5 2.98 5 4 5 C5.80230168 8.82989106 6.19622241 11.78121808 6 16 C7.32 16 8.64 16 10 16 C10 15.01 10 14.02 10 13 C12.64 13 15.28 13 18 13 C18 13.99 18 14.98 18 16 C18.99 16 19.98 16 21 16 C21 14.02 21 12.04 21 10 C21.99 10 22.98 10 24 10 C24 8.68 24 7.36 24 6 C24.99 6 25.98 6 27 6 C27.33 4.68 27.66 3.36 28 2 C28.495 5.96 28.495 5.96 29 10 C29.66 10 30.32 10 31 10 C31 11.32 31 12.64 31 14 C33.31 14 35.62 14 38 14 C38 14.99 38 15.98 38 17 C38.99 17 39.98 17 41 17 C40.979375 15.88625 40.95875 14.7725 40.9375 13.625 C41 10 41 10 42 8 C43.32 8 44.64 8 46 8 C46 8.66 46 9.32 46 10 C49.465 9.505 49.465 9.505 53 9 C53 9.66 53 10.32 53 11 C53.66 11 54.32 11 55 11 C55 12.32 55 13.64 55 15 C57.85078091 15.76716851 57.85078091 15.76716851 61 16 C62.89958081 14.68681738 62.89958081 14.68681738 64 13 C64 13.99 64 14.98 64 16 C64.66 16 65.32 16 66 16 C66 15.01 66 14.02 66 13 C66.66 13 67.32 13 68 13 C68 11.68 68 10.36 68 9 C69.32 9 70.64 9 72 9 C72 10.32 72 11.64 72 13 C73.98 13 75.96 13 78 13 C83.57890518 35.31562072 79 58.99758467 79 82 C28.84 82 -21.32 82 -73 82 C-73 59.56 -73 37.12 -73 14 C-70.03 14.495 -70.03 14.495 -67 15 C-66.67 14.01 -66.34 13.02 -66 12 C-65.34 12 -64.68 12 -64 12 C-64 10.02 -64 8.04 -64 6 C-63.67 6 -63.34 6 -63 6 C-62.67 9.63 -62.34 13.26 -62 17 C-61.34 17 -60.68 17 -60 17 C-59.34 15.68 -58.68 14.36 -58 13 C-57.34 13 -56.68 13 -56 13 C-55.67 12.01 -55.34 11.02 -55 10 C-54.34 10 -53.68 10 -53 10 C-52.67 9.01 -52.34 8.02 -52 7 C-52 7.99 -52 8.98 -52 10 C-51.0409375 10.1546875 -51.0409375 10.1546875 -50.0625 10.3125 C-49.381875 10.539375 -48.70125 10.76625 -48 11 C-47.67 11.99 -47.34 12.98 -47 14 C-46.71125 13.0925 -46.4225 12.185 -46.125 11.25 C-45.23468224 8.67797092 -44.28505587 6.38653234 -43 4 C-43 5.32 -43 6.64 -43 8 C-41.68 8 -40.36 8 -39 8 C-38.34 9.98 -37.68 11.96 -37 14 C-36.01 13.67 -35.02 13.34 -34 13 C-33.34 13.33 -32.68 13.66 -32 14 C-32 13.34 -32 12.68 -32 12 C-31.01 12 -30.02 12 -29 12 C-28.67 10.35 -28.34 8.7 -28 7 C-24.535 6.505 -24.535 6.505 -21 6 C-21 5.34 -21 4.68 -21 4 C-19.68 4 -18.36 4 -17 4 C-15.79727181 6.40545638 -15.89928528 7.94996953 -15.9375 10.625 C-15.94652344 11.44226563 -15.95554688 12.25953125 -15.96484375 13.1015625 C-15.97644531 13.72804688 -15.98804688 14.35453125 -16 15 C-14.68 15 -13.36 15 -12 15 C-11.67 14.01 -11.34 13.02 -11 12 C-9.35 12 -7.7 12 -6 12 C-5.67 11.01 -5.34 10.02 -5 9 C-4.34 9 -3.68 9 -3 9 C-3 7.68 -3 6.36 -3 5 C-2.01 5 -1.02 5 0 5 C0 3.35 0 1.7 0 0 Z " fill="#362755" transform="translate(73,108)"/>
<path d="M0 0 C3.45801901 2.83325087 6.42825342 5.4432325 8.171875 9.6484375 C8.2496096 11.98047562 8.26155228 14.31682809 8.171875 16.6484375 C8.501875 16.9784375 8.831875 17.3084375 9.171875 17.6484375 C9.501875 17.6484375 9.831875 17.6484375 10.171875 17.6484375 C10.171875 24.2484375 10.171875 30.8484375 10.171875 37.6484375 C9.841875 36.3284375 9.511875 35.0084375 9.171875 33.6484375 C7.191875 33.6484375 5.211875 33.6484375 3.171875 33.6484375 C3.171875 32.3284375 3.171875 31.0084375 3.171875 29.6484375 C1.851875 29.6484375 0.531875 29.6484375 -0.828125 29.6484375 C-0.828125 30.9684375 -0.828125 32.2884375 -0.828125 33.6484375 C-1.488125 33.6484375 -2.148125 33.6484375 -2.828125 33.6484375 C-2.828125 34.6384375 -2.828125 35.6284375 -2.828125 36.6484375 C-10.203125 36.6484375 -10.203125 36.6484375 -13.828125 35.6484375 C-13.828125 34.3284375 -13.828125 33.0084375 -13.828125 31.6484375 C-14.488125 31.6484375 -15.148125 31.6484375 -15.828125 31.6484375 C-15.828125 30.9884375 -15.828125 30.3284375 -15.828125 29.6484375 C-19.293125 30.1434375 -19.293125 30.1434375 -22.828125 30.6484375 C-22.828125 29.9884375 -22.828125 29.3284375 -22.828125 28.6484375 C-24.148125 28.6484375 -25.468125 28.6484375 -26.828125 28.6484375 C-27.158125 31.6184375 -27.488125 34.5884375 -27.828125 37.6484375 C-28.818125 37.6484375 -29.808125 37.6484375 -30.828125 37.6484375 C-30.828125 36.6584375 -30.828125 35.6684375 -30.828125 34.6484375 C-33.138125 34.6484375 -35.448125 34.6484375 -37.828125 34.6484375 C-37.828125 33.3284375 -37.828125 32.0084375 -37.828125 30.6484375 C-38.488125 30.6484375 -39.148125 30.6484375 -39.828125 30.6484375 C-40.818125 28.6684375 -40.818125 28.6684375 -41.828125 26.6484375 C-42.818125 26.6484375 -43.808125 26.6484375 -44.828125 26.6484375 C-44.828125 27.9684375 -44.828125 29.2884375 -44.828125 30.6484375 C-45.818125 30.6484375 -46.808125 30.6484375 -47.828125 30.6484375 C-47.828125 32.6284375 -47.828125 34.6084375 -47.828125 36.6484375 C-48.818125 36.6484375 -49.808125 36.6484375 -50.828125 36.6484375 C-50.828125 35.6584375 -50.828125 34.6684375 -50.828125 33.6484375 C-53.468125 33.6484375 -56.108125 33.6484375 -58.828125 33.6484375 C-58.828125 34.6384375 -58.828125 35.6284375 -58.828125 36.6484375 C-60.148125 36.6484375 -61.468125 36.6484375 -62.828125 36.6484375 C-64.02099911 32.77159663 -64.828125 29.73221827 -64.828125 25.6484375 C-67.138125 25.6484375 -69.448125 25.6484375 -71.828125 25.6484375 C-71.828125 26.9684375 -71.828125 28.2884375 -71.828125 29.6484375 C-74.02063974 32.76411633 -76.22202025 32.98415505 -79.828125 33.6484375 C-80.323125 34.6384375 -80.323125 34.6384375 -80.828125 35.6484375 C-82.148125 35.6484375 -83.468125 35.6484375 -84.828125 35.6484375 C-85.158125 32.0184375 -85.488125 28.3884375 -85.828125 24.6484375 C-87.148125 24.6484375 -88.468125 24.6484375 -89.828125 24.6484375 C-89.828125 25.3084375 -89.828125 25.9684375 -89.828125 26.6484375 C-93.293125 27.1434375 -93.293125 27.1434375 -96.828125 27.6484375 C-96.828125 29.9584375 -96.828125 32.2684375 -96.828125 34.6484375 C-97.158125 33.9884375 -97.488125 33.3284375 -97.828125 32.6484375 C-98.818125 32.6484375 -99.808125 32.6484375 -100.828125 32.6484375 C-100.828125 33.3084375 -100.828125 33.9684375 -100.828125 34.6484375 C-103.798125 35.1434375 -103.798125 35.1434375 -106.828125 35.6484375 C-107.323125 32.1834375 -107.323125 32.1834375 -107.828125 28.6484375 C-109.478125 28.6484375 -111.128125 28.6484375 -112.828125 28.6484375 C-113.26125 30.1025 -113.26125 30.1025 -113.703125 31.5859375 C-114.828125 34.6484375 -114.828125 34.6484375 -116.828125 35.6484375 C-117.158125 34.3284375 -117.488125 33.0084375 -117.828125 31.6484375 C-119.50640908 30.68219583 -119.50640908 30.68219583 -121.828125 30.6484375 C-125.96235757 33.57912297 -125.96235757 33.57912297 -128.828125 37.6484375 C-129.488125 37.6484375 -130.148125 37.6484375 -130.828125 37.6484375 C-131.488125 35.9984375 -132.148125 34.3484375 -132.828125 32.6484375 C-133.488125 32.6484375 -134.148125 32.6484375 -134.828125 32.6484375 C-135.158125 33.9684375 -135.488125 35.2884375 -135.828125 36.6484375 C-137.808125 35.9884375 -139.788125 35.3284375 -141.828125 34.6484375 C-142.86687191 24.31043255 -142.86687191 24.31043255 -140.65625 20.7734375 C-135.8061806 16.89338198 -129.8509778 16.48830257 -123.828125 16.6484375 C-117.7728249 17.74037686 -113.18084226 20.29572024 -108.828125 24.6484375 C-108.209375 24.1740625 -107.590625 23.6996875 -106.953125 23.2109375 C-101.47304677 20.47089839 -95.61970668 20.2075894 -89.640625 21.3359375 C-85.45643536 21.67890386 -84.21034436 20.88777351 -80.8046875 18.6484375 C-75.5498511 15.98986415 -68.96066903 16.16431134 -63.328125 17.4609375 C-59.828125 18.6484375 -59.828125 18.6484375 -56.828125 20.6484375 C-52.41671228 20.52589826 -49.72345807 18.32482901 -46.37890625 15.70703125 C-44.828125 14.6484375 -44.828125 14.6484375 -42.828125 14.6484375 C-43.323125 13.1634375 -43.323125 13.1634375 -43.828125 11.6484375 C-42.4233617 8.83891089 -40.76424949 6.57101264 -38.765625 4.1484375 C-36.86607055 1.69739951 -35.82800158 -0.43525581 -34.828125 -3.3515625 C-34.27125 -3.1246875 -33.714375 -2.8978125 -33.140625 -2.6640625 C-29.89701906 -2.22573737 -28.54400125 -3.62929951 -25.828125 -5.3515625 C-16.59250305 -8.02503201 -7.62596712 -5.63800133 0 0 Z " fill="#4D33C6" transform="translate(141.828125,87.3515625)"/>
<path d="M0 0 C0.33 0 0.66 0 1 0 C1 1.65 1 3.3 1 5 C1.99 5 2.98 5 4 5 C5.80230168 8.82989106 6.19622241 11.78121808 6 16 C7.32 16 8.64 16 10 16 C10 15.01 10 14.02 10 13 C12.64 13 15.28 13 18 13 C18 13.99 18 14.98 18 16 C18.99 16 19.98 16 21 16 C21 14.02 21 12.04 21 10 C21.99 10 22.98 10 24 10 C24 8.68 24 7.36 24 6 C24.99 6 25.98 6 27 6 C27.33 4.68 27.66 3.36 28 2 C28.495 5.96 28.495 5.96 29 10 C29.66 10 30.32 10 31 10 C31 11.32 31 12.64 31 14 C33.31 14 35.62 14 38 14 C38 14.99 38 15.98 38 17 C38.99 17 39.98 17 41 17 C40.979375 15.88625 40.95875 14.7725 40.9375 13.625 C41 10 41 10 42 8 C43.32 8 44.64 8 46 8 C46 8.66 46 9.32 46 10 C49.465 9.505 49.465 9.505 53 9 C53 9.66 53 10.32 53 11 C53.66 11 54.32 11 55 11 C55 12.32 55 13.64 55 15 C57.85078091 15.76716851 57.85078091 15.76716851 61 16 C62.89958081 14.68681738 62.89958081 14.68681738 64 13 C64 13.99 64 14.98 64 16 C64.66 16 65.32 16 66 16 C66 15.01 66 14.02 66 13 C66.66 13 67.32 13 68 13 C68 11.68 68 10.36 68 9 C69.32 9 70.64 9 72 9 C72 10.32 72 11.64 72 13 C73.98 13 75.96 13 78 13 C78.95376567 16.20782086 79.11621181 19.08187396 79.09765625 22.421875 C79.09443359 23.44667969 79.09121094 24.47148437 79.08789062 25.52734375 C79.07951172 26.59082031 79.07113281 27.65429688 79.0625 28.75 C79.05798828 29.82894531 79.05347656 30.90789062 79.04882812 32.01953125 C79.03705727 34.67974383 79.02061399 37.33984365 79 40 C75.06731133 40.02473868 71.13465287 40.04287835 67.2019043 40.05493164 C65.20685232 40.06242729 63.21182214 40.07513345 61.21679688 40.08789062 C59.96318359 40.09111328 58.70957031 40.09433594 57.41796875 40.09765625 C56.26063232 40.10289307 55.1032959 40.10812988 53.91088867 40.11352539 C51 40 51 40 48 39 C47.19032562 36.08517222 46.78154007 34.53886783 47.9375 31.6875 C48.288125 31.130625 48.63875 30.57375 49 30 C49.66 30 50.32 30 51 30 C51 27.36 51 24.72 51 22 C50.41992188 22.01160156 49.83984375 22.02320313 49.2421875 22.03515625 C40.24564936 22.13907666 40.24564936 22.13907666 36 21 C35.01 19.515 35.01 19.515 34 18 C30.95804573 17.66659529 30.95804573 17.66659529 28 18 C27.505 18.495 27.505 18.495 27 19 C25.00041636 19.04080783 22.99954746 19.04254356 21 19 C21 19.66 21 20.32 21 21 C22.485 21.495 22.485 21.495 24 22 C22.68 22 21.36 22 20 22 C20 24.97 20 27.94 20 31 C23.11490087 29.42422186 23.11490087 29.42422186 26 27 C26.50169415 23.83073436 26.50169415 23.83073436 26 21 C26.66 21 27.32 21 28 21 C28.495 25.455 28.495 25.455 29 30 C29.99 29.67 30.98 29.34 32 29 C36.13423385 28.73037605 39.39484157 28.83690494 43 31 C44 33.375 44 33.375 44 36 C42.78033543 38.13315773 42.78033543 38.13315773 41 40 C38.93414974 40.49777794 38.93414974 40.49777794 36.51463318 40.49447632 C35.13706848 40.50705978 35.13706848 40.50705978 33.73167419 40.51989746 C32.72637161 40.50865845 31.72106903 40.49741943 30.68530273 40.48583984 C29.09475571 40.49153488 29.09475571 40.49153488 27.47207642 40.49734497 C23.95895023 40.50476858 20.44664672 40.48334321 16.93359375 40.4609375 C14.49886675 40.45855425 12.0641379 40.4576475 9.62940979 40.4581604 C4.52406319 40.45502936 -0.58100318 40.43843917 -5.6862793 40.41162109 C-12.24281893 40.37762302 -18.79905061 40.36999283 -25.35566807 40.37151146 C-30.38354961 40.37096863 -35.41136331 40.36001568 -40.43922234 40.34550858 C-42.85743636 40.33912762 -45.27565809 40.33519866 -47.69388008 40.33372116 C-51.06762012 40.32940298 -54.44102812 40.31193432 -57.81469727 40.29052734 C-59.32568748 40.2918869 -59.32568748 40.2918869 -60.86720276 40.29327393 C-61.7827594 40.28474396 -62.69831604 40.27621399 -63.64161682 40.26742554 C-64.43968026 40.26407385 -65.2377437 40.26072216 -66.05999088 40.25726891 C-68 40 -68 40 -70 38 C-70.1875 35.4375 -70.1875 35.4375 -70 33 C-69 32 -69 32 -67.15234375 31.90234375 C-65.1015625 31.93489583 -63.05078125 31.96744792 -61 32 C-60.67 31.34 -60.34 30.68 -60 30 C-56.44646071 28.8154869 -53.72986522 28.73358106 -50 29 C-49 30 -48 31 -47 32 C-44.99548879 31.69496569 -42.99551782 31.35919321 -41 31 C-38.125 31.9375 -38.125 31.9375 -36 33 C-35.608125 32.505 -35.21625 32.01 -34.8125 31.5 C-33 30 -33 30 -30.5 29.625 C-27.62175489 30.05673677 -26.77489599 30.75802612 -25 33 C-24.34 32.34 -23.68 31.68 -23 31 C-19.60402937 30.78323592 -17.24221555 30.91926148 -14 32 C-13.13375 31.5359375 -13.13375 31.5359375 -12.25 31.0625 C-9.10089776 29.57542394 -6.43693088 29.8090594 -3 30 C-2.34 30.33 -1.68 30.66 -1 31 C-1 28.69 -1 26.38 -1 24 C-2.65 23.67 -4.3 23.34 -6 23 C-6.66 21.02 -7.32 19.04 -8 17 C-10.64 17 -13.28 17 -16 17 C-16.66 18.65 -17.32 20.3 -18 22 C-24.875 19.125 -24.875 19.125 -26 18 C-28.67058851 17.85884839 -31.32432238 17.95752893 -34 18 C-34.66 19.98 -35.32 21.96 -36 24 C-37.65 24 -39.3 24 -41 24 C-41 23.34 -41 22.68 -41 22 C-42.98 21.34 -44.96 20.68 -47 20 C-47.28788143 13.95448991 -45.84927902 9.29151818 -43 4 C-43 5.32 -43 6.64 -43 8 C-41.68 8 -40.36 8 -39 8 C-38.34 9.98 -37.68 11.96 -37 14 C-36.01 13.67 -35.02 13.34 -34 13 C-33.34 13.33 -32.68 13.66 -32 14 C-32 13.34 -32 12.68 -32 12 C-31.01 12 -30.02 12 -29 12 C-28.67 10.35 -28.34 8.7 -28 7 C-24.535 6.505 -24.535 6.505 -21 6 C-21 5.34 -21 4.68 -21 4 C-19.68 4 -18.36 4 -17 4 C-15.79727181 6.40545638 -15.89928528 7.94996953 -15.9375 10.625 C-15.94652344 11.44226563 -15.95554688 12.25953125 -15.96484375 13.1015625 C-15.97644531 13.72804688 -15.98804688 14.35453125 -16 15 C-14.68 15 -13.36 15 -12 15 C-11.67 14.01 -11.34 13.02 -11 12 C-9.35 12 -7.7 12 -6 12 C-5.67 11.01 -5.34 10.02 -5 9 C-4.34 9 -3.68 9 -3 9 C-3 7.68 -3 6.36 -3 5 C-2.01 5 -1.02 5 0 5 C0 3.35 0 1.7 0 0 Z M42 20 C42 20.33 42 20.66 42 21 C44.31 21 46.62 21 49 21 C49 20.67 49 20.34 49 20 C46.69 20 44.38 20 42 20 Z " fill="#30286F" transform="translate(73,108)"/>
<path d="M0 0 C0.33 0 0.66 0 1 0 C1.33 3.63 1.66 7.26 2 11 C2.66 11 3.32 11 4 11 C4.66 9.68 5.32 8.36 6 7 C6.66 7 7.32 7 8 7 C8.33 6.01 8.66 5.02 9 4 C9.66 4 10.32 4 11 4 C11.33 3.01 11.66 2.02 12 1 C12 1.99 12 2.98 12 4 C13.32 4.33 14.64 4.66 16 5 C16.33 7.97 16.66 10.94 17 14 C18.32 14.33 19.64 14.66 21 15 C21.66 15.33 22.32 15.66 23 16 C23 16.66 23 17.32 23 18 C24.65 18 26.3 18 28 18 C27.95875 17.21625 27.9175 16.4325 27.875 15.625 C28 13 28 13 30 11 C31.875 10.734375 31.875 10.734375 34 10.75 C34.70125 10.74484375 35.4025 10.7396875 36.125 10.734375 C38 11 38 11 40 13 C41.64991582 13.70710678 43.31562256 14.37943989 45 15 C45.495 13.7625 45.495 13.7625 46 12.5 C48 10 48 10 49.91015625 9.59765625 C52.0625 9.5625 52.0625 9.5625 56 10 C58 12 58 12 58.125 14.625 C58.08375 15.40875 58.0425 16.1925 58 17 C59.65 17 61.3 17 63 17 C64.06546953 20.1964086 64.07427838 22.65747276 64 26 C62.515 25.505 62.515 25.505 61 25 C56.36055693 24.74225316 53.2397773 25.18295259 49 27 C48.34 26.67 47.68 26.34 47 26 C42.94857881 25.74139865 41.45662331 25.69558446 38 28 C37.34 27.01 36.68 26.02 36 25 C32.41642759 24.74984127 32.41642759 24.74984127 29 25 C28.505 26.485 28.505 26.485 28 28 C26.9790625 27.4740625 26.9790625 27.4740625 25.9375 26.9375 C22.2912211 25.77379397 19.71510022 26.27154898 16 27 C15.34 26.01 14.68 25.02 14 24 C11.56306689 23.63583953 11.56306689 23.63583953 8.875 23.8125 C7.96492188 23.83957031 7.05484375 23.86664063 6.1171875 23.89453125 C5.41851562 23.92933594 4.71984375 23.96414062 4 24 C3.67 24.99 3.34 25.98 3 27 C0.36 27 -2.28 27 -5 27 C-5.042721 28.66611905 -5.04063832 30.33382885 -5 32 C-3.4513361 33.5486639 -2.00062251 33.12594537 0.1554718 33.12698364 C1.05138031 33.12980347 1.94728882 33.13262329 2.87034607 33.13552856 C3.86099564 33.13350433 4.8516452 33.1314801 5.87231445 33.12939453 C6.90966736 33.13114685 7.94702026 33.13289917 9.01580811 33.13470459 C12.46498255 33.13912659 15.91410623 33.13618325 19.36328125 33.1328125 C21.75123606 33.13348559 24.13919081 33.13445566 26.52714539 33.13571167 C31.54178517 33.13718924 36.55640719 33.13503276 41.57104492 33.13037109 C48.00407233 33.124683 54.43705794 33.12794661 60.87008381 33.13394356 C65.80537735 33.13755545 70.74066098 33.13640752 75.67595482 33.13381577 C78.04786369 33.13314776 80.41977346 33.13397052 82.79168129 33.13629532 C86.10764579 33.13883108 89.4235425 33.13496768 92.73950195 33.12939453 C93.72407883 33.13141876 94.7086557 33.13344299 95.72306824 33.13552856 C96.62743622 33.13270874 97.5318042 33.12988892 98.46357727 33.12698364 C99.63968048 33.1264181 99.63968048 33.1264181 100.83954334 33.12584114 C103.00975023 32.99943207 104.914504 32.59785162 107 32 C107 29.69 107 27.38 107 25 C105.22932584 24.83165067 103.45845388 24.66538091 101.6875 24.5 C100.20830078 24.36078125 100.20830078 24.36078125 98.69921875 24.21875 C95.95297861 23.95961143 95.95297861 23.95961143 93 24 C91.5216774 21.04335481 91.93967217 18.25770263 92 15 C91.67 15.33 91.34 15.66 91 16 C91.0825 16.763125 91.165 17.52625 91.25 18.3125 C91 21 91 21 88.625 23.3125 C86 25 86 25 84 25 C83.97287934 23.56260487 83.95354933 22.12506137 83.9375 20.6875 C83.92589844 19.88699219 83.91429688 19.08648437 83.90234375 18.26171875 C84 16 84 16 85 13 C89.43028188 11.34950283 93.29050618 10.77026859 98 11 C98.17273438 11.64453125 98.34546875 12.2890625 98.5234375 12.953125 C99.92982628 15.40445882 99.92982628 15.40445882 103.4765625 15.609375 C104.858573 15.67581781 106.2416781 15.7219252 107.625 15.75 C108.33140625 15.77964844 109.0378125 15.80929688 109.765625 15.83984375 C111.50980047 15.91055357 113.25490827 15.95754035 115 16 C115.39489194 23.8978389 115.39489194 23.8978389 112 28 C112 29.65 112 31.3 112 33 C122.23 33.33 132.46 33.66 143 34 C143 35.98 143 37.96 143 40 C92.84 40 42.68 40 -9 40 C-9 29.44 -9 18.88 -9 8 C-6.03 8.495 -6.03 8.495 -3 9 C-2.67 8.01 -2.34 7.02 -2 6 C-1.34 6 -0.68 6 0 6 C0 4.02 0 2.04 0 0 Z M106 14 C108.31 14 110.62 14 113 14 C113 14.33 113 14.66 113 15 C110.69 15 108.38 15 106 15 C106 14.67 106 14.34 106 14 Z " fill="#211734" transform="translate(9,114)"/>
<path d="M0 0 C1.10698242 -0.01160156 1.10698242 -0.01160156 2.23632812 -0.0234375 C11.0152389 0.0077764 19.30530846 3.34072337 26.5625 8.25 C28.02348845 11.1719769 27.67384901 13.74893475 27.66015625 17.0078125 C27.6587413 17.67086395 27.65732635 18.33391541 27.65586853 19.01705933 C27.65026754 21.13641863 27.637715 23.25567259 27.625 25.375 C27.61998512 26.81119639 27.61542219 28.24739444 27.61132812 29.68359375 C27.60029782 33.20576345 27.58303259 36.72787145 27.5625 40.25 C26.2425 40.58 24.9225 40.91 23.5625 41.25 C23.76875 40.21875 23.975 39.1875 24.1875 38.125 C24.59479975 33.91623594 24.47521632 31.99573612 22.5625 28.25 C16.45666577 21.66212622 8.54470989 17.74851749 -0.4375 17 C-4.80757536 17.36417295 -8.76000537 18.41125268 -12.6875 20.375 C-14.4375 21.25 -14.4375 21.25 -17.4375 21.25 C-17.664375 21.95125 -17.89125 22.6525 -18.125 23.375 C-19.4375 26.25 -19.4375 26.25 -22 29.25 C-24.42000101 32.22846278 -24.91402884 33.58570186 -25.4375 37.25 C-26.4275 37.745 -26.4275 37.745 -27.4375 38.25 C-27.1075 38.91 -26.7775 39.57 -26.4375 40.25 C-27.8296875 40.683125 -27.8296875 40.683125 -29.25 41.125 C-32.53541667 42.1375 -32.53541667 42.1375 -35.4375 44.25 C-39.26853042 43.93074747 -41.20430553 43.40546298 -44.4375 41.25 C-44.4375 40.59 -44.4375 39.93 -44.4375 39.25 C-45.7575 38.92 -47.0775 38.59 -48.4375 38.25 C-47.674375 37.940625 -46.91125 37.63125 -46.125 37.3125 C-42.70527675 34.68806123 -42.34146155 32.55439202 -41.1796875 28.52734375 C-38.05037079 18.92528247 -28.85551807 10.44830603 -20.4375 5.25 C-18.13605891 4.17863949 -15.8034787 3.17010283 -13.4375 2.25 C-12.71691406 1.89808594 -11.99632812 1.54617187 -11.25390625 1.18359375 C-7.45087472 -0.07705054 -3.97854283 -0.04147916 0 0 Z " fill="#3C3188" transform="translate(124.4375,64.75)"/>
<path d="M0 0 C2.97 0 5.94 0 9 0 C9 2.97 9 5.94 9 9 C11.90600261 10.25664978 13.79604584 11 17 11 C17.33 10.67 17.66 10.34 18 10 C21.36629251 9.85363946 23.78419562 9.92806521 27 11 C27.33 10.34 27.66 9.68 28 9 C30.58587883 7.89176621 31.92537972 7.98264645 34.6875 8.625 C37 10 37 10 38 12.375 C38 15.67304581 37.2497625 16.6409211 35 19 C32.93414974 19.49777794 32.93414974 19.49777794 30.51463318 19.49447632 C29.59625671 19.5028653 28.67788025 19.51125427 27.73167419 19.51989746 C26.72637161 19.50865845 25.72106903 19.49741943 24.68530273 19.48583984 C23.09475571 19.49153488 23.09475571 19.49153488 21.47207642 19.49734497 C17.95895023 19.50476858 14.44664672 19.48334321 10.93359375 19.4609375 C8.49886675 19.45855425 6.0641379 19.4576475 3.62940979 19.4581604 C-1.47593681 19.45502936 -6.58100318 19.43843917 -11.6862793 19.41162109 C-18.24281893 19.37762302 -24.79905061 19.36999283 -31.35566807 19.37151146 C-36.38354961 19.37096863 -41.41136331 19.36001568 -46.43922234 19.34550858 C-48.85743636 19.33912762 -51.27565809 19.33519866 -53.69388008 19.33372116 C-57.06762012 19.32940298 -60.44102812 19.31193432 -63.81469727 19.29052734 C-65.32568748 19.2918869 -65.32568748 19.2918869 -66.86720276 19.29327393 C-67.7827594 19.28474396 -68.69831604 19.27621399 -69.64161682 19.26742554 C-70.43968026 19.26407385 -71.2377437 19.26072216 -72.05999088 19.25726891 C-74 19 -74 19 -76 17 C-76.1875 14.4375 -76.1875 14.4375 -76 12 C-75 11 -75 11 -73.15234375 10.90234375 C-71.1015625 10.93489583 -69.05078125 10.96744792 -67 11 C-66.67 10.34 -66.34 9.68 -66 9 C-62.44646071 7.8154869 -59.72986522 7.73358106 -56 8 C-55 9 -54 10 -53 11 C-50.99548879 10.69496569 -48.99551782 10.35919321 -47 10 C-44.125 10.9375 -44.125 10.9375 -42 12 C-41.4121875 11.2575 -41.4121875 11.2575 -40.8125 10.5 C-39 9 -39 9 -36.5 8.625 C-33.62175489 9.05673677 -32.77489599 9.75802612 -31 12 C-30.34 11.34 -29.68 10.68 -29 10 C-25.60402937 9.78323592 -23.24221555 9.91926148 -20 11 C-19.4225 10.690625 -18.845 10.38125 -18.25 10.0625 C-15.04090002 8.54709168 -12.50028973 8.68179184 -9 9 C-8.505 9.515625 -8.01 10.03125 -7.5 10.5625 C-7.005 11.036875 -6.51 11.51125 -6 12 C-2.35458155 11.76522801 -2.35458155 11.76522801 1 11 C0.835 10.484375 0.67 9.96875 0.5 9.4375 C-0.15049 6.26636124 -0.0620734 3.22781666 0 0 Z " fill="#4C3683" transform="translate(79,129)"/>
<path d="M0 0 C50.16 0 100.32 0 152 0 C152 1.65 152 3.3 152 5 C101.84 5 51.68 5 0 5 C0 3.35 0 1.7 0 0 Z " fill="#4F4B6E" transform="translate(0,149)"/>
<path d="M0 0 C3.55538743 3.00232716 5.6683124 5.52068717 7 10 C7 12.42797311 6.49914315 14.62907005 6 17 C3.25472591 18.05587465 2.17702963 18.06743986 -0.625 17 C-6.712306 15.19635378 -13.3199467 16.15997335 -19 19 C-21.33333333 16.66666667 -23.66666667 14.33333333 -26 12 C-24.35 12 -22.7 12 -21 12 C-21 11.34 -21 10.68 -21 10 C-25.455 9.01 -25.455 9.01 -30 8 C-27.36020918 2.99829108 -24.41708268 0.09867395 -19.25 -2.25 C-12.18997321 -3.87923695 -6.44622151 -3.59500815 0 0 Z " fill="#E7E7E7" transform="translate(135,93)"/>
<path d="M0 0 C4.72401049 3.8705128 7.79329344 6.95104387 8.671875 13.2109375 C8.171875 16.6484375 8.171875 16.6484375 5.859375 19.0234375 C3.171875 20.6484375 3.171875 20.6484375 0.171875 21.6484375 C0.171875 20.3284375 0.171875 19.0084375 0.171875 17.6484375 C-1.148125 17.3184375 -2.468125 16.9884375 -3.828125 16.6484375 C-2.838125 15.9884375 -1.848125 15.3284375 -0.828125 14.6484375 C-3.25058167 9.89324478 -4.79283044 6.91432005 -9.828125 4.6484375 C-16.92987386 2.58380536 -23.18436452 3.1488982 -29.83203125 6.36328125 C-31.87504498 7.67864626 -33.06121246 8.90756305 -34.515625 10.8359375 C-36.828125 13.6484375 -36.828125 13.6484375 -40.140625 14.5234375 C-41.0275 14.5646875 -41.914375 14.6059375 -42.828125 14.6484375 C-43.158125 13.6584375 -43.488125 12.6684375 -43.828125 11.6484375 C-42.4233617 8.83891089 -40.76424949 6.57101264 -38.765625 4.1484375 C-36.86607055 1.69739951 -35.82800158 -0.43525581 -34.828125 -3.3515625 C-33.9928125 -3.01125 -33.9928125 -3.01125 -33.140625 -2.6640625 C-29.89701906 -2.22573737 -28.54400125 -3.62929951 -25.828125 -5.3515625 C-16.59250305 -8.02503201 -7.62596712 -5.63800133 0 0 Z " fill="#4E40B0" transform="translate(141.828125,87.3515625)"/>
<path d="M0 0 C1.2365332 -0.0299707 1.2365332 -0.0299707 2.49804688 -0.06054688 C8.93649926 -0.05540023 12.50629659 1.64040394 17.23046875 6.1484375 C20.23087576 9.7287551 22.49604332 13.14585893 24.4375 17.4375 C24.7675 17.7675 25.0975 18.0975 25.4375 18.4375 C25.50994053 20.45714199 25.52127188 22.47917124 25.5 24.5 C25.49097656 25.60472656 25.48195312 26.70945312 25.47265625 27.84765625 C25.46105469 28.70230469 25.44945312 29.55695313 25.4375 30.4375 C24.1175 30.7675 22.7975 31.0975 21.4375 31.4375 C21.64375 30.40625 21.85 29.375 22.0625 28.3125 C22.46979975 24.10373594 22.35021632 22.18323612 20.4375 18.4375 C14.33166577 11.84962622 6.41970989 7.93601749 -2.5625 7.1875 C-6.93257536 7.55167295 -10.88500537 8.59875268 -14.8125 10.5625 C-16.5625 11.4375 -16.5625 11.4375 -19.5625 11.4375 C-19.789375 12.13875 -20.01625 12.84 -20.25 13.5625 C-21.5625 16.4375 -21.5625 16.4375 -24.125 19.4375 C-26.54500101 22.41596278 -27.03902884 23.77320186 -27.5625 27.4375 C-28.2225 27.7675 -28.8825 28.0975 -29.5625 28.4375 C-29.2325 29.0975 -28.9025 29.7575 -28.5625 30.4375 C-30.5425 30.4375 -32.5225 30.4375 -34.5625 30.4375 C-34.98724098 23.21690326 -32.1727532 17.37463573 -27.44140625 12.05078125 C-26.67699219 11.29152344 -25.91257812 10.53226563 -25.125 9.75 C-24.36316406 8.98300781 -23.60132812 8.21601562 -22.81640625 7.42578125 C-20.69903961 5.55794828 -19.13290842 4.5337722 -16.5625 3.4375 C-15.52222656 2.91027344 -14.48195313 2.38304688 -13.41015625 1.83984375 C-8.98898946 -0.0283379 -4.74294361 -0.0409838 0 0 Z " fill="#46399C" transform="translate(126.5625,74.5625)"/>
<path d="M0 0 C2.97 0 5.94 0 9 0 C9 2.97 9 5.94 9 9 C11.90600261 10.25664978 13.79604584 11 17 11 C17.33 10.67 17.66 10.34 18 10 C21.36629251 9.85363946 23.78419562 9.92806521 27 11 C27.33 10.34 27.66 9.68 28 9 C30.58587883 7.89176621 31.92537972 7.98264645 34.6875 8.625 C37 10 37 10 38 12.375 C38 15 38 15 36.99682617 17.13964844 C34.00109501 19.93063406 30.92802289 19.49733927 27.05078125 19.390625 C26.27816452 19.38496521 25.50554779 19.37930542 24.70951843 19.37347412 C22.24321371 19.35109327 19.77836508 19.30089703 17.3125 19.25 C15.63999495 19.22993706 13.96746711 19.21168592 12.29492188 19.1953125 C8.19605404 19.15122331 4.09827383 19.08218675 0 19 C0.66 18.67 1.32 18.34 2 18 C2 16.35 2 14.7 2 13 C1.34 12.67 0.68 12.34 0 12 C0.33 11.67 0.66 11.34 1 11 C0.7834375 10.195625 0.7834375 10.195625 0.5625 9.375 C-0.18358559 6.22486086 -0.06201471 3.22476484 0 0 Z " fill="#4B3783" transform="translate(79,129)"/>
<path d="M0 0 C2.17578125 -0.0390625 2.17578125 -0.0390625 6.11328125 0.3984375 C8.11328125 2.3984375 8.11328125 2.3984375 8.23828125 5.0234375 C8.19703125 5.8071875 8.15578125 6.5909375 8.11328125 7.3984375 C9.76328125 7.3984375 11.41328125 7.3984375 13.11328125 7.3984375 C14.17875078 10.5948461 14.18755963 13.05591026 14.11328125 16.3984375 C13.12328125 16.0684375 12.13328125 15.7384375 11.11328125 15.3984375 C6.47383818 15.14069066 3.35305855 15.58139009 -0.88671875 17.3984375 C-1.54671875 17.0684375 -2.20671875 16.7384375 -2.88671875 16.3984375 C-6.93813994 16.13983615 -8.43009544 16.09402196 -11.88671875 18.3984375 C-12.29921875 17.5734375 -12.71171875 16.7484375 -13.13671875 15.8984375 C-13.71421875 15.0734375 -14.29171875 14.2484375 -14.88671875 13.3984375 C-16.20671875 13.3984375 -17.52671875 13.3984375 -18.88671875 13.3984375 C-18.88671875 12.4084375 -18.88671875 11.4184375 -18.88671875 10.3984375 C-19.54671875 10.3984375 -20.20671875 10.3984375 -20.88671875 10.3984375 C-20.88671875 8.4184375 -20.88671875 6.4384375 -20.88671875 4.3984375 C-17.58671875 4.3984375 -14.28671875 4.3984375 -10.88671875 4.3984375 C-10.88671875 5.0584375 -10.88671875 5.7184375 -10.88671875 6.3984375 C-7.98242945 6.29050929 -7.98242945 6.29050929 -4.88671875 5.3984375 C-4.43296875 4.5528125 -3.97921875 3.7071875 -3.51171875 2.8359375 C-1.88671875 0.3984375 -1.88671875 0.3984375 0 0 Z " fill="#281F32" transform="translate(58.88671875,123.6015625)"/>
<path d="M0 0 C0.17273438 0.64453125 0.34546875 1.2890625 0.5234375 1.953125 C1.92982628 4.40445882 1.92982628 4.40445882 5.4765625 4.609375 C6.858573 4.67581781 8.2416781 4.7219252 9.625 4.75 C10.33140625 4.77964844 11.0378125 4.80929688 11.765625 4.83984375 C13.50980047 4.91055357 15.25490827 4.95754035 17 5 C17.39489194 12.8978389 17.39489194 12.8978389 14 17 C13.74875174 19.66761764 13.74875174 19.66761764 14 22 C14.99 22.33 15.98 22.66 17 23 C15.37536158 23.05395478 13.75021459 23.09277195 12.125 23.125 C10.76761719 23.15980469 10.76761719 23.15980469 9.3828125 23.1953125 C7 23 7 23 5 21 C6.32 21 7.64 21 9 21 C9 18.69 9 16.38 9 14 C7.22932584 13.83165067 5.45845388 13.66538091 3.6875 13.5 C2.70136719 13.4071875 1.71523437 13.314375 0.69921875 13.21875 C-2.04702139 12.95961143 -2.04702139 12.95961143 -5 13 C-6.4783226 10.04335481 -6.06032783 7.25770263 -6 4 C-6.33 4.33 -6.66 4.66 -7 5 C-6.9175 5.763125 -6.835 6.52625 -6.75 7.3125 C-7 10 -7 10 -9.375 12.3125 C-12 14 -12 14 -14 14 C-14.02712066 12.56260487 -14.04645067 11.12506137 -14.0625 9.6875 C-14.07410156 8.88699219 -14.08570312 8.08648437 -14.09765625 7.26171875 C-14 5 -14 5 -13 2 C-8.56971812 0.34950283 -4.70949382 -0.22973141 0 0 Z M8 3 C10.31 3 12.62 3 15 3 C15 3.33 15 3.66 15 4 C12.69 4 10.38 4 8 4 C8 3.67 8 3.34 8 3 Z " fill="#30273D" transform="translate(107,125)"/>
<path d="M0 0 C0.33 1.32 0.66 2.64 1 4 C2.32 4 3.64 4 5 4 C5.66 5.98 6.32 7.96 7 10 C7.99 9.67 8.98 9.34 10 9 C10.66 9.33 11.32 9.66 12 10 C12 9.34 12 8.68 12 8 C12.99 8 13.98 8 15 8 C15.33 6.35 15.66 4.7 16 3 C19.465 2.505 19.465 2.505 23 2 C23 1.34 23 0.68 23 0 C24.32 0 25.64 0 27 0 C28.20272819 2.40545638 28.10071472 3.94996953 28.0625 6.625 C28.05347656 7.44226563 28.04445313 8.25953125 28.03515625 9.1015625 C28.02355469 9.72804688 28.01195313 10.35453125 28 11 C29.485 11.495 29.485 11.495 31 12 C30.38125 12.2475 29.7625 12.495 29.125 12.75 C26.64931313 14.20628639 26.04874998 15.37812506 25 18 C19.125 15.125 19.125 15.125 18 14 C15.32941149 13.85884839 12.67567762 13.95752893 10 14 C9.34 15.98 8.68 17.96 8 20 C6.35 20 4.7 20 3 20 C3 19.34 3 18.68 3 18 C1.02 17.34 -0.96 16.68 -3 16 C-3.21404489 11.50505728 -2.55482394 8.20717065 -1 4 C-0.65023242 2.67088318 -0.30903983 1.33917261 0 0 Z " fill="#30286F" transform="translate(29,112)"/>
<path d="M0 0 C0.33 0.99 0.66 1.98 1 3 C2.32 3.33 3.64 3.66 5 4 C5.33 6.97 5.66 9.94 6 13 C7.32 13.33 8.64 13.66 10 14 C10.66 14.33 11.32 14.66 12 15 C12 15.66 12 16.32 12 17 C13.65 17 15.3 17 17 17 C16.95875 16.21625 16.9175 15.4325 16.875 14.625 C17 12 17 12 19 10 C20.875 9.734375 20.875 9.734375 23 9.75 C23.70125 9.74484375 24.4025 9.7396875 25.125 9.734375 C27 10 27 10 29 12 C31.06874034 12.6425235 31.06874034 12.6425235 33 13 C33 13.66 33 14.32 33 15 C31.35 15 29.7 15 28 15 C28 14.34 28 13.68 28 13 C24.7 13 21.4 13 18 13 C18 14.98 18 16.96 18 19 C18.66 19 19.32 19 20 19 C20 19.99 20 20.98 20 22 C21.32 21.67 22.64 21.34 24 21 C24.33 21.66 24.66 22.32 25 23 C22.69 23.33 20.38 23.66 18 24 C17.67 24.99 17.34 25.98 17 27 C15.9790625 26.4740625 15.9790625 26.4740625 14.9375 25.9375 C11.2912211 24.77379397 8.71510022 25.27154898 5 26 C4.34 24.35 3.68 22.7 3 21 C0.69 21 -1.62 21 -4 21 C-3.67 20.01 -3.34 19.02 -3 18 C-3 18.66 -3 19.32 -3 20 C-0.69 20 1.62 20 4 20 C4 16.37 4 12.74 4 9 C1.03 9 -1.94 9 -5 9 C-5 10.32 -5 11.64 -5 13 C-4.34 13 -3.68 13 -3 13 C-3.33 14.32 -3.66 15.64 -4 17 C-4 16.01 -4 15.02 -4 14 C-4.66 14 -5.32 14 -6 14 C-6.125 8.25 -6.125 8.25 -5 6 C-4.34 6 -3.68 6 -3 6 C-2.67 5.01 -2.34 4.02 -2 3 C-1.34 3 -0.68 3 0 3 C0 2.01 0 1.02 0 0 Z " fill="#241C2E" transform="translate(20,115)"/>
<path d="M0 0 C0.99 0 1.98 0 3 0 C3 4.95 3 9.9 3 15 C-0.93274531 15.02296866 -4.86531945 15.04287826 -8.7980957 15.05493164 C-10.79314768 15.06242729 -12.78817786 15.07513345 -14.78320312 15.08789062 C-16.03681641 15.09111328 -17.29042969 15.09433594 -18.58203125 15.09765625 C-19.73936768 15.10289307 -20.8967041 15.10812988 -22.08911133 15.11352539 C-25 15 -25 15 -28 14 C-28.6875 11.6875 -28.6875 11.6875 -29 9 C-27.875 7.125 -27.875 7.125 -26 6 C-23.12631508 6.28736849 -20.74209856 7.08596715 -18 8 C-17.608125 7.505 -17.21625 7.01 -16.8125 6.5 C-15 5 -15 5 -12.5 4.6875 C-10 5 -10 5 -7 7 C-6.34 6.34 -5.68 5.68 -5 5 C-2.375 4.375 -2.375 4.375 0 4 C0 2.68 0 1.36 0 0 Z " fill="#4D3683" transform="translate(149,133)"/>
<path d="M0 0 C1 1 2 2 3 3 C6.14921909 2.76716851 6.14921909 2.76716851 9 2 C9 2.66 9 3.32 9 4 C9.66 4 10.32 4 11 4 C11 5.65 11 7.3 11 9 C6.5372169 11.23139155 0.40089668 10.18499699 -4.5 10.1875 C-5.76199219 10.19974609 -7.02398437 10.21199219 -8.32421875 10.22460938 C-9.52691406 10.22654297 -10.72960937 10.22847656 -11.96875 10.23046875 C-13.63067383 10.23663208 -13.63067383 10.23663208 -15.32617188 10.24291992 C-18 10 -18 10 -20 8 C-20.1875 5.4375 -20.1875 5.4375 -20 3 C-19.67 2.67 -19.34 2.34 -19 2 C-17.1128125 2.0309375 -17.1128125 2.0309375 -15.1875 2.0625 C-9.65595974 2.15076926 -5.79105243 -0.52645931 0 0 Z " fill="#4A3883" transform="translate(70,138)"/>
<path d="M0 0 C3.3 0 6.6 0 10 0 C10 2.31 10 4.62 10 7 C11.98 7 13.96 7 16 7 C16.33 6.34 16.66 5.68 17 5 C18 4 18 4 21.5625 3.9375 C22.696875 3.958125 23.83125 3.97875 25 4 C25 6.31 25 8.62 25 11 C23.68 11 22.36 11 21 11 C20.34 12.32 19.68 13.64 19 15 C18.01 14.34 17.02 13.68 16 13 C13.66800612 12.92094936 11.33167378 12.91201231 9 13 C8.67 13.99 8.34 14.98 8 16 C3.125 14.25 3.125 14.25 2 12 C1.93049459 10.45976004 1.91547643 8.91665012 1.9375 7.375 C1.94652344 6.55773437 1.95554687 5.74046875 1.96484375 4.8984375 C1.97644531 4.27195313 1.98804687 3.64546875 2 3 C1.34 3 0.68 3 0 3 C0 2.01 0 1.02 0 0 Z " fill="#382D47" transform="translate(123,126)"/>
<path d="M0 0 C5.65394631 -0.34615998 9.03006806 0.56574762 14 3 C14 3.66 14 4.32 14 5 C14.99 5 15.98 5 17 5 C16.67 4.34 16.34 3.68 16 3 C18.125 1.375 18.125 1.375 21 0 C23.875 0.75 23.875 0.75 27 2 C29.32694964 2.37531446 31.65976685 2.71917202 34 3 C34.625 5.875 34.625 5.875 35 9 C34.34 9.66 33.68 10.32 33 11 C31.1875 10.72265625 31.1875 10.72265625 29 10.0625 C22.2279053 8.36947632 15.30637015 8.84681492 9 12 C6.66666667 9.66666667 4.33333333 7.33333333 2 5 C3.65 5 5.3 5 7 5 C7 4.34 7 3.68 7 3 C4.69 2.34 2.38 1.68 0 1 C0 0.67 0 0.34 0 0 Z " fill="#D2D2D2" transform="translate(107,100)"/>
<path d="M0 0 C3.5 0.25 3.5 0.25 5.5 2.25 C5.5 3.24 5.5 4.23 5.5 5.25 C6.49 5.25 7.48 5.25 8.5 5.25 C8.83 4.26 9.16 3.27 9.5 2.25 C10.82 2.91 12.14 3.57 13.5 4.25 C12.18 4.25 10.86 4.25 9.5 4.25 C9.5 7.22 9.5 10.19 9.5 13.25 C12.61490087 11.67422186 12.61490087 11.67422186 15.5 9.25 C16.00169415 6.08073436 16.00169415 6.08073436 15.5 3.25 C16.16 3.25 16.82 3.25 17.5 3.25 C17.83 6.22 18.16 9.19 18.5 12.25 C19.49 11.92 20.48 11.59 21.5 11.25 C22.16 11.58 22.82 11.91 23.5 12.25 C23.17 13.24 22.84 14.23 22.5 15.25 C21.88511719 15.15460938 21.27023438 15.05921875 20.63671875 14.9609375 C19.82847656 14.85007813 19.02023438 14.73921875 18.1875 14.625 C17.38699219 14.50898438 16.58648437 14.39296875 15.76171875 14.2734375 C13.21276785 14.03466593 13.21276785 14.03466593 10.5 16.25 C9.84 15.59 9.18 14.93 8.5 14.25 C5.92938689 13.60232207 5.92938689 13.60232207 3.5 13.25 C3.83 9.95 4.16 6.65 4.5 3.25 C1.53 3.25 -1.44 3.25 -4.5 3.25 C-3.84 7.21 -3.18 11.17 -2.5 15.25 C-4.48 15.25 -6.46 15.25 -8.5 15.25 C-9.49 15.58 -10.48 15.91 -11.5 16.25 C-11.5 13.25 -11.5 10.25 -11.5 7.25 C-8.53 7.745 -8.53 7.745 -5.5 8.25 C-5.54125 7.30125 -5.5825 6.3525 -5.625 5.375 C-5.44230464 0.80761593 -4.50395834 0.32171131 0 0 Z " fill="#292034" transform="translate(83.5,125.75)"/>
<path d="M0 0 C0.2475 0.639375 0.495 1.27875 0.75 1.9375 C1.81562433 4.18741541 1.81562433 4.18741541 4.125 4.75 C4.74375 4.8325 5.3625 4.915 6 5 C5.67 5.66 5.34 6.32 5 7 C4.01 7 3.02 7 2 7 C2.33 8.98 2.66 10.96 3 13 C0.36 13 -2.28 13 -5 13 C-6.4783226 10.04335481 -6.06032783 7.25770263 -6 4 C-6.33 4.33 -6.66 4.66 -7 5 C-6.9175 5.763125 -6.835 6.52625 -6.75 7.3125 C-7 10 -7 10 -9.375 12.3125 C-12 14 -12 14 -14 14 C-14.02712066 12.56260487 -14.04645067 11.12506137 -14.0625 9.6875 C-14.07410156 8.88699219 -14.08570312 8.08648437 -14.09765625 7.26171875 C-14 5 -14 5 -13 2 C-8.56971812 0.34950283 -4.70949382 -0.22973141 0 0 Z " fill="#2C2338" transform="translate(107,125)"/>
<path d="M0 0 C0.8773708 2.87139535 1.29060153 4.38050062 -0.0078125 7.1484375 C-2.92411693 9.85888515 -5.79537389 9.51043121 -9.5625 9.375 C-10.24763672 9.37371094 -10.93277344 9.37242187 -11.63867188 9.37109375 C-16.71864073 9.28135927 -16.71864073 9.28135927 -19 7 C-19.1875 4.4375 -19.1875 4.4375 -19 2 C-18 1 -18 1 -16.15234375 0.90234375 C-14.1015625 0.93489583 -12.05078125 0.96744792 -10 1 C-9.67 0.34 -9.34 -0.32 -9 -1 C-5.23375329 -2.25541557 -3.62811066 -1.37061958 0 0 Z " fill="#433D81" transform="translate(116,139)"/>
<path d="M0 0 C0.8773708 2.87139535 1.29060153 4.38050062 -0.0078125 7.1484375 C-2.92411693 9.85888515 -5.79537389 9.51043121 -9.5625 9.375 C-10.24763672 9.37371094 -10.93277344 9.37242187 -11.63867188 9.37109375 C-16.71864073 9.28135927 -16.71864073 9.28135927 -19 7 C-19.1875 4.4375 -19.1875 4.4375 -19 2 C-18 1 -18 1 -16.15234375 0.90234375 C-14.1015625 0.93489583 -12.05078125 0.96744792 -10 1 C-9.67 0.34 -9.34 -0.32 -9 -1 C-5.23375329 -2.25541557 -3.62811066 -1.37061958 0 0 Z " fill="#433D81" transform="translate(22,139)"/>
<path d="M0 0 C0.99 0 1.98 0 3 0 C3 4.95 3 9.9 3 15 C-1.62 15 -6.24 15 -11 15 C-10.67 12.69 -10.34 10.38 -10 8 C-11.65 7.67 -13.3 7.34 -15 7 C-14.67 6.34 -14.34 5.68 -14 5 C-12.8553125 5.2475 -12.8553125 5.2475 -11.6875 5.5 C-7.18521551 6.33763432 -4.26057777 5.5148721 0 4 C0 2.68 0 1.36 0 0 Z " fill="#4C3683" transform="translate(149,133)"/>
<path d="M0 0 C6.0546875 -0.1953125 6.0546875 -0.1953125 8 0 C10 2 10 2 10.125 5.125 C10.08375 6.07375 10.0425 7.0225 10 8 C11.65 8 13.3 8 15 8 C15 8.66 15 9.32 15 10 C13.02 10 11.04 10 9 10 C9 7.69 9 5.38 9 3 C5.7 3 2.4 3 -1 3 C-1 3.99 -1 4.98 -1 6 C-0.34 6 0.32 6 1 6 C1.33 9.3 1.66 12.6 2 16 C0.68 15.67 -0.64 15.34 -2 15 C-1.34 15 -0.68 15 0 15 C0 12.36 0 9.72 0 7 C-2.97 7 -5.94 7 -9 7 C-8.67 6.01 -8.34 5.02 -8 4 C-6.02 4 -4.04 4 -2 4 C-1.34 2.68 -0.68 1.36 0 0 Z M19.8125 3.6875 C23.36852749 4.03613015 25.21309325 4.78686817 28 7 C28 7.99 28 8.98 28 10 C27.01 10 26.02 10 25 10 C25.33 11.65 25.66 13.3 26 15 C24.02 15 22.04 15 20 15 C21.32 14.67 22.64 14.34 24 14 C24 11.69 24 9.38 24 7 C21.69 7 19.38 7 17 7 C16.67 7.99 16.34 8.98 16 10 C15.375 8.125 15.375 8.125 15 6 C17 4 17 4 19.8125 3.6875 Z " fill="#221B2B" transform="translate(124,123)"/>
<path d="M0 0 C2.97 0 5.94 0 9 0 C9 2.97 9 5.94 9 9 C10.32 9.66 11.64 10.32 13 11 C11.906875 11.309375 10.81375 11.61875 9.6875 11.9375 C7.44592006 12.58337897 5.2130649 13.2623117 3 14 C2.01 13.34 1.02 12.68 0 12 C0.33 11.67 0.66 11.34 1 11 C0.7834375 10.195625 0.7834375 10.195625 0.5625 9.375 C-0.18358559 6.22486086 -0.06201471 3.22476484 0 0 Z " fill="#3D2F50" transform="translate(79,129)"/>
<path d="M0 0 C3.3 0 6.6 0 10 0 C10 3.3 10 6.6 10 10 C9.01 10 8.02 10 7 10 C7 10.66 7 11.32 7 12 C5.35 12.66 3.7 13.32 2 14 C0.64908472 11.29816945 0.66141942 8.88191794 0.4375 5.875 C0.35371094 4.77929688 0.26992188 3.68359375 0.18359375 2.5546875 C0.12300781 1.71164063 0.06242187 0.86859375 0 0 Z " fill="#3E324E" transform="translate(56,127)"/>
<path d="M0 0 C1.134375 0.020625 2.26875 0.04125 3.4375 0.0625 C3.4375 2.3725 3.4375 4.6825 3.4375 7.0625 C2.1175 7.0625 0.7975 7.0625 -0.5625 7.0625 C-1.2225 8.3825 -1.8825 9.7025 -2.5625 11.0625 C-3.5525 10.4025 -4.5425 9.7425 -5.5625 9.0625 C-7.89449388 8.98344936 -10.23082622 8.97451231 -12.5625 9.0625 C-12.2325 7.0825 -11.9025 5.1025 -11.5625 3.0625 C-9.5825 3.0625 -7.6025 3.0625 -5.5625 3.0625 C-5.2325 2.4025 -4.9025 1.7425 -4.5625 1.0625 C-3.5625 0.0625 -3.5625 0.0625 0 0 Z " fill="#1F1827" transform="translate(144.5625,129.9375)"/>
<path d="M0 0 C0.33 0.99 0.66 1.98 1 3 C2.32 3.33 3.64 3.66 5 4 C5.33 6.97 5.66 9.94 6 13 C6.99 13 7.98 13 9 13 C9 13.66 9 14.32 9 15 C7.68 15 6.36 15 5 15 C5 17.64 5 20.28 5 23 C4.34 23 3.68 23 3 23 C3 22.34 3 21.68 3 21 C0.69 21 -1.62 21 -4 21 C-3.67 20.01 -3.34 19.02 -3 18 C-3 18.66 -3 19.32 -3 20 C-0.69 20 1.62 20 4 20 C4 16.37 4 12.74 4 9 C1.03 9 -1.94 9 -5 9 C-5 10.32 -5 11.64 -5 13 C-4.34 13 -3.68 13 -3 13 C-3.33 14.32 -3.66 15.64 -4 17 C-4 16.01 -4 15.02 -4 14 C-4.66 14 -5.32 14 -6 14 C-6.125 8.25 -6.125 8.25 -5 6 C-4.34 6 -3.68 6 -3 6 C-2.67 5.01 -2.34 4.02 -2 3 C-1.34 3 -0.68 3 0 3 C0 2.01 0 1.02 0 0 Z " fill="#34283D" transform="translate(20,115)"/>
<path d="M0 0 C3.3 0.33 6.6 0.66 10 1 C10 1.99 10 2.98 10 4 C12.97 4.495 12.97 4.495 16 5 C16 5.33 16 5.66 16 6 C12.22923111 6.05799124 8.45857666 6.09359306 4.6875 6.125 C3.61564453 6.14175781 2.54378906 6.15851563 1.43945312 6.17578125 C0.41142578 6.18222656 -0.61660156 6.18867187 -1.67578125 6.1953125 C-2.62364502 6.20578613 -3.57150879 6.21625977 -4.5480957 6.22705078 C-7 6 -7 6 -10 4 C-8.02 4 -6.04 4 -4 4 C-4 3.34 -4 2.68 -4 2 C-2.68 2 -1.36 2 0 2 C0 1.34 0 0.68 0 0 Z " fill="#543CC7" transform="translate(47,98)"/>
<path d="M0 0 C2.97 0 5.94 0 9 0 C9 3.63 9 7.26 9 11 C6.69 11 4.38 11 2 11 C0.95550089 7.86650268 1.06576355 7.01031744 2 4 C1.34 4 0.68 4 0 4 C0 2.68 0 1.36 0 0 Z " fill="#76566F" transform="translate(15,124)"/>
<path d="M0 0 C1.32 0 2.64 0 4 0 C4.02578125 0.69867188 4.0515625 1.39734375 4.078125 2.1171875 C4.13484375 3.02726563 4.1915625 3.93734375 4.25 4.875 C4.29640625 5.77992188 4.3428125 6.68484375 4.390625 7.6171875 C4.75611148 10.17110544 4.75611148 10.17110544 7.046875 11.3203125 C7.69140625 11.54460937 8.3359375 11.76890625 9 12 C7.35 12.33 5.7 12.66 4 13 C3.84850702 16.62885324 3.84850702 16.62885324 5 20 C3.35 20 1.7 20 0 20 C0 13.4 0 6.8 0 0 Z " fill="#3B304A" transform="translate(0,128)"/>
<path d="M0 0 C6.6772895 0.60702632 12.70127996 2.77631394 19 5 C18.625 6.9375 18.625 6.9375 18 9 C15.29120665 10.35439668 12.99066732 10.06501451 10 10 C10.99 9.67 11.98 9.34 13 9 C10.77928057 6.44617265 9.30520944 5.61382461 6 5 C4.41788427 4.93451508 2.83329919 4.91421619 1.25 4.9375 C0.05117187 4.95103516 0.05117187 4.95103516 -1.171875 4.96484375 C-2.07679687 4.98224609 -2.07679687 4.98224609 -3 5 C-2.01 3.35 -1.02 1.7 0 0 Z " fill="#D8D8D8" transform="translate(108,96)"/>
<path d="M0 0 C2.97 0 5.94 0 9 0 C9 2.31 9 4.62 9 7 C6.04335481 8.4783226 3.25770263 8.06032783 0 8 C0 5.36 0 2.72 0 0 Z " fill="#403350" transform="translate(6,130)"/>
<path d="M0 0 C5.54959786 -0.36997319 5.54959786 -0.36997319 7.75 1.4375 C8.36875 2.2109375 8.36875 2.2109375 9 3 C9.66 3.33 10.32 3.66 11 4 C10.835 4.61875 10.67 5.2375 10.5 5.875 C9.92365356 7.96063386 9.92365356 7.96063386 10 10 C10.99 10.33 11.98 10.66 13 11 C11.37536158 11.05395478 9.75021459 11.09277195 8.125 11.125 C7.22007813 11.14820313 6.31515625 11.17140625 5.3828125 11.1953125 C3 11 3 11 1 9 C2.32 9 3.64 9 5 9 C5 6.69 5 4.38 5 2 C3.35 1.67 1.7 1.34 0 1 C0 0.67 0 0.34 0 0 Z " fill="#4F3584" transform="translate(111,137)"/>
<path d="M0 0 C5.54959786 -0.36997319 5.54959786 -0.36997319 7.75 1.4375 C8.36875 2.2109375 8.36875 2.2109375 9 3 C9.66 3.33 10.32 3.66 11 4 C10.835 4.61875 10.67 5.2375 10.5 5.875 C9.92365356 7.96063386 9.92365356 7.96063386 10 10 C10.99 10.33 11.98 10.66 13 11 C11.37536158 11.05395478 9.75021459 11.09277195 8.125 11.125 C7.22007813 11.14820313 6.31515625 11.17140625 5.3828125 11.1953125 C3 11 3 11 1 9 C2.32 9 3.64 9 5 9 C5 6.69 5 4.38 5 2 C3.35 1.67 1.7 1.34 0 1 C0 0.67 0 0.34 0 0 Z " fill="#4F3584" transform="translate(17,137)"/>
<path d="M0 0 C3.55602749 0.34863015 5.40059325 1.09936817 8.1875 3.3125 C8.1875 4.3025 8.1875 5.2925 8.1875 6.3125 C7.1975 6.3125 6.2075 6.3125 5.1875 6.3125 C5.5175 7.9625 5.8475 9.6125 6.1875 11.3125 C4.2075 11.3125 2.2275 11.3125 0.1875 11.3125 C1.5075 10.9825 2.8275 10.6525 4.1875 10.3125 C4.1875 8.0025 4.1875 5.6925 4.1875 3.3125 C1.8775 3.3125 -0.4325 3.3125 -2.8125 3.3125 C-3.1425 4.3025 -3.4725 5.2925 -3.8125 6.3125 C-4.4375 4.4375 -4.4375 4.4375 -4.8125 2.3125 C-2.8125 0.3125 -2.8125 0.3125 0 0 Z M-4.8125 4.3125 C-4.8125 4.9725 -4.8125 5.6325 -4.8125 6.3125 C-6.4625 6.3125 -8.1125 6.3125 -9.8125 6.3125 C-6.8125 4.3125 -6.8125 4.3125 -4.8125 4.3125 Z " fill="#282032" transform="translate(143.8125,126.6875)"/>
<path d="M0 0 C2.64 0 5.28 0 8 0 C8 2.31 8 4.62 8 7 C3.25 8 3.25 8 1 8 C0.67 5.36 0.34 2.72 0 0 Z " fill="#825C60" transform="translate(39,129)"/>
<path d="M0 0 C2.5625 0.1875 2.5625 0.1875 4.5625 2.1875 C4.1875 5.3125 4.1875 5.3125 3.5625 8.1875 C1.1875 8.3125 1.1875 8.3125 -1.4375 8.1875 C-3.4375 6.1875 -3.4375 6.1875 -3.625 3.625 C-3.37291261 0.34786389 -3.27713611 0.25208739 0 0 Z " fill="#007A72" transform="translate(100.4375,139.8125)"/>
<path d="M0 0 C2.5625 0.1875 2.5625 0.1875 4.5625 2.1875 C4.1875 5.3125 4.1875 5.3125 3.5625 8.1875 C1.1875 8.3125 1.1875 8.3125 -1.4375 8.1875 C-3.4375 6.1875 -3.4375 6.1875 -3.625 3.625 C-3.37291261 0.34786389 -3.27713611 0.25208739 0 0 Z " fill="#007A72" transform="translate(53.4375,139.8125)"/>
<path d="M0 0 C2.5625 0.1875 2.5625 0.1875 4.5625 2.1875 C4.1875 5.3125 4.1875 5.3125 3.5625 8.1875 C1.1875 8.3125 1.1875 8.3125 -1.4375 8.1875 C-3.4375 6.1875 -3.4375 6.1875 -3.625 3.625 C-3.37291261 0.34786389 -3.27713611 0.25208739 0 0 Z " fill="#007A72" transform="translate(6.4375,139.8125)"/>
<path d="M0 0 C2.5625 0.1875 2.5625 0.1875 4.5625 2.1875 C4.1875 5.3125 4.1875 5.3125 3.5625 8.1875 C1.1875 8.3125 1.1875 8.3125 -1.4375 8.1875 C-3.4375 6.1875 -3.4375 6.1875 -3.625 3.625 C-3.37291261 0.34786389 -3.27713611 0.25208739 0 0 Z " fill="#007A72" transform="translate(147.4375,138.8125)"/>
<path d="M0 0 C2.31 0 4.62 0 7 0 C7.04241723 2.33294775 7.04092937 4.66702567 7 7 C6 8 6 8 3.5625 8.25 C2.716875 8.1675 1.87125 8.085 1 8 C-1 5 -1 5 -0.625 2.3125 C-0.41875 1.549375 -0.2125 0.78625 0 0 Z " fill="#815B5D" transform="translate(80,130)"/>
<path d="M0 0 C1.98 0 3.96 0 6 0 C6 2.97 6 5.94 6 9 C4.02 9 2.04 9 0 9 C0 6.03 0 3.06 0 0 Z " fill="#855F62" transform="translate(126,127)"/>
<path d="M0 0 C0.33 0 0.66 0 1 0 C1.33 3.63 1.66 7.26 2 11 C2.66 11 3.32 11 4 11 C3.67 12.32 3.34 13.64 3 15 C3 14.34 3 13.68 3 13 C1.700625 13.0928125 1.700625 13.0928125 0.375 13.1875 C-3.44199033 12.97544498 -5.71077536 11.87955693 -9 10 C-9 9.34 -9 8.68 -9 8 C-6.03 8.495 -6.03 8.495 -3 9 C-2.67 8.01 -2.34 7.02 -2 6 C-1.34 6 -0.68 6 0 6 C0 4.02 0 2.04 0 0 Z " fill="#30286F" transform="translate(9,114)"/>
<path d="M0 0 C2.97 0.495 2.97 0.495 6 1 C7.125 5.75 7.125 5.75 6 8 C3.625 8.125 3.625 8.125 1 8 C0.34 7.34 -0.32 6.68 -1 6 C-0.625 2.875 -0.625 2.875 0 0 Z " fill="#017A73" transform="translate(63,138)"/>
<path d="M0 0 C2.64 0 5.28 0 8 0 C8 2.31 8 4.62 8 7 C5.36 6.67 2.72 6.34 0 6 C0 4.02 0 2.04 0 0 Z " fill="#5E4650" transform="translate(115,130)"/>
<path d="M0 0 C2.31 0 4.62 0 7 0 C7.04254356 1.99954746 7.04080783 4.00041636 7 6 C6.67 6.33 6.34 6.66 6 7 C3.66055264 6.71269945 1.3260857 6.38063221 -1 6 C-0.67 4.02 -0.34 2.04 0 0 Z " fill="#037A73" transform="translate(86,140)"/>
<path d="M0 0 C1.67542976 0.28604898 3.34385343 0.61781233 5 1 C6.125 5.75 6.125 5.75 5 8 C2.625 8.125 2.625 8.125 0 8 C-0.66 7.34 -1.32 6.68 -2 6 C-1.44444444 1.44444444 -1.44444444 1.44444444 0 0 Z " fill="#007C72" transform="translate(111,138)"/>
<path d="M0 0 C1.67542976 0.28604898 3.34385343 0.61781233 5 1 C6.125 5.75 6.125 5.75 5 8 C2.625 8.125 2.625 8.125 0 8 C-0.66 7.34 -1.32 6.68 -2 6 C-1.44444444 1.44444444 -1.44444444 1.44444444 0 0 Z " fill="#007C72" transform="translate(17,138)"/>
<path d="M0 0 C0.103125 0.763125 0.20625 1.52625 0.3125 2.3125 C0.84832051 5.3581229 0.84832051 5.3581229 4 8 C0.7 8 -2.6 8 -6 8 C-5.979375 7.05125 -5.95875 6.1025 -5.9375 5.125 C-5.77448174 2.09333717 -5.77448174 2.09333717 -7 0 C-3.98968256 -0.93423645 -3.13349732 -1.04449911 0 0 Z " fill="#423D81" transform="translate(63,140)"/>
<path d="M0 0 C2.31 0 4.62 0 7 0 C7.3125 2.25 7.3125 2.25 7 5 C2.89189189 9 2.89189189 9 0 9 C0 6.03 0 3.06 0 0 Z " fill="#564155" transform="translate(93,130)"/>
<path d="M0 0 C2.5 0.125 2.5 0.125 3.5 1.125 C3.625 3.625 3.625 3.625 3.5 6.125 C3.17 6.455 2.84 6.785 2.5 7.125 C0.16055264 6.83769945 -2.1739143 6.50563221 -4.5 6.125 C-3.43143596 0.1715718 -3.43143596 0.1715718 0 0 Z " fill="#007C72" transform="translate(136.5,139.875)"/>
<path d="M0 0 C2.5 0.125 2.5 0.125 3.5 1.125 C3.625 3.625 3.625 3.625 3.5 6.125 C3.17 6.455 2.84 6.785 2.5 7.125 C0.16055264 6.83769945 -2.1739143 6.50563221 -4.5 6.125 C-3.43143596 0.1715718 -3.43143596 0.1715718 0 0 Z " fill="#007C72" transform="translate(42.5,139.875)"/>
<path d="M0 0 C2.33944736 0.28730055 4.6739143 0.61936779 7 1 C7 2.65 7 4.3 7 6 C3.98968256 6.93423645 3.13349732 7.04449911 0 6 C-0.38218767 4.34385343 -0.71395102 2.67542976 -1 1 C-0.67 0.67 -0.34 0.34 0 0 Z " fill="#007E72" transform="translate(121,141)"/>
<path d="M0 0 C2.33944736 0.28730055 4.6739143 0.61936779 7 1 C7 2.65 7 4.3 7 6 C3.98968256 6.93423645 3.13349732 7.04449911 0 6 C-0.38218767 4.34385343 -0.71395102 2.67542976 -1 1 C-0.67 0.67 -0.34 0.34 0 0 Z " fill="#007E72" transform="translate(27,141)"/>
<path d="M0 0 C1.65 0 3.3 0 5 0 C5.33 2.64 5.66 5.28 6 8 C3.92446352 8.5534764 2.15634036 9 0 9 C-0.33 8.01 -0.66 7.02 -1 6 C-0.34 5.34 0.32 4.68 1 4 C0.6814823 1.89179203 0.6814823 1.89179203 0 0 Z " fill="#89615E" transform="translate(102,129)"/>
<path d="M0 0 C2.31 0 4.62 0 7 0 C7 2.31 7 4.62 7 7 C5.824375 6.9690625 5.824375 6.9690625 4.625 6.9375 C2.01885039 6.81315937 2.01885039 6.81315937 0 8 C0 5.33333333 0 2.66666667 0 0 Z " fill="#7F5B67" transform="translate(58,128)"/>
<path d="M0 0 C0.763125 0.20625 1.52625 0.4125 2.3125 0.625 C2.3125 2.275 2.3125 3.925 2.3125 5.625 C-0.69781744 6.55923645 -1.55400268 6.66949911 -4.6875 5.625 C-5.375 3.5625 -5.375 3.5625 -5.6875 1.625 C-2.6875 -0.375 -2.6875 -0.375 0 0 Z " fill="#007F72" transform="translate(78.6875,141.375)"/>
<path d="M0 0 C5.65394631 -0.34615998 9.03006806 0.56574762 14 3 C14 3.66 14 4.32 14 5 C11.36 5.33 8.72 5.66 6 6 C6.33 5.01 6.66 4.02 7 3 C4.69 2.34 2.38 1.68 0 1 C0 0.67 0 0.34 0 0 Z " fill="#C4C2CF" transform="translate(107,100)"/>
<path d="M0 0 C2.31 0 4.62 0 7 0 C6.67 1.98 6.34 3.96 6 6 C2 6 2 6 0 5 C0 3.35 0 1.7 0 0 Z " fill="#513C45" transform="translate(32,135)"/>
<path d="M0 0 C0 1.32 0 2.64 0 4 C-3.96 4 -7.92 4 -12 4 C-10 1 -10 1 -7.6875 0.3125 C-5.09355691 0.01087871 -2.60858859 -0.0745311 0 0 Z " fill="#403566" transform="translate(152,150)"/>
<path d="M0 0 C1.65 0 3.3 0 5 0 C5 2.31 5 4.62 5 7 C3.35 7.33 1.7 7.66 0 8 C0 5.36 0 2.72 0 0 Z " fill="#5B4450" transform="translate(26,131)"/>
<path d="M0 0 C2.8125 1.3125 2.8125 1.3125 4.8125 3.3125 C1.78812661 4.8246867 -0.84991534 4.48513369 -4.1875 4.3125 C-6.625 3.3125 -6.625 3.3125 -8.1875 2.3125 C-5.07236375 -0.06966301 -3.92835168 -0.84729154 0 0 Z " fill="#543BC7" transform="translate(131.1875,100.6875)"/>
<path d="M0 0 C3.3 0 6.6 0 10 0 C10 3.96 10 7.92 10 12 C9.01 11.67 8.02 11.34 7 11 C7.66 7.7 8.32 4.4 9 1 C6.36 1 3.72 1 1 1 C1.33 2.65 1.66 4.3 2 6 C1.34 6 0.68 6 0 6 C0 4.02 0 2.04 0 0 Z " fill="#3D314C" transform="translate(38,128)"/>
<path d="M0 0 C0 0.33 0 0.66 0 1 C-1.65 1.33 -3.3 1.66 -5 2 C-5.15149298 5.62885324 -5.15149298 5.62885324 -4 9 C-5.65 9 -7.3 9 -9 9 C-9 6.36 -9 3.72 -9 1 C-5.8035914 -0.06546953 -3.34252724 -0.07427838 0 0 Z " fill="#4A3883" transform="translate(9,139)"/>
<path d="M0 0 C1.98 0 3.96 0 6 0 C6 1.98 6 3.96 6 6 C4.35 6 2.7 6 1 6 C0.67 4.02 0.34 2.04 0 0 Z " fill="#9A6950" transform="translate(141,130)"/>
<path d="M0 0 C3.3 0 6.6 0 10 0 C10 2.97 10 5.94 10 9 C9.67 9 9.34 9 9 9 C9 6.36 9 3.72 9 1 C7.02 1 5.04 1 3 1 C3 3.97 3 6.94 3 10 C2.67 10 2.34 10 2 10 C2 7.69 2 5.38 2 3 C1.34 3 0.68 3 0 3 C0 2.01 0 1.02 0 0 Z " fill="#3F334F" transform="translate(123,126)"/>
<path d="M0 0 C1.32 0 2.64 0 4 0 C3.67 1.65 3.34 3.3 3 5 C-0.81489674 6.46726798 -3.29011622 5.43336419 -7 4 C-7 3.67 -7 3.34 -7 3 C-6.21625 3.061875 -5.4325 3.12375 -4.625 3.1875 C-3.75875 3.125625 -2.8925 3.06375 -2 3 C-1.34 2.01 -0.68 1.02 0 0 Z " fill="#D7D7D7" transform="translate(138,105)"/>
<path d="M0 0 C0 0.66 0 1.32 0 2 C0.66 2.33 1.32 2.66 2 3 C-0.22890995 4.11445498 -1.53055106 4.16480286 -4 4.1875 C-5.051875 4.20876953 -5.051875 4.20876953 -6.125 4.23046875 C-8 4 -8 4 -10 2 C-6.38026598 0.68373308 -3.90432869 0 0 0 Z " fill="#5138C6" transform="translate(31,100)"/>
<path d="M0 0 C0.33 0.66 0.66 1.32 1 2 C-2.96 2 -6.92 2 -11 2 C-10 0 -10 0 -8.3125 -1.25 C-5.00322081 -2.32327974 -3.11054149 -1.38246289 0 0 Z " fill="#553EC7" transform="translate(87,102)"/>
<path d="M0 0 C0.66 0 1.32 0 2 0 C2.33 2.97 2.66 5.94 3 9 C3.99 8.67 4.98 8.34 6 8 C6.66 8.33 7.32 8.66 8 9 C7.67 9.99 7.34 10.98 7 12 C2.545 11.01 2.545 11.01 -2 10 C-1.01 9.67 -0.02 9.34 1 9 C0.67 6.03 0.34 3.06 0 0 Z " fill="#271E31" transform="translate(99,129)"/>
<path d="M0 0 C0.66 0.66 1.32 1.32 2 2 C0.41870971 2.22331199 -1.16521089 2.42804644 -2.75 2.625 C-4.07257812 2.79902344 -4.07257812 2.79902344 -5.421875 2.9765625 C-8.22859878 3.00207817 -9.63384866 2.44843844 -12 1 C-7.56323657 -0.79583282 -4.64998633 -1.26817809 0 0 Z " fill="#4D33C6" transform="translate(14,101)"/>
<path d="M0 0 C1.32 0.33 2.64 0.66 4 1 C3.01 1 2.02 1 1 1 C1 3.64 1 6.28 1 9 C3.31 9 5.62 9 8 9 C7.67 9.99 7.34 10.98 7 12 C2.545 11.01 2.545 11.01 -2 10 C-1.34 9.67 -0.68 9.34 0 9 C0 6.03 0 3.06 0 0 Z " fill="#231C2C" transform="translate(5,129)"/>
<path d="M0 0 C0.33 0.99 0.66 1.98 1 3 C3.01508358 3.73323796 3.01508358 3.73323796 5 4 C4.67 4.99 4.34 5.98 4 7 C1.69 6.67 -0.62 6.34 -3 6 C-2.67 5.01 -2.34 4.02 -2 3 C-1.34 3 -0.68 3 0 3 C0 2.01 0 1.02 0 0 Z " fill="#30286F" transform="translate(20,115)"/>
<path d="M0 0 C0.33 0 0.66 0 1 0 C1 2.31 1 4.62 1 7 C-0.32 7 -1.64 7 -3 7 C-3.66 8.32 -4.32 9.64 -5 11 C-5.33 11 -5.66 11 -6 11 C-6 8.36 -6 5.72 -6 3 C-5.67 3.99 -5.34 4.98 -5 6 C-3.35 6 -1.7 6 0 6 C0 4.02 0 2.04 0 0 Z " fill="#3B2F4A" transform="translate(147,130)"/>
<path d="M0 0 C1.98 0 3.96 0 6 0 C6 1.98 6 3.96 6 6 C5.01 5.67 4.02 5.34 3 5 C3 4.34 3 3.68 3 3 C2.01 3 1.02 3 0 3 C0 2.01 0 1.02 0 0 Z " fill="#5F4546" transform="translate(67,134)"/>
<path d="M0 0 C1.65 0 3.3 0 5 0 C5 1.65 5 3.3 5 5 C3.35 5 1.7 5 0 5 C0 3.35 0 1.7 0 0 Z " fill="#946655" transform="translate(50,132)"/>
<path d="M0 0 C0 1.65 0 3.3 0 5 C-0.99 5.33 -1.98 5.66 -3 6 C-3 5.34 -3 4.68 -3 4 C-3.99 3.67 -4.98 3.34 -6 3 C-6 2.34 -6 1.68 -6 1 C-1.125 0 -1.125 0 0 0 Z " fill="#9C693D" transform="translate(100,130)"/>
<path d="M0 0 C1.32 0 2.64 0 4 0 C4.625 3.375 4.625 3.375 5 7 C4.34 7.66 3.68 8.32 3 9 C2.34 8.34 1.68 7.68 1 7 C1.66 7 2.32 7 3 7 C3 6.34 3 5.68 3 5 C2.34 4.67 1.68 4.34 1 4 C0.375 1.9375 0.375 1.9375 0 0 Z " fill="#885F59" transform="translate(0,128)"/>
<path d="M0 0 C1.65 0 3.3 0 5 0 C5 1.32 5 2.64 5 4 C3.35 4.33 1.7 4.66 0 5 C0 3.35 0 1.7 0 0 Z " fill="#48395A" transform="translate(109,132)"/>
<path d="M0 0 C2.00720923 0.28674418 4.0085944 0.61866701 6 1 C5.67 1.99 5.34 2.98 5 4 C3.35 4 1.7 4 0 4 C-0.33 3.01 -0.66 2.02 -1 1 C-0.67 0.67 -0.34 0.34 0 0 Z " fill="#7E5740" transform="translate(102,134)"/>
<path d="M0 0 C1.98 0 3.96 0 6 0 C5.67 1.32 5.34 2.64 5 4 C3.35 3.67 1.7 3.34 0 3 C0 2.01 0 1.02 0 0 Z " fill="#473858" transform="translate(134,134)"/>
<path d="M0 0 C0.99 0 1.98 0 3 0 C3 2.64 3 5.28 3 8 C2.34 7.67 1.68 7.34 1 7 C0.59270772 4.67843403 0.25561323 2.3431213 0 0 Z " fill="#3E3053" transform="translate(149,133)"/>
<path d="M0 0 C0.33 1.32 0.66 2.64 1 4 C-1.70879335 5.35439668 -4.00933268 5.06501451 -7 5 C-6.67 4.01 -6.34 3.02 -6 2 C-2.9375 0.8125 -2.9375 0.8125 0 0 Z " fill="#74524F" transform="translate(14,133)"/>
<path d="M0 0 C1.98 0 3.96 0 6 0 C6 0.99 6 1.98 6 3 C4.02 3 2.04 3 0 3 C0 2.01 0 1.02 0 0 Z " fill="#845E63" transform="translate(7,131)"/>
<path d="M0 0 C0.33 0.99 0.66 1.98 1 3 C0.01 3 -0.98 3 -2 3 C-2.66 4.32 -3.32 5.64 -4 7 C-4.66 6.67 -5.32 6.34 -6 6 C-6 5.34 -6 4.68 -6 4 C-4.03852126 2.61061923 -2.03833424 1.2739589 0 0 Z " fill="#362B43" transform="translate(99,135)"/>
<path d="M0 0 C1.98 0 3.96 0 6 0 C6 0.99 6 1.98 6 3 C4.02 3 2.04 3 0 3 C0 2.01 0 1.02 0 0 Z " fill="#A46E43" transform="translate(117,131)"/>
<path d="M0 0 C2.64 0 5.28 0 8 0 C8 0.33 8 0.66 8 1 C4.68885166 2.12880057 1.41021743 3.21302675 -2 4 C-1.34 2.68 -0.68 1.36 0 0 Z " fill="#39434A" transform="translate(139,150)"/>
<path d="M0 0 C3.375 -0.1875 3.375 -0.1875 7 0 C7.66 0.99 8.32 1.98 9 3 C2.84765625 2.4140625 2.84765625 2.4140625 1 2 C0.67 1.34 0.34 0.68 0 0 Z " fill="#CDCCD1" transform="translate(107,100)"/>
</svg>
