<?xml version="1.0" encoding="UTF-8"?>
<svg version="1.1" xmlns="http://www.w3.org/2000/svg" width="78" height="560">
<path d="M0 0 C25.74 0 51.48 0 78 0 C78 184.8 78 369.6 78 560 C52.26 560 26.52 560 0 560 C0 375.2 0 190.4 0 0 Z " fill="#E0F78E" transform="translate(0,0)"/>
<path d="M0 0 C25.74 0 51.48 0 78 0 C78 184.8 78 369.6 78 560 C69.09 560 60.18 560 51 560 C51 388.07 51 216.14 51 39 C36.15 39 21.3 39 6 39 C6 210.93 6 382.86 6 560 C4.02 560 2.04 560 0 560 C0 375.2 0 190.4 0 0 Z " fill="#567E29" transform="translate(0,0)"/>
<path d="M0 0 C25.74 0 51.48 0 78 0 C78 184.8 78 369.6 78 560 C76.02 560 74.04 560 72 560 C72 387.08 72 214.16 72 36 C50.22 36 28.44 36 6 36 C6 208.92 6 381.84 6 560 C4.02 560 2.04 560 0 560 C0 375.2 0 190.4 0 0 Z " fill="#543847" transform="translate(0,0)"/>
<path d="M0 0 C3.96 0 7.92 0 12 0 C12 171.93 12 343.86 12 521 C8.04 521 4.08 521 0 521 C0 349.07 0 177.14 0 0 Z " fill="#85A84B" transform="translate(39,39)"/>
<path d="M0 0 C3.96 0 7.92 0 12 0 C12 171.93 12 343.86 12 521 C8.04 521 4.08 521 0 521 C0 349.07 0 177.14 0 0 Z " fill="#B4D26E" transform="translate(6,39)"/>
<path d="M0 0 C1.98 0 3.96 0 6 0 C6 171.93 6 343.86 6 521 C4.02 521 2.04 521 0 521 C0 349.07 0 177.14 0 0 Z " fill="#698F36" transform="translate(51,39)"/>
<path d="M0 0 C1.98 0 3.96 0 6 0 C6 171.93 6 343.86 6 521 C4.02 521 2.04 521 0 521 C0 349.07 0 177.14 0 0 Z " fill="#A4C462" transform="translate(39,39)"/>
<path d="M0 0 C1.98 0 3.96 0 6 0 C6 171.93 6 343.86 6 521 C4.02 521 2.04 521 0 521 C0 349.07 0 177.14 0 0 Z " fill="#C3DE79" transform="translate(33,39)"/>
<path d="M0 0 C1.98 0 3.96 0 6 0 C6 171.93 6 343.86 6 521 C4.02 521 2.04 521 0 521 C0 349.07 0 177.14 0 0 Z " fill="#D1EA82" transform="translate(18,39)"/>
<path d="M0 0 C1.98 0 3.96 0 6 0 C6 171.93 6 343.86 6 521 C4.02 521 2.04 521 0 521 C0 349.07 0 177.14 0 0 Z " fill="#95B656" transform="translate(6,39)"/>
<path d="M0 0 C0.99 0 1.98 0 3 0 C3 172.92 3 345.84 3 524 C2.01 524 1.02 524 0 524 C0 351.08 0 178.16 0 0 Z " fill="#000000" transform="translate(75,36)"/>
<path d="M0 0 C0.99 0 1.98 0 3 0 C3 172.92 3 345.84 3 524 C2.01 524 1.02 524 0 524 C0 351.08 0 178.16 0 0 Z " fill="#000000" transform="translate(0,36)"/>
<path d="M0 0 C0.99 0 1.98 0 3 0 C3 171.93 3 343.86 3 521 C2.01 521 1.02 521 0 521 C0 349.07 0 177.14 0 0 Z " fill="#5E862F" transform="translate(57,39)"/>
<path d="M0 0 C0.99 0 1.98 0 3 0 C3 171.93 3 343.86 3 521 C2.01 521 1.02 521 0 521 C0 349.07 0 177.14 0 0 Z " fill="#769A40" transform="translate(51,39)"/>
<path d="M0 0 C0.99 0 1.98 0 3 0 C3 171.93 3 343.86 3 521 C2.01 521 1.02 521 0 521 C0 349.07 0 177.14 0 0 Z " fill="#95B656" transform="translate(45,39)"/>
<path d="M0 0 C0.99 0 1.98 0 3 0 C3 171.93 3 343.86 3 521 C2.01 521 1.02 521 0 521 C0 349.07 0 177.14 0 0 Z " fill="#B4D26E" transform="translate(39,39)"/>
<path d="M0 0 C0.99 0 1.98 0 3 0 C3 171.93 3 343.86 3 521 C2.01 521 1.02 521 0 521 C0 349.07 0 177.14 0 0 Z " fill="#D1EA82" transform="translate(33,39)"/>
<path d="M0 0 C0.99 0 1.98 0 3 0 C3 171.93 3 343.86 3 521 C2.01 521 1.02 521 0 521 C0 349.07 0 177.14 0 0 Z " fill="#DCF48B" transform="translate(24,39)"/>
<path d="M0 0 C0.99 0 1.98 0 3 0 C3 171.93 3 343.86 3 521 C2.01 521 1.02 521 0 521 C0 349.07 0 177.14 0 0 Z " fill="#C3DF79" transform="translate(18,39)"/>
<path d="M0 0 C0.99 0 1.98 0 3 0 C3 171.93 3 343.86 3 521 C2.01 521 1.02 521 0 521 C0 349.07 0 177.14 0 0 Z " fill="#A4C462" transform="translate(12,39)"/>
<path d="M0 0 C0.99 0 1.98 0 3 0 C3 171.93 3 343.86 3 521 C2.01 521 1.02 521 0 521 C0 349.07 0 177.14 0 0 Z " fill="#85A84B" transform="translate(6,39)"/>
<path d="M0 0 C12.87 0 25.74 0 39 0 C39 0.99 39 1.98 39 3 C36.03 3 33.06 3 30 3 C30 10.92 30 18.84 30 27 C20.1 27 10.2 27 0 27 C0 18.09 0 9.18 0 0 Z " fill="#DDF58C" transform="translate(3,3)"/>
<path d="M0 0 C7.92 0 15.84 0 24 0 C24 0.99 24 1.98 24 3 C22.02 3 20.04 3 18 3 C18 10.92 18 18.84 18 27 C9.09 27 0.18 27 -9 27 C-9 19.08 -9 11.16 -9 3 C-6.03 3 -3.06 3 0 3 C0 2.01 0 1.02 0 0 Z " fill="#658B33" transform="translate(42,3)"/>
<path d="M0 0 C2.97 0 5.94 0 9 0 C9 9.9 9 19.8 9 30 C-14.76 30 -38.52 30 -63 30 C-63 29.01 -63 28.02 -63 27 C-44.19 27 -25.38 27 -6 27 C-6 19.08 -6 11.16 -6 3 C-4.02 3 -2.04 3 0 3 C0 2.01 0 1.02 0 0 Z " fill="#567E29" transform="translate(66,3)"/>
<path d="M0 0 C7.92 0 15.84 0 24 0 C24 0.99 24 1.98 24 3 C17.07 3 10.14 3 3 3 C3 10.92 3 18.84 3 27 C-0.96 27 -4.92 27 -9 27 C-9 19.08 -9 11.16 -9 3 C-6.03 3 -3.06 3 0 3 C0 2.01 0 1.02 0 0 Z " fill="#8EAF51" transform="translate(42,3)"/>
<path d="M0 0 C5.94 0 11.88 0 18 0 C18 0.99 18 1.98 18 3 C15.03 3 12.06 3 9 3 C9 10.92 9 18.84 9 27 C5.04 27 1.08 27 -3 27 C-3 19.08 -3 11.16 -3 3 C-2.01 3 -1.02 3 0 3 C0 2.01 0 1.02 0 0 Z " fill="#CDE780" transform="translate(24,3)"/>
<path d="M0 0 C1.98 0 3.96 0 6 0 C6 7.92 6 15.84 6 24 C4.02 24 2.04 24 0 24 C0 16.08 0 8.16 0 0 Z " fill="#7A9E42" transform="translate(45,6)"/>
<path d="M0 0 C1.98 0 3.96 0 6 0 C6 7.92 6 15.84 6 24 C4.02 24 2.04 24 0 24 C0 16.08 0 8.16 0 0 Z " fill="#A2C260" transform="translate(33,6)"/>
<path d="M0 0 C1.98 0 3.96 0 6 0 C6 7.92 6 15.84 6 24 C4.02 24 2.04 24 0 24 C0 16.08 0 8.16 0 0 Z " fill="#B6D46F" transform="translate(27,6)"/>
<path d="M0 0 C1.98 0 3.96 0 6 0 C6 0.99 6 1.98 6 3 C5.01 3 4.02 3 3 3 C3 10.92 3 18.84 3 27 C2.01 27 1.02 27 0 27 C0 18.09 0 9.18 0 0 Z " fill="#D2EA83" transform="translate(3,3)"/>
<path d="M0 0 C0.99 0 1.98 0 3 0 C3 7.92 3 15.84 3 24 C2.01 24 1.02 24 0 24 C0 16.08 0 8.16 0 0 Z " fill="#70963B" transform="translate(51,6)"/>
<path d="M0 0 C0.99 0 1.98 0 3 0 C3 7.92 3 15.84 3 24 C2.01 24 1.02 24 0 24 C0 16.08 0 8.16 0 0 Z " fill="#83A64A" transform="translate(45,6)"/>
<path d="M0 0 C0.99 0 1.98 0 3 0 C3 7.92 3 15.84 3 24 C2.01 24 1.02 24 0 24 C0 16.08 0 8.16 0 0 Z " fill="#98B958" transform="translate(39,6)"/>
<path d="M0 0 C0.99 0 1.98 0 3 0 C3 7.92 3 15.84 3 24 C2.01 24 1.02 24 0 24 C0 16.08 0 8.16 0 0 Z " fill="#ACCA68" transform="translate(33,6)"/>
<path d="M0 0 C0.99 0 1.98 0 3 0 C3 7.92 3 15.84 3 24 C2.01 24 1.02 24 0 24 C0 16.08 0 8.16 0 0 Z " fill="#C1DC76" transform="translate(27,6)"/>
<path d="M0 0 C5.94 0 11.88 0 18 0 C18 0.99 18 1.98 18 3 C12.06 3 6.12 3 0 3 C0 2.01 0 1.02 0 0 Z " fill="#D5EE86" transform="translate(24,3)"/>
<path d="M0 0 C3.96 0 7.92 0 12 0 C12 0.99 12 1.98 12 3 C8.04 3 4.08 3 0 3 C0 2.01 0 1.02 0 0 Z " fill="#759A3F" transform="translate(54,3)"/>
<path d="M0 0 C3.96 0 7.92 0 12 0 C12 0.99 12 1.98 12 3 C8.04 3 4.08 3 0 3 C0 2.01 0 1.02 0 0 Z " fill="#9DBD5C" transform="translate(42,3)"/>
<path d="M0 0 C1.98 0 3.96 0 6 0 C6 0.99 6 1.98 6 3 C4.02 3 2.04 3 0 3 C0 2.01 0 1.02 0 0 Z " fill="#658C33" transform="translate(66,3)"/>
<path d="M0 0 C1.98 0 3.96 0 6 0 C6 0.99 6 1.98 6 3 C4.02 3 2.04 3 0 3 C0 2.01 0 1.02 0 0 Z " fill="#89AB4E" transform="translate(54,3)"/>
<path d="M0 0 C1.98 0 3.96 0 6 0 C6 0.99 6 1.98 6 3 C4.02 3 2.04 3 0 3 C0 2.01 0 1.02 0 0 Z " fill="#B1CF6C" transform="translate(42,3)"/>
<path d="M0 0 C1.98 0 3.96 0 6 0 C6 0.99 6 1.98 6 3 C4.02 3 2.04 3 0 3 C0 2.01 0 1.02 0 0 Z " fill="#C5DF7A" transform="translate(36,3)"/>
<path d="M0 0 C1.98 0 3.96 0 6 0 C6 0.99 6 1.98 6 3 C4.02 3 2.04 3 0 3 C0 2.01 0 1.02 0 0 Z " fill="#C5DF7A" transform="translate(3,3)"/>
</svg>
