<?xml version="1.0" encoding="UTF-8"?>
<svg version="1.1" xmlns="http://www.w3.org/2000/svg" width="91" height="64">
<path d="M0 0 C11.55 0 23.1 0 35 0 C34.67 1.32 34.34 2.64 34 4 C35.98 4 37.96 4 40 4 C40.495 6.475 40.495 6.475 41 9 C42.32 9 43.64 9 45 9 C45 10.98 45 12.96 45 15 C46.98 15 48.96 15 51 15 C51.02692484 17.29160319 51.04636124 19.58329546 51.0625 21.875 C51.07410156 23.15117187 51.08570312 24.42734375 51.09765625 25.7421875 C51 29 51 29 50 31 C51.98 31 53.96 31 56 31 C56 32.65 56 34.3 56 36 C57.32 36 58.64 36 60 36 C60 38.64 60 41.28 60 44 C58.68 44 57.36 44 56 44 C56 47.63 56 51.26 56 55 C54.35 55 52.7 55 51 55 C51 56.65 51 58.3 51 60 C42.09 60 33.18 60 24 60 C24 61.32 24 62.64 24 64 C14.1 64 4.2 64 -6 64 C-5.67 62.68 -5.34 61.36 -5 60 C-8.63 60 -12.26 60 -16 60 C-16.33 58.35 -16.66 56.7 -17 55 C-18.65 54.67 -20.3 54.34 -22 54 C-22.125 46.25 -22.125 46.25 -21 44 C-22.98 44 -24.96 44 -27 44 C-27 42.02 -27 40.04 -27 38 C-28.98 38.495 -28.98 38.495 -31 39 C-31 32.73 -31 26.46 -31 20 C-29.68 20 -28.36 20 -27 20 C-27 18.35 -27 16.7 -27 15 C-23.37 15 -19.74 15 -16 15 C-16 13.02 -16 11.04 -16 9 C-14.68 9 -13.36 9 -12 9 C-11.67 7.35 -11.34 5.7 -11 4 C-7.37 4 -3.74 4 0 4 C0 2.68 0 1.36 0 0 Z " fill="#523B46" transform="translate(31,0)"/>
<path d="M0 0 C5.61 0 11.22 0 17 0 C17.495 1.98 17.495 1.98 18 4 C19.32 4.33 20.64 4.66 22 5 C22 3.68 22 2.36 22 1 C25.3 1 28.6 1 32 1 C32 2.65 32 4.3 32 6 C33.65 6 35.3 6 37 6 C37 7.32 37 8.64 37 10 C35.35 10.33 33.7 10.66 32 11 C32 14.3 32 17.6 32 21 C33.65 21 35.3 21 37 21 C37.33 17.7 37.66 14.4 38 11 C39.65 11 41.3 11 43 11 C43 16.61 43 22.22 43 28 C36.07 28 29.14 28 22 28 C22 29.65 22 31.3 22 33 C20.02 33 18.04 33 16 33 C16 34.65 16 36.3 16 38 C14.02 38.495 14.02 38.495 12 39 C12 40.32 12 41.64 12 43 C13.32 43.33 14.64 43.66 16 44 C16 45.65 16 47.3 16 49 C17.65 49 19.3 49 21 49 C21 50.32 21 51.64 21 53 C12.75 53 4.5 53 -4 53 C-4.33 51.35 -4.66 49.7 -5 48 C-8.3 47.67 -11.6 47.34 -15 47 C-15 46.01 -15 45.02 -15 44 C-11.7 44 -8.4 44 -5 44 C-5 42.35 -5 40.7 -5 39 C-3.35 39 -1.7 39 0 39 C0 37.02 0 35.04 0 33 C2.475 32.505 2.475 32.505 5 32 C5.33 28.37 5.66 24.74 6 21 C4.35 21 2.7 21 1 21 C1 19.35 1 17.7 1 16 C-0.65 16 -2.3 16 -4 16 C-4 14.68 -4 13.36 -4 12 C-6.31 12 -8.62 12 -11 12 C-11 9.69 -11 7.38 -11 5 C-7.37 5 -3.74 5 0 5 C0 3.35 0 1.7 0 0 Z " fill="#E0832C" transform="translate(32,5)"/>
<path d="M0 0 C0.70178375 0.00141495 1.4035675 0.0028299 2.12661743 0.00428772 C4.34747754 0.00984335 6.56823334 0.02238733 8.7890625 0.03515625 C10.30338395 0.04017699 11.817707 0.04473889 13.33203125 0.04882812 C17.02607502 0.05979818 20.72005856 0.07703176 24.4140625 0.09765625 C24.4140625 2.07765625 24.4140625 4.05765625 24.4140625 6.09765625 C13.8540625 6.09765625 3.2940625 6.09765625 -7.5859375 6.09765625 C-7.5859375 7.41765625 -7.5859375 8.73765625 -7.5859375 10.09765625 C-6.80355713 10.09241943 -6.02117676 10.08718262 -5.21508789 10.08178711 C-1.69287917 10.06108519 1.8293168 10.04801787 5.3515625 10.03515625 C6.58326172 10.02677734 7.81496094 10.01839844 9.08398438 10.00976562 C10.8387207 10.00493164 10.8387207 10.00493164 12.62890625 10 C14.25493774 9.99214478 14.25493774 9.99214478 15.91381836 9.98413086 C18.4140625 10.09765625 18.4140625 10.09765625 19.4140625 11.09765625 C19.4140625 13.07765625 19.4140625 15.05765625 19.4140625 17.09765625 C10.5040625 17.09765625 1.5940625 17.09765625 -7.5859375 17.09765625 C-7.5859375 18.74765625 -7.5859375 20.39765625 -7.5859375 22.09765625 C-16.8259375 22.09765625 -26.0659375 22.09765625 -35.5859375 22.09765625 C-35.5859375 20.44765625 -35.5859375 18.79765625 -35.5859375 17.09765625 C-39.2159375 17.09765625 -42.8459375 17.09765625 -46.5859375 17.09765625 C-46.5859375 15.11765625 -46.5859375 13.13765625 -46.5859375 11.09765625 C-42.6259375 11.09765625 -38.6659375 11.09765625 -34.5859375 11.09765625 C-34.5859375 11.42765625 -34.5859375 11.75765625 -34.5859375 12.09765625 C-37.8859375 12.09765625 -41.1859375 12.09765625 -44.5859375 12.09765625 C-44.5859375 13.08765625 -44.5859375 14.07765625 -44.5859375 15.09765625 C-43.87566406 15.08605469 -43.16539063 15.07445312 -42.43359375 15.0625 C-41.51449219 15.05347656 -40.59539063 15.04445313 -39.6484375 15.03515625 C-38.73191406 15.02355469 -37.81539062 15.01195312 -36.87109375 15 C-34.5859375 15.09765625 -34.5859375 15.09765625 -33.5859375 16.09765625 C-33.5859375 17.74765625 -33.5859375 19.39765625 -33.5859375 21.09765625 C-25.3359375 21.09765625 -17.0859375 21.09765625 -8.5859375 21.09765625 C-8.5859375 19.77765625 -8.5859375 18.45765625 -8.5859375 17.09765625 C-10.2359375 17.09765625 -11.8859375 17.09765625 -13.5859375 17.09765625 C-13.5859375 15.44765625 -13.5859375 13.79765625 -13.5859375 12.09765625 C-16.0609375 11.60265625 -16.0609375 11.60265625 -18.5859375 11.09765625 C-18.2559375 9.44765625 -17.9259375 7.79765625 -17.5859375 6.09765625 C-16.2659375 6.09765625 -14.9459375 6.09765625 -13.5859375 6.09765625 C-13.5859375 4.44765625 -13.5859375 2.79765625 -13.5859375 1.09765625 C-9.00036978 0.20101953 -4.6689153 -0.01867566 0 0 Z " fill="#B6372E" transform="translate(61.5859375,36.90234375)"/>
<path d="M0 0 C7.26 0 14.52 0 22 0 C22.33 1.65 22.66 3.3 23 5 C24.32 5.33 25.64 5.66 27 6 C27 9.3 27 12.6 27 16 C25.35 16 23.7 16 22 16 C22 17.98 22 19.96 22 22 C16.39 22 10.78 22 5 22 C5 20.02 5 18.04 5 16 C3.68 16 2.36 16 1 16 C0 11 0 11 0 0 Z " fill="#F9F9F9" transform="translate(5,21)"/>
<path d="M0 0 C3.96 0 7.92 0 12 0 C12 1.32 12 2.64 12 4 C15.63 4 19.26 4 23 4 C23 5.98 23 7.96 23 10 C24.98 10 26.96 10 29 10 C29.02692484 12.29160319 29.04636124 14.58329546 29.0625 16.875 C29.07410156 18.15117187 29.08570312 19.42734375 29.09765625 20.7421875 C29 24 29 24 28 26 C29.98 26 31.96 26 34 26 C34 27.65 34 29.3 34 31 C35.32 31 36.64 31 38 31 C38 33.64 38 36.28 38 39 C26.12 39 14.24 39 2 39 C1.67 39.99 1.34 40.98 1 42 C1 40.68 1 39.36 1 38 C11.56 38 22.12 38 33 38 C33 36.02 33 34.04 33 32 C22.44 32 11.88 32 1 32 C1 30.68 1 29.36 1 28 C7.93 28 14.86 28 22 28 C22 22.39 22 16.78 22 11 C20.35 11 18.7 11 17 11 C17.01160156 11.71027344 17.02320312 12.42054687 17.03515625 13.15234375 C17.04417969 14.07144531 17.05320312 14.99054687 17.0625 15.9375 C17.07410156 16.85402344 17.08570312 17.77054688 17.09765625 18.71484375 C17 21 17 21 16 22 C13.5 22.125 13.5 22.125 11 22 C10 21 10 21 9.8671875 18.75 C9.86976562 17.8425 9.87234375 16.935 9.875 16 C9.87242188 15.0925 9.86984375 14.185 9.8671875 13.25 C10 11 10 11 11 10 C12.66617115 9.95936168 14.33388095 9.957279 16 10 C16 8.68 16 7.36 16 6 C14.35 6 12.7 6 11 6 C11 4.35 11 2.7 11 1 C7.7 1 4.4 1 1 1 C0.67 2.32 0.34 3.64 0 5 C0 3.35 0 1.7 0 0 Z " fill="#4B2738" transform="translate(53,5)"/>
<path d="M0 0 C3.3 0 6.6 0 10 0 C10 1.65 10 3.3 10 5 C11.65 5 13.3 5 15 5 C15 6.32 15 7.64 15 9 C13.35 9.33 11.7 9.66 10 10 C10 13.3 10 16.6 10 20 C11.65 20 13.3 20 15 20 C15.33 16.7 15.66 13.4 16 10 C17.65 10 19.3 10 21 10 C21 15.28 21 20.56 21 26 C17.1946875 26.0309375 17.1946875 26.0309375 13.3125 26.0625 C12.52270752 26.071604 11.73291504 26.08070801 10.91918945 26.09008789 C7.14493307 26.10488141 3.66523943 25.91811717 0 25 C0 23.68 0 22.36 0 21 C-0.804375 21.020625 -1.60875 21.04125 -2.4375 21.0625 C-5 21 -5 21 -6 20 C-6.07313567 17.46950598 -6.09247527 14.96695163 -6.0625 12.4375 C-6.05798828 11.72658203 -6.05347656 11.01566406 -6.04882812 10.28320312 C-6.03700864 8.52209987 -6.01907263 6.76103964 -6 5 C-4.35 4.67 -2.7 4.34 -1 4 C-0.67 2.68 -0.34 1.36 0 0 Z " fill="#F6F6F6" transform="translate(54,6)"/>
<path d="M0 0 C11.55 0 23.1 0 35 0 C34.67 1.32 34.34 2.64 34 4 C35.98 4 37.96 4 40 4 C40 5.65 40 7.3 40 9 C38.02 9 36.04 9 34 9 C34 7.68 34 6.36 34 5 C30.04 5 26.08 5 22 5 C22 6.65 22 8.3 22 10 C20.68 9.67 19.36 9.34 18 9 C18 7.68 18 6.36 18 5 C12.39 5 6.78 5 1 5 C1 6.65 1 8.3 1 10 C-2.63 10 -6.26 10 -10 10 C-10 12.31 -10 14.62 -10 17 C-8.35 17 -6.7 17 -5 17 C-5 17.99 -5 18.98 -5 20 C-12.26 20 -19.52 20 -27 20 C-27 18.35 -27 16.7 -27 15 C-23.37 15 -19.74 15 -16 15 C-16 13.02 -16 11.04 -16 9 C-14.68 9 -13.36 9 -12 9 C-11.67 7.35 -11.34 5.7 -11 4 C-7.37 4 -3.74 4 0 4 C0 2.68 0 1.36 0 0 Z " fill="#4F3243" transform="translate(31,0)"/>
<path d="M0 0 C6.6 0 13.2 0 20 0 C20 5.61 20 11.22 20 17 C21.65 17 23.3 17 25 17 C25.33 18.32 25.66 19.64 26 21 C27.65 21.33 29.3 21.66 31 22 C31 22.99 31 23.98 31 25 C29.35 25.33 27.7 25.66 26 26 C25.67 27.65 25.34 29.3 25 31 C20.38 31 15.76 31 11 31 C11 29.68 11 28.36 11 27 C12.32 26.67 13.64 26.34 15 26 C15.33 22.37 15.66 18.74 16 15 C14.35 15 12.7 15 11 15 C11 13.35 11 11.7 11 10 C9.35 10 7.7 10 6 10 C6 8.68 6 7.36 6 6 C3.03 5.505 3.03 5.505 0 5 C0 3.35 0 1.7 0 0 Z " fill="#F9B832" transform="translate(22,11)"/>
<path d="M0 0 C0.66 0 1.32 0 2 0 C2 1.32 2 2.64 2 4 C3.65 4 5.3 4 7 4 C7 5.65 7 7.3 7 9 C8.65 9 10.3 9 12 9 C12.02687279 10.81242052 12.04633715 12.62495233 12.0625 14.4375 C12.07410156 15.44683594 12.08570313 16.45617187 12.09765625 17.49609375 C12 20 12 20 11 21 C9.33382885 21.04063832 7.66611905 21.042721 6 21 C6 22.98 6 24.96 6 27 C4.35 27 2.7 27 1 27 C1 28.32 1 29.64 1 31 C-2.63 31 -6.26 31 -10 31 C-10 30.67 -10 30.34 -10 30 C-6.7 30 -3.4 30 0 30 C0 29.01 0 28.02 0 27 C-7.26 27 -14.52 27 -22 27 C-22 25.02 -22 23.04 -22 21 C-23.32 21.33 -24.64 21.66 -26 22 C-26 15.73 -26 9.46 -26 3 C-17.42 3 -8.84 3 0 3 C0 2.01 0 1.02 0 0 Z M-21 4 C-21.35954625 14.05210535 -21.35954625 14.05210535 -20 20 C-18.68 20 -17.36 20 -16 20 C-16 21.98 -16 23.96 -16 26 C-10.39 26 -4.78 26 1 26 C1 24.02 1 22.04 1 20 C2.65 20 4.3 20 6 20 C6 16.7 6 13.4 6 10 C4.68 9.67 3.36 9.34 2 9 C1.67 7.35 1.34 5.7 1 4 C-6.26 4 -13.52 4 -21 4 Z " fill="#8C7B73" transform="translate(26,17)"/>
<path d="M0 0 C5.61 0 11.22 0 17 0 C17.33 1.32 17.66 2.64 18 4 C18.99 4.66 19.98 5.32 21 6 C19.35 6 17.7 6 16 6 C16.33 10.95 16.66 15.9 17 21 C18.65 21.33 20.3 21.66 22 22 C22 23.32 22 24.64 22 26 C28.93 26.33 35.86 26.66 43 27 C43 27.33 43 27.66 43 28 C36.07 28 29.14 28 22 28 C22 29.65 22 31.3 22 33 C20.35 33 18.7 33 17 33 C18.98 32.505 18.98 32.505 21 32 C21 30.68 21 29.36 21 28 C19.35 28 17.7 28 16 28 C15.505 25.525 15.505 25.525 15 23 C13.35 23 11.7 23 10 23 C10 17.39 10 11.78 10 6 C3.4 6 -3.2 6 -10 6 C-10 7.65 -10 9.3 -10 11 C-8.02 11.495 -8.02 11.495 -6 12 C-7.65 12 -9.3 12 -11 12 C-11 9.69 -11 7.38 -11 5 C-7.37 5 -3.74 5 0 5 C0 3.35 0 1.7 0 0 Z " fill="#DDBD7F" transform="translate(32,5)"/>
<path d="M0 0 C7.26 0 14.52 0 22 0 C22.33 1.98 22.66 3.96 23 6 C22.34 6 21.68 6 21 6 C21 4.35 21 2.7 21 1 C14.4 1 7.8 1 1 1 C1 3.97 1 6.94 1 10 C2.65 10 4.3 10 6 10 C6.33 11.65 6.66 13.3 7 15 C7.84304687 14.98839844 8.68609375 14.97679687 9.5546875 14.96484375 C10.65039062 14.95582031 11.74609375 14.94679688 12.875 14.9375 C13.96554688 14.92589844 15.05609375 14.91429687 16.1796875 14.90234375 C19 15 19 15 21 16 C21.33 14.35 21.66 12.7 22 11 C23.65 11 25.3 11 27 11 C27 12.65 27 14.3 27 16 C25.35 16 23.7 16 22 16 C22 17.98 22 19.96 22 22 C16.39 22 10.78 22 5 22 C5 20.02 5 18.04 5 16 C3.68 16 2.36 16 1 16 C0 11 0 11 0 0 Z " fill="#DDD7D3" transform="translate(5,21)"/>
<path d="M0 0 C5.28 0 10.56 0 16 0 C16 0.99 16 1.98 16 3 C12.7 3.33 9.4 3.66 6 4 C5.67 5.98 5.34 7.96 5 10 C8.63 10 12.26 10 16 10 C16 11.98 16 13.96 16 16 C12.37 16 8.74 16 5 16 C4.67 14.35 4.34 12.7 4 11 C2.35 10.67 0.7 10.34 -1 10 C-1.125 2.25 -1.125 2.25 0 0 Z " fill="#503746" transform="translate(10,44)"/>
<path d="M0 0 C10.56 0 21.12 0 32 0 C32 3.63 32 7.26 32 11 C29.525 10.505 29.525 10.505 27 10 C27 7.69 27 5.38 27 3 C18.09 3 9.18 3 0 3 C0 2.01 0 1.02 0 0 Z " fill="#403849" transform="translate(55,44)"/>
<path d="M0 0 C0 1.98 0 3.96 0 6 C10.23 6 20.46 6 31 6 C31 4.35 31 2.7 31 1 C31.33 1 31.66 1 32 1 C32 2.98 32 4.96 32 7 C23.09 7 14.18 7 5 7 C5 8.65 5 10.3 5 12 C-4.24 12 -13.48 12 -23 12 C-23 10.35 -23 8.7 -23 7 C-26.63 7 -30.26 7 -34 7 C-34 5.02 -34 3.04 -34 1 C-30.04 1 -26.08 1 -22 1 C-22 1.33 -22 1.66 -22 2 C-25.3 2 -28.6 2 -32 2 C-32 2.99 -32 3.98 -32 5 C-31.28972656 4.98839844 -30.57945313 4.97679687 -29.84765625 4.96484375 C-28.92855469 4.95582031 -28.00945313 4.94679688 -27.0625 4.9375 C-26.14597656 4.92589844 -25.22945312 4.91429687 -24.28515625 4.90234375 C-22 5 -22 5 -21 6 C-21 7.65 -21 9.3 -21 11 C-12.75 11 -4.5 11 4 11 C4 9.68 4 8.36 4 7 C2.35 7 0.7 7 -1 7 C-1 5.35 -1 3.7 -1 2 C-2.32 1.67 -3.64 1.34 -5 1 C-1.125 0 -1.125 0 0 0 Z " fill="#B25438" transform="translate(49,47)"/>
<path d="M0 0 C8.58 0 17.16 0 26 0 C26 1.65 26 3.3 26 5 C17.42 5 8.84 5 0 5 C0 3.35 0 1.7 0 0 Z " fill="#F3380C" transform="translate(54,48)"/>
<path d="M0 0 C10.23 0 20.46 0 31 0 C31 1.32 31 2.64 31 4 C20.77 4 10.54 4 0 4 C0 2.68 0 1.36 0 0 Z " fill="#FB3704" transform="translate(54,38)"/>
<path d="M0 0 C9.57 0 19.14 0 29 0 C29 1.32 29 2.64 29 4 C19.1 4 9.2 4 -1 4 C-0.67 2.68 -0.34 1.36 0 0 Z " fill="#473346" transform="translate(26,60)"/>
<path d="M0 0 C3.96 0 7.92 0 12 0 C12 1.65 12 3.3 12 5 C13.65 5 15.3 5 17 5 C17.02684679 7.64590014 17.04676357 10.29153096 17.0625 12.9375 C17.07087891 13.69224609 17.07925781 14.44699219 17.08789062 15.22460938 C17.09652441 17.14994313 17.05224333 19.07535581 17 21 C16 22 16 22 13.5 22.125 C11 22 11 22 10 21 C9.90176063 19.33570949 9.87026369 17.66718069 9.875 16 C9.87242188 15.0925 9.86984375 14.185 9.8671875 13.25 C10 11 10 11 11 10 C12.66617115 9.95936168 14.33388095 9.957279 16 10 C16 8.68 16 7.36 16 6 C14.35 6 12.7 6 11 6 C11 4.35 11 2.7 11 1 C7.7 1 4.4 1 1 1 C0.67 2.32 0.34 3.64 0 5 C0 3.35 0 1.7 0 0 Z " fill="#B9B4B6" transform="translate(53,5)"/>
<path d="M0 0 C0.33 0.99 0.66 1.98 1 3 C12.88 3 24.76 3 37 3 C37 5.64 37 8.28 37 11 C25.12 11 13.24 11 1 11 C0.67 11.99 0.34 12.98 0 14 C0 12.68 0 11.36 0 10 C10.56 10 21.12 10 32 10 C32 8.02 32 6.04 32 4 C21.44 4 10.88 4 0 4 C0 2.68 0 1.36 0 0 Z " fill="#7E3840" transform="translate(54,33)"/>
<path d="M0 0 C1.65 0 3.3 0 5 0 C5.33 4.95 5.66 9.9 6 15 C7.32 15.33 8.64 15.66 10 16 C10 17.65 10 19.3 10 21 C8.35 20.67 6.7 20.34 5 20 C5 18.68 5 17.36 5 16 C3.35 16 1.7 16 0 16 C0 10.72 0 5.44 0 0 Z " fill="#8E7357" transform="translate(43,11)"/>
<path d="M0 0 C1.98 0 3.96 0 6 0 C6 1.65 6 3.3 6 5 C11.61 5 17.22 5 23 5 C23 3.35 23 1.7 23 0 C24.65 0 26.3 0 28 0 C28 1.98 28 3.96 28 6 C26.35 6 24.7 6 23 6 C23 7.32 23 8.64 23 10 C19.37 10 15.74 10 12 10 C12 9.67 12 9.34 12 9 C15.3 9 18.6 9 22 9 C22 8.01 22 7.02 22 6 C14.74 6 7.48 6 0 6 C0 4.02 0 2.04 0 0 Z " fill="#7C5345" transform="translate(4,38)"/>
<path d="M0 0 C5.61 0.33 11.22 0.66 17 1 C17 2.65 17 4.3 17 6 C11.39 6 5.78 6 0 6 C0 4.02 0 2.04 0 0 Z " fill="#EAC983" transform="translate(10,37)"/>
<path d="M0 0 C0.33 0 0.66 0 1 0 C1 1.65 1 3.3 1 5 C2.65 5 4.3 5 6 5 C6.33 8.3 6.66 11.6 7 15 C7.99 15.33 8.98 15.66 10 16 C10 17.32 10 18.64 10 20 C8.68 20 7.36 20 6 20 C6 18.68 6 17.36 6 16 C5.195625 16.020625 4.39125 16.04125 3.5625 16.0625 C1 16 1 16 0 15 C-0.07313567 12.46950598 -0.09247527 9.96695163 -0.0625 7.4375 C-0.05798828 6.72658203 -0.05347656 6.01566406 -0.04882812 5.28320312 C-0.03700864 3.52209987 -0.01907263 1.76103964 0 0 Z " fill="#DEECD5" transform="translate(48,11)"/>
<path d="M0 0 C3.3 0 6.6 0 10 0 C10.02687279 1.81242052 10.04633715 3.62495233 10.0625 5.4375 C10.07410156 6.44683594 10.08570313 7.45617188 10.09765625 8.49609375 C10 11 10 11 9 12 C7.31391034 12.07205511 5.62499341 12.08386068 3.9375 12.0625 C3.01839844 12.05347656 2.09929688 12.04445313 1.15234375 12.03515625 C0.44207031 12.02355469 -0.26820312 12.01195312 -1 12 C-1 11.67 -1 11.34 -1 11 C0.65 11 2.3 11 4 11 C4 7.7 4 4.4 4 1 C2.68 0.67 1.36 0.34 0 0 Z " fill="#B8955F" transform="translate(28,26)"/>
<path d="M0 0 C1.32 0 2.64 0 4 0 C4 5.94 4 11.88 4 18 C2.68 18.33 1.36 18.66 0 19 C0 12.73 0 6.46 0 0 Z " fill="#421E33" transform="translate(0,20)"/>
<path d="M0 0 C0.33 0 0.66 0 1 0 C1 5.28 1 10.56 1 16 C2.65 16 4.3 16 6 16 C6.33 17.32 6.66 18.64 7 20 C8.32 20.33 9.64 20.66 11 21 C11 19.35 11 17.7 11 16 C11.33 17.32 11.66 18.64 12 20 C18.93 20.33 25.86 20.66 33 21 C33 21.33 33 21.66 33 22 C26.07 22 19.14 22 12 22 C12 23.65 12 25.3 12 27 C10.35 27 8.7 27 7 27 C8.32 26.67 9.64 26.34 11 26 C11 24.68 11 23.36 11 22 C9.35 22 7.7 22 6 22 C5.67 20.35 5.34 18.7 5 17 C3.35 17 1.7 17 0 17 C0 11.39 0 5.78 0 0 Z " fill="#BC9B62" transform="translate(42,11)"/>
<path d="M0 0 C15.84 0.495 15.84 0.495 32 1 C32 1.66 32 2.32 32 3 C21.44 3 10.88 3 0 3 C0 2.01 0 1.02 0 0 Z " fill="#263547" transform="translate(55,33)"/>
<path d="M0 0 C3.63 0 7.26 0 11 0 C11 7.59 11 15.18 11 23 C10.67 23 10.34 23 10 23 C10 17.72 10 12.44 10 7 C8.35 7 6.7 7 5 7 C5 5.02 5 3.04 5 1 C3.35 1 1.7 1 0 1 C0 0.67 0 0.34 0 0 Z " fill="#887C82" transform="translate(65,9)"/>
<path d="M0 0 C10.56 0 21.12 0 32 0 C31.67 0.66 31.34 1.32 31 2 C15.655 2.495 15.655 2.495 0 3 C0 2.01 0 1.02 0 0 Z " fill="#1D3849" transform="translate(55,44)"/>
<path d="M0 0 C3.63 0 7.26 0 11 0 C11 1.65 11 3.3 11 5 C7.37 5 3.74 5 0 5 C0 3.35 0 1.7 0 0 Z " fill="#3F2342" transform="translate(20,4)"/>
<path d="M0 0 C3.3 0 6.6 0 10 0 C10 1.65 10 3.3 10 5 C6.33694766 5.74926071 3.57644848 6.2380014 0 5 C0 3.35 0 1.7 0 0 Z " fill="#F5D287" transform="translate(22,11)"/>
<path d="M0 0 C3.3 0 6.6 0 10 0 C10 1.65 10 3.3 10 5 C6.7 5 3.4 5 0 5 C0 3.35 0 1.7 0 0 Z " fill="#463448" transform="translate(15,55)"/>
<path d="M0 0 C3.96 0 7.92 0 12 0 C12 0.33 12 0.66 12 1 C8.7 1 5.4 1 2 1 C2 1.99 2 2.98 2 4 C2.71027344 3.98839844 3.42054687 3.97679687 4.15234375 3.96484375 C5.07144531 3.95582031 5.99054687 3.94679687 6.9375 3.9375 C7.85402344 3.92589844 8.77054688 3.91429687 9.71484375 3.90234375 C12 4 12 4 13 5 C13.04063832 6.66617115 13.042721 8.33388095 13 10 C12.67 8.68 12.34 7.36 12 6 C8.04 6 4.08 6 0 6 C0 4.02 0 2.04 0 0 Z " fill="#BA6B37" transform="translate(15,48)"/>
<path d="M0 0 C0 0.99 0 1.98 0 3 C-7.26 3 -14.52 3 -22 3 C-22 2.34 -22 1.68 -22 1 C-18.70837401 0.83252349 -15.41669287 0.66615639 -12.125 0.5 C-11.18785156 0.45230469 -10.25070312 0.40460937 -9.28515625 0.35546875 C-8.38925781 0.31035156 -7.49335938 0.26523437 -6.5703125 0.21875 C-5.74289551 0.17685547 -4.91547852 0.13496094 -4.06298828 0.09179688 C-2.70965236 0.03157743 -1.35467505 0 0 0 Z " fill="#290010" transform="translate(26,17)"/>
<path d="M0 0 C1.65 0 3.3 0 5 0 C5 1.65 5 3.3 5 5 C0.71702469 6.05619003 -3.42985646 6.11702092 -7.8125 6.0625 C-8.50537109 6.05798828 -9.19824219 6.05347656 -9.91210938 6.04882812 C-11.60811068 6.03713156 -13.30406703 6.01919924 -15 6 C-15 5.67 -15 5.34 -15 5 C-10.38 5 -5.76 5 -1 5 C-0.67 3.35 -0.34 1.7 0 0 Z " fill="#F9E5C0" transform="translate(27,32)"/>
<path d="M0 0 C0.99 0 1.98 0 3 0 C3 4.62 3 9.24 3 14 C2.01 14 1.02 14 0 14 C0 9.38 0 4.76 0 0 Z " fill="#1E072F" transform="translate(44,12)"/>
<path d="M0 0 C1.32 0 2.64 0 4 0 C4 3.3 4 6.6 4 10 C2.68 10 1.36 10 0 10 C0 6.7 0 3.4 0 0 Z " fill="#3A253A" transform="translate(33,27)"/>
<path d="M0 0 C0.66 0 1.32 0 2 0 C2 1.32 2 2.64 2 4 C3.65 4 5.3 4 7 4 C7 5.65 7 7.3 7 9 C5.02 9 3.04 9 1 9 C0.67 6.03 0.34 3.06 0 0 Z " fill="#845F35" transform="translate(26,17)"/>
<path d="M0 0 C1.98 0 3.96 0 6 0 C6 1.98 6 3.96 6 6 C4.02 6 2.04 6 0 6 C0 4.02 0 2.04 0 0 Z " fill="#422944" transform="translate(4,38)"/>
<path d="M0 0 C1.32 0 2.64 0 4 0 C4 2.97 4 5.94 4 9 C2.68 8.67 1.36 8.34 0 8 C0 5.36 0 2.72 0 0 Z " fill="#2E1E25" transform="translate(65,17)"/>
<path d="M0 0 C5.28 0 10.56 0 16 0 C16 0.99 16 1.98 16 3 C10.72 2.67 5.44 2.34 0 2 C0 1.34 0 0.68 0 0 Z " fill="#1D053F" transform="translate(10,44)"/>
<path d="M0 0 C1.32 0 2.64 0 4 0 C4 2.64 4 5.28 4 8 C2.68 8 1.36 8 0 8 C0 5.36 0 2.72 0 0 Z " fill="#3F3949" transform="translate(87,36)"/>
<path d="M0 0 C0.33 0 0.66 0 1 0 C1.95261487 4.76307437 2.08333357 9.1666528 2 14 C2.99 14 3.98 14 5 14 C5 14.66 5 15.32 5 16 C3.35 15.67 1.7 15.34 0 15 C0 10.05 0 5.1 0 0 Z " fill="#C6CFBC" transform="translate(48,11)"/>
<path d="M0 0 C1.2065625 0.0309375 1.2065625 0.0309375 2.4375 0.0625 C1.1175 0.3925 -0.2025 0.7225 -1.5625 1.0625 C-1.47541331 2.52195288 -1.36723093 3.98015868 -1.25 5.4375 C-1.19199219 6.24960937 -1.13398437 7.06171875 -1.07421875 7.8984375 C-0.73259472 10.44171338 -0.73259472 10.44171338 2.4375 12.0625 C0.77138095 12.105221 -0.89632885 12.10313832 -2.5625 12.0625 C-3.5625 11.0625 -3.5625 11.0625 -3.6953125 8.8125 C-3.69273438 7.905 -3.69015625 6.9975 -3.6875 6.0625 C-3.69007812 5.155 -3.69265625 4.2475 -3.6953125 3.3125 C-3.50465529 0.08254264 -3.25740423 0.07944888 0 0 Z " fill="#C7C3C4" transform="translate(66.5625,14.9375)"/>
<path d="M0 0 C8.25 0.33 16.5 0.66 25 1 C25 1.33 25 1.66 25 2 C12.625 2.495 12.625 2.495 0 3 C0 2.01 0 1.02 0 0 Z " fill="#01384A" transform="translate(55,44)"/>
<path d="M0 0 C1.32 0 2.64 0 4 0 C4 1.98 4 3.96 4 6 C2.35 6 0.7 6 -1 6 C-1.042721 4.33388095 -1.04063832 2.66617115 -1 1 C-0.67 0.67 -0.34 0.34 0 0 Z " fill="#381926" transform="translate(72,9)"/>
<path d="M0 0 C0.99 0 1.98 0 3 0 C3 2.97 3 5.94 3 9 C2.01 8.67 1.02 8.34 0 8 C0 5.36 0 2.72 0 0 Z " fill="#543543" transform="translate(84,46)"/>
<path d="M0 0 C1.65 0 3.3 0 5 0 C5 1.65 5 3.3 5 5 C3.02 5 1.04 5 -1 5 C-0.67 3.35 -0.34 1.7 0 0 Z " fill="#381B26" transform="translate(66,4)"/>
<path d="M0 0 C1.65 0 3.3 0 5 0 C5 1.65 5 3.3 5 5 C3.35 5 1.7 5 0 5 C0 3.35 0 1.7 0 0 Z " fill="#603441" transform="translate(49,48)"/>
<path d="M0 0 C1.32 0 2.64 0 4 0 C4 1.65 4 3.3 4 5 C2.35 5 0.7 5 -1 5 C-0.67 3.35 -0.34 1.7 0 0 Z " fill="#543344" transform="translate(44,43)"/>
<path d="M0 0 C6.6 0.33 13.2 0.66 20 1 C20 1.33 20 1.66 20 2 C13.4 2.33 6.8 2.66 0 3 C0 2.01 0 1.02 0 0 Z " fill="#010113" transform="translate(55,33)"/>
<path d="M0 0 C1.32 0 2.64 0 4 0 C4 1.65 4 3.3 4 5 C2.68 5 1.36 5 0 5 C0 3.35 0 1.7 0 0 Z " fill="#F9D88D" transform="translate(6,32)"/>
<path d="M0 0 C1.32 0 2.64 0 4 0 C4 1.65 4 3.3 4 5 C2.68 5 1.36 5 0 5 C0 3.35 0 1.7 0 0 Z " fill="#46373B" transform="translate(49,27)"/>
<path d="M0 0 C2.475 0.495 2.475 0.495 5 1 C5 2.32 5 3.64 5 5 C3.68 5 2.36 5 1 5 C0.67 3.35 0.34 1.7 0 0 Z " fill="#D8E7CE" transform="translate(53,26)"/>
<path d="M0 0 C0 1.65 0 3.3 0 5 C-1.32 5 -2.64 5 -4 5 C-4 3.68 -4 2.36 -4 1 C-1 0 -1 0 0 0 Z " fill="#F2D081" transform="translate(32,32)"/>
<path d="M0 0 C0.66 0 1.32 0 2 0 C2 0.66 2 1.32 2 2 C1.34 2 0.68 2 0 2 C0 1.34 0 0.68 0 0 Z " fill="#000000" transform="translate(13,60)"/>
<path d="M0 0 C0.66 0 1.32 0 2 0 C2 0.66 2 1.32 2 2 C1.34 2 0.68 2 0 2 C0 1.34 0 0.68 0 0 Z " fill="#000000" transform="translate(2,44)"/>
<path d="M0 0 C0.66 0 1.32 0 2 0 C2 0.66 2 1.32 2 2 C1.34 2 0.68 2 0 2 C0 1.34 0 0.68 0 0 Z " fill="#200000" transform="translate(71,2)"/>
<path d="M0 0 C0.66 0 1.32 0 2 0 C2 0.66 2 1.32 2 2 C1.34 2 0.68 2 0 2 C0 1.34 0 0.68 0 0 Z " fill="#000000" transform="translate(18,2)"/>
<path d="M0 0 C0.99 0.495 0.99 0.495 2 1 C1.01 1.495 1.01 1.495 0 2 C0 1.34 0 0.68 0 0 Z " fill="#2A0000" transform="translate(87,55)"/>
<path d="M0 0 C0.66 0 1.32 0 2 0 C1.67 0.66 1.34 1.32 1 2 C0.67 1.34 0.34 0.68 0 0 Z " fill="#2A002A" transform="translate(7,55)"/>
<path d="M0 0 C0.99 0.495 0.99 0.495 2 1 C1.01 1.495 1.01 1.495 0 2 C0 1.34 0 0.68 0 0 Z " fill="#000000" transform="translate(87,29)"/>
<path d="M0 0 C0.66 0 1.32 0 2 0 C1.67 0.66 1.34 1.32 1 2 C0.67 1.34 0.34 0.68 0 0 Z " fill="#000000" transform="translate(2,13)"/>
<path d="" fill="#400000" transform="translate(0,0)"/>
<path d="" fill="#400000" transform="translate(0,0)"/>
<path d="M0 0 C2 1 2 1 2 1 Z " fill="#000000" transform="translate(76,8)"/>
<path d="M0 0 C2 1 2 1 2 1 Z " fill="#000000" transform="translate(13,8)"/>
</svg>
