<?xml version="1.0" encoding="UTF-8"?>
<svg version="1.1" xmlns="http://www.w3.org/2000/svg" width="1024" height="1024">
<path d="M0 0 C337.92 0 675.84 0 1024 0 C1024 337.92 1024 675.84 1024 1024 C686.08 1024 348.16 1024 0 1024 C0 686.08 0 348.16 0 0 Z " fill="#FEFEFE" transform="translate(0,0)"/>
<path d="M0 0 C3.65599264 1.62683526 7.32774797 3.17951773 11.046875 4.65625 C22.29519417 9.13290564 31.23979197 13.01804647 36.6484375 24.484375 C40.69340879 37.7788473 35.04006555 53.11916734 31.74926758 66.00537109 C24.01590409 93.52830462 24.01590409 93.52830462 30.6484375 120.484375 C31.13183594 121.60585938 31.13183594 121.60585938 31.625 122.75 C32.59787251 124.83214809 32.59787251 124.83214809 35.6484375 125.484375 C37.36456722 127.10006506 39.02355986 128.77694178 40.6484375 130.484375 C41.57927465 131.44372592 42.5111907 132.402031 43.4440918 133.359375 C43.93197678 133.86339844 44.41986176 134.36742187 44.92253113 134.88671875 C47.13368296 137.16567062 49.35898478 139.43060913 51.5847168 141.6953125 C52.74782564 142.88355474 53.90640612 144.0762473 55.06030273 145.2734375 C64.29377858 154.84284377 72.19866782 161.94879455 86.078125 162.66015625 C91.77537992 162.63878669 97.14033263 161.20019617 102.6484375 159.859375 C103.77604492 159.59229736 104.90365234 159.32521973 106.06542969 159.05004883 C115.03159216 156.91343405 123.97701041 154.68779879 132.90625 152.40185547 C143.46619531 149.71250652 157.4400612 146.20726959 167.7109375 151.484375 C176.43960128 157.39787814 180.75272437 165.60270326 184.48828125 175.140625 C186.50671467 180.20877429 188.74025531 185.15629881 191.0234375 190.109375 C194.50293208 197.73283353 197.62236943 205.41303727 200.45703125 213.296875 C201.49626499 216.34654927 201.49626499 216.34654927 202.78125 218.44140625 C205.26458482 224.29178514 204.64752912 233.28192953 202.7734375 239.2890625 C198.43844727 247.53124787 191.37504487 253.05536343 183.4609375 257.609375 C181.86955293 258.55339696 180.27976925 259.50012165 178.69140625 260.44921875 C177.86817871 260.94019043 177.04495117 261.43116211 176.19677734 261.93701172 C169.30311104 266.12287654 162.59557037 270.60985433 155.85888672 275.04199219 C153.90593083 276.31635306 151.94094022 277.56666444 149.96484375 278.8046875 C140.26115024 284.98306914 133.87482886 291.22792088 130.6484375 302.484375 C130.12367443 306.66473545 130.10953232 310.78315788 130.15234375 314.9921875 C130.15088852 316.15765106 130.14943329 317.32311462 130.14793396 318.52389526 C130.14958491 320.97282426 130.16105525 323.4217645 130.18188477 325.87060547 C130.21090812 329.60559354 130.20246126 333.33916559 130.18945312 337.07421875 C130.19568957 339.46354852 130.20407977 341.85287384 130.21484375 344.2421875 C130.21044029 345.90497238 130.21044029 345.90497238 130.20594788 347.60134888 C130.33636299 358.37905307 133.55193323 366.27734907 140.6484375 374.484375 C143.75121143 377.22002682 147.12104268 379.33396067 150.6484375 381.484375 C151.91548435 382.26673315 153.18240204 383.04930051 154.44921875 383.83203125 C157.43690582 385.6685058 160.4314561 387.49329661 163.4296875 389.3125 C169.39043359 392.93251765 175.3398133 396.57005079 181.2734375 400.234375 C182.28035645 400.84796875 183.28727539 401.4615625 184.32470703 402.09375 C202.85579705 413.57554038 202.85579705 413.57554038 205.29296875 423.38671875 C207.2090646 434.69378985 204.14088809 445.24348256 198.78125 455.203125 C197.21958492 458.34799537 195.93915785 461.59685457 194.6484375 464.859375 C194.38675781 465.5201001 194.12507812 466.1808252 193.85546875 466.86157227 C192.78086844 469.58553554 191.71497284 472.31279765 190.65625 475.04296875 C189.68018774 477.53495071 188.66677792 480.0093357 187.6484375 482.484375 C187.37805664 483.16467773 187.10767578 483.84498047 186.82910156 484.54589844 C179.61623486 502.5666162 179.61623486 502.5666162 171.6484375 507.484375 C170.2871875 508.4125 170.2871875 508.4125 168.8984375 509.359375 C159.2664001 514.1753937 147.65220941 511.17073975 137.7734375 508.671875 C135.47802468 508.11652535 133.18245317 507.5618312 130.88671875 507.0078125 C129.80342285 506.74194336 128.72012695 506.47607422 127.60400391 506.20214844 C123.01978309 505.08884849 118.41605612 504.09867738 113.796875 503.140625 C111.50562879 502.66304514 109.21974113 502.15953456 106.9375 501.640625 C95.31375754 499.09424734 85.22120228 497.72072217 74.0859375 502.609375 C70.2295959 503.99370275 67.50275261 503.7691467 63.6484375 502.484375 C61.89453125 500.7421875 61.89453125 500.7421875 60.0859375 498.609375 C59.48652344 497.91070313 58.88710938 497.21203125 58.26953125 496.4921875 C56.6484375 494.484375 56.6484375 494.484375 54.6484375 491.484375 C56.6284375 489.834375 58.6084375 488.184375 60.6484375 486.484375 C58.27414454 486.23367587 58.27414454 486.23367587 55.6484375 486.484375 C53.96044923 487.92187691 53.96044923 487.92187691 52.6484375 489.484375 C51.9884375 489.484375 51.3284375 489.484375 50.6484375 489.484375 C50.6484375 485.524375 50.6484375 481.564375 50.6484375 477.484375 C49.3284375 477.484375 48.0084375 477.484375 46.6484375 477.484375 C46.6484375 480.124375 46.6484375 482.764375 46.6484375 485.484375 C45.47087891 485.43216797 45.47087891 485.43216797 44.26953125 485.37890625 C37.26059823 485.06659651 37.26059823 485.06659651 30.7109375 487.171875 C29.7003125 487.605 28.6896875 488.038125 27.6484375 488.484375 C25.0859375 487.171875 25.0859375 487.171875 22.6484375 485.484375 C18.68509495 484.82381791 17.14737582 485.17651944 13.7109375 487.296875 C10.64627947 492.03316468 11.69679752 496.10431137 12.6484375 501.484375 C10.7890625 502.5390625 10.7890625 502.5390625 8.6484375 503.484375 C6.3984375 502.609375 6.3984375 502.609375 4.6484375 501.484375 C6.2984375 501.484375 7.9484375 501.484375 9.6484375 501.484375 C9.6484375 500.164375 9.6484375 498.844375 9.6484375 497.484375 C7.9984375 497.484375 6.3484375 497.484375 4.6484375 497.484375 C4.6484375 494.514375 4.6484375 491.544375 4.6484375 488.484375 C6.2984375 488.484375 7.9484375 488.484375 9.6484375 488.484375 C9.6484375 487.164375 9.6484375 485.844375 9.6484375 484.484375 C7.9984375 484.484375 6.3484375 484.484375 4.6484375 484.484375 C4.6484375 483.164375 4.6484375 481.844375 4.6484375 480.484375 C2.9984375 480.484375 1.3484375 480.484375 -0.3515625 480.484375 C-0.3515625 481.804375 -0.3515625 483.124375 -0.3515625 484.484375 C-1.6715625 484.484375 -2.9915625 484.484375 -4.3515625 484.484375 C-4.0215625 486.794375 -3.6915625 489.104375 -3.3515625 491.484375 C-6.9815625 489.504375 -10.6115625 487.524375 -14.3515625 485.484375 C-14.0215625 484.164375 -13.6915625 482.844375 -13.3515625 481.484375 C-11.0415625 481.484375 -8.7315625 481.484375 -6.3515625 481.484375 C-6.0215625 480.494375 -5.6915625 479.504375 -5.3515625 478.484375 C-11.23033846 478.31970602 -11.23033846 478.31970602 -17.0390625 479.046875 C-20.002823 479.60758645 -22.4222865 479.09747928 -25.3515625 478.484375 C-25.3515625 480.134375 -25.3515625 481.784375 -25.3515625 483.484375 C-24.3615625 483.814375 -23.3715625 484.144375 -22.3515625 484.484375 C-23.3415625 484.814375 -24.3315625 485.144375 -25.3515625 485.484375 C-25.6815625 490.764375 -26.0115625 496.044375 -26.3515625 501.484375 C-25.0315625 501.484375 -23.7115625 501.484375 -22.3515625 501.484375 C-23.0115625 503.794375 -23.6715625 506.104375 -24.3515625 508.484375 C-23.6915625 508.814375 -23.0315625 509.144375 -22.3515625 509.484375 C-24.0015625 509.814375 -25.6515625 510.144375 -27.3515625 510.484375 C-26.85400158 513.24078916 -26.85400158 513.24078916 -25.3515625 515.484375 C-24.779995 518.05642873 -24.32286448 520.64221413 -23.8515625 523.234375 C-23.57206493 525.44283106 -23.57206493 525.44283106 -22.3515625 526.484375 C-20.02338286 526.85198231 -17.689724 527.18679081 -15.3515625 527.484375 C-15.3515625 528.144375 -15.3515625 528.804375 -15.3515625 529.484375 C-14.0315625 529.814375 -12.7115625 530.144375 -11.3515625 530.484375 C-11.0215625 529.824375 -10.6915625 529.164375 -10.3515625 528.484375 C-10.0215625 529.474375 -9.6915625 530.464375 -9.3515625 531.484375 C-8.0315625 530.824375 -6.7115625 530.164375 -5.3515625 529.484375 C-6.0115625 526.184375 -6.6715625 522.884375 -7.3515625 519.484375 C-6.0315625 519.484375 -4.7115625 519.484375 -3.3515625 519.484375 C-2.8875 520.9384375 -2.8875 520.9384375 -2.4140625 522.421875 C-1.65632908 525.32503292 -1.65632908 525.32503292 -0.3515625 526.484375 C1.94487658 526.51583307 4.22493879 526.4162971 6.51953125 526.32421875 C8.6484375 526.484375 8.6484375 526.484375 10.6484375 528.484375 C11.3084375 528.154375 11.9684375 527.824375 12.6484375 527.484375 C15.02246251 527.41321118 17.39844427 527.40028415 19.7734375 527.421875 C21.05476563 527.43089844 22.33609375 527.43992187 23.65625 527.44921875 C25.13738281 527.46662109 25.13738281 527.46662109 26.6484375 527.484375 C26.6484375 524.514375 26.6484375 521.544375 26.6484375 518.484375 C27.6384375 518.484375 28.6284375 518.484375 29.6484375 518.484375 C29.9784375 521.454375 30.3084375 524.424375 30.6484375 527.484375 C32.6284375 527.484375 34.6084375 527.484375 36.6484375 527.484375 C36.3184375 526.824375 35.9884375 526.164375 35.6484375 525.484375 C34.6584375 525.154375 33.6684375 524.824375 32.6484375 524.484375 C32.6484375 522.504375 32.6484375 520.524375 32.6484375 518.484375 C34.8984375 518.234375 34.8984375 518.234375 37.6484375 518.484375 C39.9609375 520.484375 39.9609375 520.484375 41.6484375 522.484375 C40.6584375 523.144375 39.6684375 523.804375 38.6484375 524.484375 C38.3184375 525.474375 37.9884375 526.464375 37.6484375 527.484375 C39.6284375 527.484375 41.6084375 527.484375 43.6484375 527.484375 C42.72872412 531.67418039 41.34688149 533.99653103 38.2734375 536.859375 C32.75155744 542.04764147 29.9775538 548.18569983 29.40136719 555.71142578 C29.16730416 566.80967955 31.13654658 576.65083935 33.8984375 587.359375 C34.29993861 588.96440413 34.69968322 590.56987369 35.09765625 592.17578125 C35.69110771 594.56810587 36.28499452 596.96029435 36.88293457 599.35150146 C38.28567392 604.97070686 39.64907145 610.59741052 40.9453125 616.2421875 C41.11774475 616.96816132 41.290177 617.69413513 41.46783447 618.44210815 C43.58881447 627.83777835 42.51450705 635.26403403 37.8984375 643.671875 C32.21846124 650.77184533 25.72925672 654.14177484 17.3984375 657.546875 C15.43450638 658.37016533 13.47096339 659.19438217 11.5078125 660.01953125 C10.0535083 660.62510864 10.0535083 660.62510864 8.56982422 661.24291992 C5.65333517 662.48229372 2.77064832 663.77988083 -0.109375 665.1015625 C-4.99154361 667.34038803 -9.91672436 669.36279236 -14.92602539 671.30126953 C-18.34603653 672.63824175 -21.56338053 674.1139295 -24.7890625 675.859375 C-31.56676547 678.92609231 -40.7455304 678.62342467 -47.87890625 676.859375 C-56.84513295 672.88227643 -62.23143782 664.49082151 -67.03125 656.359375 C-70.28996528 650.84596536 -73.84003614 645.51865172 -77.34887695 640.16259766 C-80.06712951 636.00906682 -82.76304705 631.84687528 -85.38671875 627.6328125 C-85.8664917 626.86936523 -86.34626465 626.10591797 -86.84057617 625.31933594 C-87.73154102 623.89868879 -88.61397109 622.47263364 -89.4855957 621.04003906 C-94.8496006 612.54004001 -101.84587147 607.7351719 -111.3515625 604.484375 C-115.53666477 603.83560873 -119.6225233 603.80402425 -123.8515625 603.85546875 C-125.00849609 603.85305679 -126.16542969 603.85064484 -127.35742188 603.84815979 C-129.78779551 603.84913323 -132.21819272 603.86240543 -134.6484375 603.88745117 C-138.34192183 603.92178538 -142.03301174 603.90807284 -145.7265625 603.88867188 C-148.10157256 603.89557108 -150.47657651 603.90524413 -152.8515625 603.91796875 C-153.94146484 603.91300888 -155.03136719 603.90804901 -156.15429688 603.90293884 C-166.83184335 604.06478379 -175.53947537 606.69292288 -183.31005859 614.17333984 C-186.86721645 618.20013442 -189.50838221 622.64413882 -192.1640625 627.296875 C-193.3696884 629.34197497 -194.5767433 631.38623312 -195.78515625 633.4296875 C-196.38054199 634.44579102 -196.97592773 635.46189453 -197.58935547 636.50878906 C-201.58277329 643.25190023 -205.82006476 649.84542673 -210.046875 656.44384766 C-210.88422593 657.753462 -211.71789186 659.065444 -212.546875 660.38037109 C-218.68929625 670.12287403 -223.89852758 676.33309616 -235.3515625 679.484375 C-246.21108087 681.00200955 -255.60065908 676.48402482 -265.32421875 672.21875 C-269.89735046 670.22713217 -274.52893158 668.38844664 -279.1640625 666.546875 C-280.43262085 666.03918579 -280.43262085 666.03918579 -281.72680664 665.52124023 C-285.86358775 663.86613362 -290.00581608 662.22935159 -294.1640625 660.62890625 C-307.96365534 655.24818265 -307.96365534 655.24818265 -313.3515625 649.484375 C-314.0940625 648.700625 -314.8365625 647.916875 -315.6015625 647.109375 C-320.20324795 640.20684683 -321.08404682 633.70309733 -320.3515625 625.484375 C-319.75294508 623.13266369 -319.08231898 620.7984372 -318.3515625 618.484375 C-318.06009315 616.7859647 -317.79227816 615.08343955 -317.5390625 613.37890625 C-316.69634593 608.17113815 -315.61229577 603.06185284 -314.40625 597.9296875 C-314.23046417 597.17423141 -314.05467834 596.41877533 -313.87356567 595.64042664 C-313.14462082 592.51212561 -312.41378475 589.38454928 -311.65966797 586.26220703 C-306.87885332 567.12928513 -306.87885332 567.12928513 -311.3515625 548.484375 C-311.691875 547.82050781 -312.0321875 547.15664063 -312.3828125 546.47265625 C-314.40485885 542.88625648 -316.56169866 540.1420157 -319.74609375 537.53125 C-323.46554004 534.34939152 -326.90427771 530.97141416 -330.3203125 527.47265625 C-330.84929642 526.93333969 -331.37828033 526.39402313 -331.92329407 525.83836365 C-334.12413355 523.59270634 -336.32247134 521.34493476 -338.50634766 519.08276367 C-349.33577741 507.71664922 -349.33577741 507.71664922 -364.05859375 503.31640625 C-378.75829671 503.22395529 -391.80593093 506.01201226 -405.84765625 509.953125 C-438.34387923 519.0518411 -438.34387923 519.0518411 -449.9140625 513.921875 C-451.6953125 512.78125 -451.6953125 512.78125 -453.3515625 511.484375 C-453.939375 511.05640625 -454.5271875 510.6284375 -455.1328125 510.1875 C-461.44868364 504.8134693 -464.16870506 496.9217052 -467.3515625 489.484375 C-468.03724582 487.98354368 -468.72440438 486.48338398 -469.4140625 484.984375 C-471.4153541 480.44298253 -473.23372576 475.82762344 -475.06616211 471.21630859 C-476.67477085 467.16864495 -478.30675298 463.13233147 -479.9765625 459.109375 C-480.37488281 458.13742187 -480.77320313 457.16546875 -481.18359375 456.1640625 C-482.2823857 453.53113119 -482.2823857 453.53113119 -483.55078125 451.3046875 C-487.57256281 443.82558496 -487.98852947 433.93826985 -485.55078125 425.81640625 C-484.5390625 423.734375 -484.5390625 423.734375 -482.3515625 420.484375 C-481.5471875 419.246875 -481.5471875 419.246875 -480.7265625 417.984375 C-480.2728125 417.489375 -479.8190625 416.994375 -479.3515625 416.484375 C-478.6915625 416.484375 -478.0315625 416.484375 -477.3515625 416.484375 C-477.0215625 415.494375 -476.6915625 414.504375 -476.3515625 413.484375 C-474.72851562 412.22924805 -474.72851562 412.22924805 -472.6328125 410.99609375 C-471.86904297 410.53952393 -471.10527344 410.0829541 -470.31835938 409.61254883 C-469.50431641 409.13712646 -468.69027344 408.6617041 -467.8515625 408.171875 C-466.20484594 407.19158632 -464.55900238 406.20982957 -462.9140625 405.2265625 C-462.12386719 404.75573242 -461.33367187 404.28490234 -460.51953125 403.79980469 C-457.2183115 401.7967673 -454.03868178 399.63304037 -450.8828125 397.41015625 C-449.3515625 396.484375 -449.3515625 396.484375 -447.3515625 396.484375 C-447.3515625 395.824375 -447.3515625 395.164375 -447.3515625 394.484375 C-446.58585937 394.0821875 -446.58585937 394.0821875 -445.8046875 393.671875 C-429.96026144 385.42437113 -429.96026144 385.42437113 -418.1640625 372.609375 C-417.67550781 371.78695313 -417.18695313 370.96453125 -416.68359375 370.1171875 C-413.21387257 363.25914622 -413.03095831 357.21369969 -413.015625 349.65625 C-413.0089682 348.51206604 -413.0023114 347.36788208 -412.99545288 346.18902588 C-412.9853452 343.77170413 -412.98063528 341.35435458 -412.98095703 338.93701172 C-412.976594 335.26091859 -412.94028006 331.5860364 -412.90234375 327.91015625 C-412.89647302 325.55469158 -412.89250534 323.19922124 -412.890625 320.84375 C-412.87625397 319.75487488 -412.86188293 318.66599976 -412.84707642 317.54412842 C-412.90482022 307.77531365 -415.58118704 298.76987539 -422.3515625 291.484375 C-427.83656092 286.82672718 -433.97501446 283.17546731 -440.1640625 279.546875 C-441.94724609 278.48934536 -443.72980439 277.43076062 -445.51171875 276.37109375 C-446.35492676 275.87013184 -447.19813477 275.36916992 -448.06689453 274.85302734 C-451.61950614 272.72480115 -455.1084385 270.5063154 -458.578125 268.24609375 C-460.7816571 266.84638533 -462.99789831 265.5093547 -465.25 264.19140625 C-484.836541 252.60615624 -484.836541 252.60615624 -487.9140625 242.609375 C-488.203125 240.66015625 -488.203125 240.66015625 -488.3515625 238.484375 C-488.44179688 237.59105469 -488.53203125 236.69773437 -488.625 235.77734375 C-489.24084375 224.58951567 -484.48562951 215.50735248 -479.46875 205.80078125 C-478.08181696 202.92507743 -477.11515787 200.01508064 -476.1640625 196.97265625 C-473.66708128 189.32565125 -470.59033017 181.84521062 -467.3515625 174.484375 C-466.7328125 172.7828125 -466.7328125 172.7828125 -466.1015625 171.046875 C-462.44391885 163.60095757 -456.84147642 158.0826223 -449.3515625 154.484375 C-445.84191952 153.30447361 -442.4113252 153.28339623 -438.7265625 153.234375 C-437.57929688 153.20859375 -436.43203125 153.1828125 -435.25 153.15625 C-431.20663681 153.49657315 -427.88306345 154.4417021 -424.04248047 155.67333984 C-419.3444654 157.08930846 -414.53620155 157.9705818 -409.7265625 158.921875 C-403.35335395 160.19954135 -397.03488053 161.50711534 -390.77490234 163.26220703 C-377.44023073 166.96910356 -365.848239 167.05109991 -353.3515625 160.484375 C-352.26101563 160.03191406 -352.26101563 160.03191406 -351.1484375 159.5703125 C-348.85843411 158.18635393 -348.51115335 156.87603114 -347.3515625 154.484375 C-345.731486 152.75209726 -344.05942051 151.06767421 -342.3515625 149.421875 C-339.66945962 146.82943545 -337.42367075 144.59253738 -335.3515625 141.484375 C-334.6915625 141.484375 -334.0315625 141.484375 -333.3515625 141.484375 C-333.0215625 140.494375 -332.6915625 139.504375 -332.3515625 138.484375 C-330.75 136.90625 -330.75 136.90625 -328.7265625 135.234375 C-328.00597656 134.61304688 -327.28539062 133.99171875 -326.54296875 133.3515625 C-325.18769769 132.19680391 -323.82233674 131.05363502 -322.44140625 129.9296875 C-315.8994256 124.14973976 -312.81429406 116.50255471 -312.01831055 107.87036133 C-311.94458121 98.53071208 -313.13600889 90.21430535 -315.54321289 81.20187378 C-316.11709846 79.05115165 -316.66590183 76.89526542 -317.20898438 74.73657227 C-318.24019774 70.6481923 -319.29444694 66.56613332 -320.3515625 62.484375 C-327.52055953 34.59334667 -327.52055953 34.59334667 -322.7890625 23.921875 C-321.65234375 22.140625 -321.65234375 22.140625 -320.3515625 20.484375 C-319.91199219 19.8965625 -319.47242188 19.30875 -319.01953125 18.703125 C-312.20575368 10.83709317 -301.43835848 7.27807681 -291.99487305 3.54418945 C-287.51759843 1.74906161 -283.0931935 -0.16796159 -278.6640625 -2.078125 C-277.31731445 -2.65723633 -277.31731445 -2.65723633 -275.94335938 -3.24804688 C-274.20306222 -3.9964384 -272.46305833 -4.74551232 -270.72338867 -5.49536133 C-268.62506393 -6.39797575 -266.5238642 -7.29346762 -264.421875 -8.1875 C-262.2275234 -9.13671062 -260.06025411 -10.14954003 -257.9140625 -11.203125 C-250.95278641 -13.74562232 -241.54823521 -13.92612496 -234.52734375 -11.56640625 C-232.27138085 -10.35224625 -230.35743756 -9.10852578 -228.3515625 -7.515625 C-227.38863281 -6.80277344 -226.42570312 -6.08992187 -225.43359375 -5.35546875 C-221.73139616 -2.2342011 -219.55617017 1.5753138 -217.1640625 5.734375 C-216.20769141 7.34751912 -215.24930469 8.95946969 -214.2890625 10.5703125 C-213.804375 11.38725586 -213.3196875 12.20419922 -212.8203125 13.04589844 C-209.2403769 18.98944844 -205.40621812 24.77561679 -201.60205078 30.57714844 C-200.80164857 31.79791026 -200.00297908 33.01981102 -199.20654297 34.24316406 C-196.96432547 37.6872589 -194.67935781 41.09758268 -192.3515625 44.484375 C-191.79210937 45.31710938 -191.23265625 46.14984375 -190.65625 47.0078125 C-185.8696632 53.70903402 -179.58589638 58.81488235 -171.3515625 60.484375 C-169.59757758 60.58886205 -167.84024646 60.64264342 -166.08325195 60.66137695 C-165.0314827 60.67421219 -163.97971344 60.68704742 -162.89607239 60.70027161 C-161.76376694 60.70765854 -160.63146149 60.71504547 -159.46484375 60.72265625 C-157.70747139 60.73476387 -157.70747139 60.73476387 -155.91459656 60.74711609 C-153.43404617 60.76094465 -150.95347685 60.77167229 -148.47290039 60.77954102 C-144.69575529 60.79673077 -140.91949079 60.84062726 -137.14257812 60.88476562 C-134.72917308 60.89489508 -132.31576062 60.90341039 -129.90234375 60.91015625 C-128.21906731 60.93641838 -128.21906731 60.93641838 -126.50178528 60.96321106 C-119.51239104 60.94405661 -114.46553071 59.86562314 -108.3515625 56.484375 C-107.63000473 56.11694183 -106.90844696 55.74950867 -106.1650238 55.37094116 C-96.64497922 50.40300348 -91.67524706 38.92958529 -86.3515625 30.046875 C-82.28275836 23.28521276 -78.16649293 16.56495553 -73.90966797 9.91967773 C-72.65898534 7.96487371 -71.42415528 6.00218446 -70.19921875 4.03125 C-65.19956412 -3.80190693 -59.77915175 -11.27137066 -50.50390625 -14.06640625 C-33.39635872 -17.63694702 -15.20460437 -6.78291935 0 0 Z " fill="#1D1D1B" transform="translate(653.3515625,179.515625)"/>
<path d="M0 0 C1.0538237 0.00273422 1.0538237 0.00273422 2.12893677 0.00552368 C12.42139334 0.05044335 22.13743367 0.52398037 32.125 3.3125 C32.80481934 3.49474121 33.48463867 3.67698242 34.18505859 3.86474609 C60.02435357 10.82304443 60.02435357 10.82304443 67.125 16.3125 C68.88443143 17.14940381 70.65678496 17.95939208 72.4375 18.75 C80.58628765 22.73961452 87.23969416 28.47301066 94.125 34.3125 C94.91003906 34.96605469 95.69507813 35.61960937 96.50390625 36.29296875 C116.17093423 53.01987537 130.47758399 74.64786097 138.125 99.3125 C138.64349872 100.79248664 139.16416597 102.27171624 139.6875 103.75 C150.66740466 136.74971347 146.56391284 174.24353962 132.6328125 205.6796875 C131.84041855 207.25978668 131.02567181 208.82937811 130.16796875 210.375 C129.05841462 212.32394046 129.05841462 212.32394046 128.296875 214.59375 C126.69188204 218.31733368 124.49367937 221.48885331 122.1875 224.8125 C121.70240967 225.51375 121.21731934 226.215 120.7175293 226.9375 C115.92274774 233.7644403 110.69772698 240.11101094 105.125 246.3125 C104.50753906 247.01375 103.89007812 247.715 103.25390625 248.4375 C92.58833299 259.83944914 79.16365722 268.67751503 65.125 275.3125 C64.50866699 275.61349609 63.89233398 275.91449219 63.25732422 276.22460938 C55.18563978 280.14448512 46.99555387 283.13448086 38.375 285.625 C37.11695557 285.98875732 37.11695557 285.98875732 35.83349609 286.35986328 C24.07617194 289.60223586 12.7472355 290.69387486 0.5625 290.625 C-0.14153961 290.62251251 -0.84557922 290.62002502 -1.57095337 290.61746216 C-41.51253275 290.39968436 -76.70745852 274.81546242 -104.95361328 246.61132812 C-111.30344604 240.05544244 -116.60928281 232.74571882 -121.875 225.3125 C-122.51566406 224.43335938 -123.15632813 223.55421875 -123.81640625 222.6484375 C-126.84733018 218.34893137 -128.98880698 214.07764715 -130.81640625 209.1484375 C-131.59094322 207.07347868 -132.41904898 205.01829992 -133.27734375 202.9765625 C-136.14864369 196.12343439 -138.6164917 189.28187582 -140.625 182.125 C-140.92265259 181.07602539 -140.92265259 181.07602539 -141.22631836 180.00585938 C-144.2485229 168.82228005 -145.22427101 157.87750801 -145.19067383 146.33251953 C-145.18752343 144.07925503 -145.21103168 141.82732133 -145.23632812 139.57421875 C-145.29708747 125.95920125 -143.25793914 113.05758888 -138.875 100.125 C-138.58302734 99.25770264 -138.29105469 98.39040527 -137.99023438 97.49682617 C-133.09819563 83.64393743 -126.02038234 69.84815272 -116.875 58.3125 C-115.90046875 57.03826172 -115.90046875 57.03826172 -114.90625 55.73828125 C-95.21039158 30.72596829 -68.40832055 12.50154903 -37.5625 4.1875 C-36.43199219 3.87554687 -35.30148437 3.56359375 -34.13671875 3.2421875 C-22.85063273 0.59257138 -11.55677487 -0.06258398 0 0 Z " fill="#FEFEFE" transform="translate(511.875,366.6875)"/>
<path d="M0 0 C0.33 0.66 0.66 1.32 1 2 C58.75 2 116.5 2 176 2 C176 27.74 176 53.48 176 80 C64.79 80 -46.42 80 -161 80 C-159.05960843 76.11921686 -157.45109644 74.36186673 -154.33984375 71.5625 C-152.78224828 69.74606213 -152.40722861 68.33276635 -152 66 C-153.65 65.67 -155.3 65.34 -157 65 C-156.625 63.0625 -156.625 63.0625 -156 61 C-155.34 60.67 -154.68 60.34 -154 60 C-154 59.34 -154 58.68 -154 58 C-156.64 57.34 -159.28 56.68 -162 56 C-162 57.98 -162 59.96 -162 62 C-160.68 62.33 -159.36 62.66 -158 63 C-158 63.66 -158 64.32 -158 65 C-159.98 65 -161.96 65 -164 65 C-165.4783226 62.04335481 -165.06032783 59.25770263 -165 56 C-165.99 56 -166.98 56 -168 56 C-168 58.97 -168 61.94 -168 65 C-171.44359798 65.6887196 -174.68622274 66.05177489 -178.1875 66 C-181.9242371 65.79906361 -181.9242371 65.79906361 -185 67 C-185.33 66.01 -185.66 65.02 -186 64 C-186.99 64.495 -186.99 64.495 -188 65 C-194.25748503 65.45508982 -194.25748503 65.45508982 -196.9375 63.8125 C-198.32851983 61.43958382 -198.21917317 59.70313576 -198 57 C-199.32 57 -200.64 57 -202 57 C-201.65555119 59.47266765 -201.65555119 59.47266765 -201 62 C-200.34 62.33 -199.68 62.66 -199 63 C-199.75 67.75 -199.75 67.75 -202 70 C-202.99 69.01 -203.98 68.02 -205 67 C-206.485 67.495 -206.485 67.495 -208 68 C-208.66 67.67 -209.32 67.34 -210 67 C-210 66.34 -210 65.68 -210 65 C-211.093125 65.0825 -212.18625 65.165 -213.3125 65.25 C-217 65 -217 65 -218.875 63.5 C-220.43896323 60.02452615 -220.57874439 56.7913005 -221 53 C-221.66 52.01 -222.32 51.02 -223 50 C-221.66666667 48.66666667 -220.33333333 47.33333333 -219 46 C-218.95936168 44.33382885 -218.957279 42.66611905 -219 41 C-218.34 41 -217.68 41 -217 41 C-217 40.34 -217 39.68 -217 39 C-218.32 39 -219.64 39 -221 39 C-221.02690844 36.37493198 -221.04679404 33.75013827 -221.0625 31.125 C-221.07087891 30.37863281 -221.07925781 29.63226562 -221.08789062 28.86328125 C-221.11328125 23.2265625 -221.11328125 23.2265625 -220 21 C-220.27942455 19.32345271 -220.60828247 17.65391846 -221 16 C-217.2619978 15.03879944 -214.7407025 15.19119946 -211 16 C-210.34 15.67 -209.68 15.34 -209 15 C-207.45386986 15.08651631 -205.91090613 15.24002636 -204.375 15.4375 C-203.55773437 15.53933594 -202.74046875 15.64117188 -201.8984375 15.74609375 C-201.27195312 15.82988281 -200.64546875 15.91367187 -200 16 C-200.33 17.32 -200.66 18.64 -201 20 C-203.31 20 -205.62 20 -208 20 C-208 20.99 -208 21.98 -208 23 C-206.68872739 23.6690776 -205.3759455 24.33519806 -204.0625 25 C-203.33160156 25.37125 -202.60070312 25.7425 -201.84765625 26.125 C-200.19009928 27.07133403 -200.19009928 27.07133403 -199 27 C-199 25.35 -199 23.7 -199 22 C-197.68 22 -196.36 22 -195 22 C-195 20.68 -195 19.36 -195 18 C-193.35 18 -191.7 18 -190 18 C-190 19.32 -190 20.64 -190 22 C-188.35 22 -186.7 22 -185 22 C-185 23.32 -185 24.64 -185 26 C-186.65 26 -188.3 26 -190 26 C-190 28.97 -190 31.94 -190 35 C-188.35 35 -186.7 35 -185 35 C-185.33 36.65 -185.66 38.3 -186 40 C-184.02 39.505 -184.02 39.505 -182 39 C-182.350625 38.154375 -182.70125 37.30875 -183.0625 36.4375 C-184.16058981 32.41117069 -184.11569778 30.01651201 -183 26 C-180.39443424 23.0966553 -178.86345665 22.12592076 -175 21.5625 C-172 22 -172 22 -169.5625 23.6875 C-168.2940625 24.3371875 -168.2940625 24.3371875 -167 25 C-165.34963198 24.30684543 -163.70216783 23.59782655 -162.11328125 22.7734375 C-157.93264622 21.24337144 -153.38877856 21.78571967 -149 22 C-148.67 19.69 -148.34 17.38 -148 15 C-146.68 15 -145.36 15 -144 15 C-144 18.96 -144 22.92 -144 27 C-142.948125 26.01 -142.948125 26.01 -141.875 25 C-138.56539771 22.69766797 -136.93774177 22.63369844 -133 23 C-134.98 25.31 -136.96 27.62 -139 30 C-138.4225 30.55429687 -137.845 31.10859375 -137.25 31.6796875 C-136.5075 32.40414062 -135.765 33.12859375 -135 33.875 C-134.2575 34.59429688 -133.515 35.31359375 -132.75 36.0546875 C-131 38 -131 38 -131 40 C-130.34 40 -129.68 40 -129 40 C-128.505 39.01 -128.505 39.01 -128 38 C-128 38.99 -128 39.98 -128 41 C-127.43152344 40.80664062 -126.86304688 40.61328125 -126.27734375 40.4140625 C-124.66010181 39.86868208 -123.04010316 39.33143297 -121.41796875 38.80078125 C-119.51729334 38.17131686 -117.63059333 37.49963987 -115.75 36.8125 C-103.20063488 34.09347089 -91.71582231 37.38328547 -79.52929688 40.38476562 C-75.22552586 41.43162884 -70.89381134 42.33663185 -66.55859375 43.2421875 C-63.81405037 43.82664569 -61.08145206 44.43896876 -58.34765625 45.0703125 C-41.3727649 49.31569341 -41.3727649 49.31569341 -25 45 C-24.35546875 44.65582031 -23.7109375 44.31164062 -23.046875 43.95703125 C-13.42652383 37.99021039 -9.82895106 25.09450734 -6 15 C-5.29480835 13.22791323 -4.58647756 11.4570724 -3.875 9.6875 C-3.40707031 8.51767578 -3.40707031 8.51767578 -2.9296875 7.32421875 C-1.953125 4.8828125 -0.9765625 2.44140625 0 0 Z " fill="#9EA3A3" transform="translate(848,642)"/>
<path d="M0 0 C77.55 0 155.1 0 235 0 C234.07899586 4.6050207 232.7186969 8.66553912 231 13 C230.65275879 13.88574707 230.30551758 14.77149414 229.94775391 15.68408203 C228.76503666 18.65623185 227.54213117 21.60947879 226.3125 24.5625 C225.91611328 25.56474609 225.51972656 26.56699219 225.11132812 27.59960938 C221.52321694 36.12909433 216.34867242 41.82566379 208 46 C198.49678655 48.93189729 188.46937899 46.55118847 179.125 44.1875 C176.82958718 43.63215035 174.53401567 43.0774562 172.23828125 42.5234375 C171.15498535 42.25756836 170.07168945 41.99169922 168.95556641 41.71777344 C164.37134559 40.60447349 159.76761862 39.61430238 155.1484375 38.65625 C152.85719129 38.17867014 150.57130363 37.67515956 148.2890625 37.15625 C136.66532004 34.60987234 126.57276478 33.23634717 115.4375 38.125 C111.5811584 39.50932775 108.85431511 39.2847717 105 38 C103.24609375 36.2578125 103.24609375 36.2578125 101.4375 34.125 C100.53837891 33.07699219 100.53837891 33.07699219 99.62109375 32.0078125 C98 30 98 30 96 27 C97.98 25.35 99.96 23.7 102 22 C99.62570704 21.74930087 99.62570704 21.74930087 97 22 C95.31201173 23.43750191 95.31201173 23.43750191 94 25 C93.34 25 92.68 25 92 25 C92 21.04 92 17.08 92 13 C90.68 13 89.36 13 88 13 C88 15.64 88 18.28 88 21 C87.21496094 20.96519531 86.42992187 20.93039062 85.62109375 20.89453125 C78.61216073 20.58222151 78.61216073 20.58222151 72.0625 22.6875 C71.051875 23.120625 70.04125 23.55375 69 24 C66.4375 22.6875 66.4375 22.6875 64 21 C60.03665745 20.33944291 58.49893832 20.69214444 55.0625 22.8125 C51.99784197 27.54878968 53.04836002 31.61993637 54 37 C52.140625 38.0546875 52.140625 38.0546875 50 39 C47.75 38.125 47.75 38.125 46 37 C47.65 37 49.3 37 51 37 C51 35.68 51 34.36 51 33 C49.35 33 47.7 33 46 33 C46 30.03 46 27.06 46 24 C47.65 24 49.3 24 51 24 C51 22.68 51 21.36 51 20 C49.35 20 47.7 20 46 20 C46 18.68 46 17.36 46 16 C44.35 16 42.7 16 41 16 C41 17.32 41 18.64 41 20 C39.68 20 38.36 20 37 20 C37.495 23.465 37.495 23.465 38 27 C34.37 25.02 30.74 23.04 27 21 C27.33 19.68 27.66 18.36 28 17 C30.31 17 32.62 17 35 17 C35.495 15.515 35.495 15.515 36 14 C30.12122404 13.83533102 30.12122404 13.83533102 24.3125 14.5625 C21.3487395 15.12321145 18.929276 14.61310428 16 14 C16 15.65 16 17.3 16 19 C16.99 19.33 17.98 19.66 19 20 C18.01 20.33 17.02 20.66 16 21 C15.67 26.28 15.34 31.56 15 37 C16.32 37 17.64 37 19 37 C18.34 39.31 17.68 41.62 17 44 C17.66 44.33 18.32 44.66 19 45 C16.525 45.495 16.525 45.495 14 46 C14.49756092 48.75641416 14.49756092 48.75641416 16 51 C16.5715675 53.57205373 17.02869802 56.15783913 17.5 58.75 C17.77949757 60.95845606 17.77949757 60.95845606 19 62 C21.32817964 62.36760731 23.6618385 62.70241581 26 63 C26 63.66 26 64.32 26 65 C27.32 65.33 28.64 65.66 30 66 C30.33 65.34 30.66 64.68 31 64 C31.33 64.99 31.66 65.98 32 67 C33.98 66.01 33.98 66.01 36 65 C35.01 60.05 35.01 60.05 34 55 C35.32 55 36.64 55 38 55 C38.309375 55.969375 38.61875 56.93875 38.9375 57.9375 C39.69523342 60.84065792 39.69523342 60.84065792 41 62 C43.29643908 62.03145807 45.57650129 61.9319221 47.87109375 61.83984375 C50 62 50 62 52 64 C52.66 63.67 53.32 63.34 54 63 C56.37402501 62.92883618 58.75000677 62.91590915 61.125 62.9375 C62.40632812 62.94652344 63.68765625 62.95554687 65.0078125 62.96484375 C66.48894531 62.98224609 66.48894531 62.98224609 68 63 C68 60.03 68 57.06 68 54 C68.99 54 69.98 54 71 54 C71.495 58.455 71.495 58.455 72 63 C73.98 63 75.96 63 78 63 C77.67 62.34 77.34 61.68 77 61 C75.515 60.505 75.515 60.505 74 60 C74 58.02 74 56.04 74 54 C76.25 53.75 76.25 53.75 79 54 C81.3125 56 81.3125 56 83 58 C82.01 58.66 81.02 59.32 80 60 C79.67 60.99 79.34 61.98 79 63 C80.98 63 82.96 63 85 63 C83.84418553 68.26537702 81.48208682 70.82138821 77.6875 74.38671875 C75.88239612 76.11243149 74.40379905 77.93558964 73 80 C73 79.34 73 78.68 73 78 C48.91 78 24.82 78 0 78 C0 52.26 0 26.52 0 0 Z " fill="#3A3D3C" transform="translate(612,644)"/>
<path d="M0 0 C2.30816714 0.18067845 4.57893166 0.51997751 6.87109375 0.84375 C9.05346605 1.18638525 9.05346605 1.18638525 11 0 C12.54613014 0.08651631 14.08909387 0.24002636 15.625 0.4375 C16.85089844 0.59025391 16.85089844 0.59025391 18.1015625 0.74609375 C19.04128906 0.87177734 19.04128906 0.87177734 20 1 C19.67 2.32 19.34 3.64 19 5 C16.69 5 14.38 5 12 5 C12 5.99 12 6.98 12 8 C13.31127261 8.6690776 14.6240545 9.33519806 15.9375 10 C16.66839844 10.37125 17.39929688 10.7425 18.15234375 11.125 C19.80990072 12.07133403 19.80990072 12.07133403 21 12 C21 10.35 21 8.7 21 7 C22.32 7 23.64 7 25 7 C25 5.68 25 4.36 25 3 C26.65 3 28.3 3 30 3 C30 4.32 30 5.64 30 7 C31.65 7 33.3 7 35 7 C35 8.32 35 9.64 35 11 C33.35 11 31.7 11 30 11 C30 13.97 30 16.94 30 20 C31.65 20 33.3 20 35 20 C34.505 22.475 34.505 22.475 34 25 C35.32 24.67 36.64 24.34 38 24 C37.649375 23.154375 37.29875 22.30875 36.9375 21.4375 C35.83941019 17.41117069 35.88430222 15.01651201 37 11 C39.60556576 8.0966553 41.13654335 7.12592076 45 6.5625 C48 7 48 7 50.4375 8.6875 C51.7059375 9.3371875 51.7059375 9.3371875 53 10 C54.65036802 9.30684543 56.29783217 8.59782655 57.88671875 7.7734375 C62.06735378 6.24337144 66.61122144 6.78571967 71 7 C71.33 4.69 71.66 2.38 72 0 C73.32 0 74.64 0 76 0 C76 3.96 76 7.92 76 12 C77.051875 11.01 77.051875 11.01 78.125 10 C81.43460229 7.69766797 83.06225823 7.63369844 87 8 C85.02 10.31 83.04 12.62 81 15 C81.5775 15.55429687 82.155 16.10859375 82.75 16.6796875 C83.4925 17.40414062 84.235 18.12859375 85 18.875 C85.7425 19.59429688 86.485 20.31359375 87.25 21.0546875 C89 23 89 23 89 25 C89.66 25 90.32 25 91 25 C91.33 24.34 91.66 23.68 92 23 C92 23.99 92 24.98 92 26 C92.99 25.67 93.98 25.34 95 25 C95 25.99 95 26.98 95 28 C93.57477036 29.22636039 92.14082912 30.44498953 90.65234375 31.59375 C88.95409408 33.03906886 87.71810933 34.53842412 86.375 36.3125 C85.59125 37.199375 84.8075 38.08625 84 39 C82.68 39 81.36 39 80 39 C79.67 40.65 79.34 42.3 79 44 C78.67 44 78.34 44 78 44 C78 42.35 78 40.7 78 39 C77.01 39 76.02 39 75 39 C75.08121094 39.58007812 75.16242188 40.16015625 75.24609375 40.7578125 C75.75586076 47.062278 75.75586076 47.062278 73.44140625 49.93359375 C71.68442634 51.40776 69.92181148 52.74984202 68 54 C68 53.01 68 52.02 68 51 C66.35 50.67 64.7 50.34 63 50 C63.375 48.0625 63.375 48.0625 64 46 C64.66 45.67 65.32 45.34 66 45 C66 44.34 66 43.68 66 43 C63.36 42.34 60.72 41.68 58 41 C58 42.98 58 44.96 58 47 C59.32 47.33 60.64 47.66 62 48 C62 48.66 62 49.32 62 50 C60.02 50 58.04 50 56 50 C54.5216774 47.04335481 54.93967217 44.25770263 55 41 C54.01 41 53.02 41 52 41 C52 43.97 52 46.94 52 50 C48.55640202 50.6887196 45.31377726 51.05177489 41.8125 51 C38.0757629 50.79906361 38.0757629 50.79906361 35 52 C34.67 51.01 34.34 50.02 34 49 C33.01 49.495 33.01 49.495 32 50 C25.74251497 50.45508982 25.74251497 50.45508982 23.0625 48.8125 C21.67148017 46.43958382 21.78082683 44.70313576 22 42 C20.68 42 19.36 42 18 42 C18.34444881 44.47266765 18.34444881 44.47266765 19 47 C19.66 47.33 20.32 47.66 21 48 C20.25 52.75 20.25 52.75 18 55 C17.01 54.01 16.02 53.02 15 52 C13.515 52.495 13.515 52.495 12 53 C11.34 52.67 10.68 52.34 10 52 C10 51.34 10 50.68 10 50 C8.906875 50.0825 7.81375 50.165 6.6875 50.25 C3 50 3 50 1.125 48.5 C-0.43896323 45.02452615 -0.57874439 41.7913005 -1 38 C-1.66 37.01 -2.32 36.02 -3 35 C-1.66666667 33.66666667 -0.33333333 32.33333333 1 31 C1.04063832 29.33382885 1.042721 27.66611905 1 26 C1.66 26 2.32 26 3 26 C3 25.34 3 24.68 3 24 C1.68 24 0.36 24 -1 24 C-1.02690844 21.37493198 -1.04679404 18.75013827 -1.0625 16.125 C-1.07506836 15.00544922 -1.07506836 15.00544922 -1.08789062 13.86328125 C-1.11328125 8.2265625 -1.11328125 8.2265625 0 6 C-0.32550502 4.33178677 -0.65846063 2.66500443 -1 1 C-0.67 0.67 -0.34 0.34 0 0 Z " fill="#424544" transform="translate(628,657)"/>
<path d="M0 0 C18.15 0 36.3 0 55 0 C54.07899586 4.6050207 52.7186969 8.66553912 51 13 C50.65275879 13.88574707 50.30551758 14.77149414 49.94775391 15.68408203 C48.76503666 18.65623185 47.54213117 21.60947879 46.3125 24.5625 C45.71791992 26.06586914 45.71791992 26.06586914 45.11132812 27.59960938 C41.52321694 36.12909433 36.34867242 41.82566379 28 46 C18.14962669 49.02760392 7.68596736 46.40716349 -2 44 C-1.01 43.505 -1.01 43.505 0 43 C0 28.81 0 14.62 0 0 Z " fill="#424545" transform="translate(792,644)"/>
<path d="M0 0 C28.38 0 56.76 0 86 0 C86 5.28 86 10.56 86 16 C57.62 16 29.24 16 0 16 C0 10.72 0 5.44 0 0 Z " fill="#B5B7B8" transform="translate(0,995)"/>
<path d="M0 0 C3.49313851 0.84421918 7.00062655 1.58217781 10.51953125 2.31152344 C14.94072913 3.24565408 19.26563249 4.28799525 23.58203125 5.62402344 C23.58203125 8.26402344 23.58203125 10.90402344 23.58203125 13.62402344 C22.59203125 13.62402344 21.60203125 13.62402344 20.58203125 13.62402344 C20.58203125 17.25402344 20.58203125 20.88402344 20.58203125 24.62402344 C19.92203125 24.95402344 19.26203125 25.28402344 18.58203125 25.62402344 C18.58203125 20.34402344 18.58203125 15.06402344 18.58203125 9.62402344 C17.59203125 9.62402344 16.60203125 9.62402344 15.58203125 9.62402344 C15.58203125 11.27402344 15.58203125 12.92402344 15.58203125 14.62402344 C14.63328125 14.60339844 13.68453125 14.58277344 12.70703125 14.56152344 C9.67536842 14.39850518 9.67536842 14.39850518 7.58203125 15.62402344 C6.92203125 15.29402344 6.26203125 14.96402344 5.58203125 14.62402344 C5.25203125 15.28402344 4.92203125 15.94402344 4.58203125 16.62402344 C4.58203125 15.96402344 4.58203125 15.30402344 4.58203125 14.62402344 C-0.77887468 14.0872845 -0.77887468 14.0872845 -5.41796875 16.12402344 C-5.74796875 16.61902344 -6.07796875 17.11402344 -6.41796875 17.62402344 C-6.41796875 16.30402344 -6.41796875 14.98402344 -6.41796875 13.62402344 C-8.72796875 13.62402344 -11.03796875 13.62402344 -13.41796875 13.62402344 C-13.41796875 16.26402344 -13.41796875 18.90402344 -13.41796875 21.62402344 C-14.07796875 21.29402344 -14.73796875 20.96402344 -15.41796875 20.62402344 C-16.04296875 17.56152344 -16.04296875 17.56152344 -16.41796875 14.62402344 C-18.40364583 14.65657552 -20.38932292 14.6891276 -22.375 14.72167969 C-24.41796875 14.62402344 -24.41796875 14.62402344 -27.41796875 13.62402344 C-27.74796875 12.63402344 -28.07796875 11.64402344 -28.41796875 10.62402344 C-30.43305233 9.89078548 -30.43305233 9.89078548 -32.41796875 9.62402344 C-32.41796875 11.27402344 -32.41796875 12.92402344 -32.41796875 14.62402344 C-33.53171875 14.60339844 -34.64546875 14.58277344 -35.79296875 14.56152344 C-39.25012796 14.36021626 -39.25012796 14.36021626 -41.41796875 15.62402344 C-41.41796875 14.96402344 -41.41796875 14.30402344 -41.41796875 13.62402344 C-42.40796875 13.95402344 -43.39796875 14.28402344 -44.41796875 14.62402344 C-46.64615316 14.69339406 -48.87631399 14.70859428 -51.10546875 14.68652344 C-52.87470703 14.67298828 -52.87470703 14.67298828 -54.6796875 14.65917969 C-55.58332031 14.64757812 -56.48695313 14.63597656 -57.41796875 14.62402344 C-42.16319592 -7.62252027 -23.98887898 -5.91239344 0 0 Z " fill="#A6ABAB" transform="translate(768.41796875,682.3759765625)"/>
<path d="M0 0 C1.32 0.66 2.64 1.32 4 2 C3.67 3.65 3.34 5.3 3 7 C3.928125 6.95875 4.85625 6.9175 5.8125 6.875 C9 7 9 7 12 9 C12 8.34 12 7.68 12 7 C13.64574566 6.97311849 15.29161413 6.95365877 16.9375 6.9375 C18.31228516 6.92009766 18.31228516 6.92009766 19.71484375 6.90234375 C22 7 22 7 23 8 C23.07205511 9.68608966 23.08386068 11.37500659 23.0625 13.0625 C23.05347656 13.98160156 23.04445313 14.90070312 23.03515625 15.84765625 C23.02355469 16.55792969 23.01195312 17.26820313 23 18 C22.01 18 21.02 18 20 18 C20 15.36 20 12.72 20 10 C18.68 10.33 17.36 10.66 16 11 C15.67 13.31 15.34 15.62 15 18 C13.02 18 11.04 18 9 18 C9 18.66 9 19.32 9 20 C8.34 20 7.68 20 7 20 C6.505 21.485 6.505 21.485 6 23 C5.34 22.67 4.68 22.34 4 22 C4 21.34 4 20.68 4 20 C1.03 19.67 -1.94 19.34 -5 19 C-5.66 19.99 -6.32 20.98 -7 22 C-7.66 22 -8.32 22 -9 22 C-9.33 20.68 -9.66 19.36 -10 18 C-11.65614657 17.61781233 -13.32457024 17.28604898 -15 17 C-15.33 17.33 -15.66 17.66 -16 18 C-22.2080292 18.45985401 -22.2080292 18.45985401 -24.9375 16.875 C-26.48138276 14.15050101 -26.3267107 12.07108055 -26 9 C-24 7 -24 7 -21.6171875 6.8046875 C-20.71226562 6.82789063 -19.80734375 6.85109375 -18.875 6.875 C-17.50988281 6.90207031 -17.50988281 6.90207031 -16.1171875 6.9296875 C-15.41851563 6.95289063 -14.71984375 6.97609375 -14 7 C-14 6.01 -14 5.02 -14 4 C-13.113125 4.020625 -12.22625 4.04125 -11.3125 4.0625 C-8.37063054 4.00699303 -5.85737265 3.6349717 -3 3 C-2.34 3 -1.68 3 -1 3 C-0.67 2.01 -0.34 1.02 0 0 Z " fill="#B9BBBD" transform="translate(828,689)"/>
<path d="M0 0 C0.9178125 0.02255859 1.835625 0.04511719 2.78125 0.06835938 C5.02259364 0.1267277 7.26038827 0.20851803 9.5 0.3125 C9.83 1.9625 10.16 3.6125 10.5 5.3125 C13.47 4.6525 16.44 3.9925 19.5 3.3125 C18.54367001 4.60565061 17.58486149 5.89696853 16.625 7.1875 C16.09132813 7.90679688 15.55765625 8.62609375 15.0078125 9.3671875 C13.5 11.3125 13.5 11.3125 11.5 13.3125 C10.84 12.6525 10.18 11.9925 9.5 11.3125 C9.83 10.9825 10.16 10.6525 10.5 10.3125 C8.2193293 9.09952351 8.2193293 9.09952351 5.5 8.3125 C3.57080635 9.13582955 3.57080635 9.13582955 1.5 10.3125 C-1.07613721 11.33974474 -3.66516399 12.32775517 -6.2578125 13.3125 C-8.64119346 14.21517844 -8.64119346 14.21517844 -10.5 16.3125 C-10.5 17.6325 -10.5 18.9525 -10.5 20.3125 C-11.16 20.3125 -11.82 20.3125 -12.5 20.3125 C-11.9740625 21.17875 -11.9740625 21.17875 -11.4375 22.0625 C-10.35082593 24.67051776 -10.56934867 25.70667629 -11.5 28.3125 C-9.85 28.3125 -8.2 28.3125 -6.5 28.3125 C-6.685625 29.26125 -6.87125 30.21 -7.0625 31.1875 C-7.78686632 34.21118793 -7.78686632 34.21118793 -6.5 36.3125 C-6.460008 38.31210012 -6.45653201 40.31297242 -6.5 42.3125 C-7.49 42.3125 -8.48 42.3125 -9.5 42.3125 C-9.57347656 41.40757812 -9.57347656 41.40757812 -9.6484375 40.484375 C-9.72320313 39.68515625 -9.79796875 38.8859375 -9.875 38.0625 C-9.94460938 37.27359375 -10.01421875 36.4846875 -10.0859375 35.671875 C-10.51993599 33.19890247 -11.35613985 31.53089545 -12.5 29.3125 C-12.92151885 27.74091122 -13.2968834 26.15620918 -13.625 24.5625 C-13.79257812 23.76328125 -13.96015625 22.9640625 -14.1328125 22.140625 C-14.25398437 21.53734375 -14.37515625 20.9340625 -14.5 20.3125 C-15.49 20.3125 -16.48 20.3125 -17.5 20.3125 C-17.5 19.3225 -17.5 18.3325 -17.5 17.3125 C-18.16 16.9825 -18.82 16.6525 -19.5 16.3125 C-18.51 15.6525 -17.52 14.9925 -16.5 14.3125 C-17.16 11.3425 -17.82 8.3725 -18.5 5.3125 C-12.10907792 0.57157066 -7.86263973 -0.3714183 0 0 Z " fill="#535B5B" transform="translate(946.5,643.6875)"/>
<path d="M0 0 C2.30816714 0.18067845 4.57893166 0.51997751 6.87109375 0.84375 C9.05346605 1.18638525 9.05346605 1.18638525 11 0 C12.54613014 0.08651631 14.08909387 0.24002636 15.625 0.4375 C16.85089844 0.59025391 16.85089844 0.59025391 18.1015625 0.74609375 C19.04128906 0.87177734 19.04128906 0.87177734 20 1 C19.67 2.32 19.34 3.64 19 5 C16.69 5 14.38 5 12 5 C12 5.99 12 6.98 12 8 C12.56589844 8.27714844 13.13179687 8.55429687 13.71484375 8.83984375 C14.44832031 9.20207031 15.18179688 9.56429687 15.9375 9.9375 C16.66839844 10.29714844 17.39929688 10.65679688 18.15234375 11.02734375 C20 12 20 12 21 13 C21.50023685 18.16911416 21.50023685 18.16911416 21 21 C18.35696375 23.48756353 16.57513269 23.92810841 13 24.375 C9.64330814 23.95541352 7.74147169 22.93515649 5 21 C5.66 20.01 6.32 19.02 7 18 C10.3 18.33 13.6 18.66 17 19 C15.53016341 14.93023811 15.53016341 14.93023811 12.90625 14.20703125 C12.1121875 14.07683594 11.318125 13.94664062 10.5 13.8125 C6.09452736 13.04726368 6.09452736 13.04726368 4 12 C4 15.63 4 19.26 4 23 C2.68 23 1.36 23 0 23 C0.01160156 21.83082031 0.02320313 20.66164063 0.03515625 19.45703125 C0.04453913 17.90885577 0.0536388 16.36067855 0.0625 14.8125 C0.07087891 14.04357422 0.07925781 13.27464844 0.08789062 12.48242188 C0.10504106 8.48636958 -0.15463373 4.92219485 -1 1 C-0.67 0.67 -0.34 0.34 0 0 Z " fill="#F0F2F1" transform="translate(628,657)"/>
<path d="M0 0 C0 0.66 0 1.32 0 2 C0.66 2.33 1.32 2.66 2 3 C1.67 3.99 1.34 4.98 1 6 C1.99 6 2.98 6 4 6 C4 6.66 4 7.32 4 8 C3.01 8 2.02 8 1 8 C1 9.98 1 11.96 1 14 C2.32 14.33 3.64 14.66 5 15 C5 15.66 5 16.32 5 17 C3.02 17 1.04 17 -1 17 C-2.4783226 14.04335481 -2.06032783 11.25770263 -2 8 C-2.99 8 -3.98 8 -5 8 C-5 10.97 -5 13.94 -5 17 C-9.97482491 18.14803652 -15.04861455 18.38638793 -20 17 C-22 14 -22 14 -21.6875 10.375 C-21 7 -21 7 -20 6 C-18.00041636 5.95919217 -15.99954746 5.95745644 -14 6 C-14 4.68 -14 3.36 -14 2 C-13.319375 2.226875 -12.63875 2.45375 -11.9375 2.6875 C-7.28425256 3.18252632 -4.42862739 0 0 0 Z " fill="#4F5150" transform="translate(685,690)"/>
<path d="M0 0 C1.32 0 2.64 0 4 0 C3.67 0.99 3.34 1.98 3 3 C2.01 3 1.02 3 0 3 C0.34444881 5.47266765 0.34444881 5.47266765 1 8 C1.66 8.33 2.32 8.66 3 9 C2.25 13.75 2.25 13.75 0 16 C-0.99 15.01 -1.98 14.02 -3 13 C-3.99 13.33 -4.98 13.66 -6 14 C-6.66 13.67 -7.32 13.34 -8 13 C-8 12.34 -8 11.68 -8 11 C-9.093125 11.0825 -10.18625 11.165 -11.3125 11.25 C-15 11 -15 11 -16.9375 9.4375 C-18.39343329 6.09741776 -18.3931463 3.60384106 -18 0 C-17 -1.875 -17 -1.875 -15 -3 C-8.95298828 -4.26792181 -4.63896453 -4.63896453 0 0 Z " fill="#4C4F4E" transform="translate(646,696)"/>
<path d="M0 0 C1.16015625 0.19916016 1.16015625 0.19916016 2.34375 0.40234375 C8.21975787 1.39864707 14.07932027 2.31684465 20 3 C18.32482761 6.53647504 17.50719183 7.7911563 13.8125 9.3125 C12.4203125 9.6528125 12.4203125 9.6528125 11 10 C10.82057837 13.94727588 10.90649311 16.5980513 13 20 C11.68 20.33 10.36 20.66 9 21 C9.33 20.01 9.66 19.02 10 18 C9.34 17.67 8.68 17.34 8 17 C8 17.66 8 18.32 8 19 C6.54257537 19.08096803 5.08387193 19.13917774 3.625 19.1875 C2.81289063 19.22230469 2.00078125 19.25710938 1.1640625 19.29296875 C0.44992187 19.19628906 -0.26421875 19.09960938 -1 19 C-3.67927341 14.98108988 -3.15601248 12.75838077 -3 8 C-2.01 8 -1.02 8 0 8 C0 5.36 0 2.72 0 0 Z " fill="#B4B8B9" transform="translate(792,688)"/>
<path d="M0 0 C2.875 2.0625 2.875 2.0625 5 5 C5.50984938 8.63267682 5.40735398 10.96803659 4.0625 14.375 C0.73881116 16.99366393 -2.84040363 17.30087496 -7 17 C-10.42765278 14.94340833 -10.8865674 13.38992457 -12 9.5625 C-12 6 -12 6 -10.1875 3.125 C-6.81905269 -0.14720596 -4.66713665 -0.5490749 0 0 Z " fill="#EFEFEF" transform="translate(676,664)"/>
<path d="M0 0 C1.32 0 2.64 0 4 0 C4 3.96 4 7.92 4 12 C4.70125 11.34 5.4025 10.68 6.125 10 C9.43460229 7.69766797 11.06225823 7.63369844 15 8 C13.02 10.31 11.04 12.62 9 15 C9.5775 15.56589844 10.155 16.13179687 10.75 16.71484375 C11.4925 17.44832031 12.235 18.18179688 13 18.9375 C13.7425 19.66839844 14.485 20.39929688 15.25 21.15234375 C17 23 17 23 17 24 C14.375 24.375 14.375 24.375 11 24 C8.66246179 22.19946381 6.95931733 20.2392198 5 18 C4.67 19.98 4.34 21.96 4 24 C2.68 24 1.36 24 0 24 C0 16.08 0 8.16 0 0 Z " fill="#F1F3F3" transform="translate(700,657)"/>
<path d="M0 0 C1.39456452 0.00667256 2.78911118 0.01863093 4.18359375 0.03515625 C4.89451172 0.03966797 5.60542969 0.04417969 6.33789062 0.04882812 C8.09899388 0.06064761 9.86005411 0.07858362 11.62109375 0.09765625 C11.62109375 0.75765625 11.62109375 1.41765625 11.62109375 2.09765625 C10.63109375 2.59265625 10.63109375 2.59265625 9.62109375 3.09765625 C10.94109375 3.75765625 12.26109375 4.41765625 13.62109375 5.09765625 C13.43546875 5.88140625 13.24984375 6.66515625 13.05859375 7.47265625 C12.36147109 10.068554 12.36147109 10.068554 13.62109375 12.09765625 C11.64109375 12.09765625 9.66109375 12.09765625 7.62109375 12.09765625 C8.94109375 10.11765625 10.26109375 8.13765625 11.62109375 6.09765625 C10.30109375 6.09765625 8.98109375 6.09765625 7.62109375 6.09765625 C7.95109375 7.08765625 8.28109375 8.07765625 8.62109375 9.09765625 C7.4765625 10.5859375 7.4765625 10.5859375 5.62109375 12.09765625 C2.921875 12.390625 2.921875 12.390625 -0.06640625 12.28515625 C-1.06027344 12.25808594 -2.05414063 12.23101563 -3.078125 12.203125 C-3.83738281 12.16832031 -4.59664062 12.13351562 -5.37890625 12.09765625 C-5.37890625 11.43765625 -5.37890625 10.77765625 -5.37890625 10.09765625 C-4.71890625 9.76765625 -4.05890625 9.43765625 -3.37890625 9.09765625 C-3.04890625 8.10765625 -2.71890625 7.11765625 -2.37890625 6.09765625 C-3.36890625 6.09765625 -4.35890625 6.09765625 -5.37890625 6.09765625 C-5.37890625 5.43765625 -5.37890625 4.77765625 -5.37890625 4.09765625 C-4.38890625 4.09765625 -3.39890625 4.09765625 -2.37890625 4.09765625 C-2.37890625 3.43765625 -2.37890625 2.77765625 -2.37890625 2.09765625 C-3.03890625 1.76765625 -3.69890625 1.43765625 -4.37890625 1.09765625 C-3.37890625 0.09765625 -3.37890625 0.09765625 0 0 Z " fill="#BABBBD" transform="translate(64.37890625,994.90234375)"/>
<path d="M0 0 C0.66 0.33 1.32 0.66 2 1 C2 1.66 2 2.32 2 3 C2.99 2.67 3.98 2.34 5 2 C5.33 2.66 5.66 3.32 6 4 C7.65 4 9.3 4 11 4 C11 5.98 11 7.96 11 10 C9.02 10.99 9.02 10.99 7 12 C7.33 11.34 7.66 10.68 8 10 C7.34 9.67 6.68 9.34 6 9 C5.01 10.485 5.01 10.485 4 12 C1.8359375 12.29296875 1.8359375 12.29296875 -0.625 12.1875 C-1.44226562 12.16042969 -2.25953125 12.13335938 -3.1015625 12.10546875 C-3.72804688 12.07066406 -4.35453125 12.03585937 -5 12 C-5 11.34 -5 10.68 -5 10 C-5.99 10 -6.98 10 -8 10 C-8.33 10.66 -8.66 11.32 -9 12 C-9 11.34 -9 10.68 -9 10 C-10.32 10 -11.64 10 -13 10 C-12.67 8.02 -12.34 6.04 -12 4 C-11.34 4 -10.68 4 -10 4 C-10.33 5.65 -10.66 7.3 -11 9 C-10.34 9 -9.68 9 -9 9 C-9 7.68 -9 6.36 -9 5 C-7.68 4.34 -6.36 3.68 -5 3 C-5 2.34 -5 1.68 -5 1 C-3.35 1.33 -1.7 1.66 0 2 C0 1.34 0 0.68 0 0 Z " fill="#BBBCBE" transform="translate(33,995)"/>
<path d="M0 0 C1.65 0 3.3 0 5 0 C5 1.32 5 2.64 5 4 C6.65 4 8.3 4 10 4 C10 5.32 10 6.64 10 8 C8.35 8 6.7 8 5 8 C5 10.97 5 13.94 5 17 C6.65 17 8.3 17 10 17 C10 18.32 10 19.64 10 21 C6.58243849 21.31068741 4.59893023 21.3625104 1.625 19.5625 C-0.76173366 15.79880462 -0.33387931 12.34043107 0 8 C-1.32 8 -2.64 8 -4 8 C-4 6.68 -4 5.36 -4 4 C-2.68 4 -1.36 4 0 4 C0 2.68 0 1.36 0 0 Z " fill="#E0E2E1" transform="translate(653,660)"/>
<path d="M0 0 C0.33 1.32 0.66 2.64 1 4 C-2.31410403 5.10470134 -3.67949308 4.69905409 -7 4 C-8.29633621 5.06645115 -8.29633621 5.06645115 -8.0625 7.5625 C-8.041875 8.366875 -8.02125 9.17125 -8 10 C-4.846632 10.70074844 -2.27275026 11 1 11 C1 11.99 1 12.98 1 14 C-2.54129184 16.36086122 -3.82750218 16.57269578 -8 16 C-11.4375 14 -11.4375 14 -14 11 C-14.49009096 8.05361983 -14.08416078 5.76807008 -13 3 C-9.01625937 -1.94949594 -5.71814829 -1.16301321 0 0 Z " fill="#EAEBEA" transform="translate(696,665)"/>
<path d="M0 0 C0.99 0 1.98 0 3 0 C3.33 2.97 3.66 5.94 4 9 C5.98 9 7.96 9 10 9 C9.67 8.34 9.34 7.68 9 7 C8.01 6.67 7.02 6.34 6 6 C6 4.02 6 2.04 6 0 C8.25 -0.25 8.25 -0.25 11 0 C13.3125 2 13.3125 2 15 4 C14.01 4.66 13.02 5.32 12 6 C11.67 6.99 11.34 7.98 11 9 C12.98 9 14.96 9 17 9 C16.34 10.32 15.68 11.64 15 13 C14.67 12.01 14.34 11.02 14 10 C13.01 10 12.02 10 11 10 C10.67 10.99 10.34 11.98 10 13 C5.65609517 14.08597621 2.99390508 13.99695254 -1 12 C-3.09821215 12.39938767 -3.09821215 12.39938767 -5 13 C-4.67 12.01 -4.34 11.02 -4 10 C-2.68 9.67 -1.36 9.34 0 9 C0 6.03 0 3.06 0 0 Z " fill="#373A39" transform="translate(680,698)"/>
<path d="M0 0 C0.66 2.64 1.32 5.28 2 8 C-1.3 9.32 -4.6 10.64 -8 12 C-8.33 11.34 -8.66 10.68 -9 10 C-9.66 10 -10.32 10 -11 10 C-10.67 10.99 -10.34 11.98 -10 13 C-10.99 13.33 -11.98 13.66 -13 14 C-13.66 14.66 -14.32 15.32 -15 16 C-15.8125 13.375 -15.8125 13.375 -16 10 C-12.26633653 4.34293414 -7.27785535 -0.85621828 0 0 Z " fill="#8A9292" transform="translate(929,651)"/>
<path d="M0 0 C0.99 0 1.98 0 3 0 C3 4.95 3 9.9 3 15 C1.39125 15.061875 -0.2175 15.12375 -1.875 15.1875 C-3.23238281 15.23970703 -3.23238281 15.23970703 -4.6171875 15.29296875 C-5.79667969 15.14794922 -5.79667969 15.14794922 -7 15 C-9 12 -9 12 -8.6875 8.375 C-8 5 -8 5 -7 4 C-5.00041636 3.95919217 -2.99954746 3.95745644 -1 4 C-0.67 2.68 -0.34 1.36 0 0 Z " fill="#EEF0F1" transform="translate(736,692)"/>
<path d="M0 0 C1.423125 -0.061875 2.84625 -0.12375 4.3125 -0.1875 C5.51326172 -0.23970703 5.51326172 -0.23970703 6.73828125 -0.29296875 C9 0 9 0 10.8125 1.28125 C12 3 12 3 11.6875 6.6875 C11.460625 7.780625 11.23375 8.87375 11 10 C8.69 10.33 6.38 10.66 4 11 C3.67 12.32 3.34 13.64 3 15 C2.01 15 1.02 15 0 15 C0 10.05 0 5.1 0 0 Z " fill="#EEF0F1" transform="translate(741,696)"/>
<path d="M0 0 C5.5952381 0.5952381 5.5952381 0.5952381 8 3 C7.79375 3.94875 7.5875 4.8975 7.375 5.875 C7.25125 6.90625 7.1275 7.9375 7 9 C8.81287195 11.39795381 8.81287195 11.39795381 11 13 C10.01 13.495 10.01 13.495 9 14 C6.525 13.01 6.525 13.01 4 12 C4 15.63 4 19.26 4 23 C2.68 23 1.36 23 0 23 C0.01160156 21.83082031 0.02320313 20.66164063 0.03515625 19.45703125 C0.04453913 17.90885577 0.0536388 16.36067855 0.0625 14.8125 C0.07087891 14.04357422 0.07925781 13.27464844 0.08789062 12.48242188 C0.10504106 8.48636958 -0.15463373 4.92219485 -1 1 C-0.67 0.67 -0.34 0.34 0 0 Z " fill="#515352" transform="translate(628,657)"/>
<path d="M0 0 C0.99 0 1.98 0 3 0 C3 4.95 3 9.9 3 15 C1.576875 15.061875 0.15375 15.12375 -1.3125 15.1875 C-2.51326172 15.23970703 -2.51326172 15.23970703 -3.73828125 15.29296875 C-6 15 -6 15 -7.8046875 13.6796875 C-9 12 -9 12 -8.8125 8.9375 C-8 6 -8 6 -6 4 C-3.375 3.875 -3.375 3.875 -1 4 C-0.67 2.68 -0.34 1.36 0 0 Z " fill="#EBEFEF" transform="translate(784,692)"/>
<path d="M0 0 C0.99 0 1.98 0 3 0 C3 4.95 3 9.9 3 15 C-3.8359375 15.29296875 -3.8359375 15.29296875 -6 15 C-8 12 -8 12 -7.6875 8.375 C-7 5 -7 5 -6 4 C-4.00041636 3.95919217 -1.99954746 3.95745644 0 4 C0 2.68 0 1.36 0 0 Z " fill="#D2D4D3" transform="translate(671,692)"/>
<path d="M0 0 C2.64590014 -0.02684679 5.29153096 -0.04676357 7.9375 -0.0625 C8.69224609 -0.07087891 9.44699219 -0.07925781 10.22460938 -0.08789062 C12.14994313 -0.09652441 14.07535581 -0.05224333 16 0 C17 1 17 1 17.09765625 3.28515625 C17.08605469 4.20167969 17.07445312 5.11820313 17.0625 6.0625 C17.05347656 6.98160156 17.04445313 7.90070312 17.03515625 8.84765625 C17.02355469 9.55792969 17.01195312 10.26820313 17 11 C16.01 11 15.02 11 14 11 C14 8.36 14 5.72 14 3 C12.68 3 11.36 3 10 3 C10 5.64 10 8.28 10 11 C9.01 11 8.02 11 7 11 C7 8.36 7 5.72 7 3 C5.68 3 4.36 3 3 3 C3 5.64 3 8.28 3 11 C2.01 11 1.02 11 0 11 C0 7.37 0 3.74 0 0 Z " fill="#F2F4F4" transform="translate(708,696)"/>
<path d="M0 0 C1.670625 0.061875 1.670625 0.061875 3.375 0.125 C4.92636786 2.58893719 5.40539129 3.80589146 5.125 6.75 C4.375 9.125 4.375 9.125 2.375 11.125 C-0.7554173 11.45802312 -2.80398298 11.60171956 -5.5625 10 C-6.625 8.125 -6.625 8.125 -6.4375 5.0625 C-5.23450399 0.71320672 -4.56342629 0.15735953 0 0 Z " fill="#EFF2F3" transform="translate(833.625,695.875)"/>
<path d="M0 0 C3.0625 0.3125 3.0625 0.3125 4.9375 1.5 C6.46909584 3.96757108 6.49072025 5.45769831 6.0625 8.3125 C4.9375 10.125 4.9375 10.125 3.0625 11.3125 C0 11.6875 0 11.6875 -2.9375 11.3125 C-5.23913882 7.86004176 -5.28240322 6.36511287 -4.9375 2.3125 C-2.9375 0.3125 -2.9375 0.3125 0 0 Z " fill="#F4F8F8" transform="translate(767.9375,695.6875)"/>
<path d="M0 0 C-1.33333333 3.33333333 -2.66666667 6.66666667 -4 10 C-4.7425 9.814375 -5.485 9.62875 -6.25 9.4375 C-9.02319878 8.99630929 -10.35307668 9.31692301 -13 10 C-15.25 9.5625 -15.25 9.5625 -17 9 C-17 9.99 -17 10.98 -17 12 C-18.32 12.33 -19.64 12.66 -21 13 C-21.66 11.68 -22.32 10.36 -23 9 C-21.824375 8.566875 -20.64875 8.13375 -19.4375 7.6875 C-12.13209085 4.95007731 -12.13209085 4.95007731 -5.25 1.3125 C-3 0 -3 0 0 0 Z " fill="#B3B7B8" transform="translate(831,684)"/>
<path d="M0 0 C3.0625 0.3125 3.0625 0.3125 4.9375 1.625 C6.0625 3.3125 6.0625 3.3125 6.0625 6.3125 C3.4225 6.3125 0.7825 6.3125 -1.9375 6.3125 C-1.9375 6.9725 -1.9375 7.6325 -1.9375 8.3125 C0.3725 8.3125 2.6825 8.3125 5.0625 8.3125 C4.7325 9.3025 4.4025 10.2925 4.0625 11.3125 C0.6875 11.4375 0.6875 11.4375 -2.9375 11.3125 C-4.9375 9.3125 -4.9375 9.3125 -5.1875 5.8125 C-4.87458101 1.43163414 -4.40975115 0.46912246 0 0 Z " fill="#F1F3F2" transform="translate(655.9375,695.6875)"/>
<path d="M0 0 C0.66 0.33 1.32 0.66 2 1 C2 1.99 2 2.98 2 4 C-0.64 4 -3.28 4 -6 4 C-6 5.98 -6 7.96 -6 10 C-3.36 10 -0.72 10 2 10 C2 10.99 2 11.98 2 13 C-1.0832635 14.54163175 -3.60878099 14.29747535 -7 14 C-8.9375 12.4375 -8.9375 12.4375 -10 10 C-10.61818182 4.12727273 -10.61818182 4.12727273 -8.9375 1.0625 C-5.95126663 -0.57511185 -3.33436766 -0.24249947 0 0 Z " fill="#E7EAE9" transform="translate(638,693)"/>
<path d="M0 0 C1.9375 0.375 1.9375 0.375 4 1 C5.52846661 4.05693322 5.23242445 6.62984547 5 10 C4.0625 12.375 4.0625 12.375 2 14 C-0.99237022 14.62606327 -3.94885634 14.87206945 -7 15 C-7.33 13.68 -7.66 12.36 -8 11 C-5.36 10.67 -2.72 10.34 0 10 C0 9.0925 0 8.185 0 7.25 C0 4.83333333 0 2.41666667 0 0 Z " fill="#F1F2F2" transform="translate(676,666)"/>
<path d="M0 0 C0.99 0 1.98 0 3 0 C3 2.64 3 5.28 3 8 C4.32 7.67 5.64 7.34 7 7 C7.33 4.69 7.66 2.38 8 0 C8.99 0 9.98 0 11 0 C11 3.63 11 7.26 11 11 C4.1640625 11.29296875 4.1640625 11.29296875 2 11 C-0.67927341 6.98108988 -0.15601248 4.75838077 0 0 Z " fill="#F1F3F4" transform="translate(789,696)"/>
<path d="M0 0 C1.65 0.33 3.3 0.66 5 1 C5 3.64 5 6.28 5 9 C4.01 9 3.02 9 2 9 C2 12.63 2 16.26 2 20 C1.34 20.33 0.68 20.66 0 21 C0 15.72 0 10.44 0 5 C-0.66 5 -1.32 5 -2 5 C-1.34 3.35 -0.68 1.7 0 0 Z " fill="#9CA0A1" transform="translate(787,687)"/>
<path d="M0 0 C6.93359375 -0.09765625 6.93359375 -0.09765625 9 0 C10 1 10 1 10.09765625 3.28515625 C10.08605469 4.20167969 10.07445312 5.11820313 10.0625 6.0625 C10.05347656 6.98160156 10.04445313 7.90070312 10.03515625 8.84765625 C10.02355469 9.55792969 10.01195312 10.26820313 10 11 C9.01 11 8.02 11 7 11 C7 8.36 7 5.72 7 3 C5.68 3.33 4.36 3.66 3 4 C2.67 6.31 2.34 8.62 2 11 C1.34 11 0.68 11 0 11 C0 7.37 0 3.74 0 0 Z " fill="#EEF2F2" transform="translate(841,696)"/>
<path d="M0 0 C3.26946116 0.29722374 5.07008236 1.41234219 7.75 3.25 C6.75 6.25 6.75 6.25 5 7.4375 C2.4262614 8.3669056 0.46726449 8.47031874 -2.25 8.25 C-3.25 7.25 -3.25 7.25 -3.375 4.25 C-3.2127907 0.35697674 -3.2127907 0.35697674 0 0 Z " fill="#424443" transform="translate(634.25,695.75)"/>
<path d="M0 0 C0.99 0 1.98 0 3 0 C3 2.97 3 5.94 3 9 C4.65 9 6.3 9 8 9 C8 10.32 8 11.64 8 13 C2.50448693 13.36636754 2.50448693 13.36636754 0.31640625 11.77734375 C-1.37042732 9.49986816 -1.34138037 8.1803774 -1.25 5.375 C-1.23453125 4.57835937 -1.2190625 3.78171875 -1.203125 2.9609375 C-1 1 -1 1 0 0 Z " fill="#F0F1F1" transform="translate(655,668)"/>
<path d="M0 0 C0.66 0 1.32 0 2 0 C2 0.66 2 1.32 2 2 C4.31 2 6.62 2 9 2 C8.690625 2.763125 8.38125 3.52625 8.0625 4.3125 C7.32106407 6.18789677 6.63771783 8.08684652 6 10 C5.34 10 4.68 10 4 10 C3.67 8.68 3.34 7.36 3 6 C3 6.99 3 7.98 3 9 C1.02 9.33 -0.96 9.66 -3 10 C-3.33 9.34 -3.66 8.68 -4 8 C-2.68 7.67 -1.36 7.34 0 7 C-0.66 6.34 -1.32 5.68 -2 5 C-1.34 5 -0.68 5 0 5 C0 4.34 0 3.68 0 3 C-0.66 2.67 -1.32 2.34 -2 2 C-1.34 2 -0.68 2 0 2 C0 1.34 0 0.68 0 0 Z " fill="#D8D9DA" transform="translate(49,997)"/>
<path d="M0 0 C0.99 0 1.98 0 3 0 C3 4.95 3 9.9 3 15 C0.36 15 -2.28 15 -5 15 C-4 13 -4 13 -1 12 C-1 10.35 -1 8.7 -1 7 C-2.32 6.34 -3.64 5.68 -5 5 C-3.68 4.67 -2.36 4.34 -1 4 C-0.67 2.68 -0.34 1.36 0 0 Z " fill="#F4F7F8" transform="translate(784,692)"/>
<path d="M0 0 C0.99 0 1.98 0 3 0 C3 0.99 3 1.98 3 3 C3.99 3 4.98 3 6 3 C6 3.66 6 4.32 6 5 C5.01 5 4.02 5 3 5 C3 6.98 3 8.96 3 11 C4.32 11.33 5.64 11.66 7 12 C7 12.66 7 13.32 7 14 C5.02 14 3.04 14 1 14 C-0.4783226 11.04335481 -0.06032783 8.25770263 0 5 C-0.66 5 -1.32 5 -2 5 C-2 4.34 -2 3.68 -2 3 C-1.34 3 -0.68 3 0 3 C0 2.01 0 1.02 0 0 Z " fill="#E2E4E3" transform="translate(683,693)"/>
<path d="M0 0 C0.99 0 1.98 0 3 0 C3 4.95 3 9.9 3 15 C0.03 15 -2.94 15 -6 15 C-6 14.34 -6 13.68 -6 13 C-4.35 12.34 -2.7 11.68 -1 11 C-0.67 7.37 -0.34 3.74 0 0 Z " fill="#F3F6F7" transform="translate(736,692)"/>
<path d="M0 0 C1.1446875 0.3403125 1.1446875 0.3403125 2.3125 0.6875 C3 3 3 3 3.3125 5.6875 C2.1875 7.5625 2.1875 7.5625 0.3125 8.6875 C-2.375 8.375 -2.375 8.375 -4.6875 7.6875 C-5.375 5.375 -5.375 5.375 -5.6875 2.6875 C-4.0011022 -0.12316299 -3.27764429 -0.38112143 0 0 Z " fill="#515151" transform="translate(673.6875,668.3125)"/>
<path d="M0 0 C5.94 0 11.88 0 18 0 C17.67 0.99 17.34 1.98 17 3 C16.43152344 3.06058594 15.86304688 3.12117187 15.27734375 3.18359375 C10.50218963 3.70176573 5.7507695 4.29243859 1 5 C0.67 3.35 0.34 1.7 0 0 Z " fill="#808785" transform="translate(956,644)"/>
<path d="M0 0 C1.65 0 3.3 0 5 0 C5.22184509 3.88228914 4.53447513 6.45152626 3 10 C3 10.66 3 11.32 3 12 C0.03 11.505 0.03 11.505 -3 11 C-2.67 10.01 -2.34 9.02 -2 8 C-3.65 7.67 -5.3 7.34 -7 7 C-7 6.67 -7 6.34 -7 6 C-5.02 5.67 -3.04 5.34 -1 5 C-0.67 3.35 -0.34 1.7 0 0 Z " fill="#434746" transform="translate(716,658)"/>
<path d="M0 0 C1.32 0 2.64 0 4 0 C4 4.95 4 9.9 4 15 C2.68 15 1.36 15 0 15 C0 10.05 0 5.1 0 0 Z " fill="#FDFEFE" transform="translate(628,665)"/>
<path d="M0 0 C2.475 0.495 2.475 0.495 5 1 C4.79375 1.928125 4.5875 2.85625 4.375 3.8125 C3.63307034 7.15173402 3.63307034 7.15173402 6 10 C5.01 10 4.02 10 3 10 C3 11.65 3 13.3 3 15 C2.01 15 1.02 15 0 15 C0 10.05 0 5.1 0 0 Z " fill="#F3F6F7" transform="translate(741,696)"/>
<path d="M0 0 C0.928125 0.474375 1.85625 0.94875 2.8125 1.4375 C5.91196237 3.04488875 5.91196237 3.04488875 9 4 C9 5.32 9 6.64 9 8 C8.34 8 7.68 8 7 8 C6.67 9.65 6.34 11.3 6 13 C5.67 13 5.34 13 5 13 C5 11.35 5 9.7 5 8 C4.01 8 3.02 8 2 8 C0.25 6.25 0.25 6.25 -1 4 C-0.6875 1.75 -0.6875 1.75 0 0 Z " fill="#434544" transform="translate(701,688)"/>
<path d="M0 0 C2.19398174 2.19398174 2.6546935 2.97856817 3 6 C2.19454834 9.07536089 1.64407933 10.55719546 -1 12.375 C-3 13 -3 13 -5 12 C-4.52389341 7.00088076 -2.96837781 4.02167317 0 0 Z " fill="#2D2D2B" transform="translate(581,187)"/>
<path d="M0 0 C0.66 0 1.32 0 2 0 C1.67 1.65 1.34 3.3 1 5 C1.66 5 2.32 5 3 5 C3 3.68 3 2.36 3 1 C4.98 0.67 6.96 0.34 9 0 C9 2.64 9 5.28 9 8 C8.34 8 7.68 8 7 8 C7 7.34 7 6.68 7 6 C6.01 6 5.02 6 4 6 C3.67 6.66 3.34 7.32 3 8 C3 7.34 3 6.68 3 6 C1.68 6 0.36 6 -1 6 C-0.67 4.02 -0.34 2.04 0 0 Z " fill="#D8D9DB" transform="translate(21,999)"/>
<path d="M0 0 C0.94875 0.04125 1.8975 0.0825 2.875 0.125 C3.205 1.115 3.535 2.105 3.875 3.125 C2.225 3.125 0.575 3.125 -1.125 3.125 C-1.125 4.775 -1.125 6.425 -1.125 8.125 C0.855 8.125 2.835 8.125 4.875 8.125 C3.885 9.61 3.885 9.61 2.875 11.125 C0.04318902 11.56066323 -1.48563578 11.52184676 -3.9375 10 C-5.65349028 7.29054166 -5.458728 5.26204316 -5.125 2.125 C-3.125 0.125 -3.125 0.125 0 0 Z " fill="#F7FAFB" transform="translate(807.125,695.875)"/>
<path d="M0 0 C0.99 0 1.98 0 3 0 C3 0.99 3 1.98 3 3 C4.32 3 5.64 3 7 3 C7 3.66 7 4.32 7 5 C5.68 5 4.36 5 3 5 C3.33 6.98 3.66 8.96 4 11 C4.99 11.33 5.98 11.66 7 12 C7 12.66 7 13.32 7 14 C5.33388095 14.042721 3.66617115 14.04063832 2 14 C1 13 1 13 0.90234375 11.15234375 C0.93489583 9.1015625 0.96744792 7.05078125 1 5 C0.34 5 -0.32 5 -1 5 C-0.67 3.35 -0.34 1.7 0 0 Z " fill="#F5F8F8" transform="translate(814,693)"/>
<path d="M0 0 C2.31 0 4.62 0 7 0 C7 0.99 7 1.98 7 3 C5.68 3 4.36 3 3 3 C3 5.64 3 8.28 3 11 C2.01 11 1.02 11 0 11 C0 7.37 0 3.74 0 0 Z " fill="#EFF3F3" transform="translate(755,696)"/>
<path d="M0 0 C-1.33333333 3.33333333 -2.66666667 6.66666667 -4 10 C-4.66 9.67 -5.32 9.34 -6 9 C-6 8.34 -6 7.68 -6 7 C-7.32 6.67 -8.64 6.34 -10 6 C-10 5.34 -10 4.68 -10 4 C-3.375 0 -3.375 0 0 0 Z " fill="#ACB0B0" transform="translate(831,684)"/>
<path d="M0 0 C0.66 0 1.32 0 2 0 C2 4.95 2 9.9 2 15 C-0.64 14.67 -3.28 14.34 -6 14 C-5.36578125 13.79632812 -4.7315625 13.59265625 -4.078125 13.3828125 C-1.70935435 12.12778129 -1.70935435 12.12778129 -1.171875 9.1796875 C-0.96304688 7.54386719 -0.96304688 7.54386719 -0.75 5.875 C-0.60046875 4.77929688 -0.4509375 3.68359375 -0.296875 2.5546875 C-0.19890625 1.71164062 -0.1009375 0.86859375 0 0 Z " fill="#F4F5F5" transform="translate(672,692)"/>
<path d="M0 0 C0.33 0 0.66 0 1 0 C1 3.63 1 7.26 1 11 C-0.32 11 -1.64 11 -3 11 C-3 11.66 -3 12.32 -3 13 C-3.66 13 -4.32 13 -5 13 C-5.33 13.99 -5.66 14.98 -6 16 C-6.66 15.67 -7.32 15.34 -8 15 C-6.88371346 12.39533141 -5.99673777 10.9972038 -3.8125 9.125 C-1.61174675 7.05079097 -1.61174675 7.05079097 -2.25 3.75 C-2.4975 2.8425 -2.745 1.935 -3 1 C-2.01 1.33 -1.02 1.66 0 2 C0 1.34 0 0.68 0 0 Z " fill="#C1C4C5" transform="translate(840,696)"/>
<path d="M0 0 C0.515625 0.37125 1.03125 0.7425 1.5625 1.125 C-0.0625 3.125 -0.0625 3.125 -2.4375 5.125 C-5.6875 5.375 -5.6875 5.375 -8.4375 5.125 C-8.7675 3.805 -9.0975 2.485 -9.4375 1.125 C-3.0375 -1.09038462 -3.0375 -1.09038462 0 0 Z " fill="#F2F4F3" transform="translate(696.4375,675.875)"/>
<path d="M0 0 C1.65 0.33 3.3 0.66 5 1 C5 2.98 5 4.96 5 7 C3.125 7.625 3.125 7.625 1 8 C0.34 7.34 -0.32 6.68 -1 6 C-0.625 2.875 -0.625 2.875 0 0 Z " fill="#E0E1E2" transform="translate(66,999)"/>
<path d="M0 0 C0.99 0 1.98 0 3 0 C3.08159574 4.16138263 2.98248524 7.9472484 2 12 C1.01 12 0.02 12 -1 12 C-2.33981486 12.3062434 -3.67511887 12.63451555 -5 13 C-4.67 12.01 -4.34 11.02 -4 10 C-2.68 9.67 -1.36 9.34 0 9 C0 6.03 0 3.06 0 0 Z " fill="#323332" transform="translate(680,698)"/>
<path d="M0 0 C0.33 1.32 0.66 2.64 1 4 C1.99 4 2.98 4 4 4 C3.67 5.32 3.34 6.64 3 8 C-1.10958767 6.54955729 -4.43258745 4.48889248 -8 2 C-5.3260876 1.10869587 -2.76276177 0.52268466 0 0 Z M4 3 C6 4 6 4 6 4 Z " fill="#30302F" transform="translate(194,440)"/>
<path d="M0 0 C1.32 0 2.64 0 4 0 C4.33 3.3 4.66 6.6 5 10 C2.03 9.505 2.03 9.505 -1 9 C-0.67 6.03 -0.34 3.06 0 0 Z " fill="#B6B8B9" transform="translate(718,699)"/>
<path d="M0 0 C0.66 1.32 1.32 2.64 2 4 C6.455 3.01 6.455 3.01 11 2 C10.04367001 3.29315061 9.08486149 4.58446853 8.125 5.875 C7.59132813 6.59429688 7.05765625 7.31359375 6.5078125 8.0546875 C5 10 5 10 3 12 C2.34 11.34 1.68 10.68 1 10 C1.66 8.35 2.32 6.7 3 5 C2.34 5 1.68 5 1 5 C0.67 3.35 0.34 1.7 0 0 Z " fill="#5B6362" transform="translate(955,645)"/>
<path d="M0 0 C0.33 0.66 0.66 1.32 1 2 C2.65 2 4.3 2 6 2 C5.814375 2.94875 5.62875 3.8975 5.4375 4.875 C4.71313368 7.89868793 4.71313368 7.89868793 6 10 C6.039992 11.99960012 6.04346799 14.00047242 6 16 C5.01 16 4.02 16 3 16 C2.92652344 15.09507812 2.92652344 15.09507812 2.8515625 14.171875 C2.77679687 13.37265625 2.70203125 12.5734375 2.625 11.75 C2.55539062 10.96109375 2.48578125 10.1721875 2.4140625 9.359375 C1.98326166 6.90462303 1.12090052 5.20534899 0 3 C0 2.01 0 1.02 0 0 Z " fill="#565E5D" transform="translate(934,670)"/>
<path d="M0 0 C4.89473684 4.89473684 4.89473684 4.89473684 5 9 C3.6875 10.8125 3.6875 10.8125 2 12 C1.34 12 0.68 12 0 12 C0 8.04 0 4.08 0 0 Z " fill="#535756" transform="translate(704,657)"/>
<path d="M0 0 C0.33 0 0.66 0 1 0 C1.33 6.6 1.66 13.2 2 20 C2.33 20 2.66 20 3 20 C3.25 22.3125 3.25 22.3125 3 25 C1.68 25.99 0.36 26.98 -1 28 C-0.67 18.76 -0.34 9.52 0 0 Z " fill="#464644" transform="translate(657,504)"/>
<path d="M0 0 C2.31 0 4.62 0 7 0 C6.67 0.99 6.34 1.98 6 3 C5.01 3 4.02 3 3 3 C2.67 5.64 2.34 8.28 2 11 C1.34 11 0.68 11 0 11 C0 7.37 0 3.74 0 0 Z " fill="#EEF0EF" transform="translate(643,696)"/>
<path d="M0 0 C0.66 0 1.32 0 2 0 C3.42944945 2.35438733 4.08661261 3.48032433 3.625 6.25 C3.41875 6.8275 3.2125 7.405 3 8 C1.35 8 -0.3 8 -2 8 C-2.125 5.125 -2.125 5.125 -2 2 C-1.34 1.34 -0.68 0.68 0 0 Z " fill="#E7E8EA" transform="translate(34,999)"/>
<path d="M0 0 C0.99 0.33 1.98 0.66 3 1 C2.34 2.98 1.68 4.96 1 7 C3.475 7.99 3.475 7.99 6 9 C6 9.33 6 9.66 6 10 C3.69 9.67 1.38 9.34 -1 9 C-1.625 6.1875 -1.625 6.1875 -2 3 C-1.34 2.01 -0.68 1.02 0 0 Z " fill="#F6F7F8" transform="translate(829,697)"/>
<path d="M0 0 C1.65 0 3.3 0 5 0 C5 1.98 5 3.96 5 6 C3.02 6.99 3.02 6.99 1 8 C1.33 7.34 1.66 6.68 2 6 C1.01 5.34 0.02 4.68 -1 4 C-0.67 2.68 -0.34 1.36 0 0 Z " fill="#E9EAEC" transform="translate(39,999)"/>
<path d="M0 0 C1.78409802 3.06246747 2.22880021 5.22079273 2.125 8.75 C2.10695313 9.54921875 2.08890625 10.3484375 2.0703125 11.171875 C2.03550781 12.07679688 2.03550781 12.07679688 2 13 C-2.875 8.375 -2.875 8.375 -4 5 C-2.68 4.67 -1.36 4.34 0 4 C0 2.68 0 1.36 0 0 Z " fill="#2B2B29" transform="translate(573,803)"/>
<path d="M0 0 C0.99 0.33 1.98 0.66 3 1 C2.67447917 2.98567708 2.34895833 4.97135417 2.0234375 6.95703125 C1.80422152 9.31755824 1.80422152 9.31755824 4 12 C2.35 12.66 0.7 13.32 -1 14 C-1.66 13.34 -2.32 12.68 -3 12 C-2.34 11.01 -1.68 10.02 -1 9 C-0.79628846 6.97540797 -0.79628846 6.97540797 -0.9375 4.875 C-0.958125 3.59625 -0.97875 2.3175 -1 1 C-0.67 0.67 -0.34 0.34 0 0 Z " fill="#444645" transform="translate(681,667)"/>
<path d="M0 0 C0.99 0 1.98 0 3 0 C3 3.63 3 7.26 3 11 C2.01 11 1.02 11 0 11 C0 7.37 0 3.74 0 0 Z " fill="#EBEDED" transform="translate(703,696)"/>
<path d="M0 0 C0.99 0 1.98 0 3 0 C3 3.63 3 7.26 3 11 C2.01 11 1.02 11 0 11 C0 7.37 0 3.74 0 0 Z " fill="#E6E7E6" transform="translate(677,696)"/>
<path d="M0 0 C0.99 0 1.98 0 3 0 C3 3.63 3 7.26 3 11 C2.01 11 1.02 11 0 11 C0 7.37 0 3.74 0 0 Z " fill="#F4F5F6" transform="translate(822,696)"/>
<path d="M0 0 C1.90747183 2.86120775 3.00353706 5.35254993 4.1875 8.5625 C4.55230469 9.53316406 4.91710937 10.50382813 5.29296875 11.50390625 C6 14 6 14 5 16 C4.67 14.68 4.34 13.36 4 12 C2.35 12.33 0.7 12.66 -1 13 C-0.9278125 12.39671875 -0.855625 11.7934375 -0.78125 11.171875 C-0.6884375 10.37265625 -0.595625 9.5734375 -0.5 8.75 C-0.4071875 7.96109375 -0.314375 7.1721875 -0.21875 6.359375 C0.06154619 3.73109603 0.06154619 3.73109603 0 0 Z " fill="#454543" transform="translate(373,555)"/>
<path d="M0 0 C0 0.66 0 1.32 0 2 C0.66 2.33 1.32 2.66 2 3 C0.68 3 -0.64 3 -2 3 C-2 3.99 -2 4.98 -2 6 C-4.97 5.505 -4.97 5.505 -8 5 C-8 4.01 -8 3.02 -8 2 C-2.25 0 -2.25 0 0 0 Z " fill="#616463" transform="translate(685,690)"/>
<path d="M0 0 C3.3 0 6.6 0 10 0 C7 3 7 3 4 5 C3.01 5 2.02 5 1 5 C0.67 3.35 0.34 1.7 0 0 Z " fill="#828886" transform="translate(926,644)"/>
<path d="M0 0 C0 0.99 0 1.98 0 3 C-2.97 4.32 -5.94 5.64 -9 7 C-9 5.68 -9 4.36 -9 3 C-8.34 3 -7.68 3 -7 3 C-7 2.34 -7 1.68 -7 1 C-4.50935112 0.31292445 -2.62113708 0 0 0 Z " fill="#282826" transform="translate(452,377)"/>
<path d="M0 0 C0 4.53850662 -2.5336296 7.3004444 -5 11 C-6.32 11 -7.64 11 -9 11 C-7.59155282 7.78475695 -5.89655214 5.67816132 -3.375 3.25 C-2.74335937 2.63640625 -2.11171875 2.0228125 -1.4609375 1.390625 C-0.73777344 0.70226562 -0.73777344 0.70226562 0 0 Z " fill="#979A99" transform="translate(696,711)"/>
<path d="M0 0 C1.65 0 3.3 0 5 0 C5 1.65 5 3.3 5 5 C3.125 5.625 3.125 5.625 1 6 C0.34 5.34 -0.32 4.68 -1 4 C-0.625 1.875 -0.625 1.875 0 0 Z " fill="#A7ABAC" transform="translate(779,699)"/>
<path d="M0 0 C2.475 0.99 2.475 0.99 5 2 C4.67 6.29 4.34 10.58 4 15 C3.67 15 3.34 15 3 15 C2.83723958 12.98177083 2.67447917 10.96354167 2.51171875 8.9453125 C2.12606964 6.60480784 2.12606964 6.60480784 -1 5 C-0.34 5 0.32 5 1 5 C1 4.01 1 3.02 1 2 C0.34 1.67 -0.32 1.34 -1 1 C-0.67 0.67 -0.34 0.34 0 0 Z " fill="#6B6D6C" transform="translate(639,692)"/>
<path d="M0 0 C3.5625 0.125 3.5625 0.125 5.5625 1.125 C5.5625 2.115 5.5625 3.105 5.5625 4.125 C3.891875 3.8775 3.891875 3.8775 2.1875 3.625 C-2.47326436 2.8031514 -2.47326436 2.8031514 -6.4375 5.125 C-4.02854478 0.14649254 -4.02854478 0.14649254 0 0 Z " fill="#DCDEDD" transform="translate(634.4375,692.875)"/>
<path d="M0 0 C1.65 0 3.3 0 5 0 C5.33 1.32 5.66 2.64 6 4 C4.125 5.0625 4.125 5.0625 2 6 C1.34 5.67 0.68 5.34 0 5 C0 3.35 0 1.7 0 0 Z " fill="#BCBDBF" transform="translate(830,699)"/>
<path d="M0 0 C0.99 0.66 1.98 1.32 3 2 C1.95125002 4.62187494 1.35068687 5.79371361 -1.125 7.25 C-1.74375 7.4975 -2.3625 7.745 -3 8 C-3.1875 5.125 -3.1875 5.125 -3 2 C-2.01 1.34 -1.02 0.68 0 0 Z " fill="#252523" transform="translate(846,424)"/>
<path d="M0 0 C3.3 1.98 6.6 3.96 10 6 C9.01 6.66 8.02 7.32 7 8 C4.36 6.68 1.72 5.36 -1 4 C-0.67 2.68 -0.34 1.36 0 0 Z " fill="#282828" transform="translate(466,232)"/>
<path d="M0 0 C0.33 0.99 0.66 1.98 1 3 C0.030625 3.12375 -0.93875 3.2475 -1.9375 3.375 C-3.4534375 3.684375 -3.4534375 3.684375 -5 4 C-5.33 4.66 -5.66 5.32 -6 6 C-7.32 5.01 -8.64 4.02 -10 3 C-3.375 -1.125 -3.375 -1.125 0 0 Z " fill="#313534" transform="translate(682,688)"/>
<path d="M0 0 C1.65 0 3.3 0 5 0 C5 0.99 5 1.98 5 3 C4.01 3 3.02 3 2 3 C2 4.32 2 5.64 2 7 C-0.97 7 -3.94 7 -7 7 C-7 6.67 -7 6.34 -7 6 C-5.02 5.67 -3.04 5.34 -1 5 C-0.67 3.35 -0.34 1.7 0 0 Z " fill="#7D8180" transform="translate(716,658)"/>
<path d="M0 0 C1.67542976 0.28604898 3.34385343 0.61781233 5 1 C4.814375 1.78375 4.62875 2.5675 4.4375 3.375 C3.74037734 5.97089775 3.74037734 5.97089775 5 8 C3.02 8 1.04 8 -1 8 C0.32 6.02 1.64 4.04 3 2 C1.68 1.67 0.36 1.34 -1 1 C-0.67 0.67 -0.34 0.34 0 0 Z " fill="#EDEEEF" transform="translate(73,999)"/>
<path d="M0 0 C1.65 0 3.3 0 5 0 C5 1.65 5 3.3 5 5 C3.0625 5.5625 3.0625 5.5625 1 6 C0 5 0 5 -0.0625 2.4375 C-0.041875 1.633125 -0.02125 0.82875 0 0 Z " fill="#A6AAAB" transform="translate(766,699)"/>
<path d="M0 0 C1.98 0 3.96 0 6 0 C6 1.66666667 6 3.33333333 6 5 C0.25 5.125 0.25 5.125 -2 4 C-1.34 2.68 -0.68 1.36 0 0 Z " fill="#B6B8B7" transform="translate(653,696)"/>
<path d="M0 0 C0 1.32 0 2.64 0 4 C-0.99 4 -1.98 4 -3 4 C-3.33 4.99 -3.66 5.98 -4 7 C-4 6.01 -4 5.02 -4 4 C-5.32 4 -6.64 4 -8 4 C-7.67 3.01 -7.34 2.02 -7 1 C-4.52260646 0.09162237 -2.66420516 0 0 0 Z " fill="#C8CACB" transform="translate(825,692)"/>
<path d="M0 0 C2.5 1.25 2.5 1.25 5 3 C5 4.32 5 5.64 5 7 C2.13275314 6.42655063 1.1385485 6.1385485 -1 4 C-0.625 1.875 -0.625 1.875 0 0 Z " fill="#6F7372" transform="translate(701,688)"/>
<path d="M0 0 C1.32 0 2.64 0 4 0 C4.625 1.875 4.625 1.875 5 4 C4.34 4.66 3.68 5.32 3 6 C2.01 6 1.02 6 0 6 C-0.38218767 4.34385343 -0.71395102 2.67542976 -1 1 C-0.67 0.67 -0.34 0.34 0 0 Z " fill="#E2E4E3" transform="translate(628,657)"/>
<path d="M0 0 C3 0.25 3 0.25 5 2.25 C2.69 2.58 0.38 2.91 -2 3.25 C-2.33 4.57 -2.66 5.89 -3 7.25 C-3 5.93 -3 4.61 -3 3.25 C-3.66 2.92 -4.32 2.59 -5 2.25 C-3 0.25 -3 0.25 0 0 Z " fill="#E8ECEC" transform="translate(768,695.75)"/>
<path d="M0 0 C2.31 0.33 4.62 0.66 7 1 C7.66 2.65 8.32 4.3 9 6 C8.01 6.33 7.02 6.66 6 7 C4.02 4.69 2.04 2.38 0 0 Z " fill="#454746" transform="translate(708,671)"/>
<path d="M0 0 C1.65 0 3.3 0 5 0 C4.67 1.98 4.34 3.96 4 6 C1.525 5.01 1.525 5.01 -1 4 C-0.67 2.68 -0.34 1.36 0 0 Z " fill="#444645" transform="translate(640,661)"/>
<path d="M0 0 C0.93423645 3.01031744 1.04449911 3.86650268 0 7 C-0.66 7 -1.32 7 -2 7 C-2 7.66 -2 8.32 -2 9 C-3.65 8.67 -5.3 8.34 -7 8 C-6.67 7.34 -6.34 6.68 -6 6 C-5.34 6 -4.68 6 -4 6 C-3.71125 5.38125 -3.4225 4.7625 -3.125 4.125 C-2 2 -2 2 0 0 Z " fill="#41413F" transform="translate(308,332)"/>
<path d="M0 0 C0.99 0.33 1.98 0.66 3 1 C3.33 2.65 3.66 4.3 4 6 C1 7 1 7 -2 6 C-1.125 1.125 -1.125 1.125 0 0 Z " fill="#C4C5C7" transform="translate(46,999)"/>
<path d="M0 0 C2.475 0.495 2.475 0.495 5 1 C4.79375 1.78375 4.5875 2.5675 4.375 3.375 C4.25125 4.24125 4.1275 5.1075 4 6 C4.66 6.66 5.32 7.32 6 8 C4.02 8 2.04 8 0 8 C0 7.34 0 6.68 0 6 C0.66 5.67 1.32 5.34 2 5 C2.33 4.01 2.66 3.02 3 2 C2.01 2 1.02 2 0 2 C0 1.34 0 0.68 0 0 Z " fill="#EFF0F1" transform="translate(59,999)"/>
<path d="M0 0 C0.33 0.66 0.66 1.32 1 2 C3.31 2 5.62 2 8 2 C7.67 2.99 7.34 3.98 7 5 C4.69 5 2.38 5 0 5 C-0.33 4.34 -0.66 3.68 -1 3 C-0.67 2.01 -0.34 1.02 0 0 Z " fill="#D8DAD9" transform="translate(653,702)"/>
<path d="M0 0 C1.65 0.33 3.3 0.66 5 1 C4.67 2.32 4.34 3.64 4 5 C2.35 4.67 0.7 4.34 -1 4 C-0.67 2.68 -0.34 1.36 0 0 Z " fill="#ADAEB0" transform="translate(745,699)"/>
<path d="M0 0 C1.65 0.33 3.3 0.66 5 1 C4.67 2.32 4.34 3.64 4 5 C2.35 4.67 0.7 4.34 -1 4 C-0.67 2.68 -0.34 1.36 0 0 Z " fill="#B2B3B5" transform="translate(731,699)"/>
<path d="M0 0 C1.32 0 2.64 0 4 0 C4 1.98 4 3.96 4 6 C2.68 6.33 1.36 6.66 0 7 C0 4.69 0 2.38 0 0 Z " fill="#B7B8B8" transform="translate(711,699)"/>
<path d="M0 0 C1.98 0.99 1.98 0.99 4 2 C3.34 4.97 2.68 7.94 2 11 C1.34 11 0.68 11 0 11 C0 7.37 0 3.74 0 0 Z " fill="#FAFCFD" transform="translate(841,696)"/>
<path d="M0 0 C1.98 0 3.96 0 6 0 C6.33 1.32 6.66 2.64 7 4 C3.37673261 5.2077558 2.35853631 4.54311128 -1 3 C-0.67 2.01 -0.34 1.02 0 0 Z " fill="#F1F4F4" transform="translate(690,665)"/>
<path d="M0 0 C1.32 0.33 2.64 0.66 4 1 C4 2.65 4 4.3 4 6 C4.66 6 5.32 6 6 6 C6 6.99 6 7.98 6 9 C4.35 8.67 2.7 8.34 1 8 C1.020625 7.236875 1.04125 6.47375 1.0625 5.6875 C1.12942841 2.89814214 1.12942841 2.89814214 0 0 Z " fill="#484F4E" transform="translate(952,644)"/>
<path d="M0 0 C1.45147903 2.90295805 1.37239025 4.77261779 1 8 C-0.47368516 10.27751344 -2.11435238 12.02007 -4 14 C-4 10.93428982 -3.45136686 8.79252472 -2.5625 5.875 C-2.29566406 4.98554688 -2.02882812 4.09609375 -1.75390625 3.1796875 C-1 1 -1 1 0 0 Z " fill="#494947" transform="translate(188,349)"/>
<path d="M0 0 C0.99 0.33 1.98 0.66 3 1 C3 1.99 3 2.98 3 4 C5.64 4.33 8.28 4.66 11 5 C10.67 5.66 10.34 6.32 10 7 C5.61110675 6.33501617 2.0188515 4.81242323 -2 3 C-1.34 2.01 -0.68 1.02 0 0 Z " fill="#454543" transform="translate(371,841)"/>
<path d="M0 0 C1.65 0 3.3 0 5 0 C5 1.65 5 3.3 5 5 C3.35 5 1.7 5 0 5 C0 3.35 0 1.7 0 0 Z " fill="#3A3C3B" transform="translate(666,699)"/>
<path d="M0 0 C0.94875 0.04125 1.8975 0.0825 2.875 0.125 C3.205 1.115 3.535 2.105 3.875 3.125 C2.225 3.125 0.575 3.125 -1.125 3.125 C-1.785 4.445 -2.445 5.765 -3.125 7.125 C-3.785 5.475 -4.445 3.825 -5.125 2.125 C-3.125 0.125 -3.125 0.125 0 0 Z " fill="#F0F3F4" transform="translate(807.125,695.875)"/>
<path d="M0 0 C0.66 0.66 1.32 1.32 2 2 C1.04882866 3.1725131 0.08882991 4.33787015 -0.875 5.5 C-1.40867187 6.1496875 -1.94234375 6.799375 -2.4921875 7.46875 C-2.98976563 7.9740625 -3.48734375 8.479375 -4 9 C-4.66 9 -5.32 9 -6 9 C-5.67 7.68 -5.34 6.36 -5 5 C-4.34 5 -3.68 5 -3 5 C-2.5359375 4.0409375 -2.5359375 4.0409375 -2.0625 3.0625 C-1 1 -1 1 0 0 Z " fill="#494D4C" transform="translate(716,687)"/>
<path d="M0 0 C1.32 0.99 2.64 1.98 4 3 C3.34 5.31 2.68 7.62 2 10 C1.34 10 0.68 10 0 10 C0 6.7 0 3.4 0 0 Z " fill="#4E504F" transform="translate(704,674)"/>
<path d="M0 0 C0.99 0.33 1.98 0.66 3 1 C3.6875 3.0625 3.6875 3.0625 4 5 C0.25 6.125 0.25 6.125 -2 5 C-1.125 1.125 -1.125 1.125 0 0 Z " fill="#404040" transform="translate(671,671)"/>
<path d="M0 0 C0.99 0.33 1.98 0.66 3 1 C3.33 1.99 3.66 2.98 4 4 C2.68 5.32 1.36 6.64 0 8 C-1.125 6.25 -1.125 6.25 -2 4 C-1.125 1.75 -1.125 1.75 0 0 Z " fill="#F3F3F1" transform="translate(396,592)"/>
<path d="M0 0 C0.66 0 1.32 0 2 0 C1.67 1.65 1.34 3.3 1 5 C1.66 5 2.32 5 3 5 C3.33 3.68 3.66 2.36 4 1 C4 2.32 4 3.64 4 5 C4.66 5.33 5.32 5.66 6 6 C5.34 6 4.68 6 4 6 C3.67 6.66 3.34 7.32 3 8 C3 7.34 3 6.68 3 6 C1.68 6 0.36 6 -1 6 C-0.67 4.02 -0.34 2.04 0 0 Z " fill="#F2F3F4" transform="translate(21,999)"/>
<path d="M0 0 C0 3.51716303 -0.82445585 4.37121748 -3 7 C-4.65 5.68 -6.3 4.36 -8 3 C-5.36 2.01 -2.72 1.02 0 0 Z " fill="#9CA0A1" transform="translate(774,705)"/>
<path d="M0 0 C0.66 0 1.32 0 2 0 C3.1577506 3.47325181 3.06866652 6.36067448 3 10 C2.01 10.33 1.02 10.66 0 11 C0 7.37 0 3.74 0 0 Z " fill="#B8BBBC" transform="translate(725,696)"/>
<path d="M0 0 C1.32 0.33 2.64 0.66 4 1 C4 2.98 4 4.96 4 7 C2.35 7.33 0.7 7.66 -1 8 C-1.33 7.34 -1.66 6.68 -2 6 C-0.68 5.67 0.64 5.34 2 5 C1.34 4.34 0.68 3.68 0 3 C0.66 3 1.32 3 2 3 C2 2.34 2 1.68 2 1 C1.34 0.67 0.68 0.34 0 0 Z " fill="#F2F3F4" transform="translate(47,999)"/>
<path d="M0 0 C1.65 0.33 3.3 0.66 5 1 C5 1.66 5 2.32 5 3 C4.236875 3.28875 3.47375 3.5775 2.6875 3.875 C-0.15029308 4.96269013 -0.15029308 4.96269013 -3 7 C-1.125 2.25 -1.125 2.25 0 0 Z " fill="#ACB0B0" transform="translate(834,676)"/>
<path d="M0 0 C0.99 0.33 1.98 0.66 3 1 C1.35 2.98 -0.3 4.96 -2 7 C-2.66 6.67 -3.32 6.34 -4 6 C-2.84826645 3.53199953 -1.95216435 1.95216435 0 0 Z " fill="#292927" transform="translate(413,401)"/>
<path d="M0 0 C0 0.99 0 1.98 0 3 C-0.763125 2.79375 -1.52625 2.5875 -2.3125 2.375 C-5.21885944 1.66608797 -5.21885944 1.66608797 -8 4 C-8 2.68 -8 1.36 -8 0 C-4.94736336 -0.98120464 -3.05263664 -0.98120464 0 0 Z " fill="#B6B8BA" transform="translate(800,707)"/>
<path d="M0 0 C0.33 0 0.66 0 1 0 C1 2.64 1 5.28 1 8 C-0.65 8.33 -2.3 8.66 -4 9 C-3.67 8.34 -3.34 7.68 -3 7 C-3.66 6.34 -4.32 5.68 -5 5 C-3.35 4.67 -1.7 4.34 0 4 C0 2.68 0 1.36 0 0 Z " fill="#C7CBCC" transform="translate(814,698)"/>
<path d="M0 0 C1.32 0 2.64 0 4 0 C3.67 1.32 3.34 2.64 3 4 C2.01 4 1.02 4 0 4 C-0.33 5.32 -0.66 6.64 -1 8 C-1.04241723 5.66705225 -1.04092937 3.33297433 -1 1 C-0.67 0.67 -0.34 0.34 0 0 Z " fill="#BDBFC1" transform="translate(844,699)"/>
<path d="M0 0 C1.98 1.65 3.96 3.3 6 5 C5.34 5.66 4.68 6.32 4 7 C2.02 5.35 0.04 3.7 -2 2 C-1.34 1.34 -0.68 0.68 0 0 Z " fill="#252524" transform="translate(412,618)"/>
<path d="M0 0 C-2.31 1.65 -4.62 3.3 -7 5 C-7.99 4.34 -8.98 3.68 -10 3 C-4.5 -1.125 -4.5 -1.125 0 0 Z " fill="#434342" transform="translate(228,564)"/>
<path d="M0 0 C0.33 0.99 0.66 1.98 1 3 C-1.04074305 6.57130033 -2.55753136 8.7050209 -6 11 C-4.54955729 6.89041233 -2.48889248 3.56741255 0 0 Z " fill="#444442" transform="translate(567,210)"/>
<path d="M0 0 C0.66 0.99 1.32 1.98 2 3 C-0.31 5.31 -2.62 7.62 -5 10 C-5.66 9.67 -6.32 9.34 -7 9 C-6.57847656 8.51789062 -6.15695312 8.03578125 -5.72265625 7.5390625 C-5.17480469 6.90742187 -4.62695312 6.27578125 -4.0625 5.625 C-3.51722656 4.99851562 -2.97195313 4.37203125 -2.41015625 3.7265625 C-0.93041376 2.04367666 -0.93041376 2.04367666 0 0 Z " fill="#D2D2D1" transform="translate(437,844)"/>
<path d="M0 0 C-0.33 0.99 -0.66 1.98 -1 3 C-4.72908331 2.49800802 -8.36147686 1.95792977 -12 1 C-3.96428571 -1.27678571 -3.96428571 -1.27678571 0 0 Z " fill="#434341" transform="translate(769,338)"/>
<path d="M0 0 C2.99324263 1.0975223 3.84610901 1.67682892 5.25 4.625 C5.4975 5.40875 5.745 6.1925 6 7 C2.535 5.02 2.535 5.02 -1 3 C-0.67 2.01 -0.34 1.02 0 0 Z " fill="#3B3B39" transform="translate(450,211)"/>
<path d="M0 0 C1.32 0.33 2.64 0.66 4 1 C3.67 2.32 3.34 3.64 3 5 C0.525 4.01 0.525 4.01 -2 3 C-1.34 2.01 -0.68 1.02 0 0 Z " fill="#BDBEC0" transform="translate(58,1000)"/>
<path d="M0 0 C0.99 0 1.98 0 3 0 C3 2.64 3 5.28 3 8 C2.34 8 1.68 8 1 8 C1 6.02 1 4.04 1 2 C0.34 1.67 -0.32 1.34 -1 1 C-0.67 0.67 -0.34 0.34 0 0 Z " fill="#ECEEEF" transform="translate(16,999)"/>
<path d="M0 0 C0.66 0.33 1.32 0.66 2 1 C0.515 3.475 0.515 3.475 -1 6 C-2.65 5.67 -4.3 5.34 -6 5 C-5.195625 4.360625 -4.39125 3.72125 -3.5625 3.0625 C-1.7249496 1.59396498 -1.7249496 1.59396498 0 0 Z " fill="#41413F" transform="translate(216,568)"/>
<path d="M0 0 C0.99 0 1.98 0 3 0 C2.75 1.875 2.75 1.875 2 4 C-0.0625 5.25 -0.0625 5.25 -2 6 C-1.125 1.125 -1.125 1.125 0 0 Z " fill="#2A2A28" transform="translate(429,388)"/>
<path d="M0 0 C0.66 0 1.32 0 2 0 C1.6875 1.875 1.6875 1.875 1 4 C-2 6 -2 6 -5 6 C-5 5.34 -5 4.68 -5 4 C-4.01 4 -3.02 4 -2 4 C-2 3.34 -2 2.68 -2 2 C-1.34 2 -0.68 2 0 2 C0 1.34 0 0.68 0 0 Z " fill="#4A4A4A" transform="translate(639,670)"/>
<path d="M0 0 C5.75 1.75 5.75 1.75 8 4 C6.25 4.6875 6.25 4.6875 4 5 C1.75 3.6875 1.75 3.6875 0 2 C0 1.34 0 0.68 0 0 Z " fill="#272725" transform="translate(446,642)"/>
<path d="M0 0 C0 0.66 0 1.32 0 2 C-5.2734375 5.22265625 -5.2734375 5.22265625 -7 6 C-7.66 5.67 -8.32 5.34 -9 5 C-3.375 0 -3.375 0 0 0 Z " fill="#363635" transform="translate(614,618)"/>
<path d="M0 0 C3.63 0 7.26 0 11 0 C11 0.33 11 0.66 11 1 C9.9275 1.144375 8.855 1.28875 7.75 1.4375 C5.08337051 1.83749442 2.58600271 2.27591924 0 3 C0 2.01 0 1.02 0 0 Z " fill="#373735" transform="translate(274,346)"/>
<path d="M0 0 C0.66 0.66 1.32 1.32 2 2 C1.625 4.625 1.625 4.625 1 7 C-0.32 6.34 -1.64 5.68 -3 5 C-2.01 3.35 -1.02 1.7 0 0 Z " fill="#444847" transform="translate(629,705)"/>
<path d="M0 0 C0.33 1.32 0.66 2.64 1 4 C0.01 4.66 -0.98 5.32 -2 6 C-2.66 4.68 -3.32 3.36 -4 2 C-2.68 1.34 -1.36 0.68 0 0 Z " fill="#3A3D3C" transform="translate(680,679)"/>
<path d="M0 0 C0.66 0 1.32 0 2 0 C2 0.99 2 1.98 2 3 C2.66 3.33 3.32 3.66 4 4 C4 5.98 4 7.96 4 10 C3.01 10 2.02 10 1 10 C0.67 6.7 0.34 3.4 0 0 Z " fill="#686F6F" transform="translate(936,676)"/>
<path d="M0 0 C0.99 0.33 1.98 0.66 3 1 C2.34 3.97 1.68 6.94 1 10 C0.34 9.67 -0.32 9.34 -1 9 C-1.09765625 2.84765625 -1.09765625 2.84765625 -1 1 C-0.67 0.67 -0.34 0.34 0 0 Z " fill="#4F5050" transform="translate(681,667)"/>
<path d="M0 0 C0.66 0.33 1.32 0.66 2 1 C1.67 2.65 1.34 4.3 1 6 C-2.875 4.25 -2.875 4.25 -4 2 C-2.125 0.9375 -2.125 0.9375 0 0 Z " fill="#DEDEDC" transform="translate(428,625)"/>
<path d="M0 0 C0.99 0.99 1.98 1.98 3 3 C2.34 3 1.68 3 1 3 C0.67 4.32 0.34 5.64 0 7 C-0.66 6.67 -1.32 6.34 -2 6 C-1.125 1.125 -1.125 1.125 0 0 Z " fill="#262624" transform="translate(419,624)"/>
<path d="M0 0 C1 2 1 2 0.0625 5.125 C-0.288125 6.07375 -0.63875 7.0225 -1 8 C-1.99 8 -2.98 8 -4 8 C-2.25 2.25 -2.25 2.25 0 0 Z " fill="#464646" transform="translate(172,599)"/>
<path d="M0 0 C0.95930163 3.8372065 1.15195929 5.35212892 0 9 C-0.99 9.66 -1.98 10.32 -3 11 C-2.01 7.37 -1.02 3.74 0 0 Z " fill="#525250" transform="translate(650,555)"/>
<path d="M0 0 C4 0 4 0 6 1 C6 1.99 6 2.98 6 4 C5.01 4.33 4.02 4.66 3 5 C1.5 3.625 1.5 3.625 0 2 C0 1.34 0 0.68 0 0 Z " fill="#383836" transform="translate(167,424)"/>
</svg>
