<?xml version="1.0" encoding="UTF-8"?>
<svg version="1.1" xmlns="http://www.w3.org/2000/svg" width="370" height="205">
<path d="M0 0 C122.1 0 244.2 0 370 0 C370 67.65 370 135.3 370 205 C247.9 205 125.8 205 0 205 C0 137.35 0 69.7 0 0 Z " fill="#F3F5F2" transform="translate(0,0)"/>
<path d="M0 0 C2.64 0 5.28 0 8 0 C8 4.62 8 9.24 8 14 C5.69 14 3.38 14 1 14 C1 61.19 1 108.38 1 157 C3.31 157 5.62 157 8 157 C8 163.6 8 170.2 8 177 C12.62 177 17.24 177 22 177 C22 179.97 22 182.94 22 186 C125.62 186 229.24 186 336 186 C336 183.36 336 180.72 336 178 C340.62 178 345.24 178 350 178 C350 171.07 350 164.14 350 157 C352.64 157 355.28 157 358 157 C358 109.81 358 62.62 358 14 C359.98 14 361.96 14 364 14 C364 72.74 364 131.48 364 192 C241.9 192 119.8 192 -6 192 C-6 133.26 -6 74.52 -6 14 C-4.02 14 -2.04 14 0 14 C0 9.38 0 4.76 0 0 Z " fill="#7D7178" transform="translate(6,13)"/>
<path d="M0 0 C4.62 0 9.24 0 14 0 C14 2.31 14 4.62 14 7 C16.64 7 19.28 7 22 7 C22 9.31 22 11.62 22 14 C22.969375 13.979375 23.93875 13.95875 24.9375 13.9375 C28 14 28 14 29 15 C29.04080783 16.99958364 29.04254356 19.00045254 29 21 C31.64 21 34.28 21 37 21 C37 23.31 37 25.62 37 28 C38.98 28 40.96 28 43 28 C43 30.31 43 32.62 43 35 C45.31 35 47.62 35 50 35 C50 39.95 50 44.9 50 50 C47.69 50 45.38 50 43 50 C43 52.64 43 55.28 43 58 C40.36 58 37.72 58 35 58 C35 59.98 35 61.96 35 64 C32.03 64.495 32.03 64.495 29 65 C28.67 67.31 28.34 69.62 28 72 C25.69 72 23.38 72 21 72 C21 74.31 21 76.62 21 79 C18.69 79 16.38 79 14 79 C14 81.31 14 83.62 14 86 C9.38 86 4.76 86 0 86 C0 57.62 0 29.24 0 0 Z " fill="#19A74D" transform="translate(164,55)"/>
<path d="M0 0 C0.33 0 0.66 0 1 0 C1 4.29 1 8.58 1 13 C-3.62 13 -8.24 13 -13 13 C-13 15.64 -13 18.28 -13 21 C-116.62 21 -220.24 21 -327 21 C-327 18.36 -327 15.72 -327 13 C-326.05009198 12.99739563 -326.05009198 12.99739563 -325.08099389 12.99473864 C-287.57050524 12.89177051 -250.06003464 12.78367101 -212.54958023 12.66888306 C-208.04835308 12.65511304 -203.5471258 12.64138601 -199.04589844 12.62768555 C-198.14976325 12.62495724 -197.25362806 12.62222894 -196.33033726 12.61941796 C-181.80922822 12.57531069 -167.28811142 12.53468816 -152.76698878 12.49534739 C-137.87339411 12.45492017 -122.97981389 12.4107622 -108.08624053 12.36312145 C-98.89184413 12.33382909 -89.69744882 12.30746689 -80.50303361 12.28482103 C-74.20303268 12.2690257 -67.90304944 12.24961536 -61.60306814 12.22733159 C-57.96519483 12.21457171 -54.32733513 12.20343513 -50.6894455 12.19658089 C-46.74966488 12.1891163 -42.80993458 12.17405452 -38.87017822 12.15821838 C-37.7145451 12.15724028 -36.55891198 12.15626217 -35.36825967 12.15525442 C-34.3152768 12.14977998 -33.26229393 12.14430554 -32.1774025 12.1386652 C-31.26759259 12.13600716 -30.35778267 12.13334911 -29.42040277 12.13061053 C-27.13306793 12.00718065 -25.20517803 11.5810428 -23 11 C-21.00036972 10.96154557 -18.99948367 10.95455719 -17 11 C-17 9.35 -17 7.7 -17 6 C-13.68455701 4.89485234 -10.79589889 4.67892369 -7.3125 4.4375 C-6.13300781 4.35371094 -4.95351563 4.26992187 -3.73828125 4.18359375 C-2.38283203 4.09271484 -2.38283203 4.09271484 -1 4 C-0.67 2.68 -0.34 1.36 0 0 Z " fill="#CEB89F" transform="translate(355,178)"/>
<path d="M0 0 C104.28 0 208.56 0 316 0 C316 1.65 316 3.3 316 5 C320.62 5 325.24 5 330 5 C330 7.31 330 9.62 330 12 C331.98 12 333.96 12 336 12 C336 16.62 336 21.24 336 26 C333.36 26 330.72 26 328 26 C328 21.71 328 17.42 328 13 C323.71 13 319.42 13 315 13 C315 10.36 315 7.72 315 5 C211.38 5 107.76 5 1 5 C1 7.31 1 9.62 1 12 C-3.95 12 -8.9 12 -14 12 C-14 9.69 -14 7.38 -14 5 C-9.38 5 -4.76 5 0 5 C0 3.35 0 1.7 0 0 Z " fill="#4B3A43" transform="translate(28,0)"/>
<path d="M0 0 C102.96 0 205.92 0 312 0 C312 1.65 312 3.3 312 5 C209.04 5 106.08 5 0 5 C0 3.35 0 1.7 0 0 Z " fill="#4F3846" transform="translate(29,199)"/>
<path d="M0 0 C1.98 0 3.96 0 6 0 C6 49.5 6 99 6 150 C4.02 150 2.04 150 0 150 C0 154.62 0 159.24 0 164 C-1.98 164 -3.96 164 -6 164 C-6 166.64 -6 169.28 -6 172 C-11.28 172 -16.56 172 -22 172 C-22 169.36 -22 166.72 -22 164 C-17.38 164 -12.76 164 -8 164 C-8 157.07 -8 150.14 -8 143 C-5.36 143 -2.72 143 0 143 C0 95.81 0 48.62 0 0 Z " fill="#4B3A41" transform="translate(364,27)"/>
<path d="M0 0 C1.98 0 3.96 0 6 0 C6 49.5 6 99 6 150 C4.02 150 2.04 150 0 150 C0 100.5 0 51 0 0 Z " fill="#554950" transform="translate(0,27)"/>
<path d="M0 0 C0.33 1.32 0.66 2.64 1 4 C104.62 4 208.24 4 315 4 C315.33 2.68 315.66 1.36 316 0 C316 1.65 316 3.3 316 5 C320.62 5 325.24 5 330 5 C330 7.31 330 9.62 330 12 C331.98 12 333.96 12 336 12 C336 16.62 336 21.24 336 26 C333.36 26 330.72 26 328 26 C328 21.71 328 17.42 328 13 C323.71 13 319.42 13 315 13 C315 10.36 315 7.72 315 5 C211.38 5 107.76 5 1 5 C1 7.31 1 9.62 1 12 C-3.95 12 -8.9 12 -14 12 C-14 9.69 -14 7.38 -14 5 C-9.38 5 -4.76 5 0 5 C0 3.35 0 1.7 0 0 Z " fill="#AFA4AA" transform="translate(28,0)"/>
<path d="M0 0 C102.96 0 205.92 0 312 0 C312 1.65 312 3.3 312 5 C309.36 5 306.72 5 304 5 C303.67 4.01 303.34 3.02 303 2 C203.34 2 103.68 2 1 2 C0.67 2.99 0.34 3.98 0 5 C0 3.35 0 1.7 0 0 Z " fill="#5B4442" transform="translate(29,199)"/>
<path d="M0 0 C0.33 0 0.66 0 1 0 C1 4.29 1 8.58 1 13 C-8.22946455 13.73911533 -17.34795651 14.14308476 -26.60421753 14.12025452 C-28.54551361 14.12153615 -28.54551361 14.12153615 -30.5260278 14.12284368 C-34.0745026 14.12505456 -37.62294659 14.12111473 -41.17141747 14.11606562 C-45.0144247 14.11171172 -48.85743045 14.11321102 -52.70043945 14.1139679 C-59.34421062 14.11449002 -65.98797189 14.11137587 -72.63174057 14.10573006 C-82.23729137 14.09757269 -91.84283744 14.09499551 -101.44839133 14.09374207 C-117.03607219 14.09155818 -132.62374778 14.08491613 -148.21142578 14.07543945 C-163.3455401 14.06624814 -178.47965298 14.05917573 -193.61376953 14.05493164 C-194.54800801 14.05466892 -195.4822465 14.05440619 -196.44479524 14.05413551 C-201.13200472 14.05283039 -205.81921421 14.0515667 -210.50642371 14.05032361 C-249.33761949 14.03997166 -288.1688094 14.02237146 -327 14 C-327 13.67 -327 13.34 -327 13 C-326.05009198 12.99739563 -326.05009198 12.99739563 -325.08099389 12.99473864 C-287.57050524 12.89177051 -250.06003464 12.78367101 -212.54958023 12.66888306 C-208.04835308 12.65511304 -203.5471258 12.64138601 -199.04589844 12.62768555 C-198.14976325 12.62495724 -197.25362806 12.62222894 -196.33033726 12.61941796 C-181.80922822 12.57531069 -167.28811142 12.53468816 -152.76698878 12.49534739 C-137.87339411 12.45492017 -122.97981389 12.4107622 -108.08624053 12.36312145 C-98.89184413 12.33382909 -89.69744882 12.30746689 -80.50303361 12.28482103 C-74.20303268 12.2690257 -67.90304944 12.24961536 -61.60306814 12.22733159 C-57.96519483 12.21457171 -54.32733513 12.20343513 -50.6894455 12.19658089 C-46.74966488 12.1891163 -42.80993458 12.17405452 -38.87017822 12.15821838 C-37.7145451 12.15724028 -36.55891198 12.15626217 -35.36825967 12.15525442 C-34.3152768 12.14977998 -33.26229393 12.14430554 -32.1774025 12.1386652 C-31.26759259 12.13600716 -30.35778267 12.13334911 -29.42040277 12.13061053 C-27.13306793 12.00718065 -25.20517803 11.5810428 -23 11 C-21.00036972 10.96154557 -18.99948367 10.95455719 -17 11 C-17 9.35 -17 7.7 -17 6 C-13.68455701 4.89485234 -10.79589889 4.67892369 -7.3125 4.4375 C-6.13300781 4.35371094 -4.95351563 4.26992187 -3.73828125 4.18359375 C-2.38283203 4.09271484 -2.38283203 4.09271484 -1 4 C-0.67 2.68 -0.34 1.36 0 0 Z " fill="#E5D7C2" transform="translate(355,178)"/>
<path d="M0 0 C1.98 0 3.96 0 6 0 C6 0.33 6 0.66 6 1 C4.35 1 2.7 1 1 1 C1 49.84 1 98.68 1 149 C2.65 149 4.3 149 6 149 C6 149.33 6 149.66 6 150 C4.02 150 2.04 150 0 150 C0 154.62 0 159.24 0 164 C-1.98 164 -3.96 164 -6 164 C-6 166.64 -6 169.28 -6 172 C-11.28 172 -16.56 172 -22 172 C-22 169.36 -22 166.72 -22 164 C-17.38 164 -12.76 164 -8 164 C-8 157.07 -8 150.14 -8 143 C-5.36 143 -2.72 143 0 143 C0 95.81 0 48.62 0 0 Z " fill="#9E9392" transform="translate(364,27)"/>
<path d="M0 0 C1.98 0 3.96 0 6 0 C6 4.62 6 9.24 6 14 C8.64 14 11.28 14 14 14 C14 16.64 14 19.28 14 22 C15.39025391 21.98259766 15.39025391 21.98259766 16.80859375 21.96484375 C18.00613281 21.95582031 19.20367188 21.94679687 20.4375 21.9375 C21.63246094 21.92589844 22.82742187 21.91429687 24.05859375 21.90234375 C27 22 27 22 28 23 C28 24.65 28 26.3 28 28 C18.76 28 9.52 28 0 28 C0 18.76 0 9.52 0 0 Z " fill="#F6FAF7" transform="translate(0,177)"/>
<path d="M0 0 C1.98 0 3.96 0 6 0 C6 9.24 6 18.48 6 28 C-3.24 28 -12.48 28 -22 28 C-22 26.02 -22 24.04 -22 22 C-16.72 22 -11.44 22 -6 22 C-6 19.36 -6 16.72 -6 14 C-4.02 14 -2.04 14 0 14 C0 9.38 0 4.76 0 0 Z " fill="#FAFAF8" transform="translate(364,177)"/>
<path d="M0 0 C9.24 0 18.48 0 28 0 C28 1.65 28 3.3 28 5 C23.38 5 18.76 5 14 5 C14 7.31 14 9.62 14 12 C11.36 12 8.72 12 6 12 C6 16.95 6 21.9 6 27 C4.02 27 2.04 27 0 27 C0 18.09 0 9.18 0 0 Z " fill="#FBFBFB" transform="translate(0,0)"/>
<path d="M0 0 C1.5 1.375 1.5 1.375 3 3 C3 3.66 3 4.32 3 5 C102.33 5 201.66 5 304 5 C304 5.33 304 5.66 304 6 C203.68 6 103.36 6 0 6 C0 4.02 0 2.04 0 0 Z " fill="#D4BEAD" transform="translate(29,192)"/>
<path d="M0 0 C2.64 0 5.28 0 8 0 C8 4.62 8 9.24 8 14 C5.69 14 3.38 14 1 14 C1 61.19 1 108.38 1 157 C3.31 157 5.62 157 8 157 C8 159.31 8 161.62 8 164 C5.36 164 2.72 164 0 164 C0 109.88 0 55.76 0 0 Z " fill="#CAC3C8" transform="translate(6,13)"/>
<path d="M0 0 C8.58 0 17.16 0 26 0 C26 8.58 26 17.16 26 26 C24.35 26 22.7 26 21 26 C20.67 21.05 20.34 16.1 20 11 C17.525 10.505 17.525 10.505 15 10 C15 8.35 15 6.7 15 5 C10.05 5 5.1 5 0 5 C0 3.35 0 1.7 0 0 Z " fill="#FCFCFB" transform="translate(344,0)"/>
<path d="M0 0 C0.33 1.32 0.66 2.64 1 4 C44.56 4 88.12 4 133 4 C133 4.33 133 4.66 133 5 C89.44 5 45.88 5 1 5 C1 7.31 1 9.62 1 12 C-3.95 12 -8.9 12 -14 12 C-14 9.69 -14 7.38 -14 5 C-9.38 5 -4.76 5 0 5 C0 3.35 0 1.7 0 0 Z " fill="#AEA2AA" transform="translate(28,0)"/>
<path d="M0 0 C4.62 0 9.24 0 14 0 C14 2.31 14 4.62 14 7 C15.98 7 17.96 7 20 7 C20 11.62 20 16.24 20 21 C17.69 21 15.38 21 13 21 C13 16.38 13 11.76 13 7 C8.71 7 4.42 7 0 7 C0 4.69 0 2.38 0 0 Z " fill="#5F574F" transform="translate(344,5)"/>
<path d="M0 0 C0.33 0 0.66 0 1 0 C1 28.38 1 56.76 1 86 C5.62 86 10.24 86 15 86 C15 83.69 15 81.38 15 79 C17.31 79 19.62 79 22 79 C21.2884375 79.495 21.2884375 79.495 20.5625 80 C18.22521971 82.63914362 18.22521971 82.63914362 18 90 C12.39 90 6.78 90 1 90 C1 89.34 1 88.68 1 88 C0.34 87.67 -0.32 87.34 -1 87 C-0.67 58.29 -0.34 29.58 0 0 Z " fill="#B0E3C6" transform="translate(163,55)"/>
<path d="M0 0 C4.62 0 9.24 0 14 0 C14 2.31 14 4.62 14 7 C13.67 7 13.34 7 13 7 C13 5.02 13 3.04 13 1 C11.54054712 1.08708669 10.08234132 1.19526907 8.625 1.3125 C7.40683594 1.39951172 7.40683594 1.39951172 6.1640625 1.48828125 C3.62078662 1.82990528 3.62078662 1.82990528 2 5 C1.78739179 7.56522004 1.68876991 10.02562097 1.68115234 12.5925293 C1.67110672 13.36349945 1.6610611 14.1344696 1.65071106 14.92880249 C1.61981895 17.47726699 1.60282733 20.02562615 1.5859375 22.57421875 C1.56723068 24.34113983 1.54765764 26.10805194 1.5272522 27.87495422 C1.47587354 32.52571322 1.43627855 37.1765012 1.39910889 41.82739258 C1.35910515 46.5731527 1.30799627 51.31879167 1.2578125 56.06445312 C1.16098534 65.37621704 1.07660231 74.68804928 1 84 C4.96 84 8.92 84 13 84 C13.33 82.68 13.66 81.36 14 80 C14 81.98 14 83.96 14 86 C9.38 86 4.76 86 0 86 C0 57.62 0 29.24 0 0 Z " fill="#379A61" transform="translate(164,55)"/>
<path d="M0 0 C1.22589844 0.01353516 1.22589844 0.01353516 2.4765625 0.02734375 C3.41628906 0.04474609 3.41628906 0.04474609 4.375 0.0625 C4.375 2.3725 4.375 4.6825 4.375 7.0625 C3.715 7.0625 3.055 7.0625 2.375 7.0625 C2.045 5.4125 1.715 3.7625 1.375 2.0625 C1.045 2.3925 0.715 2.7225 0.375 3.0625 C-1.29117115 3.10313832 -2.95888095 3.105221 -4.625 3.0625 C-5.8085295 6.79096782 -5.74523645 10.32535936 -5.73852539 14.21777344 C-5.73874443 15.28666557 -5.73874443 15.28666557 -5.7389679 16.37715149 C-5.73827291 18.72542395 -5.73049994 21.07361645 -5.72265625 23.421875 C-5.7207906 25.05283566 -5.71936739 26.68379688 -5.71836853 28.3147583 C-5.71455494 32.60224969 -5.70473454 36.88970708 -5.69366455 41.17718506 C-5.68342553 45.55431661 -5.67886557 49.93145367 -5.67382812 54.30859375 C-5.66311123 62.89324475 -5.64604872 71.47786814 -5.625 80.0625 C-4.305 80.7225 -2.985 81.3825 -1.625 82.0625 C-3.5 83.125 -3.5 83.125 -5.625 84.0625 C-6.285 83.7325 -6.945 83.4025 -7.625 83.0625 C-7.6481502 72.8139961 -7.66592879 62.56549839 -7.67681217 52.31697369 C-7.68203512 47.558393 -7.68912215 42.79983017 -7.70043945 38.04125977 C-7.71128916 33.45067481 -7.71728128 28.86010706 -7.71987724 24.26951027 C-7.72172772 22.51639345 -7.72534114 20.76327759 -7.73073006 19.01016808 C-7.73796809 16.5584343 -7.73898977 14.106772 -7.73852539 11.6550293 C-7.74212067 10.92710678 -7.74571594 10.19918427 -7.74942017 9.44920349 C-7.74309644 6.37239819 -7.60624887 4.00624662 -6.625 1.0625 C-4.21954362 -0.14022819 -2.67503047 -0.03821472 0 0 Z " fill="#219C52" transform="translate(172.625,55.9375)"/>
<path d="M0 0 C0.33 0 0.66 0 1 0 C1 1.98 1 3.96 1 6 C3.64 6 6.28 6 9 6 C9 8.31 9 10.62 9 13 C10.98 13 12.96 13 15 13 C15 15.31 15 17.62 15 20 C17.31 20 19.62 20 22 20 C22 24.95 22 29.9 22 35 C19.69 35 17.38 35 15 35 C15 37.64 15 40.28 15 43 C12.36 43 9.72 43 7 43 C7 42.34 7 41.68 7 41 C9.475 40.505 9.475 40.505 12 40 C12.33 37.69 12.66 35.38 13 33 C15.97 32.505 15.97 32.505 19 32 C19.33 29.69 19.66 27.38 20 25 C19.01 24.34 18.02 23.68 17 23 C16.01 22.34 15.02 21.68 14 21 C13.8125 17.875 13.8125 17.875 14 15 C12.02 15 10.04 15 8 15 C8 12.36 8 9.72 8 7 C5.36 7 2.72 7 0 7 C0 4.69 0 2.38 0 0 Z " fill="#5AAD7D" transform="translate(192,70)"/>
<path d="M0 0 C2.64 0 5.28 0 8 0 C8 0.33 8 0.66 8 1 C6.35 1.33 4.7 1.66 3 2 C3.061875 2.78375 3.12375 3.5675 3.1875 4.375 C3.0946875 5.674375 3.0946875 5.674375 3 7 C2.01 7.66 1.02 8.32 0 9 C-0.25030977 11.58380177 -0.25030977 11.58380177 0 14 C-3.82989106 15.80230168 -6.78121808 16.19622241 -11 16 C-11.99 18.475 -11.99 18.475 -13 21 C-13.33 21 -13.66 21 -14 21 C-14 18.69 -14 16.38 -14 14 C-11.69 14 -9.38 14 -7 14 C-7.020625 12.865625 -7.04125 11.73125 -7.0625 10.5625 C-7 7 -7 7 -6 6 C-4.00041636 5.95919217 -1.99954746 5.95745644 0 6 C0 4.02 0 2.04 0 0 Z " fill="#CFECDB" transform="translate(199,113)"/>
<path d="M0 0 C2.64 0 5.28 0 8 0 C8 4.29 8 8.58 8 13 C5.36 13 2.72 13 0 13 C0 8.71 0 4.42 0 0 Z " fill="#5C4E53" transform="translate(6,13)"/>
<path d="M0 0 C2.31 0 4.62 0 7 0 C7 4.62 7 9.24 7 14 C4.69 14 2.38 14 0 14 C0 9.38 0 4.76 0 0 Z " fill="#584A47" transform="translate(357,177)"/>
<path d="M0 0 C4.62 0 9.24 0 14 0 C14 2.31 14 4.62 14 7 C9.38 7 4.76 7 0 7 C0 4.69 0 2.38 0 0 Z " fill="#5A4B52" transform="translate(14,5)"/>
<path d="M0 0 C4.62 0 9.24 0 14 0 C14 1.98 14 3.96 14 6 C9.38 6 4.76 6 0 6 C0 4.02 0 2.04 0 0 Z " fill="#D1BEA5" transform="translate(342,185)"/>
<path d="M0 0 C4.29 0 8.58 0 13 0 C13 1.98 13 3.96 13 6 C8.71 6 4.42 6 0 6 C0 4.02 0 2.04 0 0 Z " fill="#413E37" transform="translate(15,192)"/>
<path d="M0 0 C4.29 0 8.58 0 13 0 C13 1.98 13 3.96 13 6 C8.71 6 4.42 6 0 6 C0 4.02 0 2.04 0 0 Z " fill="#4B3938" transform="translate(343,192)"/>
<path d="M0 0 C1.98 0 3.96 0 6 0 C6 4.29 6 8.58 6 13 C4.02 13 2.04 13 0 13 C0 8.71 0 4.42 0 0 Z " fill="#483E3D" transform="translate(7,177)"/>
<path d="M0 0 C4.62 0 9.24 0 14 0 C14 1.65 14 3.3 14 5 C9.38 5 4.76 5 0 5 C0 3.35 0 1.7 0 0 Z " fill="#D2BEA5" transform="translate(14,185)"/>
<path d="M0 0 C4.29 0 8.58 0 13 0 C13 1.65 13 3.3 13 5 C8.71 5 4.42 5 0 5 C0 3.35 0 1.7 0 0 Z " fill="#4B3A3F" transform="translate(344,6)"/>
<path d="M0 0 C0.33 0 0.66 0 1 0 C1.33 7.26 1.66 14.52 2 22 C-3.28 22 -8.56 22 -14 22 C-14 19.36 -14 16.72 -14 14 C-9.38 14 -4.76 14 0 14 C0 9.38 0 4.76 0 0 Z M-13 15 C-13 16.98 -13 18.96 -13 21 C-8.71 21 -4.42 21 0 21 C0 19.02 0 17.04 0 15 C-4.29 15 -8.58 15 -13 15 Z " fill="#90897C" transform="translate(356,177)"/>
<path d="M0 0 C2.64 0 5.28 0 8 0 C8 2.31 8 4.62 8 7 C5.36 7 2.72 7 0 7 C0 4.69 0 2.38 0 0 Z " fill="#CBBCAB" transform="translate(6,170)"/>
<path d="M0 0 C2.64 0 5.28 0 8 0 C8 1.98 8 3.96 8 6 C5.36 6.33 2.72 6.66 0 7 C0 4.69 0 2.38 0 0 Z " fill="#D1C4B5" transform="translate(356,170)"/>
<path d="M0 0 C2.31 0 4.62 0 7 0 C6.525625 0.37125 6.05125 0.7425 5.5625 1.125 C3.4178599 3.37756883 3.4178599 3.37756883 3 9 C-2.61 8.67 -8.22 8.34 -14 8 C-14 7.67 -14 7.34 -14 7 C-9.38 7 -4.76 7 0 7 C0 4.69 0 2.38 0 0 Z " fill="#B6E3C8" transform="translate(178,134)"/>
<path d="M0 0 C0.33 0.66 0.66 1.32 1 2 C1.99 2.33 2.98 2.66 4 3 C4 3.33 4 3.66 4 4 C8.95 4 13.9 4 19 4 C18.67 4.66 18.34 5.32 18 6 C12.06 6 6.12 6 0 6 C0 4.02 0 2.04 0 0 Z " fill="#F4ECE2" transform="translate(28,185)"/>
<path d="M0 0 C1.65 0 3.3 0 5 0 C5 2.97 5 5.94 5 9 C4.34 9 3.68 9 3 9 C2.67 8.67 2.34 8.34 2 8 C1.01 8.495 1.01 8.495 0 9 C0 6.03 0 3.06 0 0 Z " fill="#493A3A" transform="translate(365,28)"/>
<path d="M0 0 C0.33 0 0.66 0 1 0 C1 2.31 1 4.62 1 7 C-3.95 7 -8.9 7 -14 7 C-14 6.34 -14 5.68 -14 5 C-7.565 4.505 -7.565 4.505 -1 4 C-0.67 2.68 -0.34 1.36 0 0 Z " fill="#ECE6DC" transform="translate(355,178)"/>
<path d="M0 0 C2.64 0 5.28 0 8 0 C8 2.31 8 4.62 8 7 C9.98 7 11.96 7 14 7 C14 7.33 14 7.66 14 8 C11.36 8 8.72 8 6 8 C5.67 6.35 5.34 4.7 5 3 C4.34 3 3.68 3 3 3 C3 2.34 3 1.68 3 1 C2.01 0.67 1.02 0.34 0 0 Z " fill="#48A56F" transform="translate(178,62)"/>
<path d="M0 0 C0 1.65 0 3.3 0 5 C-6.625 5.25 -6.625 5.25 -10 3 C-10 2.34 -10 1.68 -10 1 C-8.5209084 0.83266843 -7.04172444 0.66615314 -5.5625 0.5 C-4.32693359 0.36078125 -4.32693359 0.36078125 -3.06640625 0.21875 C-1 0 -1 0 0 0 Z " fill="#513D44" transform="translate(28,192)"/>
<path d="M0 0 C0.33 0 0.66 0 1 0 C1 7.26 1 14.52 1 22 C0.01 21.67 -0.98 21.34 -2 21 C-1.835 20.2575 -1.67 19.515 -1.5 18.75 C-0.91500732 14.36255488 -0.97356327 10.12607507 -1.0625 5.70703125 C-1 3 -1 3 0 0 Z " fill="#503A4A" transform="translate(3,141)"/>
<path d="M0 0 C0.33 0 0.66 0 1 0 C1 7.26 1 14.52 1 22 C-1.42115191 19.57884809 -1.60948898 18.35839475 -2 15 C-1.71281674 13.3247643 -1.36871088 11.65919896 -1 10 C-0.61592758 6.67137239 -0.30452011 3.33676293 0 0 Z " fill="#4F3A49" transform="translate(3,117)"/>
<path d="M0 0 C2.31 0 4.62 0 7 0 C7 0.66 7 1.32 7 2 C6.01 2 5.02 2 4 2 C3.34 3.98 2.68 5.96 2 8 C1.34 8 0.68 8 0 8 C0 5.36 0 2.72 0 0 Z " fill="#CCEDDA" transform="translate(207,105)"/>
<path d="M0 0 C0.99 0.33 1.98 0.66 3 1 C3.6875 3.8125 3.6875 3.8125 4 7 C2.5625 8.875 2.5625 8.875 1 10 C0 9 0 9 -0.09765625 6.93359375 C-0.08605469 6.10988281 -0.07445312 5.28617188 -0.0625 4.4375 C-0.05347656 3.61121094 -0.04445313 2.78492188 -0.03515625 1.93359375 C-0.02355469 1.29550781 -0.01195312 0.65742188 0 0 Z " fill="#4A3842" transform="translate(358,14)"/>
<path d="M0 0 C1.32 0 2.64 0 4 0 C4 2.31 4 4.62 4 7 C3.01 6.67 2.02 6.34 1 6 C0.67 4.02 0.34 2.04 0 0 Z " fill="#30985B" transform="translate(196,77)"/>
<path d="M0 0 C1.98 0 3.96 0 6 0 C5.01 1.98 4.02 3.96 3 6 C2.01 6 1.02 6 0 6 C0 4.02 0 2.04 0 0 Z " fill="#EAFAEF" transform="translate(179,55)"/>
<path d="M0 0 C2.31 0 4.62 0 7 0 C4.66666667 2.33333333 2.33333333 4.66666667 0 7 C0 4.69 0 2.38 0 0 Z " fill="#BBEACF" transform="translate(185,127)"/>
<path d="M0 0 C0.33 0 0.66 0 1 0 C1 1.98 1 3.96 1 6 C-0.65 5.67 -2.3 5.34 -4 5 C-3.67 4.01 -3.34 3.02 -3 2 C-2.01 2 -1.02 2 0 2 C0 1.34 0 0.68 0 0 Z " fill="#2E9659" transform="translate(198,113)"/>
<path d="M0 0 C1.32 0 2.64 0 4 0 C4 1.98 4 3.96 4 6 C3.34 6 2.68 6 2 6 C1.87625 5.360625 1.7525 4.72125 1.625 4.0625 C1.315625 3.0415625 1.315625 3.0415625 1 2 C0.34 1.67 -0.32 1.34 -1 1 C-0.67 0.67 -0.34 0.34 0 0 Z " fill="#259954" transform="translate(202,85)"/>
<path d="M0 0 C0.33 0.66 0.66 1.32 1 2 C1.99 2.33 2.98 2.66 4 3 C3.67 3.66 3.34 4.32 3 5 C3.66 5.33 4.32 5.66 5 6 C3.35 6 1.7 6 0 6 C0 4.02 0 2.04 0 0 Z " fill="#EFE8DA" transform="translate(28,185)"/>
<path d="M0 0 C0.33 0 0.66 0 1 0 C1 1.98 1 3.96 1 6 C-1.31 6 -3.62 6 -6 6 C-4 4 -4 4 -1 3 C-0.67 2.01 -0.34 1.02 0 0 Z " fill="#34965D" transform="translate(191,121)"/>
<path d="M0 0 C2.64 0 5.28 0 8 0 C8 0.33 8 0.66 8 1 C7.236875 1.0825 6.47375 1.165 5.6875 1.25 C2.47626739 2.14615794 1.70625501 3.21611025 0 6 C0 4.02 0 2.04 0 0 Z " fill="#BAEDD0" transform="translate(199,113)"/>
</svg>
